<svg width="89" height="63" viewBox="0 0 89 63" fill="none" xmlns="http://www.w3.org/2000/svg">
<path d="M52.7852 12.835H43.8203V37.4081H52.7852V12.835Z" fill="#535359"/>
<path d="M49.4206 30.4312V17.3945L45.4805 19.5789V32.6106L49.4206 30.4312Z" fill="#808285"/>
<path d="M43.1896 20.9498L45.1876 19.7904L38.2508 15.8048L36.2402 16.9567L43.1896 20.9498Z" fill="#E6E7E8"/>
<path d="M36.2402 16.9563V29.8188L43.1896 33.8094V20.9494L36.2402 16.9563Z" fill="#A7A9AC"/>
<path d="M43.1895 33.8105L45.1883 32.6586V19.7911L43.1895 20.9505V33.8105Z" fill="#BCBEC0"/>
<path d="M43.8184 31.5611L44.5739 31.1258V25.1622L43.8184 25.5877V31.5611Z" fill="#535359"/>
<path d="M44.145 27.6064V28.1707L43.0977 27.5666V27.0098L44.145 27.6064Z" fill="#E31B25"/>
<path d="M44.1453 27.6057L46.2892 26.3717L45.251 25.7646L43.0996 27.0061L44.1478 27.6032L44.1453 27.6057Z" fill="#FF3F4A"/>
<path d="M46.2879 26.373V26.9303L44.1465 28.1718V27.607L46.2879 26.373Z" fill="#9C251F"/>
<path d="M40.2423 22.6396L42.2428 21.4777L35.301 17.4971L33.293 18.6465L40.2423 22.6396Z" fill="#E6E7E8"/>
<path d="M33.293 18.6455V31.508L40.2423 35.4986V22.6386L33.293 18.6455Z" fill="#A7A9AC"/>
<path d="M40.2422 35.4994L42.2435 34.3475V21.4775L40.2422 22.6394V35.4994Z" fill="#BCBEC0"/>
<path d="M40.875 33.2521L41.6255 32.8167V26.8457L40.875 27.2761V33.2521Z" fill="#535359"/>
<path d="M41.1947 29.299V29.8608L40.1523 29.2567V28.6974L41.1947 29.299Z" fill="#E31B25"/>
<path d="M41.1961 29.2992L43.34 28.0652L42.3018 27.4581L40.1504 28.6971L41.1961 29.2992Z" fill="#FF3F4A"/>
<path d="M43.3417 28.0646V28.6219L41.1953 29.8608V29.2986L43.3417 28.0646Z" fill="#9C251F"/>
<path d="M37.4616 24.2412L39.4596 23.0794L32.5178 19.0938L30.5098 20.2457L37.4616 24.2412Z" fill="#E6E7E8"/>
<path d="M30.5098 20.2441V33.1042L37.4616 37.0948V24.2372L30.5098 20.2441Z" fill="#A7A9AC"/>
<path d="M37.4609 37.097L39.4598 35.9476V23.0801L37.4609 24.2419V37.097Z" fill="#BCBEC0"/>
<path d="M38.0898 34.8511L38.8453 34.4158V28.4473L38.0898 28.8777V34.8511Z" fill="#535359"/>
<path d="M38.416 30.8956V31.4574L37.3711 30.8533V30.2939L38.416 30.8956Z" fill="#E31B25"/>
<path d="M38.4168 30.8949L40.5657 29.6584L39.525 29.0538L37.3711 30.2953L38.4168 30.8974V30.8949Z" fill="#FF3F4A"/>
<path d="M40.5669 29.6573V30.2171L38.418 31.4561V30.8938L40.5669 29.6573Z" fill="#9C251F"/>
<path d="M34.5124 25.9269L36.5104 24.7651L29.5711 20.7794L27.5605 21.9338L34.5124 25.9269Z" fill="#E6E7E8"/>
<path d="M27.5605 21.9338V34.7963L34.5124 38.7869V25.9294L27.5605 21.9363V21.9338Z" fill="#A7A9AC"/>
<path d="M34.5117 38.7875L36.5106 37.6331V24.7656L34.5117 25.9275V38.7875Z" fill="#BCBEC0"/>
<path d="M35.1426 36.5378L35.8931 36.1024V30.1339L35.1426 30.5643V36.5378Z" fill="#535359"/>
<path d="M35.4648 32.5831V33.1449L34.4199 32.5408V31.9814L35.4648 32.5831Z" fill="#E31B25"/>
<path d="M35.4656 32.5824L37.6121 31.3459L36.5739 30.7413L34.4199 31.9778L35.4656 32.5799V32.5824Z" fill="#FF3F4A"/>
<path d="M37.6132 31.3448V31.9046L35.4668 33.1436V32.5813L37.6132 31.3448Z" fill="#9C251F"/>
<path d="M19.4931 34.4312L33.7368 26.3654L26.795 22.3848L12.5312 30.4456L19.4931 34.4312Z" fill="#E6E7E8"/>
<path d="M12.5312 30.447V43.3045L19.4956 47.2976V34.4327L12.5312 30.447Z" fill="#A7A9AC"/>
<path d="M19.4941 47.2935L33.7379 39.2203V26.3652L19.4941 34.431V47.2935Z" fill="#BCBEC0"/>
<path d="M20.1953 45.0617L33.1137 37.6975V31.7314L20.1953 39.0932V45.0617Z" fill="#535359"/>
<path d="M21.3477 42.0614L31.8179 36.0481V33.8662L21.3477 39.8845V42.0614Z" fill="#E6E7E8"/>
<path d="M24.0039 35.7613L32.5061 30.9745V30.248L24.0039 35.0398V35.7613Z" fill="#303033"/>
<path d="M28.8203 31.6157L32.5678 29.5084V28.5605L28.8203 30.6554V31.6157Z" fill="#E31B25"/>
<path d="M18.8433 47.5544V34.667L15.9414 36.3364V49.2262L18.8433 47.5544Z" fill="#808285"/>
<path d="M10.5273 31.8447V58.8958L50.7754 35.6985V8.64746L10.5273 31.8447ZM48.3798 29.7549L12.9255 50.1931V39.1816L48.3798 18.7434V29.7549Z" fill="#939598"/>
<path d="M50.0809 23.9256C50.0809 24.3411 49.7807 24.8611 49.4179 25.0701C49.0477 25.2766 48.75 25.1049 48.75 24.6869C48.75 24.6397 48.75 24.5949 48.76 24.5401C49.0427 24.3411 49.2678 23.958 49.3279 23.6047C49.3529 23.5773 49.3929 23.5599 49.4204 23.5425C49.7857 23.3335 50.0834 23.4977 50.0834 23.9256H50.0809Z" fill="#535359"/>
<path d="M49.3253 23.6046C49.2678 23.9576 49.0403 24.3405 48.7578 24.5394C48.8128 24.1963 49.0403 23.8035 49.3253 23.6046Z" fill="#303033"/>
<path d="M52.47 11.9365L13.7773 34.2406V56.5423L52.47 34.2382V11.9365ZM16.173 52.3203V33.7953L51.6272 13.3546V31.8846L16.173 52.3203Z" fill="#F1F2F2"/>
<path d="M14.0867 62.5424L0.988281 55.0215V24.0295L25.1296 26.6817L15.4571 32.4785L15.6446 55.1782L14.0867 62.5424Z" fill="#E6E7E8"/>
<path d="M41.2363 0.830078L0.988281 24.0299L14.0867 31.5508L22.9315 29.1848L54.3348 8.35103L41.2363 0.830078Z" fill="#F1F2F2"/>
<path d="M14.0859 31.5524V62.5443L54.3315 39.3446V8.35266L14.0859 31.5524ZM51.9358 32.055L16.4816 52.4907V33.9657L51.9358 13.53V32.0575V32.055Z" fill="#BCBEC0"/>
<path d="M25.6537 52.7862L16.4863 58.0531V55.5179L25.6537 50.251V52.7862Z" fill="#3576AB"/>
<path d="M29.4622 48.0664L27.1406 49.3999V51.9301L29.4622 50.5966V48.0664Z" fill="#E31B25"/>
<path d="M52.0822 17.6961C52.1925 17.7612 52.3731 17.7612 52.4809 17.6961C52.5361 17.6635 52.5661 17.6209 52.5661 17.5808V17.661C52.5661 17.7061 52.5361 17.7437 52.4809 17.7763C52.3731 17.8414 52.1925 17.8414 52.0822 17.7763C52.027 17.7437 52.002 17.7061 52.002 17.661V17.5808C52.002 17.6209 52.027 17.6635 52.0822 17.6961Z" fill="#0F2034"/>
<path d="M52.0827 17.4715C52.1931 17.404 52.3736 17.404 52.4814 17.4715C52.5918 17.5314 52.5918 17.6364 52.4814 17.6988C52.3736 17.7637 52.1931 17.7637 52.0827 17.6988C51.9724 17.6364 51.9724 17.5339 52.0827 17.4715Z" fill="#BCBEC0"/>
<path d="M52.056 14.9459C52.1836 15.0205 52.3862 15.0205 52.5113 14.9459C52.5713 14.9111 52.6039 14.8638 52.6039 14.8165V17.598C52.6039 17.6453 52.5713 17.6926 52.5113 17.7274C52.3837 17.802 52.1811 17.802 52.056 17.7274C51.996 17.6926 51.9609 17.6453 51.9609 17.598V14.8165C51.9609 14.8638 51.9935 14.9111 52.056 14.9459Z" fill="#1D374E"/>
<path d="M52.0565 14.6851C52.184 14.6104 52.3864 14.6104 52.5114 14.6851C52.6339 14.7598 52.6339 14.8718 52.5114 14.9465C52.3839 15.0212 52.1815 15.0212 52.0565 14.9465C51.9265 14.8718 51.9265 14.7598 52.0565 14.6851Z" fill="#2A4E68"/>
<path d="M52.0822 14.8393C52.1925 14.902 52.3731 14.902 52.4809 14.8393C52.5361 14.8067 52.5661 14.7667 52.5661 14.7266V14.8067C52.5661 14.8493 52.5361 14.8894 52.4809 14.9245C52.3731 14.9872 52.1925 14.9872 52.0822 14.9245C52.027 14.8894 52.002 14.8493 52.002 14.8067V14.7266C52.002 14.7667 52.027 14.8067 52.0822 14.8393Z" fill="#1D374E"/>
<path d="M52.0827 14.6132C52.1931 14.5482 52.3736 14.5482 52.4814 14.6132C52.5918 14.6756 52.5918 14.778 52.4814 14.8405C52.3736 14.9029 52.1931 14.9029 52.0827 14.8405C51.9724 14.778 51.9724 14.6756 52.0827 14.6132Z" fill="#2A4E68"/>
<path d="M52.0822 31.3657C52.1925 31.4283 52.3731 31.4283 52.4809 31.3657C52.5361 31.3331 52.5661 31.2905 52.5661 31.2479V31.3306C52.5661 31.3707 52.5361 31.4108 52.4809 31.4409C52.3731 31.506 52.1925 31.506 52.0822 31.4409C52.027 31.4108 52.002 31.3682 52.002 31.3306V31.2479C52.002 31.2905 52.027 31.3306 52.0822 31.3657Z" fill="#0F2034"/>
<path d="M52.0827 31.1347C52.1931 31.0747 52.3736 31.0747 52.4814 31.1347C52.5918 31.1971 52.5918 31.302 52.4814 31.3645C52.3736 31.4269 52.1931 31.4269 52.0827 31.3645C51.9724 31.302 51.9724 31.1971 52.0827 31.1347Z" fill="#BCBEC0"/>
<path d="M52.056 28.6157C52.1836 28.6878 52.3862 28.6878 52.5113 28.6157C52.5713 28.5809 52.6039 28.5311 52.6039 28.4863V31.2703C52.6039 31.3176 52.5713 31.3648 52.5113 31.3997C52.3837 31.4718 52.1811 31.4718 52.056 31.3997C51.996 31.3648 51.9609 31.3176 51.9609 31.2703V28.4863C51.9609 28.5311 51.9935 28.5809 52.056 28.6157Z" fill="#1D374E"/>
<path d="M52.0565 28.3531C52.184 28.2833 52.3864 28.2833 52.5114 28.3531C52.6339 28.4253 52.6339 28.5423 52.5114 28.617C52.3839 28.6893 52.1815 28.6893 52.0565 28.617C51.9265 28.5423 51.9265 28.4278 52.0565 28.3531Z" fill="#2A4E68"/>
<path d="M52.0822 28.5078C52.1925 28.568 52.3731 28.568 52.4809 28.5078C52.5361 28.4753 52.5661 28.4352 52.5661 28.3926V28.4753C52.5661 28.5129 52.5361 28.558 52.4809 28.588C52.3731 28.6507 52.1925 28.6507 52.0822 28.588C52.027 28.5555 52.002 28.5129 52.002 28.4753V28.3926C52.002 28.4352 52.027 28.4753 52.0822 28.5078Z" fill="#1D374E"/>
<path d="M52.0827 28.2801C52.1931 28.2126 52.3736 28.2126 52.4814 28.2801C52.5918 28.34 52.5918 28.4449 52.4814 28.5074C52.3736 28.5673 52.1931 28.5673 52.0827 28.5074C51.9724 28.4449 51.9724 28.34 52.0827 28.2801Z" fill="#2A4E68"/>
<path d="M75.2535 41.7393C76.2662 42.324 76.6513 41.7393 76.1012 40.4406L70.7873 27.9438C70.2372 26.6526 69.3294 26.1301 68.7843 26.7919L63.4754 33.1908C62.9253 33.8551 63.3029 34.8727 64.3206 35.4573L75.2535 41.7393Z" fill="#303033"/>
<path d="M75.7748 41.2119C75.7323 41.2741 75.5698 41.2841 75.2547 41.1025L64.3218 34.823C64.0017 34.6414 63.8417 34.4423 63.7992 34.3329C63.7592 34.2209 63.7667 34.0119 63.9442 33.8029L69.2506 27.4065C69.4106 27.2149 69.6057 27.1652 69.7857 27.2722C69.9658 27.3742 70.1608 27.6478 70.3234 28.0235L75.6348 40.5203C75.8048 40.9283 75.8198 41.1473 75.7748 41.2119Z" fill="#FF9D26"/>
<path d="M68.3125 33.2049L69.6759 33.3691L68.5326 29.3834L71.262 34.2995L69.9011 34.1353L71.0393 38.1235L68.3125 33.2049Z" fill="#303033"/>
<path opacity="0.7" d="M87.745 34.3226V52.8501L52.2832 32.4144V13.8894L53.0559 14.3347L87.745 34.3226Z" fill="#0F2034"/>
<path d="M53.0529 31.9697L88.5096 52.4029L87.7444 52.8508L52.2852 32.4151V13.8851L53.0554 13.4423L53.0529 31.9697Z" fill="#0F2034"/>
<path d="M88.5096 33.878V52.4029L87.7444 52.8508V34.3233L52.2852 13.8851L53.0554 13.4423L88.5096 33.878Z" fill="#0F2034"/>
</svg>
