<svg width="33" height="69" viewBox="0 0 33 69" fill="none" xmlns="http://www.w3.org/2000/svg">
<path d="M14.159 67.5328V50.4284H14.155C14.179 50.2855 14.0952 50.1369 13.8976 50.0268C13.5463 49.8299 12.9754 49.8299 12.6261 50.0249C12.4285 50.1349 12.3467 50.2855 12.3746 50.4303H12.3706V67.5347C12.3567 67.6737 12.4405 67.8147 12.6301 67.9208C12.9814 68.1178 13.5523 68.1178 13.9015 67.9228C14.0912 67.8166 14.175 67.6737 14.157 67.5347H14.159V67.5328Z" fill="#FFAF2E"/>
<path d="M14.1544 50.4301C14.1784 50.2873 14.0946 50.1386 13.897 50.0286C13.6435 49.8877 13.2802 49.849 12.9648 49.9089C13.0966 49.934 13.2203 49.9765 13.3261 50.0402C13.5237 50.1599 13.6075 50.3201 13.5836 50.4765H13.5876V68.0346C13.7014 68.0095 13.8091 67.9728 13.901 67.9226C14.0906 67.8164 14.1744 67.6736 14.1564 67.5346H14.1584V50.4301H14.1544Z" fill="#E2901A"/>
<g style="mix-blend-mode:multiply" opacity="0.3">
<path d="M13.8974 50.0268C13.5461 49.8299 12.9753 49.8299 12.626 50.0249C12.4284 50.1349 12.3465 50.2855 12.3745 50.4303H12.3705V56.3435L14.1609 55.3435V50.4303H14.1569C14.1808 50.2875 14.097 50.1388 13.8994 50.0288L13.8974 50.0268Z" fill="#DD9122"/>
</g>
<path d="M18.4968 65.2819V47.6678H18.4928C18.5068 47.5752 18.4549 47.4806 18.3271 47.4092C18.1016 47.2817 17.7363 47.2817 17.5128 47.4092C17.385 47.4806 17.3331 47.5771 17.3511 47.6698H17.3491V65.2839C17.3391 65.3727 17.395 65.4634 17.5168 65.5329C17.7423 65.6584 18.1076 65.6603 18.3311 65.5329C18.4529 65.4653 18.5068 65.3727 18.4948 65.2839L18.4968 65.2819Z" fill="#D42D00"/>
<path d="M18.4949 47.6681C18.5089 47.5754 18.457 47.4808 18.3292 47.4094C18.1675 47.3187 17.934 47.2936 17.7324 47.3322C17.8163 47.3496 17.8961 47.3766 17.964 47.4171C18.0897 47.4944 18.1436 47.5967 18.1296 47.6971H18.1336V65.6027C18.2075 65.5872 18.2753 65.5641 18.3332 65.5312C18.455 65.4637 18.5089 65.371 18.4969 65.2822V47.6681H18.4929H18.4949Z" fill="#B70E00"/>
<g style="mix-blend-mode:multiply" opacity="0.3">
<path d="M18.3291 47.4092C18.1035 47.2817 17.7383 47.2817 17.5147 47.4092C17.387 47.4806 17.3351 47.5771 17.3531 47.6698H17.3511V53.5984L18.4987 52.9555V47.6698H18.4948C18.5087 47.5771 18.4568 47.4825 18.3291 47.4111V47.4092Z" fill="#B20F00"/>
</g>
<path d="M22.6452 62.9644V45.3503H22.6412C22.6552 45.2577 22.6033 45.1631 22.4756 45.0917C22.25 44.9642 21.8848 44.9642 21.6612 45.0917C21.5335 45.1631 21.4816 45.2596 21.4995 45.3523H21.4976V62.9664C21.4876 63.0552 21.5415 63.1459 21.6652 63.2154C21.8908 63.3409 22.256 63.3428 22.4796 63.2154C22.6013 63.1478 22.6552 63.0552 22.6432 62.9664L22.6452 62.9644Z" fill="#70B400"/>
<path d="M22.6433 45.3505C22.6573 45.2578 22.6054 45.1632 22.4777 45.0918C22.316 45.0011 22.0825 44.976 21.8809 45.0146C21.9647 45.0319 22.0445 45.059 22.1124 45.0995C22.2381 45.1767 22.292 45.279 22.2781 45.3794H22.2821V63.285C22.3559 63.2696 22.4238 63.2464 22.4816 63.2136C22.6034 63.146 22.6573 63.0534 22.6453 62.9646V45.3505H22.6413H22.6433Z" fill="#539500"/>
<g style="mix-blend-mode:multiply" opacity="0.3">
<path d="M22.4775 45.0917C22.252 44.9642 21.8867 44.9642 21.6632 45.0917C21.5354 45.1631 21.4835 45.2596 21.5015 45.3523H21.4995V51.2809L22.6472 50.638V45.3523H22.6432C22.6572 45.2596 22.6053 45.165 22.4775 45.0936V45.0917Z" fill="#4E9600"/>
</g>
<path d="M31.6968 4.09867C31.6968 4.09867 31.6788 4.08902 31.6708 4.08323L25.1194 0.405581C24.882 0.187432 24.5347 0.160404 24.1456 0.376623L2.05292 12.7165C1.33852 13.1161 0.757812 14.1876 0.757812 15.1084V49.8965C0.757812 50.4833 0.993288 50.8675 1.3485 50.966L7.8879 54.6803C8.11739 54.8212 8.42271 54.8174 8.75995 54.6301L30.8526 42.2902C31.567 41.8906 32.1478 40.8191 32.1478 39.8983V5.1122C32.1478 4.6064 31.9721 4.25118 31.6968 4.09867Z" fill="#6E7582"/>
<path d="M32.1479 19.7494V5.1122C32.1479 4.6064 31.9723 4.25118 31.6969 4.09867C31.6969 4.09867 31.6789 4.08902 31.671 4.08323L25.1196 0.405581C24.8821 0.187432 24.5349 0.160404 24.1458 0.376623L2.05307 12.7165C2.01715 12.7378 1.98123 12.7667 1.94531 12.7899L23.8305 25.014L32.1459 19.7494H32.1479Z" fill="#888F9E"/>
<path d="M18.3046 24.7076L0.773733 14.916C0.767746 14.9797 0.759766 15.0434 0.759766 15.1071V49.8952C0.759766 50.482 0.995238 50.8662 1.35045 50.9647L7.88985 54.679C8.11934 54.8199 8.42466 54.8161 8.7619 54.6288L18.3046 49.2986V24.7057V24.7076Z" fill="#59606B"/>
<path d="M30.8546 42.2955L8.7619 54.6354C8.0475 55.035 7.4668 54.6103 7.4668 53.6895V18.9014C7.4668 17.9787 8.0455 16.9072 8.7619 16.5095L30.8546 4.16963C31.569 3.77001 32.1497 4.19473 32.1497 5.11559V39.9036C32.1497 40.8264 31.571 41.8978 30.8546 42.2955Z" fill="#888F9E"/>
<g style="mix-blend-mode:screen" opacity="0.3">
<path d="M7.8899 54.6838L31.8644 4.22955C31.6429 3.98051 31.2797 3.92839 30.8526 4.16584L8.75995 16.5057C8.04555 16.9054 7.46484 17.8726 7.46484 18.666V53.9212C7.49278 54.176 7.64245 54.5602 7.8879 54.6857L7.8899 54.6838Z" fill="#888F9E"/>
</g>
<g style="mix-blend-mode:multiply" opacity="0.5">
<path d="M28.6115 40.3249L11.0068 50.1571C10.1727 50.6243 9.49219 50.2497 9.49219 49.3212V20.9985C9.49219 20.0718 10.1707 18.9386 11.0068 18.4714L28.6115 8.63924C29.4457 8.17206 30.1261 8.54851 30.1261 9.47516V37.7979C30.1261 38.7245 29.4476 39.8577 28.6115 40.3249ZM11.0068 18.9617C10.4141 19.2919 9.9332 20.0969 9.9332 20.7552V49.0779C9.9332 49.7362 10.4161 50.0007 11.0068 49.6706L28.6115 39.8384C29.2042 39.5083 29.6851 38.7033 29.6851 38.045V9.72033C29.6851 9.06203 29.2022 8.79754 28.6115 9.12766L11.0068 18.9598V18.9617Z" fill="#888F9E"/>
</g>
<g style="mix-blend-mode:multiply" opacity="0.5">
<path d="M14.3232 34.6201L13.8921 34.3999C13.8921 34.3999 13.8921 34.3999 13.8901 34.3999L13.8741 34.3922C13.8741 34.3922 13.8741 34.3922 13.8741 34.3961C13.6167 34.2629 13.2674 34.286 12.8822 34.5004C12.0937 34.9406 11.457 36.0045 11.457 36.8792C11.457 37.3079 11.6107 37.6072 11.8602 37.7539C11.8562 37.7539 11.8542 37.7539 11.8502 37.7578L12.3432 38.0146C12.3432 38.0146 12.2854 37.9258 12.1995 37.8466C12.4031 37.8582 12.6347 37.8061 12.8822 37.667C13.6706 37.2268 14.3073 36.1629 14.3073 35.2882C14.3073 35.014 14.2394 34.7977 14.1276 34.6355C14.2334 34.6626 14.3212 34.6239 14.3212 34.6239L14.3232 34.6201Z" fill="#888F9E"/>
</g>
<path d="M14.7272 35.4976C14.7272 36.3723 14.0885 37.4362 13.3021 37.8765C12.5157 38.3167 11.877 37.9634 11.877 37.0906C11.877 36.2178 12.5157 35.1519 13.3021 34.7117C14.0905 34.2715 14.7272 34.6248 14.7272 35.4976Z" fill="#B3BBC9"/>
<g style="mix-blend-mode:multiply">
<path d="M13.9599 35.9267C13.9599 36.3302 13.6645 36.8226 13.3012 37.0273C12.938 37.23 12.6426 37.0678 12.6426 36.6643C12.6426 36.2607 12.938 35.7683 13.3012 35.5637C13.6645 35.3609 13.9599 35.5231 13.9599 35.9267Z" fill="#888F9E"/>
</g>
<path d="M11.9868 37.1118C11.9868 36.2371 12.6255 35.1732 13.4119 34.7329C13.6833 34.5804 13.9348 34.5302 14.1504 34.5553C13.9129 34.4915 13.6195 34.5321 13.3001 34.7117C12.5137 35.1519 11.875 36.2158 11.875 37.0905C11.875 37.6621 12.1504 38.0058 12.5616 38.0541C12.2143 37.9595 11.9848 37.6312 11.9848 37.1118H11.9868Z" fill="#DFE7EF"/>
<g style="mix-blend-mode:multiply">
<path d="M13.5634 35.4765C13.7111 35.5286 13.8069 35.6753 13.8069 35.9051C13.8069 36.3087 13.5115 36.8011 13.1482 37.0057C13.0544 37.0579 12.9666 37.0849 12.8867 37.0907C13.0005 37.1293 13.1442 37.1139 13.3019 37.027C13.6651 36.8242 13.9606 36.3319 13.9606 35.9264C13.9606 35.6251 13.7969 35.4591 13.5614 35.4765H13.5634Z" fill="#888F9E"/>
</g>
<g style="mix-blend-mode:multiply">
<path d="M13.4738 36.0048C13.4738 35.8736 13.378 35.8195 13.2584 35.8871C13.1407 35.9527 13.043 36.1148 13.043 36.246C13.043 36.3386 13.0908 36.3887 13.1606 36.3907L13.1427 36.7881L13.378 36.6569L13.3581 36.2788C13.4259 36.2016 13.4718 36.0974 13.4718 36.0067L13.4738 36.0048Z" fill="#888F9E"/>
</g>
<g style="mix-blend-mode:multiply">
<path d="M19.8072 16.123L26.8196 24.6154L12.7969 32.4475L19.8072 16.123Z" fill="#888F9E"/>
</g>
<path d="M20.0572 17.1927L25.8323 24.1869C25.9541 24.3356 25.8144 24.6966 25.5829 24.824L14.0327 31.2758C13.8012 31.4052 13.6615 31.2005 13.7832 30.9148L19.5583 17.4687C19.6741 17.2004 19.9415 17.0517 20.0552 17.1907L20.0572 17.1927Z" fill="#FFE340"/>
<path d="M19.4974 20.3048L20.9744 19.4805L19.3757 23.6156L21.3736 21.799L18.8587 27.7682L19.8168 24.0558L18.1621 25.6292L19.4974 20.3048Z" fill="#2B2B2B"/>
<path d="M18.8516 27.875L18.8576 26.7493L19.0532 27.1567L19.5821 26.6025L18.8516 27.875Z" fill="#2B2B2B"/>
<path d="M24.8408 24.748L14.7773 30.3697C14.6595 30.4353 14.5538 30.4257 14.4959 30.3427C14.438 30.2597 14.442 30.1226 14.5059 29.9759L19.5386 18.2595C19.5985 18.1225 19.6983 18.0028 19.81 17.941C19.9218 17.8792 20.0216 17.885 20.0814 17.9564L25.1142 24.0511C25.178 24.1264 25.18 24.2596 25.1242 24.4063C25.0663 24.553 24.9625 24.6804 24.8428 24.7461L24.8408 24.748ZM19.808 18.0858C19.7422 18.1225 19.6823 18.1939 19.6464 18.275L14.6136 29.9913C14.5757 30.0782 14.5737 30.1612 14.6076 30.2095C14.6416 30.2597 14.7054 30.2654 14.7753 30.2249L24.8388 24.6032C24.9086 24.5646 24.9725 24.4874 25.0064 24.4005C25.0403 24.3136 25.0384 24.2345 25.0004 24.1882L19.9677 18.0935C19.9318 18.051 19.8719 18.0472 19.806 18.0838L19.808 18.0858Z" fill="#D81313"/>
<path d="M10.3407 49.2806V20.9888C10.3407 20.3324 10.8217 19.5274 11.4143 19.1972L29.0011 9.37474C29.2066 9.26084 29.3962 9.22223 29.5578 9.24153C29.3782 8.96354 29.023 8.89983 28.61 9.12956L11.0052 18.9617C10.4126 19.2918 9.93164 20.0969 9.93164 20.7552V49.0779C9.93164 49.5296 10.1631 49.7902 10.4984 49.8057C10.4006 49.6802 10.3407 49.5065 10.3407 49.2825V49.2806Z" fill="#B7C0CE"/>
<g style="mix-blend-mode:multiply" opacity="0.5">
<path d="M12.8829 41.7691L26.9934 33.8887C26.9934 33.8887 27.3167 35.2188 19.4862 39.5934C11.6536 43.9679 12.8849 41.7691 12.8849 41.7691H12.8829Z" fill="#888F9E"/>
</g>
<g style="mix-blend-mode:multiply" opacity="0.5">
<path d="M12.8829 43.8578L26.9934 35.9774C26.9934 35.9774 27.3167 37.3075 19.4862 41.6821C11.6536 46.0567 12.8849 43.8578 12.8849 43.8578H12.8829Z" fill="#888F9E"/>
</g>
<path d="M12.8826 41.7691L26.9931 33.8887C26.9931 33.8887 27.3164 34.9292 19.4859 39.3038C11.6554 43.6784 12.8846 41.7691 12.8846 41.7691H12.8826Z" fill="#A1A9B7"/>
<path d="M12.8829 43.8521L26.9934 35.9717C26.9934 35.9717 27.3167 37.0122 19.4862 41.3868C11.6536 45.7614 12.8849 43.8521 12.8849 43.8521H12.8829Z" fill="#A1A9B7"/>
<path d="M7.71624 53.8324V19.0444C7.71624 18.1216 8.29495 17.0502 9.01135 16.6525L31.104 4.31258C31.3714 4.16393 31.6189 4.12918 31.8244 4.19289C31.587 3.9786 31.2417 3.95157 30.8546 4.16779L8.7619 16.5077C8.0475 16.9073 7.4668 17.9788 7.4668 18.8996V53.6876C7.4668 54.2649 7.69429 54.6471 8.03952 54.7533C7.83797 54.5718 7.71424 54.2552 7.71424 53.8324H7.71624Z" fill="#B7C0CE"/>
<g style="mix-blend-mode:screen" opacity="0.2">
<path d="M24.1458 0.377686L1.94531 12.7909L8.7601 16.5053L30.8528 4.16537C30.8528 4.16537 10.2428 15.6385 8.52263 15.0593C6.80447 14.4802 4.23021 13.2311 4.56147 12.457C4.89273 11.6828 24.1438 0.377686 24.1438 0.377686H24.1458Z" fill="#B7C0CE"/>
</g>
</svg>
