<svg width="79" height="52" viewBox="0 0 79 52" fill="none" xmlns="http://www.w3.org/2000/svg">
<path d="M24.8817 45.151L16.4512 30.6713L68.0681 0.487005C69.1375 -0.197363 70.6525 -0.125325 72.3101 0.847199C75.5539 2.73822 78.1918 7.3487 78.1918 11.1487C78.1918 12.9317 77.6036 14.2284 76.6412 14.8948C76.5342 14.9668 76.4273 15.0388 76.3025 15.0929L24.8817 45.151Z" fill="#E6E7E8"/>
<path d="M14.7578 34.4713C14.7578 38.2713 17.3957 42.8638 20.6396 44.7728C23.8835 46.6638 26.5213 45.133 26.5213 41.333C26.5213 37.5329 23.8835 32.9404 20.6396 31.0314C17.3957 29.1404 14.7578 30.6712 14.7578 34.4713Z" fill="#BCBEC0"/>
<path d="M16.1118 48.1594L9.55273 36.7773L17.3416 32.2209C18.1793 31.6986 19.3557 31.7706 20.639 32.527C23.1877 34.0038 25.2552 37.6238 25.2552 40.5954C25.2552 42.0542 24.7562 43.0807 23.9541 43.585L23.9185 43.603C23.9185 43.603 23.9007 43.603 23.8828 43.603L16.094 48.1594H16.1118Z" fill="#535359"/>
<path d="M8.25391 39.7672C8.25391 42.7388 10.3214 46.3408 12.8702 47.8356C15.419 49.3304 17.4687 48.1237 17.4687 45.1521C17.4687 42.1805 15.4011 38.5786 12.8702 37.0838C10.3214 35.607 8.25391 36.7956 8.25391 39.7672Z" fill="#303033"/>
<path d="M8.5918 39.947C8.5918 42.7024 10.5167 46.0522 12.8694 47.439C15.24 48.8257 17.1471 47.7091 17.1471 44.9356C17.1471 42.1622 15.24 38.8304 12.8694 37.4436C10.4989 36.0569 8.5918 37.1915 8.5918 39.947Z" fill="#121214"/>
<path d="M7.07662 47.9604L4.20703 43.0978L9.42932 40.0361C9.78579 39.82 10.2848 39.856 10.8196 40.1802C11.9068 40.8105 12.798 42.3774 12.798 43.6561C12.798 44.2504 12.6019 44.7006 12.2811 44.9167C12.2454 44.9348 7.07662 47.9604 7.07662 47.9604Z" fill="#603913"/>
<path d="M3.67188 44.3403C3.67188 45.619 4.56324 47.1678 5.6507 47.8162C6.73817 48.4465 7.62953 47.9422 7.62953 46.6635C7.62953 45.3849 6.73817 43.836 5.6507 43.1877C4.56324 42.5573 3.67188 43.0616 3.67188 44.3403Z" fill="#3C2415"/>
<path d="M4.76099 44.0341C4.97487 43.872 5.31352 43.872 5.66999 44.0881C6.32946 44.4844 6.88198 45.4209 6.88198 46.2133C6.88198 46.6095 6.7394 46.8796 6.52551 47.0057L2.99646 49.0768L1.26758 46.0872L4.77881 44.0521L4.76099 44.0341Z" fill="#B56100"/>
<path d="M0.910156 46.8614C0.910156 47.6358 1.44497 48.5904 2.12241 48.9866C2.79985 49.3828 3.33467 49.0586 3.33467 48.2842C3.33467 47.5098 2.79985 46.5553 2.12241 46.159C1.4628 45.7628 0.910156 46.087 0.910156 46.8614Z" fill="#944F00"/>
<path d="M11.0339 50.4812L8.14648 45.6186L13.3688 42.557L16.0423 40.9901C18.1277 44.9522 16.6661 47.1314 16.3453 47.3475L11.0161 50.4632L11.0339 50.4812Z" fill="#3576AB"/>
<path d="M7.64648 46.8796C7.64648 48.1583 8.53785 49.7071 9.62531 50.3555C10.7128 50.9858 11.6041 50.4815 11.6041 49.2028C11.6041 47.9242 10.7128 46.3753 9.62531 45.727C8.52002 45.0966 7.64648 45.6009 7.64648 46.8796Z" fill="#174666"/>
<path d="M8.71606 46.5729C8.92995 46.4108 9.26859 46.4108 9.62506 46.627C10.3024 47.0232 10.8371 47.9597 10.8371 48.7521C10.8371 49.1483 10.6945 49.4185 10.4806 49.5445L6.95154 51.5976L5.22266 48.608L8.73389 46.5729H8.71606Z" fill="#B56100"/>
<path d="M4.86523 49.3996C4.86523 50.174 5.40005 51.1286 6.07749 51.5248C6.7371 51.921 7.28975 51.5968 7.28975 50.8224C7.28975 50.048 6.75493 49.0935 6.07749 48.6973C5.41788 48.301 4.86523 48.6252 4.86523 49.3996Z" fill="#944F00"/>
<path d="M9.19771 45.2771L6.32812 40.4145L12.0495 37.0647C12.0495 37.0647 14.42 37.7311 16.1667 41.1889L14.4022 42.2155L9.19771 45.2591V45.2771Z" fill="#FF9D26"/>
<path d="M5.79297 41.6757C5.79297 42.9544 6.68433 44.5033 7.7718 45.1516C8.85926 45.7819 9.75063 45.2777 9.75063 43.999C9.75063 42.7203 8.85926 41.1715 7.7718 40.5231C6.68433 39.8928 5.79297 40.3971 5.79297 41.6757Z" fill="#FF8400"/>
<path d="M6.88013 41.3676C7.09401 41.2055 7.43266 41.2055 7.78913 41.4216C8.4486 41.8179 9.00112 42.7544 9.00112 43.5468C9.00112 43.943 8.85854 44.2131 8.64465 44.3392L5.1156 46.4103L3.38672 43.4207L6.89795 41.3856L6.88013 41.3676Z" fill="#B56100"/>
<path d="M3.03125 44.1944C3.03125 44.9688 3.56607 45.9234 4.24351 46.3196C4.90312 46.7158 5.45576 46.3916 5.45576 45.6172C5.45576 44.8428 4.92094 43.8883 4.24351 43.4921C3.5839 43.0958 3.03125 43.42 3.03125 44.1944Z" fill="#944F00"/>
</svg>
