<svg width="437" height="438" viewBox="0 0 437 438" fill="none" xmlns="http://www.w3.org/2000/svg">
<g clip-path="url(#clip0_362_1508)">
<path d="M92.1543 83.6743C162.079 13.7492 275.45 13.7492 345.376 83.6743" stroke="#2566B0" stroke-width="30"/>
<path d="M344.929 353.086C275.004 423.012 161.633 423.012 91.707 353.086" stroke="#85AFDE" stroke-width="30"/>
<path d="M83.6119 91.7676C13.6866 161.693 13.6866 275.065 83.6119 344.99" stroke="#A0C4EE" stroke-width="30"/>
<path d="M353.023 344.993C422.948 275.067 422.948 161.696 353.023 91.7695" stroke="#6491C3" stroke-width="30"/>
<path d="M218.546 40.0117C229.674 40.0117 238.695 30.9905 238.695 19.8623C238.695 8.73409 229.674 -0.287109 218.546 -0.287109C207.418 -0.287109 198.396 8.73409 198.396 19.8623C198.396 30.9905 207.418 40.0117 218.546 40.0117Z" fill="white"/>
<path d="M218.545 30.2681C224.293 30.2681 228.952 25.6089 228.952 19.8616C228.952 14.1142 224.293 9.45508 218.545 9.45508C212.798 9.45508 208.139 14.1142 208.139 19.8616C208.139 25.6089 212.798 30.2681 218.545 30.2681Z" stroke="#2566B0" stroke-width="3"/>
<path d="M218.546 437.506C229.674 437.506 238.695 428.485 238.695 417.356C238.695 406.228 229.674 397.207 218.546 397.207C207.418 397.207 198.396 406.228 198.396 417.356C198.396 428.485 207.418 437.506 218.546 437.506Z" fill="white"/>
<path d="M218.545 427.762C224.293 427.762 228.952 423.103 228.952 417.356C228.952 411.608 224.293 406.949 218.545 406.949C212.798 406.949 208.139 411.608 208.139 417.356C208.139 423.103 212.798 427.762 218.545 427.762Z" stroke="#85AFDE" stroke-width="3"/>
<path d="M397.143 218.608C397.143 229.737 406.164 238.758 417.292 238.758C428.42 238.758 437.441 229.737 437.441 218.608C437.441 207.48 428.42 198.459 417.292 198.459C406.164 198.459 397.143 207.48 397.143 218.608Z" fill="white"/>
<path d="M406.886 218.608C406.886 224.355 411.545 229.014 417.293 229.014C423.04 229.014 427.699 224.355 427.699 218.608C427.699 212.86 423.04 208.201 417.293 208.201C411.545 208.201 406.886 212.86 406.886 218.608Z" stroke="#6491C3" stroke-width="3"/>
<path d="M-0.349579 218.608C-0.349579 229.737 8.67163 238.758 19.7998 238.758C30.928 238.758 39.9492 229.737 39.9492 218.608C39.9492 207.48 30.928 198.459 19.7998 198.459C8.67163 198.459 -0.349579 207.48 -0.349579 218.608Z" fill="white"/>
<path d="M9.39403 218.608C9.39403 224.355 14.0532 229.014 19.8005 229.014C25.5479 229.014 30.207 224.355 30.207 218.608C30.207 212.86 25.5479 208.201 19.8005 208.201C14.0532 208.201 9.39403 212.86 9.39403 218.608Z" stroke="#A0C4EE" stroke-width="3"/>
</g>
</svg>
