<svg width="406" height="375" viewBox="0 0 406 375" fill="none" xmlns="http://www.w3.org/2000/svg">
<g clip-path="url(#clip0_1_16114)">
<path d="M55.9058 364.609C55.9058 370.126 51.4362 374.599 45.9226 374.599C40.4091 374.599 35.9395 370.126 35.9395 364.609C35.9395 359.092 40.4091 354.62 45.9226 354.62C51.4362 354.62 55.9058 359.092 55.9058 364.609Z" fill="#2566B0"/>
<path fill-rule="evenodd" clip-rule="evenodd" d="M394.998 70.3444C353.297 27.5628 295.055 0.998929 230.612 0.998929C103.8 0.998929 0.998319 103.863 0.998319 230.753C0.998319 279.214 15.9932 324.171 41.5936 361.232L40.8198 361.869C15.0788 324.634 0 279.455 0 230.753C0 103.311 103.248 0 230.612 0C295.365 0 353.885 26.7045 395.772 69.7075L394.998 70.3444Z" fill="#2566B0"/>
<path d="M405.318 68.9258C405.318 74.4427 400.848 78.9151 395.335 78.9151C389.821 78.9151 385.352 74.4427 385.352 68.9258C385.352 63.4089 389.821 58.9365 395.335 58.9365C400.848 58.9365 405.318 63.4089 405.318 68.9258Z" fill="#2566B0"/>
</g>
<defs>
<clipPath id="clip0_1_16114">
<rect width="406" height="375" fill="white"/>
</clipPath>
</defs>
</svg>
