<svg aria-hidden="true" xmlns="http://www.w3.org/2000/svg" xmlns:xlink="http://www.w3.org/1999/xlink"><symbol viewBox="0 0 10 7" id="arrow-dropdown" xmlns="http://www.w3.org/2000/svg"><path d="M1 1.5L5 5.5L9 1.5" stroke-width="2" stroke-linecap="round"/><path d="M1 1.5L5 5.5L9 1.5" stroke-opacity="0.2" stroke-width="2" stroke-linecap="round"/></symbol><symbol viewBox="0 0 21 15" id="arrow-link" xmlns="http://www.w3.org/2000/svg"><path d="M1.5 8.5C0.947715 8.5 0.5 8.05228 0.5 7.5C0.5 6.94772 0.947715 6.5 1.5 6.5L1.5 8.5ZM20.2071 6.79289C20.5976 7.18342 20.5976 7.81658 20.2071 8.20711L13.8431 14.5711C13.4526 14.9616 12.8195 14.9616 12.4289 14.5711C12.0384 14.1805 12.0384 13.5474 12.4289 13.1569L18.0858 7.5L12.4289 1.84315C12.0384 1.45262 12.0384 0.819457 12.4289 0.428932C12.8195 0.0384078 13.4526 0.0384078 13.8431 0.428932L20.2071 6.79289ZM1.5 6.5L19.5 6.5V8.5L1.5 8.5L1.5 6.5Z"/></symbol><symbol viewBox="0 0 18 18" id="clock" xmlns="http://www.w3.org/2000/svg"><path d="M9 18C4.02955 18 0 13.9705 0 9C0 4.02955 4.02955 0 9 0C13.9705 0 18 4.02955 18 9C18 13.9705 13.9705 18 9 18ZM9.81818 3.68182H8.18182V9.33873L11.4545 12.6115L12.6115 11.4545L9.81818 8.66127V3.68182Z"/><path d="M9 18C4.02955 18 0 13.9705 0 9C0 4.02955 4.02955 0 9 0C13.9705 0 18 4.02955 18 9C18 13.9705 13.9705 18 9 18ZM9.81818 3.68182H8.18182V9.33873L11.4545 12.6115L12.6115 11.4545L9.81818 8.66127V3.68182Z" fill-opacity="0.2"/></symbol><symbol viewBox="0 0 14 14" id="close" xmlns="http://www.w3.org/2000/svg"><path d="M14 1.41L12.59 0L7 5.59L1.41 0L0 1.41L5.59 7L0 12.59L1.41 14L7 8.41L12.59 14L14 12.59L8.41 7L14 1.41Z"/></symbol><symbol viewBox="0 0 17 13" id="email" xmlns="http://www.w3.org/2000/svg"><path d="M0 13V0H17V13H0ZM8.5 7.3125L15.3 3.25V1.625L8.5 5.6875L1.7 1.625V3.25L8.5 7.3125Z"/><path d="M0 13V0H17V13H0ZM8.5 7.3125L15.3 3.25V1.625L8.5 5.6875L1.7 1.625V3.25L8.5 7.3125Z" fill-opacity="0.2"/></symbol><symbol viewBox="0 0 9 18" id="facebook" xmlns="http://www.w3.org/2000/svg"><path d="M6 10.35H8.14286L9 6.75H6V4.95C6 4.023 6 3.15 7.71429 3.15H9V0.126C8.72057 0.0873001 7.66543 0 6.55114 0C4.224 0 2.57143 1.4913 2.57143 4.23V6.75H0V10.35H2.57143V18H6V10.35Z"/></symbol><symbol viewBox="0 0 18 18" id="instagram" xmlns="http://www.w3.org/2000/svg"><path d="M9.92521 0.00110732C10.5819 -0.0014128 11.2387 0.00518768 11.8952 0.0209067L12.0698 0.0272065C12.2714 0.0344062 12.4703 0.0434059 12.7106 0.0542055C13.6681 0.099204 14.3215 0.250399 14.8948 0.472691C15.4887 0.701284 15.9891 1.01087 16.4895 1.51126C16.947 1.96089 17.3011 2.50477 17.5271 3.1051C17.7494 3.67838 17.9006 4.33266 17.9456 5.29023C17.9564 5.52962 17.9654 5.72941 17.9726 5.93101L17.978 6.1056C17.994 6.76185 18.0009 7.41829 17.9987 8.07473L17.9996 8.74611V9.92507C18.0018 10.5818 17.9949 11.2386 17.9789 11.8951L17.9735 12.0697C17.9663 12.2713 17.9573 12.4702 17.9465 12.7105C17.9015 13.668 17.7485 14.3214 17.5271 14.8947C17.3018 15.4957 16.9476 16.04 16.4895 16.4894C16.0395 16.9469 15.4953 17.301 14.8948 17.5271C14.3215 17.7494 13.6681 17.9006 12.7106 17.9456C12.4703 17.9564 12.2714 17.9654 12.0698 17.9726L11.8952 17.978C11.2387 17.994 10.5819 18.0009 9.92521 17.9987L9.25384 17.9996H8.0758C7.41907 18.0018 6.76235 17.9949 6.10581 17.9789L5.93122 17.9735C5.71758 17.9658 5.50398 17.9568 5.29045 17.9465C4.3329 17.9015 3.67953 17.7485 3.10536 17.5271C2.50481 17.3015 1.96083 16.9474 1.51154 16.4894C1.05351 16.0397 0.699085 15.4955 0.472995 14.8947C0.250706 14.3214 0.0995141 13.668 0.0545165 12.7105C0.0444936 12.4969 0.035494 12.2833 0.0275179 12.0697L0.0230182 11.8951C0.00642628 11.2386 -0.00107414 10.5818 0.000519274 9.92507V8.07473C-0.00199247 7.41829 0.0046079 6.76185 0.0203183 6.1056L0.026618 5.93101C0.0338176 5.72941 0.0428171 5.52962 0.0536166 5.29023C0.0986143 4.33176 0.249806 3.67928 0.472095 3.1051C0.698319 2.50448 1.05343 1.96074 1.51244 1.51216C1.96142 1.05385 2.50506 0.699099 3.10536 0.472691C3.67953 0.250399 4.332 0.099204 5.29045 0.0542055L5.93122 0.0272065L6.10581 0.0227067C6.76204 0.00612283 7.41847 -0.00137772 8.07491 0.000207414L9.92521 0.00110732ZM9.00006 4.50095C8.40384 4.49252 7.8119 4.60267 7.25863 4.825C6.70535 5.04734 6.20178 5.37742 5.77718 5.79606C5.35258 6.2147 5.01542 6.71356 4.78529 7.26365C4.55516 7.81373 4.43665 8.40407 4.43665 9.00035C4.43665 9.59663 4.55516 10.187 4.78529 10.7371C5.01542 11.2871 5.35258 11.786 5.77718 12.2046C6.20178 12.6233 6.70535 12.9534 7.25863 13.1757C7.8119 13.398 8.40384 13.5082 9.00006 13.4997C10.1935 13.4997 11.338 13.0257 12.1819 12.1818C13.0257 11.3379 13.4998 10.1933 13.4998 8.9999C13.4998 7.80647 13.0257 6.66191 12.1819 5.81803C11.338 4.97414 10.1935 4.50095 9.00006 4.50095ZM9.00006 6.30089C9.3587 6.29428 9.71506 6.35921 10.0483 6.49187C10.3816 6.62454 10.6851 6.82228 10.9411 7.07356C11.197 7.32483 11.4004 7.6246 11.5392 7.95534C11.6781 8.28609 11.7496 8.64119 11.7497 8.99989C11.7497 9.3586 11.6783 9.71372 11.5396 10.0445C11.4009 10.3753 11.1976 10.6751 10.9417 10.9265C10.6858 11.1779 10.3824 11.3757 10.0492 11.5085C9.71594 11.6413 9.3596 11.7063 9.00096 11.6998C8.28491 11.6998 7.59819 11.4154 7.09187 10.909C6.58555 10.4027 6.3011 9.71596 6.3011 8.9999C6.3011 8.28384 6.58555 7.59711 7.09187 7.09078C7.59819 6.58445 8.28491 6.29999 9.00096 6.29999L9.00006 6.30089ZM13.7248 3.151C13.4345 3.16262 13.1599 3.28613 12.9586 3.49566C12.7573 3.70519 12.6449 3.98449 12.6449 4.27506C12.6449 4.56563 12.7573 4.84493 12.9586 5.05446C13.1599 5.26399 13.4345 5.3875 13.7248 5.39912C14.0232 5.39912 14.3093 5.2806 14.5203 5.06963C14.7312 4.85866 14.8498 4.57252 14.8498 4.27416C14.8498 3.9758 14.7312 3.68967 14.5203 3.47869C14.3093 3.26772 14.0232 3.1492 13.7248 3.1492V3.151Z"/></symbol><symbol viewBox="0 0 14 20" id="location" xmlns="http://www.w3.org/2000/svg"><path d="M7 9.5C6.33696 9.5 5.70107 9.23661 5.23223 8.76777C4.76339 8.29893 4.5 7.66304 4.5 7C4.5 6.33696 4.76339 5.70107 5.23223 5.23223C5.70107 4.76339 6.33696 4.5 7 4.5C7.66304 4.5 8.29893 4.76339 8.76777 5.23223C9.23661 5.70107 9.5 6.33696 9.5 7C9.5 7.3283 9.43534 7.65339 9.3097 7.95671C9.18406 8.26002 8.99991 8.53562 8.76777 8.76777C8.53562 8.99991 8.26002 9.18406 7.95671 9.3097C7.65339 9.43534 7.3283 9.5 7 9.5ZM7 0C5.14348 0 3.36301 0.737498 2.05025 2.05025C0.737498 3.36301 0 5.14348 0 7C0 12.25 7 20 7 20C7 20 14 12.25 14 7C14 5.14348 13.2625 3.36301 11.9497 2.05025C10.637 0.737498 8.85652 0 7 0Z"/><path d="M7 9.5C6.33696 9.5 5.70107 9.23661 5.23223 8.76777C4.76339 8.29893 4.5 7.66304 4.5 7C4.5 6.33696 4.76339 5.70107 5.23223 5.23223C5.70107 4.76339 6.33696 4.5 7 4.5C7.66304 4.5 8.29893 4.76339 8.76777 5.23223C9.23661 5.70107 9.5 6.33696 9.5 7C9.5 7.3283 9.43534 7.65339 9.3097 7.95671C9.18406 8.26002 8.99991 8.53562 8.76777 8.76777C8.53562 8.99991 8.26002 9.18406 7.95671 9.3097C7.65339 9.43534 7.3283 9.5 7 9.5ZM7 0C5.14348 0 3.36301 0.737498 2.05025 2.05025C0.737498 3.36301 0 5.14348 0 7C0 12.25 7 20 7 20C7 20 14 12.25 14 7C14 5.14348 13.2625 3.36301 11.9497 2.05025C10.637 0.737498 8.85652 0 7 0Z" fill-opacity="0.2"/></symbol><symbol viewBox="0 0 50 82" id="mouse" xmlns="http://www.w3.org/2000/svg"><path d="M19.3887 63.8838L24.9191 69.9453L30.6122 64.0296" stroke-width="2" stroke-linecap="round"/><path d="M19.3887 73.8652L24.9191 79.9267L30.6122 74.0111" stroke-width="2" stroke-linecap="round"/><rect x="11.083" y="5.09035" width="27.8339" height="47.9249" rx="13.917" stroke-width="2.16605"/><rect x="22.083" y="11.1013" width="4.83395" height="8.85396" rx="2.41697" stroke-width="2.16605"/></symbol><symbol viewBox="0 0 16 16" id="phone" xmlns="http://www.w3.org/2000/svg"><path d="M15.9146 12.6134C15.1717 11.0624 13.9046 10.0505 12.0944 9.59885C11.8225 9.53101 11.5336 9.59841 11.3166 9.77573L9.81323 11.0041C9.51968 11.244 9.10479 11.2749 8.78215 11.0758C7.19186 10.0949 5.90515 8.80814 4.92416 7.21785C4.72514 6.89522 4.75604 6.48032 4.99589 6.18678L6.22428 4.6834C6.4016 4.46638 6.46899 4.17748 6.40114 3.90556C5.94951 2.09543 4.93758 0.828301 3.38659 0.0854086C3.13637 -0.0344481 2.8412 -0.0277533 2.59648 0.102954C1.81655 0.51948 1.07038 0.99078 0.363457 1.52076C0.0927761 1.72369 -0.0438016 2.05923 0.0125243 2.39281C0.520706 5.40256 2.14695 8.56762 4.78967 11.2103C7.43238 13.8531 10.5974 15.4793 13.6072 15.9875C13.9408 16.0438 14.2763 15.9072 14.4792 15.6365C15.0092 14.9296 15.4805 14.1835 15.8971 13.4035C16.0277 13.1588 16.0345 12.8636 15.9146 12.6134Z"/><path d="M15.9146 12.6134C15.1717 11.0624 13.9046 10.0505 12.0944 9.59885C11.8225 9.53101 11.5336 9.59841 11.3166 9.77573L9.81323 11.0041C9.51968 11.244 9.10479 11.2749 8.78215 11.0758C7.19186 10.0949 5.90515 8.80814 4.92416 7.21785C4.72514 6.89522 4.75604 6.48032 4.99589 6.18678L6.22428 4.6834C6.4016 4.46638 6.46899 4.17748 6.40114 3.90556C5.94951 2.09543 4.93758 0.828301 3.38659 0.0854086C3.13637 -0.0344481 2.8412 -0.0277533 2.59648 0.102954C1.81655 0.51948 1.07038 0.99078 0.363457 1.52076C0.0927761 1.72369 -0.0438016 2.05923 0.0125243 2.39281C0.520706 5.40256 2.14695 8.56762 4.78967 11.2103C7.43238 13.8531 10.5974 15.4793 13.6072 15.9875C13.9408 16.0438 14.2763 15.9072 14.4792 15.6365C15.0092 14.9296 15.4805 14.1835 15.8971 13.4035C16.0277 13.1588 16.0345 12.8636 15.9146 12.6134Z" fill-opacity="0.2"/></symbol></svg>