<svg width="31" height="75" viewBox="0 0 31 75" fill="none" xmlns="http://www.w3.org/2000/svg">
<path d="M0.0181885 63.4392L9.83464 70.1055L30.2868 56.1964L20.4674 49.5283L0.0181885 63.4392Z" fill="#E6E7E8"/>
<path d="M0.0181885 68.2981L9.83464 74.9644V70.1049L0.0181885 63.4386V68.2981Z" fill="#BCBEC0"/>
<path d="M30.2868 56.1963L9.83459 70.1055V74.965L30.2868 61.0716V56.1963Z" fill="#A7A9AC"/>
<path d="M9.19299 68.7279L2.05334 63.8806V13.1543L15.2095 14.8647L9.19299 68.7279Z" fill="#A7A9AC"/>
<path d="M21.0566 0.195312L2.05383 13.1547L9.19348 18.0002L15.4781 16.4002L28.1948 5.04258L21.0566 0.195312Z" fill="#BCBEC0"/>
<path d="M28.1939 5.04291L9.19263 18.0005V68.7286L28.1939 55.7692V5.04291Z" fill="#939598"/>
<path d="M26.8892 8.375L10.4977 19.5574V60.4437L26.8892 49.2648V8.375Z" fill="#535359"/>
<path d="M26.9625 8.42578L10.5709 19.6064V60.4945L26.9625 49.3139V8.42578Z" fill="#A7A9AC"/>
<path d="M12.053 21.3601C11.9666 21.4179 11.898 21.3706 11.898 21.2549C11.898 21.1393 11.9666 20.9991 12.053 20.9395L15.7814 18.4072C15.8663 18.3494 15.9364 18.3967 15.9364 18.5141C15.9364 18.6315 15.8648 18.77 15.7814 18.8278L12.053 21.3601Z" fill="#303033"/>
<path d="M15.7814 19.7778C15.8663 19.7182 15.9364 19.7691 15.9364 19.883C15.9364 19.9969 15.8648 20.1406 15.7814 20.1984L12.053 22.7289C11.9666 22.785 11.898 22.7412 11.898 22.6238C11.898 22.5064 11.9666 22.3679 12.053 22.3084L15.7814 19.7778Z" fill="#303033"/>
<path d="M15.7814 21.1406C15.8663 21.0828 15.9364 21.1301 15.9364 21.2458C15.9364 21.3615 15.8648 21.5034 15.7814 21.563L12.053 24.0935C11.9666 24.1496 11.898 24.104 11.898 23.9884C11.898 23.8727 11.9666 23.7308 12.053 23.6747L15.7814 21.1424V21.1406Z" fill="#303033"/>
<path d="M15.7814 22.5078C15.8663 22.45 15.9364 22.4973 15.9364 22.613C15.9364 22.7286 15.8648 22.8706 15.7814 22.9284L12.053 25.459C11.9666 25.5203 11.898 25.473 11.898 25.3538C11.898 25.2346 11.9666 25.0962 12.053 25.0384L15.7814 22.5061V22.5078Z" fill="#303033"/>
<path d="M16.1066 30.9357C15.5554 31.3125 15.3484 30.9357 15.6478 30.0998L18.5436 22.0438C18.8445 21.2096 19.336 20.8749 19.6354 21.3025L22.5282 25.426C22.8291 25.8553 22.6221 26.5108 22.0665 26.8893L16.1066 30.9357Z" fill="#303033"/>
<path d="M15.824 30.5947C15.8464 30.6367 15.9343 30.642 16.1056 30.5228L22.0655 26.4764C22.2412 26.359 22.3276 26.2329 22.3515 26.161C22.3738 26.0892 22.3693 25.956 22.2725 25.8228L19.3812 21.6993C19.2933 21.5749 19.1875 21.5433 19.0892 21.6117C18.9894 21.6782 18.8837 21.857 18.7973 22.0971L15.903 30.1513C15.8076 30.4142 15.8017 30.5544 15.8255 30.5964L15.824 30.5947Z" fill="#FF9D26"/>
<path d="M19.8908 25.4324L19.1487 25.5411L19.7716 22.9738L18.283 26.1422L19.0266 26.037L18.4037 28.6044L19.8908 25.4324Z" fill="#303033"/>
<path d="M26.6515 18.1502C26.8197 18.264 27.0922 18.264 27.2605 18.1502C27.3424 18.0942 27.3841 18.0189 27.3841 17.9453V18.0907C27.3841 18.1642 27.3424 18.2412 27.2605 18.2973C27.0922 18.4111 26.8197 18.4111 26.6515 18.2973C26.5666 18.2412 26.5249 18.1642 26.5249 18.0907V17.9453C26.5249 18.0189 26.5666 18.0942 26.6515 18.1502Z" fill="#939598"/>
<path d="M26.652 17.7377C26.8203 17.6239 27.0927 17.6239 27.261 17.7377C27.4248 17.8498 27.4248 18.0354 27.261 18.1492C27.0927 18.263 26.8203 18.263 26.652 18.1492C26.4837 18.0354 26.4837 17.8498 26.652 17.7377Z" fill="#BCBEC0"/>
<path d="M26.6076 13.2818C26.8013 13.4115 27.1127 13.4115 27.3065 13.2818C27.4018 13.217 27.451 13.1311 27.451 13.0452V17.9819C27.451 18.0677 27.4004 18.1519 27.3065 18.2202C27.1127 18.3499 26.8013 18.3499 26.6076 18.2202C26.5122 18.1536 26.463 18.0677 26.463 17.9819V13.0452C26.463 13.1311 26.5122 13.217 26.6076 13.2818Z" fill="#BCBEC0"/>
<path d="M26.6072 12.8065C26.8008 12.6769 27.112 12.6769 27.3056 12.8065C27.4962 12.9378 27.4962 13.1497 27.3056 13.281C27.112 13.4106 26.8008 13.4106 26.6072 13.281C26.4136 13.1514 26.4136 12.9378 26.6072 12.8065Z" fill="#E6E7E8"/>
<path d="M26.6513 13.0837C26.8195 13.1975 27.092 13.1975 27.2603 13.0837C27.3422 13.0277 27.3839 12.9541 27.3839 12.8771V13.0242C27.3839 13.0995 27.3422 13.173 27.2603 13.2308C27.092 13.3446 26.8195 13.3446 26.6513 13.2308C26.5664 13.173 26.5247 13.0995 26.5247 13.0242V12.8771C26.5247 12.9541 26.5664 13.0277 26.6513 13.0837Z" fill="#BCBEC0"/>
<path d="M26.6519 12.6711C26.8201 12.5538 27.0926 12.5538 27.2609 12.6711C27.4247 12.7849 27.4247 12.9671 27.2609 13.0826C27.0926 13.1965 26.8201 13.1965 26.6519 13.0826C26.4836 12.9688 26.4836 12.7867 26.6519 12.6711Z" fill="#E6E7E8"/>
<path d="M26.6515 45.0459C26.8197 45.1597 27.0922 45.1597 27.2605 45.0459C27.3424 44.9916 27.3841 44.9163 27.3841 44.841V44.9863C27.3841 45.0599 27.3424 45.1334 27.2605 45.193C27.0922 45.3085 26.8197 45.3085 26.6515 45.193C26.5666 45.1334 26.5249 45.0599 26.5249 44.9863V44.841C26.5249 44.9145 26.5666 44.9916 26.6515 45.0459Z" fill="#939598"/>
<path d="M26.6519 44.6329C26.8202 44.5208 27.0927 44.5208 27.2609 44.6329C27.4247 44.7467 27.4247 44.9341 27.2609 45.0444C27.0927 45.1582 26.8202 45.1582 26.6519 45.0444C26.4837 44.9323 26.4837 44.7467 26.6519 44.6329Z" fill="#BCBEC0"/>
<path d="M26.6073 40.1781C26.801 40.3078 27.1124 40.3078 27.3061 40.1781C27.4015 40.1115 27.4507 40.0274 27.4507 39.945V44.8799C27.4507 44.9675 27.4 45.0499 27.3061 45.1147C27.1124 45.2479 26.801 45.2479 26.6073 45.1147C26.5119 45.0499 26.4627 44.9675 26.4627 44.8799V39.945C26.4627 40.0291 26.5119 40.1132 26.6073 40.1781Z" fill="#BCBEC0"/>
<path d="M26.6069 39.7042C26.8005 39.5711 27.1117 39.5711 27.3053 39.7042C27.4959 39.8338 27.4959 40.0474 27.3053 40.1752C27.1117 40.3048 26.8005 40.3048 26.6069 40.1752C26.4133 40.0456 26.4133 39.832 26.6069 39.7042Z" fill="#E6E7E8"/>
<path d="M26.6515 39.9809C26.8197 40.093 27.0922 40.093 27.2605 39.9809C27.3424 39.9214 27.3841 39.8496 27.3841 39.7725V39.9196C27.3841 39.9949 27.3424 40.0685 27.2605 40.1245C27.0922 40.2383 26.8197 40.2383 26.6515 40.1245C26.5666 40.0685 26.5249 39.9949 26.5249 39.9196V39.7725C26.5249 39.8496 26.5666 39.9214 26.6515 39.9809Z" fill="#BCBEC0"/>
<path d="M26.6521 39.5659C26.8203 39.4521 27.0928 39.4521 27.2611 39.5659C27.4249 39.6797 27.4249 39.8653 27.2611 39.9792C27.0928 40.0912 26.8203 40.0912 26.6521 39.9792C26.4838 39.8653 26.4838 39.6797 26.6521 39.5659Z" fill="#E6E7E8"/>
</svg>
