<svg width="56" height="81" viewBox="0 0 56 81" fill="none" xmlns="http://www.w3.org/2000/svg">
<path d="M54.3477 30.768L50.9326 23.3906L35.7734 33.2595L39.1942 40.6517L54.3477 30.768Z" fill="#424247"/>
<path d="M39.1934 40.6522V80.0202L54.3469 70.1387V30.7686L39.1934 40.6522Z" fill="#121214"/>
<path d="M0.0351562 54.4704L39.1936 80.0195V40.6515L35.7729 33.2593L0.0351562 9.95508V54.4704Z" fill="#303033"/>
<path d="M2.65319 23.0768C2.4816 22.963 2.33984 23.0515 2.33984 23.2811C2.33984 23.5107 2.4816 23.776 2.65319 23.8919C2.82851 24.0035 2.96467 23.9087 2.96467 23.6855C2.96467 23.4622 2.82851 23.1905 2.65319 23.0768Z" fill="black"/>
<path d="M3.8525 23.8548C3.6809 23.7431 3.54102 23.8316 3.54102 24.0591C3.54102 24.2865 3.6809 24.5582 3.8525 24.672C4.02409 24.7857 4.16398 24.693 4.16398 24.4677C4.16398 24.2423 4.02409 23.9706 3.8525 23.8548Z" fill="black"/>
<path d="M5.04586 24.636C4.87613 24.5244 4.73438 24.6128 4.73438 24.8403C4.73438 25.0678 4.87613 25.3395 5.04586 25.4511C5.22118 25.5649 5.3592 25.4722 5.3592 25.2468C5.3592 25.0215 5.21932 24.7519 5.04586 24.6381V24.636Z" fill="black"/>
<path d="M6.24312 25.4162C6.07153 25.3004 5.93164 25.3931 5.93164 25.6184C5.93164 25.8438 6.07153 26.1155 6.24312 26.2313C6.41472 26.3451 6.5602 26.2524 6.5602 26.0291C6.5602 25.8059 6.41472 25.5279 6.24312 25.4162Z" fill="black"/>
<path d="M7.43844 26.1955C7.26311 26.0818 7.12695 26.1724 7.12695 26.3998C7.12695 26.6273 7.26311 26.8969 7.43844 27.0127C7.61376 27.1244 7.75178 27.0338 7.75178 26.8063C7.75178 26.5789 7.61189 26.3093 7.43844 26.1976V26.1955Z" fill="black"/>
<path d="M8.63756 27.793C8.80916 27.9025 8.94905 27.814 8.94905 27.5866C8.94905 27.3591 8.80916 27.0895 8.63756 26.9779C8.46597 26.8641 8.32422 26.9547 8.32422 27.178C8.32422 27.4012 8.46597 27.6792 8.63756 27.793Z" fill="black"/>
<path d="M2.65319 24.5897C2.4816 24.476 2.33984 24.5686 2.33984 24.794C2.33984 25.0194 2.4816 25.2911 2.65319 25.4069C2.82851 25.5206 2.96467 25.428 2.96467 25.2026C2.96467 24.9772 2.82851 24.7013 2.65319 24.5897Z" fill="black"/>
<path d="M3.8525 25.3693C3.6809 25.2597 3.54102 25.3524 3.54102 25.5757C3.54102 25.7989 3.6809 26.0749 3.8525 26.1865C4.02409 26.3023 4.16398 26.2075 4.16398 25.9843C4.16398 25.761 4.02409 25.483 3.8525 25.3693Z" fill="black"/>
<path d="M5.04586 26.147C4.87613 26.0396 4.73438 26.128 4.73438 26.3555C4.73438 26.583 4.87613 26.8526 5.04586 26.9663C5.22118 27.0779 5.3592 26.9874 5.3592 26.762C5.3592 26.5366 5.21932 26.2607 5.04586 26.1491V26.147Z" fill="black"/>
<path d="M6.24312 26.9287C6.07153 26.8213 5.93164 26.9077 5.93164 27.133C5.93164 27.3584 6.07153 27.6322 6.24312 27.7459C6.41472 27.8554 6.5602 27.767 6.5602 27.5416C6.5602 27.3163 6.41472 27.0424 6.24312 26.9287Z" fill="black"/>
<path d="M7.43844 27.7121C7.26311 27.5984 7.12695 27.689 7.12695 27.9164C7.12695 28.1439 7.26311 28.4135 7.43844 28.5293C7.61376 28.6389 7.75178 28.5483 7.75178 28.3229C7.75178 28.0976 7.61189 27.8259 7.43844 27.7142V27.7121Z" fill="black"/>
<path d="M8.63756 28.4921C8.46597 28.3805 8.32422 28.471 8.32422 28.6964C8.32422 28.9217 8.46597 29.1956 8.63756 29.3093C8.80916 29.4209 8.94905 29.3304 8.94905 29.105C8.94905 28.8796 8.80916 28.6058 8.63756 28.4921Z" fill="black"/>
<path d="M2.65319 26.1044C2.4816 25.9949 2.33984 26.0834 2.33984 26.3087C2.33984 26.5341 2.4816 26.8058 2.65319 26.9195C2.82851 27.0333 2.96467 26.9427 2.96467 26.7152C2.96467 26.4878 2.82851 26.2182 2.65319 26.1044Z" fill="black"/>
<path d="M3.8525 26.8833C3.6809 26.7759 3.54102 26.8644 3.54102 27.0918C3.54102 27.3193 3.6809 27.5889 3.8525 27.7005C4.02409 27.8122 4.16398 27.7237 4.16398 27.4962C4.16398 27.2688 4.02409 26.9971 3.8525 26.8833Z" fill="black"/>
<path d="M5.04586 27.6643C4.87613 27.5506 4.73438 27.6411 4.73438 27.8686C4.73438 28.0961 4.87613 28.3657 5.04586 28.4773C5.22118 28.5889 5.3592 28.5026 5.3592 28.273C5.3592 28.0434 5.21932 27.7759 5.04586 27.6664V27.6643Z" fill="black"/>
<path d="M6.24312 28.4443C6.07153 28.3327 5.93164 28.4232 5.93164 28.6465C5.93164 28.8697 6.07153 29.1499 6.24312 29.2636C6.41472 29.3731 6.5602 29.2826 6.5602 29.0572C6.5602 28.8318 6.41472 28.558 6.24312 28.4443Z" fill="black"/>
<path d="M7.43844 29.2255C7.26311 29.1139 7.12695 29.2044 7.12695 29.4298C7.12695 29.6551 7.26311 29.929 7.43844 30.0427C7.61376 30.1543 7.75178 30.0638 7.75178 29.8384C7.75178 29.613 7.61189 29.3392 7.43844 29.2276V29.2255Z" fill="black"/>
<path d="M8.63756 30.0072C8.46597 29.8955 8.32422 29.984 8.32422 30.2094C8.32422 30.4347 8.46597 30.7106 8.63756 30.8244C8.80916 30.9339 8.94905 30.8391 8.94905 30.6159C8.94905 30.3926 8.80916 30.1209 8.63756 30.0072Z" fill="black"/>
<path d="M2.65319 27.6191C2.4816 27.5032 2.33984 27.5959 2.33984 27.8234C2.33984 28.0508 2.4816 28.3204 2.65319 28.4342C2.82851 28.5437 2.96467 28.4552 2.96467 28.2278C2.96467 28.0003 2.82851 27.7307 2.65319 27.6191Z" fill="black"/>
<path d="M3.8525 28.3973C3.6809 28.2857 3.54102 28.3762 3.54102 28.6037C3.54102 28.8312 3.6809 29.1029 3.8525 29.2145C4.02409 29.3261 4.16398 29.2356 4.16398 29.0081C4.16398 28.7806 4.02409 28.511 3.8525 28.3973Z" fill="black"/>
<path d="M5.04586 29.1795C4.87613 29.0679 4.73438 29.1585 4.73438 29.3859C4.73438 29.6134 4.87613 29.883 5.04586 29.9925C5.22118 30.1084 5.3592 30.0157 5.3592 29.7924C5.3592 29.5692 5.21932 29.2954 5.04586 29.1795Z" fill="black"/>
<path d="M6.24312 29.9589C6.07153 29.8473 5.93164 29.9378 5.93164 30.1632C5.93164 30.3885 6.07153 30.6602 6.24312 30.7719C6.41472 30.8856 6.5602 30.795 6.5602 30.5697C6.5602 30.3443 6.41472 30.0705 6.24312 29.9568V29.9589Z" fill="black"/>
<path d="M7.43844 30.7405C7.26311 30.6267 7.12695 30.7173 7.12695 30.9448C7.12695 31.1722 7.26311 31.4418 7.43844 31.5556C7.61376 31.6693 7.75178 31.5808 7.75178 31.3534C7.75178 31.1259 7.61189 30.8563 7.43844 30.7405Z" fill="black"/>
<path d="M8.63756 31.5211C8.46597 31.4074 8.32422 31.4958 8.32422 31.7254C8.32422 31.955 8.46597 32.2225 8.63756 32.3362C8.80916 32.45 8.94905 32.3573 8.94905 32.1319C8.94905 31.9066 8.80916 31.6327 8.63756 31.5211Z" fill="black"/>
<path d="M2.65319 29.1328C2.4816 29.019 2.33984 29.1117 2.33984 29.3371C2.33984 29.5624 2.4816 29.8362 2.65319 29.95C2.82851 30.0595 2.96467 29.971 2.96467 29.7436C2.96467 29.5161 2.82851 29.2465 2.65319 29.1328Z" fill="black"/>
<path d="M3.8525 29.913C3.6809 29.8014 3.54102 29.8919 3.54102 30.1173C3.54102 30.3426 3.6809 30.6143 3.8525 30.7302C4.02409 30.8397 4.16398 30.7491 4.16398 30.5259C4.16398 30.3026 4.02409 30.0288 3.8525 29.9151V29.913Z" fill="black"/>
<path d="M5.04586 30.6923C4.87613 30.5785 4.73438 30.6712 4.73438 30.8945C4.73438 31.1177 4.87613 31.3958 5.04586 31.5074C5.22118 31.6211 5.3592 31.5284 5.3592 31.3052C5.3592 31.0819 5.21932 30.806 5.04586 30.6923Z" fill="black"/>
<path d="M6.24312 31.4705C6.07153 31.3589 5.93164 31.4495 5.93164 31.677C5.93164 31.9044 6.07153 32.174 6.24312 32.2878C6.41472 32.4015 6.5602 32.3088 6.5602 32.0856C6.5602 31.8623 6.41472 31.5822 6.24312 31.4705Z" fill="black"/>
<path d="M7.43844 32.2518C7.26311 32.1402 7.12695 32.2308 7.12695 32.4562C7.12695 32.6815 7.26311 32.9532 7.43844 33.067C7.61376 33.1786 7.75178 33.088 7.75178 32.8627C7.75178 32.6373 7.61189 32.3635 7.43844 32.2497V32.2518Z" fill="black"/>
<path d="M8.63756 33.0302C8.46597 32.9206 8.32422 33.0091 8.32422 33.2366C8.32422 33.464 8.46597 33.7336 8.63756 33.8474C8.80916 33.959 8.94905 33.8705 8.94905 33.6431C8.94905 33.4156 8.80916 33.146 8.63756 33.0302Z" fill="black"/>
<path d="M2.65319 30.6478C2.4816 30.5341 2.33984 30.6246 2.33984 30.8521C2.33984 31.0796 2.4816 31.3492 2.65319 31.4608C2.82851 31.5724 2.96467 31.484 2.96467 31.2586C2.96467 31.0332 2.82851 30.7594 2.65319 30.6478Z" fill="black"/>
<path d="M3.8525 31.4284C3.6809 31.3147 3.54102 31.4031 3.54102 31.6306C3.54102 31.8581 3.6809 32.1298 3.8525 32.2435C4.02409 32.3572 4.16398 32.2646 4.16398 32.0392C4.16398 31.8138 4.02409 31.5442 3.8525 31.4284Z" fill="black"/>
<path d="M5.04586 32.2077C4.87613 32.0961 4.73438 32.1825 4.73438 32.4099C4.73438 32.6374 4.87613 32.9091 5.04586 33.0207C5.22118 33.1366 5.3592 33.0418 5.3592 32.8185C5.3592 32.5953 5.21932 32.3173 5.04586 32.2077Z" fill="black"/>
<path d="M6.24312 32.986C6.07153 32.8744 5.93164 32.9607 5.93164 33.1903C5.93164 33.4199 6.07153 33.6874 6.24312 33.8011C6.41472 33.9148 6.5602 33.8222 6.5602 33.5968C6.5602 33.3714 6.41472 33.0997 6.24312 32.9881V32.986Z" fill="black"/>
<path d="M7.43844 33.7655C7.26311 33.6517 7.12695 33.7444 7.12695 33.9698C7.12695 34.1951 7.26311 34.4689 7.43844 34.5827C7.61376 34.6943 7.75178 34.6037 7.75178 34.3805C7.75178 34.1572 7.61189 33.8771 7.43844 33.7676V33.7655Z" fill="black"/>
<path d="M8.63756 34.5468C8.46597 34.4351 8.32422 34.5257 8.32422 34.7511C8.32422 34.9764 8.46597 35.2481 8.63756 35.364C8.80916 35.4756 8.94905 35.385 8.94905 35.1576C8.94905 34.9301 8.80916 34.6605 8.63756 34.5468Z" fill="black"/>
<path d="M2.65319 32.1594C2.4816 32.0457 2.33984 32.1362 2.33984 32.3637C2.33984 32.5912 2.4816 32.8629 2.65319 32.9766C2.82851 33.0903 2.96467 32.9977 2.96467 32.7723C2.96467 32.5469 2.82851 32.271 2.65319 32.1594Z" fill="black"/>
<path d="M3.8525 32.9427C3.6809 32.831 3.54102 32.9195 3.54102 33.147C3.54102 33.3744 3.6809 33.644 3.8525 33.7578C4.02409 33.8694 4.16398 33.7788 4.16398 33.5556C4.16398 33.3323 4.02409 33.0564 3.8525 32.9427Z" fill="black"/>
<path d="M5.04586 33.7223C4.87613 33.6107 4.73438 33.6971 4.73438 33.9266C4.73438 34.1562 4.87613 34.4237 5.04586 34.5374C5.22118 34.6491 5.3592 34.5585 5.3592 34.3331C5.3592 34.1078 5.21932 33.8361 5.04586 33.7223Z" fill="black"/>
<path d="M6.24312 34.4995C6.07153 34.3878 5.93164 34.4805 5.93164 34.7059C5.93164 34.9312 6.07153 35.2029 6.24312 35.3188C6.41472 35.4304 6.5602 35.3377 6.5602 35.1145C6.5602 34.8912 6.41472 34.6132 6.24312 34.5016V34.4995Z" fill="black"/>
<path d="M7.43844 35.2791C7.26311 35.1675 7.12695 35.2581 7.12695 35.4856C7.12695 35.713 7.26311 35.9826 7.43844 36.0942C7.61376 36.2059 7.75178 36.1174 7.75178 35.8942C7.75178 35.6709 7.61189 35.3929 7.43844 35.2791Z" fill="black"/>
<path d="M8.63756 36.0624C8.46597 35.9508 8.32422 36.0413 8.32422 36.2667C8.32422 36.4921 8.46597 36.768 8.63756 36.8796C8.80916 36.9912 8.94905 36.8986 8.94905 36.6753C8.94905 36.452 8.80916 36.1782 8.63756 36.0624Z" fill="black"/>
<path d="M2.65319 33.6751C2.4816 33.5635 2.33984 33.652 2.33984 33.8773C2.33984 34.1027 2.4816 34.3765 2.65319 34.4881C2.82851 34.6019 2.96467 34.5113 2.96467 34.2838C2.96467 34.0564 2.82851 33.7847 2.65319 33.6751Z" fill="black"/>
<path d="M3.8525 34.4536C3.6809 34.3441 3.54102 34.4347 3.54102 34.66C3.54102 34.8854 3.6809 35.1571 3.8525 35.2687C4.02409 35.3804 4.16398 35.2898 4.16398 35.0686C4.16398 34.8475 4.02409 34.5653 3.8525 34.4536Z" fill="black"/>
<path d="M5.04586 35.2324C4.87613 35.125 4.73438 35.2114 4.73438 35.4367C4.73438 35.6621 4.87613 35.9359 5.04586 36.0496C5.22118 36.1634 5.3592 36.0707 5.3592 35.8453C5.3592 35.62 5.21932 35.3441 5.04586 35.2324Z" fill="black"/>
<path d="M6.24312 36.0145C6.07153 35.9029 5.93164 35.9935 5.93164 36.2188C5.93164 36.4442 6.07153 36.7201 6.24312 36.8339C6.41472 36.9434 6.5602 36.8528 6.5602 36.6275C6.5602 36.4021 6.41472 36.1262 6.24312 36.0145Z" fill="black"/>
<path d="M7.43844 36.7938C7.26311 36.6801 7.12695 36.7728 7.12695 36.996C7.12695 37.2193 7.26311 37.4973 7.43844 37.6068C7.61376 37.7206 7.75178 37.63 7.75178 37.4067C7.75178 37.1835 7.61189 36.9097 7.43844 36.7938Z" fill="black"/>
<path d="M8.63756 37.5743C8.46597 37.4627 8.32422 37.5575 8.32422 37.7786C8.32422 37.9998 8.46597 38.2799 8.63756 38.3894C8.80916 38.5032 8.94905 38.4126 8.94905 38.1894C8.94905 37.9661 8.80916 37.6902 8.63756 37.5743Z" fill="black"/>
<path d="M2.65319 35.1864C2.4816 35.0747 2.33984 35.1653 2.33984 35.3928C2.33984 35.6202 2.4816 35.8919 2.65319 36.0015C2.82851 36.1173 2.96467 36.0246 2.96467 35.7972C2.96467 35.5697 2.82851 35.3001 2.65319 35.1864Z" fill="black"/>
<path d="M3.8525 35.9686C3.6809 35.8591 3.54102 35.9476 3.54102 36.1751C3.54102 36.4025 3.6809 36.6721 3.8525 36.7837C4.02409 36.8954 4.16398 36.8069 4.16398 36.5816C4.16398 36.3562 4.02409 36.0803 3.8525 35.9686Z" fill="black"/>
<path d="M5.04586 36.7475C4.87613 36.6338 4.73438 36.7286 4.73438 36.9518C4.73438 37.1751 4.87613 37.4489 5.04586 37.5605C5.22118 37.6721 5.3592 37.5858 5.3592 37.3604C5.3592 37.1351 5.21932 36.8634 5.04586 36.7475Z" fill="black"/>
<path d="M6.24312 37.5282C6.07153 37.4144 5.93164 37.5071 5.93164 37.7325C5.93164 37.9578 6.07153 38.2337 6.24312 38.3454C6.41472 38.457 6.5602 38.3643 6.5602 38.1411C6.5602 37.9178 6.41472 37.644 6.24312 37.5282Z" fill="black"/>
<path d="M7.43844 38.3081C7.26311 38.1943 7.12695 38.2891 7.12695 38.5124C7.12695 38.7356 7.26311 39.0115 7.43844 39.1211C7.61376 39.2348 7.75178 39.1442 7.75178 38.921C7.75178 38.6977 7.61189 38.4197 7.43844 38.3081Z" fill="black"/>
<path d="M8.63756 39.0907C8.46597 38.9769 8.32422 39.0696 8.32422 39.295C8.32422 39.5203 8.46597 39.7941 8.63756 39.9058C8.80916 40.0195 8.94905 39.9268 8.94905 39.7015C8.94905 39.4761 8.80916 39.2023 8.63756 39.0907Z" fill="black"/>
<path d="M2.65319 36.701C2.4816 36.5873 2.33984 36.68 2.33984 36.9053C2.33984 37.1307 2.4816 37.4066 2.65319 37.5182C2.82851 37.6299 2.96467 37.5414 2.96467 37.3118C2.96467 37.0822 2.82851 36.8148 2.65319 36.7031V36.701Z" fill="black"/>
<path d="M3.8525 37.4837C3.6809 37.372 3.54102 37.4605 3.54102 37.688C3.54102 37.9154 3.6809 38.185 3.8525 38.3009C4.02409 38.4083 4.16398 38.3177 4.16398 38.0903C4.16398 37.8628 4.02409 37.5932 3.8525 37.4816V37.4837Z" fill="black"/>
<path d="M5.04586 38.2616C4.87613 38.1478 4.73438 38.2405 4.73438 38.4659C4.73438 38.6912 4.87613 38.9692 5.04586 39.0767C5.22118 39.1904 5.3592 39.1019 5.3592 38.8724C5.3592 38.6428 5.21932 38.3732 5.04586 38.2616Z" fill="black"/>
<path d="M6.24312 39.0438C6.07153 38.9301 5.93164 39.0227 5.93164 39.2481C5.93164 39.4735 6.07153 39.7473 6.24312 39.8589C6.41472 39.9726 6.5602 39.88 6.5602 39.6546C6.5602 39.4292 6.41472 39.1575 6.24312 39.0438Z" fill="black"/>
<path d="M7.43844 39.8202C7.26311 39.7085 7.12695 39.7991 7.12695 40.0266C7.12695 40.254 7.26311 40.5257 7.43844 40.6374C7.61376 40.7511 7.75178 40.6584 7.75178 40.4331C7.75178 40.2077 7.61189 39.9318 7.43844 39.8202Z" fill="black"/>
<path d="M8.63756 40.6011C8.46597 40.4895 8.32422 40.5821 8.32422 40.8054C8.32422 41.0286 8.46597 41.3046 8.63756 41.4183C8.80916 41.5299 8.94905 41.4372 8.94905 41.2119C8.94905 40.9865 8.80916 40.7127 8.63756 40.599V40.6011Z" fill="black"/>
<path d="M2.65319 38.2175C2.4816 38.1038 2.33984 38.1922 2.33984 38.4176C2.33984 38.643 2.4816 38.9147 2.65319 39.0305C2.82851 39.1442 2.96467 39.0537 2.96467 38.8262C2.96467 38.5987 2.82851 38.3291 2.65319 38.2175Z" fill="black"/>
<path d="M3.8525 39.0002C3.6809 38.8844 3.54102 38.9771 3.54102 39.2024C3.54102 39.4278 3.6809 39.6995 3.8525 39.8132C4.02409 39.927 4.16398 39.8364 4.16398 39.6089C4.16398 39.3814 4.02409 39.1076 3.8525 39.0002Z" fill="black"/>
<path d="M5.04586 39.7781C4.87613 39.6665 4.73438 39.7528 4.73438 39.9782C4.73438 40.2036 4.87613 40.4774 5.04586 40.5911C5.22118 40.7048 5.3592 40.6122 5.3592 40.3847C5.3592 40.1572 5.21932 39.8897 5.04586 39.776V39.7781Z" fill="black"/>
<path d="M6.24312 40.5565C6.07153 40.4449 5.93164 40.5355 5.93164 40.7608C5.93164 40.9862 6.07153 41.26 6.24312 41.3737C6.41472 41.4854 6.5602 41.3948 6.5602 41.1694C6.5602 40.9441 6.41472 40.6682 6.24312 40.5565Z" fill="black"/>
<path d="M7.43844 41.3339C7.26311 41.2244 7.12695 41.3129 7.12695 41.5382C7.12695 41.7636 7.26311 42.0395 7.43844 42.1532C7.61376 42.2649 7.75178 42.1743 7.75178 41.9426C7.75178 41.7109 7.61189 41.4477 7.43844 41.3339Z" fill="black"/>
<path d="M8.63756 42.1162C8.46597 42.0067 8.32422 42.0951 8.32422 42.3184C8.32422 42.5417 8.46597 42.8218 8.63756 42.9334C8.80916 43.0429 8.94905 42.9545 8.94905 42.727C8.94905 42.4995 8.80916 42.2299 8.63756 42.1162Z" fill="black"/>
<path d="M2.65319 39.7333C2.4816 39.6217 2.33984 39.7122 2.33984 39.9376C2.33984 40.163 2.4816 40.4347 2.65319 40.5505C2.82851 40.6642 2.96467 40.5716 2.96467 40.3462C2.96467 40.1208 2.82851 39.847 2.65319 39.7333Z" fill="black"/>
<path d="M3.8525 40.5111C3.6809 40.3994 3.54102 40.4879 3.54102 40.7133C3.54102 40.9386 3.6809 41.2124 3.8525 41.3262C4.02409 41.4378 4.16398 41.3472 4.16398 41.1219C4.16398 40.8965 4.02409 40.6248 3.8525 40.509V40.5111Z" fill="black"/>
<path d="M5.04586 41.2899C4.87613 41.1804 4.73438 41.2689 4.73438 41.4963C4.73438 41.7238 4.87613 41.9934 5.04586 42.105C5.22118 42.2167 5.3592 42.1261 5.3592 41.9007C5.3592 41.6754 5.21932 41.4037 5.04586 41.2899Z" fill="black"/>
<path d="M6.24312 42.073C6.07153 41.9613 5.93164 42.0477 5.93164 42.2752C5.93164 42.5026 6.07153 42.7722 6.24312 42.886C6.41472 42.9997 6.5602 42.9091 6.5602 42.6817C6.5602 42.4542 6.41472 42.1846 6.24312 42.073Z" fill="black"/>
<path d="M7.43844 42.8505C7.26311 42.7389 7.12695 42.8295 7.12695 43.0527C7.12695 43.276 7.26311 43.554 7.43844 43.6677C7.61376 43.7773 7.75178 43.6867 7.75178 43.4634C7.75178 43.2402 7.61189 42.9643 7.43844 42.8505Z" fill="black"/>
<path d="M8.63756 43.6307C8.46597 43.5191 8.32422 43.6096 8.32422 43.8371C8.32422 44.0646 8.46597 44.3342 8.63756 44.4458C8.80916 44.5595 8.94905 44.4669 8.94905 44.2415C8.94905 44.0161 8.80916 43.7444 8.63756 43.6286V43.6307Z" fill="black"/>
<path d="M2.65319 41.2472C2.4816 41.1334 2.33984 41.224 2.33984 41.4515C2.33984 41.6789 2.4816 41.9464 2.65319 42.0602C2.82851 42.176 2.96467 42.0833 2.96467 41.8601C2.96467 41.6368 2.82851 41.3588 2.65319 41.2472Z" fill="black"/>
<path d="M3.8525 42.0246C3.6809 41.913 3.54102 42.0015 3.54102 42.231C3.54102 42.4606 3.6809 42.7281 3.8525 42.8397C4.02409 42.9514 4.16398 42.8608 4.16398 42.6396C4.16398 42.4185 4.02409 42.1384 3.8525 42.0246Z" fill="black"/>
<path d="M5.04586 42.8074C4.87613 42.6957 4.73438 42.7821 4.73438 43.0095C4.73438 43.237 4.87613 43.5087 5.04586 43.6225C5.22118 43.732 5.3592 43.6456 5.3592 43.416C5.3592 43.1865 5.21932 42.9211 5.04586 42.8095V42.8074Z" fill="black"/>
<path d="M6.24312 43.5877C6.07153 43.474 5.93164 43.5667 5.93164 43.792C5.93164 44.0174 6.07153 44.2912 6.24312 44.4049C6.41472 44.5145 6.5602 44.4239 6.5602 44.2006C6.5602 43.9774 6.41472 43.7015 6.24312 43.5877Z" fill="black"/>
<path d="M7.43844 44.3631C7.26311 44.2494 7.12695 44.3421 7.12695 44.5674C7.12695 44.7928 7.26311 45.0666 7.43844 45.1803C7.61376 45.292 7.75178 45.2014 7.75178 44.976C7.75178 44.7507 7.61189 44.479 7.43844 44.3631Z" fill="black"/>
<path d="M8.63756 45.144C8.46597 45.0303 8.32422 45.125 8.32422 45.3483C8.32422 45.5716 8.46597 45.8454 8.63756 45.9591C8.80916 46.0728 8.94905 45.9802 8.94905 45.759C8.94905 45.5379 8.80916 45.2598 8.63756 45.1461V45.144Z" fill="black"/>
<path d="M2.65319 42.7568C2.4816 42.6451 2.33984 42.7357 2.33984 42.9653C2.33984 43.1948 2.4816 43.4623 2.65319 43.5719C2.82851 43.6877 2.96467 43.5971 2.96467 43.3697C2.96467 43.1422 2.82851 42.8705 2.65319 42.7568Z" fill="black"/>
<path d="M3.8525 43.5389C3.6809 43.423 3.54102 43.5178 3.54102 43.7432C3.54102 43.9685 3.6809 44.2402 3.8525 44.3497C4.02409 44.4614 4.16398 44.375 4.16398 44.1454C4.16398 43.9159 4.02409 43.6463 3.8525 43.5367V43.5389Z" fill="black"/>
<path d="M5.04586 44.3172C4.87613 44.2034 4.73438 44.2961 4.73438 44.5236C4.73438 44.7511 4.87613 45.0228 5.04586 45.1323C5.22118 45.2418 5.3592 45.1533 5.3592 44.928C5.3592 44.7026 5.21932 44.4309 5.04586 44.3172Z" fill="black"/>
<path d="M6.24312 45.0971C6.07153 44.9834 5.93164 45.0782 5.93164 45.3014C5.93164 45.5247 6.07153 45.8006 6.24312 45.9101C6.41472 46.0239 6.5602 45.9354 6.5602 45.71C6.5602 45.4847 6.41472 45.2088 6.24312 45.0971Z" fill="black"/>
<path d="M7.43844 45.8788C7.26311 45.7651 7.12695 45.8577 7.12695 46.081C7.12695 46.3043 7.26311 46.5823 7.43844 46.6939C7.61376 46.8076 7.75178 46.715 7.75178 46.4896C7.75178 46.2642 7.61189 45.9925 7.43844 45.8788Z" fill="black"/>
<path d="M8.63756 46.6561C8.46597 46.5445 8.32422 46.6351 8.32422 46.8604C8.32422 47.0858 8.46597 47.3596 8.63756 47.4712C8.80916 47.5829 8.94905 47.4923 8.94905 47.2712C8.94905 47.05 8.80916 46.7678 8.63756 46.6561Z" fill="black"/>
<path d="M2.65319 44.2724C2.4816 44.1607 2.33984 44.2513 2.33984 44.4767C2.33984 44.702 2.4816 44.9779 2.65319 45.0896C2.82851 45.2012 2.96467 45.1106 2.96467 44.8853C2.96467 44.6599 2.82851 44.3861 2.65319 44.2724Z" fill="black"/>
<path d="M3.8525 45.052C3.6809 44.9382 3.54102 45.0288 3.54102 45.2563C3.54102 45.4838 3.6809 45.7555 3.8525 45.865C4.02409 45.9787 4.16398 45.8882 4.16398 45.6628C4.16398 45.4374 4.02409 45.1636 3.8525 45.052Z" fill="black"/>
<path d="M5.04586 45.8319C4.87613 45.7203 4.73438 45.8109 4.73438 46.0362C4.73438 46.2616 4.87613 46.5354 5.04586 46.647C5.22118 46.7608 5.3592 46.6681 5.3592 46.4427C5.3592 46.2174 5.21932 45.9478 5.04586 45.8298V45.8319Z" fill="black"/>
<path d="M6.24312 46.6132C6.07153 46.5016 5.93164 46.5922 5.93164 46.8154C5.93164 47.0387 6.07153 47.3167 6.24312 47.4283C6.41472 47.5421 6.5602 47.4494 6.5602 47.224C6.5602 46.9987 6.41472 46.7249 6.24312 46.6132Z" fill="black"/>
<path d="M7.43844 47.3938C7.26311 47.28 7.12695 47.3706 7.12695 47.5981C7.12695 47.8256 7.26311 48.0951 7.43844 48.2089C7.61376 48.3226 7.75178 48.2299 7.75178 48.0025C7.75178 47.775 7.61189 47.5054 7.43844 47.3938Z" fill="black"/>
<path d="M8.63756 48.1706C8.46597 48.0569 8.32422 48.1496 8.32422 48.3792C8.32422 48.6087 8.46597 48.8783 8.63756 48.99C8.80916 49.1016 8.94905 49.011 8.94905 48.7835C8.94905 48.5561 8.80916 48.2865 8.63756 48.1706Z" fill="black"/>
<path d="M2.65319 45.7873C2.4816 45.6736 2.33984 45.7642 2.33984 45.9916C2.33984 46.2191 2.4816 46.4887 2.65319 46.6045C2.82851 46.7162 2.96467 46.6256 2.96467 46.396C2.96467 46.1664 2.82851 45.9011 2.65319 45.7894V45.7873Z" fill="black"/>
<path d="M3.8525 46.569C3.6809 46.4532 3.54102 46.5438 3.54102 46.7691C3.54102 46.9945 3.6809 47.2662 3.8525 47.382C4.02409 47.4937 4.16398 47.4052 4.16398 47.1777C4.16398 46.9503 4.02409 46.6764 3.8525 46.569Z" fill="black"/>
<path d="M5.04586 47.347C4.87613 47.2354 4.73438 47.3238 4.73438 47.5492C4.73438 47.7746 4.87613 48.0484 5.04586 48.1621C5.22118 48.2737 5.3592 48.1832 5.3592 47.9578C5.3592 47.7324 5.21932 47.4565 5.04586 47.3449V47.347Z" fill="black"/>
<path d="M6.24312 48.1296C6.07153 48.0158 5.93164 48.1043 5.93164 48.3318C5.93164 48.5592 6.07153 48.8309 6.24312 48.9447C6.41472 49.0584 6.5602 48.9636 6.5602 48.7383C6.5602 48.5129 6.41472 48.2412 6.24312 48.1296Z" fill="black"/>
<path d="M7.43844 48.9045C7.26311 48.795 7.12695 48.8876 7.12695 49.1088C7.12695 49.3299 7.26311 49.6101 7.43844 49.7217C7.61376 49.8333 7.75178 49.7427 7.75178 49.5153C7.75178 49.2878 7.61189 49.0182 7.43844 48.9024V48.9045Z" fill="black"/>
<path d="M8.63756 49.6871C8.46597 49.5754 8.32422 49.6681 8.32422 49.8893C8.32422 50.1104 8.46597 50.3927 8.63756 50.5022C8.80916 50.618 8.94905 50.5253 8.94905 50.3C8.94905 50.0746 8.80916 49.8008 8.63756 49.6871Z" fill="black"/>
<path d="M35.7729 33.2592L50.932 23.3903L15.1831 0.0712891L0.0351562 9.95493L35.7729 33.2592Z" fill="#535359"/>
<path opacity="0.2" d="M41.5117 51.398L48.1255 47.098V45.9092L41.5117 50.2218V51.398Z" fill="black"/>
<path d="M41.5117 47.1434L52.0296 40.2803V34.1592L41.5117 41.0139V47.1434Z" fill="#303033"/>
<path d="M41.5117 44.2865L52.0296 37.4255V37.0166L41.5117 43.8586V44.2865Z" fill="black"/>
<path d="M41.5117 54.4581L52.0296 47.5971V46.4209L41.5117 53.2819V54.4581Z" fill="#A7A9AC"/>
<path d="M51.002 44.6645C51.002 45.4128 51.4686 45.7036 52.036 45.3242C52.6016 44.9532 53.0608 44.0637 53.0608 43.3155C53.0608 42.5672 52.6016 42.2847 52.036 42.6557C51.4611 43.0267 51.002 43.9141 51.002 44.6645Z" fill="#E31B25"/>
<path d="M49.0586 45.9304C49.0586 46.3646 49.3367 46.5438 49.6783 46.3225C50.0124 46.1012 50.2887 45.5763 50.2887 45.1273C50.2887 44.6784 50.0124 44.5055 49.6783 44.7269C49.3367 44.9419 49.0586 45.4857 49.0586 45.9283V45.9304Z" fill="#FF9D26"/>
<path d="M51.6999 50.4538L52.8105 53.9149L53.0252 69.222L50.6341 74.7509L48.9766 73.6695L50.804 49.8721L51.6999 50.4538Z" fill="#303033"/>
<path d="M55.2434 70.7224L50.6348 74.7505L51.7006 50.4534L55.2434 48.1475V70.7224Z" fill="#121214"/>
<path d="M55.2415 48.1472L51.6987 50.4532L50.8027 49.8714L54.3474 47.5654L55.2415 48.1472Z" fill="#535359"/>
<path d="M42.7363 55.1353L50.8039 49.8721L48.9769 73.6695L44.6436 76.4118L42.7363 55.1353Z" fill="#1D374E"/>
<path d="M43.4258 56.0545L50.1142 51.6934L48.597 72.3206L45.0065 74.5908L43.4258 56.0545Z" fill="#2B5E85"/>
<path d="M44.502 58.6708L49.0378 55.7178L48.013 70.1902L45.5715 71.731L44.502 58.6708Z" fill="#1D374E"/>
<path d="M46.2426 77.5823L40.0879 80.5987V58.0258L43.6299 55.7178L46.2426 77.5823Z" fill="#121214"/>
<path d="M43.6303 55.7177L40.0875 58.0257L39.1934 57.4419L42.7362 55.1338L43.6303 55.7177Z" fill="#535359"/>
<path d="M40.0879 58.0263V80.5991L39.1938 80.0194L37.6875 76.63L37.9974 63.5108L39.1938 57.4424L40.0879 58.0263Z" fill="#303033"/>
</svg>
