<svg width="177" height="183" viewBox="0 0 177 183" fill="none" xmlns="http://www.w3.org/2000/svg">
<path fill-rule="evenodd" clip-rule="evenodd" d="M8.62068 49.1971C-1.34294 71.335 -2.67043 97.2968 7.0093 121.633C26.0574 169.521 80.5159 192.978 128.647 174.026C147.029 166.788 161.829 154.41 172.041 139.207L172.399 139.405C162.142 154.687 147.27 167.129 128.797 174.403C80.4575 193.438 25.7613 169.878 6.63037 121.782C-3.09607 97.329 -1.7569 71.241 8.26295 49L8.62068 49.1971Z" fill="#C9C9C9"/>
<path d="M5.9105 44.1761C7.45424 43.6681 9.20099 44.2968 9.81197 45.5803C10.4229 46.8637 9.66673 48.316 8.12299 48.8239C6.57917 49.3319 4.8325 48.7032 4.22152 47.4197C3.61054 46.1363 4.36676 44.684 5.9105 44.1761Z" fill="#A0C5EF"/>
<path d="M170.609 134.211C172.409 133.602 174.447 134.356 175.16 135.897C175.873 137.437 174.99 139.18 173.189 139.789C171.389 140.398 169.35 139.644 168.638 138.104C167.925 136.564 168.807 134.821 170.609 134.211Z" fill="#A0C5EF"/>
</svg>
