<svg width="400" height="211" viewBox="0 0 400 211" fill="none" xmlns="http://www.w3.org/2000/svg">
<path d="M133.432 136.622C133.432 143.031 138.708 148.22 145.224 148.22H191.938C198.454 148.22 203.745 143.031 203.745 136.622V82.2861H133.432V136.622Z" fill="#181616"/>
<path d="M133.431 110.331C142.835 118.391 155.125 123.283 168.58 123.283C182.035 123.283 194.326 118.391 203.73 110.331V82.2861H133.416V110.331H133.431Z" fill="#1B1B1B"/>
<path d="M225.212 56.0441C225.3 25.2637 200.002 0.241457 168.709 0.155501C137.415 0.069546 111.976 24.9524 111.889 55.7328C111.801 86.5133 137.099 111.536 168.392 111.621C199.686 111.707 225.125 86.8246 225.212 56.0441Z" fill="#181616"/>
<path d="M168.581 10.2246C142.941 10.2246 122.154 30.671 122.154 55.9056C122.154 81.1402 142.941 101.572 168.581 101.572C194.222 101.572 215.024 81.1253 215.024 55.9056C215.024 30.6859 194.237 10.2246 168.581 10.2246Z" fill="#1E1E1E"/>
<path d="M137.075 33.8975H200.102C203.171 33.8975 205.665 36.351 205.665 39.3697V76.8126C205.665 79.8312 203.171 82.2848 200.102 82.2848H137.075C134.006 82.2848 131.512 79.8312 131.512 76.8126V39.3697C131.512 36.351 134.006 33.8975 137.075 33.8975Z" fill="#717E90"/>
<path d="M200.086 33.8975H137.059C133.991 33.8975 131.496 36.351 131.496 39.3697V76.8126C131.496 79.8164 133.96 82.2699 137.014 82.2848C137.014 82.1956 137.014 82.1064 137.014 82.0171V44.5742C137.014 41.5556 139.509 39.102 142.578 39.102H205.604C205.604 39.102 205.634 39.102 205.65 39.102C205.514 36.2023 203.08 33.8975 200.101 33.8975H200.086Z" fill="#4E5F75"/>
<path d="M146.281 77.5402C148.602 77.5402 150.484 75.6894 150.484 73.4064C150.484 71.1233 148.602 69.2725 146.281 69.2725C143.96 69.2725 142.078 71.1233 142.078 73.4064C142.078 75.6894 143.96 77.5402 146.281 77.5402Z" fill="#1E1E1E"/>
<path d="M158.603 69.2725C156.29 69.2725 154.4 71.1164 154.4 73.4064C154.4 75.6964 156.275 77.5402 158.603 77.5402C160.931 77.5402 162.806 75.6964 162.806 73.4064C162.806 71.1164 160.931 69.2725 158.603 69.2725Z" fill="#C3C3C3"/>
<path d="M170.939 69.2725C168.626 69.2725 166.736 71.1164 166.736 73.4064C166.736 75.6964 168.611 77.5402 170.939 77.5402C173.267 77.5402 175.142 75.6964 175.142 73.4064C175.142 71.1164 173.267 69.2725 170.939 69.2725Z" fill="#C3C3C3"/>
<path d="M183.275 69.2725C180.962 69.2725 179.072 71.1164 179.072 73.4064C179.072 75.6964 180.947 77.5402 183.275 77.5402C185.603 77.5402 187.478 75.6964 187.478 73.4064C187.478 71.1164 185.603 69.2725 183.275 69.2725Z" fill="#C3C3C3"/>
<path d="M197.184 45.7031H141.475V60.7963H197.184V45.7031Z" fill="#171717"/>
<path d="M151.936 47.5479H143.803V58.9532H151.936V47.5479Z" fill="#353535"/>
<path d="M149.259 53.4369V53.4071C149.698 53.2436 150 52.7975 150 52.2919C150 51.5484 149.29 50.9238 148.02 50.9238C146.75 50.9238 145.979 51.5484 145.979 52.3067V52.4852H147.218C147.218 52.1878 147.445 51.935 147.899 51.935C148.322 51.935 148.549 52.2175 148.549 52.5149C148.549 52.8718 148.322 53.0354 148.035 53.0354H147.612V53.9425H148.156C148.443 53.9425 148.67 54.106 148.67 54.4629C148.67 54.8495 148.473 55.1321 147.899 55.1321C147.324 55.1321 147.128 54.8644 147.128 54.5373H145.812V54.686C145.812 55.489 146.493 56.1284 147.989 56.1284C149.486 56.1284 150.106 55.4741 150.151 54.6711C150.151 54.0614 149.819 53.6004 149.259 53.422V53.4369Z" fill="white"/>
<path d="M162.669 47.5479H154.535V58.9532H162.669V47.5479Z" fill="#353535"/>
<path d="M159.101 52.6784C158.406 52.6784 158.013 53.0055 158.013 53.0055L158.073 52.2471H160.507V50.998H156.97L156.758 53.8085L157.937 53.9721C158.013 53.8828 158.149 53.6003 158.648 53.6003C159.147 53.6003 159.434 53.9275 159.434 54.3587C159.434 54.7899 159.162 55.1022 158.648 55.1022C158.134 55.1022 157.847 54.7751 157.847 54.4033H156.531C156.531 55.4293 157.302 56.1134 158.799 56.1134C160.084 56.1134 160.9 55.3401 160.9 54.3736C160.9 53.3029 160.205 52.6635 159.116 52.6635L159.101 52.6784Z" fill="white"/>
<path d="M173.403 47.5479H165.27V58.9532H173.403V47.5479Z" fill="#353535"/>
<path d="M169.851 52.8272C169.534 52.8272 169.08 52.9313 168.778 53.2138V52.7826C168.778 52.2621 169.05 51.9053 169.519 51.9053C169.987 51.9053 170.214 52.2027 170.214 52.5595V52.619H171.544C171.544 51.5038 170.713 50.9238 169.504 50.9238C168.022 50.9238 167.281 51.6971 167.281 53.6599C167.281 55.37 168.007 56.1432 169.504 56.1432C170.834 56.1432 171.681 55.5187 171.681 54.3886C171.681 53.3923 170.879 52.8421 169.866 52.8421L169.851 52.8272ZM169.488 55.1469C169.02 55.1469 168.763 54.8941 168.763 54.4332C168.763 53.9722 169.02 53.7194 169.488 53.7194C169.957 53.7194 170.214 53.9871 170.214 54.448C170.214 54.909 169.942 55.1469 169.473 55.1469H169.488Z" fill="white"/>
<path d="M184.137 47.5479H176.004V58.9532H184.137V47.5479Z" fill="#353535"/>
<path d="M181.779 51.3997H181.144C181.039 51.816 180.615 52.5298 180.358 52.8867V53.9425H178.892C179.602 53.2287 180.645 51.7268 180.766 50.9238H179.315C178.983 52.0688 178.363 53.2287 177.879 53.9276V55.0131H180.373V56.0391H181.794V55.0131H182.505V53.9425H181.794V51.4145L181.779 51.3997Z" fill="white"/>
<path d="M194.87 47.5479H186.736V58.9532H194.87V47.5479Z" fill="#D12F35"/>
<path d="M192.981 52.4406C192.981 51.5186 192.225 50.9238 191.016 50.9238C189.549 50.9238 188.824 51.593 188.824 52.6339C188.824 52.6785 188.824 52.738 188.824 52.7975H190.154V52.6488C190.154 52.2473 190.411 51.9647 190.88 51.9647C191.348 51.9647 191.515 52.2175 191.515 52.5001C191.515 52.9759 190.683 53.3923 189.519 54.4034C189.096 54.7752 188.809 55.1618 188.809 55.712V56.0689H193.057V54.8347H190.819C191.878 54.0912 192.996 53.5558 192.996 52.4703L192.981 52.4406Z" fill="white"/>
<path d="M197.169 69.2725H190.805V77.5254H197.169V69.2725Z" fill="#1E1E1E"/>
<g style="mix-blend-mode:multiply" opacity="0.47">
<path d="M126.007 48.6172H112.401C112.084 50.9964 111.902 53.4202 111.902 55.8887C111.902 73.1677 119.915 88.5732 132.463 98.8038V54.9816C132.463 51.4723 129.575 48.6172 125.992 48.6172H126.007Z" fill="#888888"/>
</g>
<path d="M107.882 135.442H33.4414V148.216H107.882V135.442Z" fill="#181616"/>
<path d="M107.882 135.442H33.4414V144.156H107.882V135.442Z" fill="#1E1E1E"/>
<path d="M108.199 48.6172H31.7927C28.2192 48.6172 25.3223 51.4666 25.3223 54.9816V133.079C25.3223 136.594 28.2192 139.444 31.7927 139.444H108.199C111.772 139.444 114.669 136.594 114.669 133.079V54.9816C114.669 51.4666 111.772 48.6172 108.199 48.6172Z" fill="#717E90"/>
<path d="M105.341 58.9521H34.6348V112.44H105.341V58.9521Z" fill="#AEAEAE"/>
<path d="M105.357 64.2158H39.125V112.454H105.357V64.2158Z" fill="#E5E5E5"/>
<path d="M70.5723 65.4355H69.4082V69.272H70.5723V65.4355Z" fill="#181616"/>
<path d="M68.2601 65.4824L67.0996 65.5723L67.4056 69.3969L68.5661 69.3071L68.2601 65.4824Z" fill="#181616"/>
<path d="M65.9329 65.7105L64.7832 65.8896L65.3934 69.6789L66.5431 69.4998L65.9329 65.7105Z" fill="#181616"/>
<path d="M63.6455 66.0907L62.5137 66.3584L63.4255 70.0886L64.5574 69.8209L63.6455 66.0907Z" fill="#181616"/>
<path d="M61.3806 66.7214L60.2734 67.0752L61.4787 70.7239L62.5859 70.3701L61.3806 66.7214Z" fill="#181616"/>
<path d="M59.1946 67.4632L58.1191 67.9014L59.6118 71.4458L60.6872 71.0076L59.1946 67.4632Z" fill="#181616"/>
<path d="M57.0588 68.3817L56.0215 68.9014L57.7916 72.32L58.8289 71.8004L57.0588 68.3817Z" fill="#181616"/>
<path d="M55.0004 69.4252L54.0078 70.0234L56.0458 73.2946L57.0383 72.6963L55.0004 69.4252Z" fill="#181616"/>
<path d="M53.0258 70.6571L52.084 71.3301L54.3766 74.4339L55.3184 73.7608L53.0258 70.6571Z" fill="#181616"/>
<path d="M51.1821 72.065L50.2969 72.8086L52.83 75.7259L53.7152 74.9823L51.1821 72.065Z" fill="#181616"/>
<path d="M49.462 73.5958L48.6387 74.4053L51.3962 77.1186L52.2195 76.3091L49.462 73.5958Z" fill="#181616"/>
<path d="M47.8361 75.2377L47.0801 76.1084L50.046 78.6L50.802 77.7293L47.8361 75.2377Z" fill="#181616"/>
<path d="M46.3481 76.9915L45.6641 77.918L48.82 80.1725L49.504 79.246L46.3481 76.9915Z" fill="#181616"/>
<path d="M45.0086 78.8714L44.4004 79.8477L47.7261 81.8522L48.3343 80.8759L45.0086 78.8714Z" fill="#181616"/>
<path d="M43.8644 80.8753L43.3359 81.8955L46.8112 83.6372L47.3397 82.617L43.8644 80.8753Z" fill="#181616"/>
<path d="M42.8439 82.9402L42.3984 83.998L46.002 85.4662L46.4474 84.4084L42.8439 82.9402Z" fill="#181616"/>
<path d="M42.0101 85.0546L41.6504 86.1436L45.3599 87.3291L45.7196 86.2401L42.0101 85.0546Z" fill="#181616"/>
<path d="M41.3188 87.2461L41.0469 88.3594L44.8394 89.2556L45.1113 88.1423L41.3188 87.2461Z" fill="#181616"/>
<path d="M40.7837 89.4628L40.6016 90.5938L44.454 91.1939L44.6361 90.063L40.7837 89.4628Z" fill="#181616"/>
<path d="M40.4956 91.7462L40.4043 92.8877L44.2927 93.1887L44.384 92.0472L40.4956 91.7462Z" fill="#181616"/>
<path d="M44.252 94.0322H40.3516V95.1772H44.252V94.0322Z" fill="#181616"/>
<path d="M99.6602 94.0322H95.7598V95.1772H99.6602V94.0322Z" fill="#181616"/>
<path d="M99.5212 91.7244L95.6328 92.0254L95.7241 93.1669L99.6126 92.8658L99.5212 91.7244Z" fill="#181616"/>
<path d="M99.1919 89.4945L95.3398 90.0967L95.5225 91.2275L99.3746 90.6253L99.1919 89.4945Z" fill="#181616"/>
<path d="M98.6916 87.2626L94.8984 88.1562L95.1696 89.2698L98.9627 88.3761L98.6916 87.2626Z" fill="#181616"/>
<path d="M98.0279 85.0479L94.3184 86.2334L94.6781 87.3224L98.3876 86.1368L98.0279 85.0479Z" fill="#181616"/>
<path d="M97.1643 82.9016L93.5605 84.3691L94.0058 85.4271L97.6096 83.9595L97.1643 82.9016Z" fill="#181616"/>
<path d="M96.1563 80.845L92.6816 82.5879L93.2105 83.6079L96.6852 81.865L96.1563 80.845Z" fill="#181616"/>
<path d="M94.9974 78.9045L91.6699 80.9062L92.2773 81.883L95.6047 79.8813L94.9974 78.9045Z" fill="#181616"/>
<path d="M93.6571 77.0052L90.502 79.2607L91.1863 80.1869L94.3415 77.9314L93.6571 77.0052Z" fill="#181616"/>
<path d="M92.183 75.2473L89.2148 77.7363L89.9701 78.6076L92.9382 76.1186L92.183 75.2473Z" fill="#181616"/>
<path d="M90.5681 73.5972L87.8086 76.3086L88.6313 77.1187L91.3908 74.4073L90.5681 73.5972Z" fill="#181616"/>
<path d="M88.8133 72.0584L86.2812 74.9766L87.1667 75.7199L89.6988 72.8017L88.8133 72.0584Z" fill="#181616"/>
<path d="M86.9572 70.6769L84.6641 73.7803L85.6057 74.4534L87.8989 71.3501L86.9572 70.6769Z" fill="#181616"/>
<path d="M84.995 69.432L82.957 72.7031L83.9496 73.3014L85.9875 70.0302L84.995 69.432Z" fill="#181616"/>
<path d="M82.9302 68.3567L81.1582 71.7744L82.1952 72.2946L83.9672 68.8769L82.9302 68.3567Z" fill="#181616"/>
<path d="M80.8233 67.4675L79.3301 71.0117L80.4055 71.4501L81.8987 67.9059L80.8233 67.4675Z" fill="#181616"/>
<path d="M78.633 66.7052L77.4297 70.3545L78.537 70.7077L79.7403 67.0584L78.633 66.7052Z" fill="#181616"/>
<path d="M76.3507 66.1037L75.4395 69.834L76.5713 70.1015L77.4825 66.3711L76.3507 66.1037Z" fill="#181616"/>
<path d="M74.0711 65.7127L73.4609 69.502L74.6107 69.6811L75.2208 65.8918L74.0711 65.7127Z" fill="#181616"/>
<path d="M71.7077 65.4731L71.4023 69.2979L72.5629 69.3875L72.8682 65.5628L71.7077 65.4731Z" fill="#181616"/>
<path d="M70.5703 62.9365H69.4062V69.2712H70.5703V62.9365Z" fill="#181616"/>
<path d="M58.218 65.1214L57.1426 65.5596L59.6072 71.412L60.6826 70.9739L58.218 65.1214Z" fill="#181616"/>
<path d="M47.6532 71.8232L46.8301 72.6328L51.384 77.1121L52.2071 76.3025L47.6532 71.8232Z" fill="#181616"/>
<path d="M40.4609 81.9411L40.0156 82.999L45.9661 85.4222L46.4114 84.3643L40.4609 81.9411Z" fill="#181616"/>
<path d="M44.2508 94.0293H37.8105V95.1743H44.2508V94.0293Z" fill="#181616"/>
<path d="M102.198 94.0293H95.7578V95.1743H102.198V94.0293Z" fill="#181616"/>
<path d="M99.5286 81.9391L93.5781 84.3623L94.0234 85.4202L99.9739 82.9971L99.5286 81.9391Z" fill="#181616"/>
<path d="M92.3571 71.8287L87.8008 76.3057L88.6235 77.1157L93.1798 72.6388L92.3571 71.8287Z" fill="#181616"/>
<path d="M81.7996 65.1313L79.334 70.9834L80.4094 71.4218L82.875 65.5697L81.7996 65.1313Z" fill="#181616"/>
<path d="M37.5986 94.1206C37.523 94.6857 37.8556 95.1913 38.3847 95.3548L70.1777 104.604C70.4952 102.983 70.9034 101.392 71.4174 99.8159L38.9441 93.2135C38.3242 93.0797 37.7044 93.4961 37.6137 94.1206H37.5986Z" fill="#181616"/>
<path d="M69.9671 95.3242C66.626 95.3242 63.9199 97.986 63.9199 101.272C63.9199 104.559 66.626 107.22 69.9671 107.22C73.3082 107.22 76.0143 104.559 76.0143 101.272C76.0143 97.986 73.3082 95.3242 69.9671 95.3242Z" fill="#181616"/>
<path d="M39.5637 120.573C36.8425 120.573 34.6504 122.744 34.6504 125.406C34.6504 128.068 36.8576 130.239 39.5637 130.239C42.2698 130.239 44.4771 128.068 44.4771 125.406C44.4771 122.744 42.2698 120.573 39.5637 120.573Z" fill="#181616"/>
<path d="M56.3137 120.573C53.5925 120.573 51.4004 122.744 51.4004 125.406C51.4004 128.068 53.6076 130.239 56.3137 130.239C59.0198 130.239 61.2271 128.068 61.2271 125.406C61.2271 122.744 59.0198 120.573 56.3137 120.573Z" fill="#181616"/>
<path d="M100.429 120.573C97.7077 120.573 95.5156 122.744 95.5156 125.406C95.5156 128.068 97.7228 130.239 100.429 130.239C103.135 130.239 105.342 128.068 105.342 125.406C105.342 122.744 103.135 120.573 100.429 120.573Z" fill="#181616"/>
<path d="M365.598 12.7666H365.583C364.723 12.7666 364.025 13.4523 364.025 14.2982V33.2874C364.025 34.1332 364.723 34.819 365.583 34.819H365.598C366.458 34.819 367.155 34.1332 367.155 33.2874V14.2982C367.155 13.4523 366.458 12.7666 365.598 12.7666Z" fill="#ACACAC"/>
<path d="M363.209 119.726C363.209 125.258 358.629 129.763 353.005 129.763H352.823C350.102 129.763 347.532 128.722 345.612 126.819L332.822 114.239L329.33 117.674L342.12 130.254C344.977 133.064 348.787 134.611 352.823 134.611H353.005C361.35 134.611 368.153 127.934 368.153 119.711V37.5537H363.209V119.711V119.726Z" fill="#D12F35"/>
<path d="M332.414 109.702C331.447 108.408 329.527 108.259 328.362 109.404L324.402 113.3C323.238 114.445 323.389 116.334 324.704 117.285L331.945 122.505C333.004 123.278 334.485 123.159 335.423 122.237L337.448 120.245C338.386 119.323 338.492 117.88 337.72 116.824L332.414 109.702Z" fill="#D12F35"/>
<path d="M361.471 37.1375C361.471 39.3532 363.3 41.1525 365.553 41.1525H365.628C367.881 41.1525 369.71 39.3532 369.71 37.1375V25.2266H361.471V37.1375Z" fill="#D12F35"/>
<path d="M376.482 9.86523H376.467C375.607 9.86523 374.91 10.551 374.91 11.3969V30.386C374.91 31.2319 375.607 31.9176 376.467 31.9176H376.482C377.342 31.9176 378.04 31.2319 378.04 30.386V11.3969C378.04 10.551 377.342 9.86523 376.482 9.86523Z" fill="#ACACAC"/>
<path d="M373.972 126.656C373.972 136.262 367.456 143.236 358.491 143.236H358.295L358.113 143.266C357.796 143.311 350.312 144.307 342.98 137.838L318.293 114.21L314.846 117.689L339.564 141.348L339.639 141.407C346.351 147.34 353.321 148.188 356.738 148.188C357.66 148.188 358.325 148.129 358.658 148.084C370.223 147.995 378.916 138.805 378.916 126.641V33.9707H373.972V126.656Z" fill="#181616"/>
<path d="M318.414 110.254C317.447 108.961 315.527 108.812 314.362 109.957L310.402 113.853C309.237 114.998 309.389 116.887 310.704 117.838L317.945 123.058C319.004 123.831 320.485 123.712 321.423 122.79L323.448 120.782C324.386 119.861 324.491 118.418 323.72 117.362L318.414 110.24V110.254Z" fill="#181616"/>
<path d="M372.355 34.2537C372.355 36.4694 374.185 38.2687 376.437 38.2687H376.513C378.765 38.2687 380.595 36.4694 380.595 34.2537V22.3428H372.355V34.2537Z" fill="#181616"/>
<path d="M338.581 31.2363H276.461C272.863 31.2363 269.945 34.2847 269.945 38.0468V141.483C269.945 145.245 272.863 148.294 276.461 148.294H338.581C342.179 148.294 345.097 145.245 345.097 141.483V38.0468C345.097 34.2847 342.179 31.2363 338.581 31.2363Z" fill="#6C6C6C"/>
<path d="M279.772 39.3408H335.27C337.054 39.3408 338.506 40.7684 338.506 42.523V71.8171C338.506 73.5718 337.054 74.9993 335.27 74.9993H279.772C277.988 74.9993 276.537 73.5718 276.537 71.8171V42.523C276.537 40.7684 277.988 39.3408 279.772 39.3408Z" fill="#181616"/>
<path d="M332.292 45.1699H282.766V69.1703H332.292V45.1699Z" fill="#ACACAC"/>
<path d="M332.276 49.2285H286.59V69.1693H332.276V49.2285Z" fill="#E5E5E5"/>
<path d="M321.872 125.182C329.795 117.389 329.795 104.754 321.872 96.9605C313.949 89.1673 301.103 89.1673 293.18 96.9605C285.257 104.754 285.257 117.389 293.18 125.182C301.103 132.975 313.949 132.975 321.872 125.182Z" fill="#181616"/>
<path d="M307.529 127.522C316.763 127.522 324.249 120.158 324.249 111.075C324.249 101.992 316.763 94.6289 307.529 94.6289C298.295 94.6289 290.809 101.992 290.809 111.075C290.809 120.158 298.295 127.522 307.529 127.522Z" fill="#535353"/>
<g style="mix-blend-mode:multiply" opacity="0.47">
<path d="M302.828 124.546L305.745 127.431C306.335 127.49 306.925 127.52 307.514 127.52C316.661 127.52 324.083 120.308 324.22 111.341L309.253 96.7832L302.812 124.546H302.828Z" fill="#383838"/>
</g>
<path d="M308.087 96.5186H306.968C305.532 96.5186 304.338 97.6041 304.217 99.0167L302.281 122.705C302.161 124.281 303.415 125.634 305.033 125.634H310.007C311.624 125.634 312.894 124.281 312.758 122.705L310.823 99.0167C310.702 97.6041 309.508 96.5186 308.072 96.5186H308.087Z" fill="#7C7C7C"/>
<path d="M303.264 110.672L302.281 122.702C302.161 124.278 303.415 125.631 305.033 125.631H310.007C311.624 125.631 312.894 124.278 312.758 122.702L311.776 110.672H303.249H303.264Z" fill="#666666"/>
<path d="M288.994 79.5479H276.537V87.0573H288.994V79.5479Z" fill="#96C6D8"/>
<path d="M305.504 79.5479H293.047V87.0573H305.504V79.5479Z" fill="#B0B0B0"/>
<path d="M322.012 79.5479H309.555V87.0573H322.012V79.5479Z" fill="#B0B0B0"/>
<path d="M338.522 79.5479H326.064V87.0573H338.522V79.5479Z" fill="#FFCB00"/>
<path d="M295.025 52.8002L290.882 52.7705C290.58 52.7705 290.353 53.0679 290.444 53.3653L290.807 54.4657C290.867 54.659 291.049 54.778 291.23 54.778H294.647C294.843 54.7928 295.025 54.6739 295.085 54.4806L295.448 53.3802C295.554 53.0828 295.327 52.7854 295.025 52.7705V52.8002Z" fill="#181616"/>
<path d="M290.792 54.852L289.703 54.4505C289.416 54.3464 289.099 54.5843 289.099 54.9115L289.068 59.3874C289.068 59.7294 289.371 59.9673 289.658 59.8632L290.762 59.4766C290.943 59.4171 291.079 59.2238 291.079 59.0156L291.109 55.313C291.109 55.1048 290.988 54.9115 290.807 54.8371L290.792 54.852Z" fill="#181616"/>
<path d="M296.129 54.479L295.04 54.8656C294.859 54.9251 294.723 55.1184 294.723 55.3266V59.0293C294.723 59.2374 294.829 59.4307 295.025 59.4902L296.114 59.8917C296.416 59.9958 296.718 59.7579 296.718 59.4307V54.94C296.733 54.598 296.431 54.36 296.144 54.4641L296.129 54.479Z" fill="#181616"/>
<path d="M290.747 61.2769L289.658 60.8754C289.371 60.7713 289.054 60.9943 289.054 61.3363L289.023 65.7974C289.023 66.1245 289.326 66.3624 289.613 66.2583L290.702 65.8717C290.883 65.8122 291.019 65.6189 291.019 65.4107L291.049 61.7378C291.049 61.5296 290.928 61.3363 290.747 61.2769Z" fill="#181616"/>
<path d="M296.068 60.9036L294.98 61.2903C294.798 61.3497 294.662 61.5431 294.662 61.7512V65.4242C294.662 65.6323 294.768 65.8256 294.964 65.8851L296.053 66.2866C296.34 66.3907 296.658 66.1528 296.658 65.8256V61.3646C296.673 61.0375 296.37 60.7996 296.083 60.9036H296.068Z" fill="#181616"/>
<path d="M295.011 66.5118C294.95 66.3185 294.769 66.1995 294.572 66.1995H291.156C290.959 66.1846 290.778 66.3036 290.717 66.4969L290.355 67.5824C290.249 67.8798 290.476 68.1772 290.778 68.1921L294.92 68.2218C295.238 68.2218 295.449 67.9244 295.359 67.627L294.996 66.5266L295.011 66.5118Z" fill="#181616"/>
<path d="M306.924 52.8002L302.782 52.7705C302.464 52.7705 302.253 53.0679 302.343 53.3653L302.706 54.4657C302.767 54.659 302.948 54.778 303.145 54.778H306.561C306.758 54.7928 306.939 54.6739 307 54.4806L307.363 53.3802C307.468 53.0828 307.242 52.7854 306.939 52.7705L306.924 52.8002Z" fill="#181616"/>
<path d="M302.69 54.852L301.602 54.4505C301.314 54.3464 300.997 54.5843 300.997 54.9115L300.967 59.3874C300.967 59.7294 301.269 59.9673 301.556 59.8632L302.645 59.4766C302.826 59.4171 302.962 59.2238 302.962 59.0156L302.993 55.313C302.993 55.1048 302.872 54.9115 302.69 54.8371V54.852Z" fill="#181616"/>
<path d="M308.027 54.479L306.939 54.8656C306.757 54.9251 306.621 55.1184 306.621 55.3266V59.0293C306.621 59.2374 306.727 59.4307 306.923 59.4902L308.012 59.8917C308.314 59.9958 308.617 59.7579 308.617 59.4307V54.94C308.632 54.598 308.329 54.36 308.042 54.4641L308.027 54.479Z" fill="#181616"/>
<path d="M302.645 61.2769L301.557 60.8754C301.27 60.7713 300.952 60.9943 300.952 61.3363L300.922 65.7974C300.922 66.1245 301.224 66.3624 301.511 66.2583L302.6 65.8717C302.781 65.8122 302.917 65.6189 302.917 65.4107L302.948 61.7378C302.948 61.5296 302.827 61.3363 302.645 61.2769Z" fill="#181616"/>
<path d="M307.982 60.9036L306.894 61.2903C306.712 61.3497 306.576 61.5431 306.576 61.7512V65.4242C306.576 65.6323 306.682 65.8256 306.879 65.8851L307.967 66.2866C308.254 66.3907 308.572 66.1528 308.572 65.8256V61.3646C308.587 61.0375 308.285 60.7996 307.997 60.9036H307.982Z" fill="#181616"/>
<path d="M306.923 66.5118C306.863 66.3185 306.681 66.1995 306.485 66.1995H303.068C302.871 66.1846 302.69 66.3036 302.629 66.4969L302.267 67.5824C302.161 67.8798 302.388 68.1772 302.69 68.1921L306.832 68.2218C307.15 68.2218 307.361 67.9244 307.271 67.627L306.908 66.5266L306.923 66.5118Z" fill="#181616"/>
<path d="M316.174 52.8002L312.032 52.7705C311.714 52.7705 311.503 53.0679 311.593 53.3653L311.956 54.4657C312.017 54.659 312.198 54.778 312.395 54.778H315.811C316.008 54.7928 316.189 54.6739 316.25 54.4806L316.613 53.3802C316.718 53.0828 316.492 52.7854 316.189 52.7705L316.174 52.8002Z" fill="#181616"/>
<path d="M311.942 54.852L310.854 54.4505C310.566 54.3464 310.249 54.5843 310.249 54.9115L310.219 59.3874C310.219 59.7294 310.521 59.9673 310.808 59.8632L311.897 59.4766C312.078 59.4171 312.214 59.2238 312.214 59.0156L312.245 55.313C312.245 55.1048 312.124 54.9115 311.942 54.8371V54.852Z" fill="#181616"/>
<path d="M317.279 54.479L316.191 54.8656C316.009 54.9251 315.873 55.1184 315.873 55.3266V59.0293C315.873 59.2374 315.979 59.4307 316.175 59.4902L317.264 59.8917C317.566 59.9958 317.869 59.7579 317.869 59.4307V54.94C317.884 54.598 317.581 54.36 317.294 54.4641L317.279 54.479Z" fill="#181616"/>
<path d="M311.882 61.2769L310.793 60.8754C310.506 60.7713 310.188 60.9943 310.188 61.3363L310.158 65.7974C310.158 66.1245 310.461 66.3624 310.748 66.2583L311.836 65.8717C312.018 65.8122 312.154 65.6189 312.154 65.4107L312.184 61.7378C312.184 61.5296 312.063 61.3363 311.882 61.2769Z" fill="#181616"/>
<path d="M317.218 60.9036L316.13 61.2903C315.949 61.3497 315.812 61.5431 315.812 61.7512V65.4242C315.812 65.6323 315.918 65.8256 316.115 65.8851L317.203 66.2866C317.491 66.3907 317.808 66.1528 317.808 65.8256V61.3646C317.823 61.0375 317.521 60.7996 317.234 60.9036H317.218Z" fill="#181616"/>
<path d="M316.16 66.5118C316.099 66.3185 315.918 66.1995 315.737 66.1995H312.32C312.123 66.1846 311.942 66.3036 311.881 66.4969L311.519 67.5824C311.413 67.8798 311.64 68.1772 311.942 68.1921L316.084 68.2218C316.402 68.2218 316.613 67.9244 316.523 67.627L316.16 66.5266V66.5118Z" fill="#181616"/>
<path d="M325.411 52.8002L321.269 52.7705C320.967 52.7705 320.74 53.0679 320.831 53.3653L321.194 54.4657C321.254 54.659 321.435 54.778 321.632 54.778H325.049C325.245 54.7928 325.427 54.6739 325.487 54.4806L325.865 53.3802C325.971 53.0828 325.744 52.7854 325.442 52.7705L325.411 52.8002Z" fill="#181616"/>
<path d="M321.179 54.852L320.09 54.4505C319.803 54.3464 319.485 54.5843 319.485 54.9115L319.455 59.3874C319.455 59.7294 319.757 59.9673 320.045 59.8632L321.133 59.4766C321.315 59.4171 321.451 59.2238 321.451 59.0156L321.481 55.313C321.481 55.1048 321.36 54.9115 321.179 54.8371V54.852Z" fill="#181616"/>
<path d="M326.515 54.479L325.427 54.8656C325.245 54.9251 325.109 55.1184 325.109 55.3266V59.0293C325.109 59.2374 325.215 59.4307 325.412 59.4902L326.5 59.8917C326.803 59.9958 327.105 59.7579 327.105 59.4307V54.94C327.12 54.598 326.818 54.36 326.53 54.4641L326.515 54.479Z" fill="#181616"/>
<path d="M321.134 61.2769L320.045 60.8754C319.758 60.7713 319.44 60.9943 319.44 61.3363L319.41 65.7974C319.41 66.1245 319.713 66.3624 320 66.2583L321.088 65.8717C321.27 65.8122 321.406 65.6189 321.406 65.4107L321.436 61.7378C321.436 61.5296 321.315 61.3363 321.134 61.2769Z" fill="#181616"/>
<path d="M326.47 60.9036L325.382 61.2903C325.201 61.3497 325.064 61.5431 325.064 61.7512V65.4242C325.064 65.6323 325.17 65.8256 325.367 65.8851L326.455 66.2866C326.743 66.3907 327.06 66.1528 327.06 65.8256V61.3646C327.075 61.0375 326.773 60.7996 326.486 60.9036H326.47Z" fill="#181616"/>
<path d="M325.413 66.5118C325.352 66.3185 325.171 66.1995 324.974 66.1995H321.558C321.361 66.1846 321.18 66.3036 321.119 66.4969L320.741 67.5824C320.635 67.8798 320.862 68.1772 321.165 68.1921L325.307 68.2218C325.624 68.2218 325.836 67.9244 325.745 67.627L325.382 66.5266L325.413 66.5118Z" fill="#181616"/>
<path d="M298.971 66.5986H297.414V68.1451H298.971V66.5986Z" fill="#181616"/>
<path d="M282.766 132.189C279.742 132.189 277.293 134.598 277.293 137.572C277.293 140.546 279.742 142.955 282.766 142.955C285.789 142.955 288.238 140.546 288.238 137.572C288.238 134.598 285.789 132.189 282.766 132.189Z" fill="#B0B0B0"/>
<path d="M333.895 132.189C330.871 132.189 328.422 134.598 328.422 137.572C328.422 140.546 330.871 142.955 333.895 142.955C336.918 142.955 339.367 140.546 339.367 137.572C339.367 134.598 336.918 132.189 333.895 132.189Z" fill="#535353"/>
<path d="M282.765 134.183C280.86 134.183 279.318 135.699 279.318 137.573C279.318 139.447 280.86 140.963 282.765 140.963C284.67 140.963 286.212 139.447 286.212 137.573C286.212 135.699 284.67 134.183 282.765 134.183Z" fill="#2B2B2B"/>
<path d="M333.894 134.183C331.989 134.183 330.447 135.699 330.447 137.573C330.447 139.447 331.989 140.963 333.894 140.963C335.799 140.963 337.341 139.447 337.341 137.573C337.341 135.699 335.799 134.183 333.894 134.183Z" fill="#2B2B2B"/>
<path d="M319.412 132.189C316.389 132.189 313.939 134.598 313.939 137.572C313.939 140.546 316.389 142.955 319.412 142.955C322.436 142.955 324.885 140.546 324.885 137.572C324.885 134.598 322.436 132.189 319.412 132.189Z" fill="#535353"/>
<path d="M319.412 134.183C317.507 134.183 315.965 135.699 315.965 137.573C315.965 139.447 317.507 140.963 319.412 140.963C321.317 140.963 322.859 139.447 322.859 137.573C322.859 135.699 321.317 134.183 319.412 134.183Z" fill="#2B2B2B"/>
<g style="mix-blend-mode:multiply" opacity="0.34">
<path d="M37.2506 211H399.416V160.338L0 173.766L37.2506 211Z" fill="#486586"/>
</g>
<path d="M399.416 148.221H0V173.768H399.416V148.221Z" fill="white"/>
<g style="mix-blend-mode:multiply" opacity="0.47">
<path d="M269.945 52.041V141.47C269.945 141.738 269.99 141.99 270.02 142.258C271.23 141.277 272.228 139.938 272.878 138.466C273.316 137.455 273.603 136.399 273.694 135.343C273.724 135.105 273.739 134.868 273.739 134.63V136.146C273.755 135.879 273.785 135.611 273.8 135.343C273.891 134.169 273.996 133.068 274.102 132.057C274.223 130.882 274.314 129.841 274.299 128.934C274.299 128.057 274.163 127.314 273.891 126.748V125.827C286.045 119.343 294.421 105.663 294.421 89.826C294.421 72.3239 284.186 57.4686 269.93 52.041H269.945Z" fill="#888888"/>
</g>
<path d="M241.675 49.8389C221.568 49.8389 205.256 67.7425 205.256 89.8246C205.256 105.215 213.163 118.554 224.758 125.245V128.427C224.758 133.454 228.9 137.543 234.01 137.543H248.327C253.407 137.543 257.564 133.454 257.564 128.427V125.825C269.719 119.342 278.094 105.661 278.094 89.8246C278.094 67.7276 261.782 49.8389 241.66 49.8389H241.675Z" fill="#FFE94B"/>
<path d="M235.915 97.0232C234.313 95.9674 232.363 96.2648 230.14 97.9303C225.121 101.663 224.713 104.443 225.242 106.094C226.028 108.533 229.127 109.559 231.607 109.321C233.738 109.098 235.159 107.997 235.416 106.332C235.794 103.715 235.054 101.678 233.451 100.875C231.849 100.072 229.793 100.815 228.356 102.748L229.384 103.7C230.443 102.302 231.849 101.722 232.892 102.243C233.905 102.748 234.358 104.191 234.071 106.094C233.874 107.492 232.045 107.774 231.486 107.834C229.49 108.027 227.056 107.179 226.527 105.603C225.998 103.982 227.6 101.648 230.896 99.1793C232.68 97.8559 234.101 97.5734 235.205 98.3169C240.027 101.529 239.181 122.124 238.44 129.782L239.785 129.946C239.906 128.786 242.476 101.38 235.915 97.0232Z" fill="white"/>
<path d="M252.952 97.9303C250.73 96.2648 248.78 95.9674 247.192 97.0232C240.631 101.38 243.186 128.771 243.292 129.946L244.653 129.782C243.912 122.109 243.05 101.529 247.873 98.3169C249.022 97.5734 250.412 97.8559 252.181 99.1793C255.492 101.648 257.095 103.982 256.566 105.603C256.036 107.179 253.587 108.042 251.607 107.834C251.047 107.774 249.218 107.492 249.007 106.094C248.734 104.191 249.173 102.748 250.201 102.243C251.259 101.722 252.68 102.302 253.708 103.7L254.736 102.748C253.3 100.83 251.259 100.072 249.641 100.875C248.039 101.678 247.298 103.715 247.661 106.332C247.903 107.997 249.339 109.113 251.486 109.321C253.98 109.559 257.064 108.533 257.85 106.094C258.38 104.443 257.956 101.663 252.952 97.9303Z" fill="white"/>
<path d="M254.962 125.396H227.039C224.938 125.396 224.303 126.897 224.197 128.935H257.986C257.956 126.719 257.321 125.396 254.977 125.396H254.962Z" fill="#868686"/>
<path d="M231.893 143.819C232.528 146.347 234.841 148.221 237.607 148.221H245.121C247.948 148.221 250.291 146.287 250.866 143.7C253.345 143.12 255.431 140.964 256.535 138.466H225.438C226.662 141.232 229.066 143.566 231.878 143.819H231.893Z" fill="#868686"/>
<path d="M224.56 135.344V134.63C224.56 134.868 224.56 135.106 224.59 135.344H257.351C257.381 135.106 257.396 134.868 257.396 134.63V135.344H257.457C257.548 134.169 257.653 133.069 257.759 132.058H224.258C224.364 133.173 224.485 134.303 224.53 135.344H224.56Z" fill="#868686"/>
<path d="M224.288 132.045H257.79C257.91 130.87 258.001 129.829 257.986 128.922H224.197C224.152 129.874 224.197 130.944 224.288 132.045Z" fill="white"/>
<path d="M225.452 138.468H256.55C256.988 137.457 257.275 136.401 257.366 135.346H224.605C224.711 136.401 224.999 137.457 225.437 138.468H225.452Z" fill="white"/>
<path d="M257.412 136.149C257.427 135.881 257.457 135.613 257.473 135.346H257.412V136.149Z" fill="#F2B241"/>
<path d="M221.962 69.1855C219.377 69.1855 217.275 71.2376 217.275 73.7804C217.275 76.3232 219.377 78.3753 221.962 78.3753C224.547 78.3753 226.633 76.3083 226.633 73.7804C226.633 71.2525 224.532 69.1855 221.962 69.1855Z" fill="white"/>
</svg>
