<svg width="68" height="126" viewBox="0 0 68 126" fill="none" xmlns="http://www.w3.org/2000/svg">
<path d="M54.2242 12.3942C48.7275 16.8649 47.927 17.7524 43.0245 21.5082C43.008 21.5246 37.0904 24.6804 39.1124 28.543C40.1193 30.466 45.3684 29.2004 45.3767 29.184C48.7358 25.3872 53.8776 19.1413 56.8323 15.3774L54.216 12.3942H54.2242Z" fill="#FFAB6D"/>
<path d="M61.6932 9.0078C61.6932 9.0078 62.5598 8.38322 62.8404 9.32831C63.1211 10.2816 61.2641 12.895 58.3176 15.6564C58.2021 15.7632 58.103 15.8782 58.004 16.0015C56.7908 17.6205 54.7687 19.8723 54.7687 19.8723C54.7687 19.8723 54.6284 19.56 54.389 19.0833C54.3148 18.9354 54.2322 18.7793 54.1332 18.6067C54.6366 18.0807 55.1649 17.5794 55.7096 17.0863C56.1057 16.7329 55.627 16.0426 55.2226 16.4042C54.7027 16.8726 54.1827 17.3493 53.6875 17.8506C53.5885 17.6945 53.4894 17.5383 53.3904 17.374C52.5981 16.1577 51.5251 14.8838 50.3779 14.5633L52.5073 12.8128C53.0768 12.3444 53.4482 11.6787 53.5637 10.9555C53.7948 9.44338 54.3313 6.95326 55.2886 7.10118C56.1965 7.46279 55.9077 8.72839 55.8911 8.77769C55.9324 8.72017 57.0384 7.19159 57.9132 5.31783C58.9614 3.07426 60.1086 4.52066 59.6547 5.21099C59.7207 5.11237 60.4635 4.01113 61.2888 4.47957C61.85 4.80008 61.9491 5.57259 61.5199 6.05747L61.4621 6.12321C61.4621 6.12321 62.4525 5.40002 62.8817 6.61631C63.0963 7.20802 61.7097 8.95028 61.6685 8.99959L61.6932 9.0078Z" fill="#3A3875"/>
<path d="M56.2545 17.0864L54.3893 19.0916C54.315 18.9437 54.2325 18.7876 54.1334 18.615C54.6369 18.089 55.1651 17.5877 55.7098 17.0946C56.106 16.7412 55.6273 16.0509 55.2229 16.4125C54.7029 16.8809 54.1829 17.3576 53.6877 17.8589C53.5887 17.7028 53.4897 17.5466 53.3906 17.3823L55.1156 15.8044C55.3962 15.5414 55.8501 15.6071 56.0564 15.9276L56.3123 16.3303C56.4609 16.5687 56.4361 16.8727 56.2463 17.0782L56.2545 17.0864Z" fill="#8583C4"/>
<path d="M43.429 21.0799C41.1346 21.0224 31.0738 22.1236 27.3929 22.6496C24.8756 23.003 24.4052 25.4602 25.2635 27.7696C26.6666 31.5253 37.206 30.7774 43.429 29.9803V21.0799Z" fill="#50A055"/>
<path d="M22.4088 14.8402L21.0305 23.6584C20.7004 25.7869 22.1777 27.8004 24.3071 28.1291C26.4447 28.4578 28.4668 26.9868 28.7969 24.8665L30.1752 16.0483C30.5053 13.9198 29.028 11.9063 26.8986 11.5776C25.8339 11.4132 24.794 11.6927 23.977 12.2926C23.1599 12.8843 22.5739 13.7801 22.4088 14.8484V14.8402Z" fill="#FFC192"/>
<path d="M25.0156 17.3221L29.0185 23.4365L29.7695 18.6206L25.0156 17.3221Z" fill="#1A1B1B"/>
<path d="M32.1396 8.54462C32.6348 9.94172 33.0557 11.3553 33.4189 12.7934C33.9141 14.7329 34.4093 17.3299 32.8577 18.7352C31.5041 19.9679 28.9868 20.4939 27.4517 19.8282C24.0926 18.3818 22.7556 14.1412 23.3416 10.8786C24.0266 7.02425 29.8947 4.45195 32.1396 8.54462Z" fill="#FFC192"/>
<path d="M33.5259 7.4846C34.5906 6.27652 34.3265 4.39456 32.9482 3.53986C31.3223 2.52902 29.4158 1.75651 28.6482 2.20029C28.3594 2.36466 27.7982 2.86597 25.1984 2.51259C23.8035 2.32357 22.9947 4.38634 21.5339 3.98364C21.1955 3.89324 20.8901 4.16444 20.6508 4.41921C19.8832 5.23281 20.6013 6.36692 20.6013 7.32024C20.6013 8.24068 19.875 8.30642 19.7512 9.0625C19.5036 10.6075 20.9314 12.9333 21.6082 14.2318C21.7072 14.4208 21.7072 15.7275 22.1611 16.426C23.655 17.971 24.3235 15.1111 23.9769 14.6016C23.6798 14.166 23.1515 13.7715 23.036 13.262C22.8792 12.6045 22.9204 12.0786 23.8118 12.0128C24.4143 11.9718 25.1158 12.3334 25.7018 12.0128C26.3538 11.6512 25.5533 9.90898 25.9247 9.31727C26.3621 8.63516 27.4845 8.15028 28.2191 7.9366C29.358 7.61609 30.9674 7.13944 31.867 8.17494C31.9991 8.32287 32.1972 8.74199 32.2714 8.90636L33.5177 7.49282L33.5259 7.4846Z" fill="#1A1B1B"/>
<path d="M22.7554 13.5487C23.1515 15.9319 26.197 15.4142 25.8091 13.0474C25.4212 10.7298 22.351 11.0832 22.7554 13.5487Z" fill="#FFC192"/>
<path d="M24.3565 14.2312C24.3565 14.2312 24.373 14.2312 24.3895 14.2312C24.4308 14.2312 24.4556 14.1983 24.4556 14.1572C24.439 13.8942 24.241 13.5984 23.9686 13.4504C23.7788 13.3436 23.6467 13.1628 23.6055 12.9573C23.5724 12.7601 23.622 12.5711 23.754 12.4232C24.1007 12.0287 24.6949 12.0533 24.6949 12.0533C24.7362 12.0533 24.7692 12.0287 24.7692 11.9876C24.7692 11.9465 24.7444 11.9136 24.7031 11.9136C24.6784 11.9136 24.0429 11.8808 23.6467 12.3328C23.4899 12.5136 23.4239 12.7437 23.4651 12.982C23.5064 13.2368 23.6715 13.4504 23.9026 13.5737C24.1337 13.697 24.307 13.9435 24.3152 14.1654C24.3152 14.1901 24.3317 14.2147 24.3565 14.2229V14.2312Z" fill="#FF954D"/>
<path d="M31.2225 14.5909C31.5279 14.5827 32.345 14.4923 32.378 13.8677C32.4027 13.3089 31.858 13.0952 31.5196 13.0459L31.0987 11.4598C31.0822 11.4105 31.0327 11.3858 30.9914 11.394C30.9419 11.4104 30.9171 11.4598 30.9254 11.5008L31.3628 13.1445C31.3628 13.1445 31.4041 13.2102 31.4453 13.2102C31.4784 13.2102 32.2294 13.276 32.2047 13.843C32.1799 14.4101 31.14 14.3937 31.1235 14.3937C31.0739 14.3937 31.0327 14.4347 31.0327 14.4841C31.0327 14.5334 31.0739 14.5745 31.1235 14.5745C31.1317 14.5745 31.173 14.5745 31.2308 14.5745L31.2225 14.5909Z" fill="#1A1B1B"/>
<path d="M31.7838 11.5413C31.7342 11.9769 32.4199 12.0591 32.4694 11.6235C32.519 11.1962 31.8334 11.0893 31.7838 11.5413Z" fill="#1A1B1B"/>
<path d="M29.2584 11.9604C29.2089 12.396 29.8945 12.4781 29.944 12.0426C29.9936 11.6152 29.308 11.5084 29.2584 11.9604Z" fill="#1A1B1B"/>
<path d="M29.7377 20.2117C29.7873 20.1952 29.812 20.1541 29.8038 20.1048C29.7955 20.0555 29.746 20.0144 29.6882 20.0309C29.6552 20.0309 26.0815 20.6308 23.9934 16.2094C23.9687 16.1601 23.9109 16.1437 23.8614 16.1601C23.8119 16.1847 23.7953 16.2423 23.8119 16.2916C25.9742 20.8527 29.68 20.2199 29.7212 20.2199C29.7212 20.2199 29.7212 20.2199 29.7295 20.2199L29.7377 20.2117Z" fill="#1A1B1B"/>
<path d="M30.3638 16.0777C30.4545 16.0284 30.5371 15.9544 30.5784 15.864C30.7352 15.56 30.9828 14.7874 29.7778 14.3519C28.2592 13.8013 28.2179 15.4613 28.9524 15.601C29.687 15.7408 29.6127 16.0613 29.9263 16.1435C30.0831 16.1845 30.2482 16.1352 30.3555 16.0777H30.3638Z" fill="#1A1B1B"/>
<path d="M35.498 30.7866C35.5476 30.7208 33.0138 25.7981 29.5061 22.6259C27.3603 22.6095 26.2791 22.4698 24.7935 22.1164C23.4977 21.8041 22.5816 21.4671 21.3353 20.785C9.61564 27.8774 16.0532 61.5309 16.0532 61.5309C16.0532 61.5309 29.2668 62.5089 41.8944 60.2325C42.5876 60.1092 35.4898 30.7784 35.4898 30.7784L35.498 30.7866Z" fill="#50A055"/>
<path d="M11.5794 119.88C11.5794 119.88 9.82147 120.406 9.59863 123.159H22.5398C22.5398 123.159 20.7406 113.059 11.5794 119.88Z" fill="#1A1B1B"/>
<path d="M10.1021 104.519L2.88867 113.469L7.11436 121.211L18.083 109.705L10.1021 104.519Z" fill="#FFAB6D"/>
<path d="M14.9962 53.7976C14.9549 54.0112 14.9549 61.7363 17.0018 67.8918C19.9152 76.6853 16.8862 86.4075 12.7513 94.6996L3.38379 110.725L18.4461 115.089L27.0708 96.6802C31.2305 89.1852 33.822 80.967 33.7807 72.4036L33.3186 66.6509L36.8427 59.8215L14.9962 53.7811V53.7976Z" fill="#2566B0"/>
<path d="M14.9962 53.7976C14.9549 54.0112 14.9549 61.7363 17.0018 67.8918C19.9152 76.6853 16.8862 86.4075 12.7513 94.6996L3.38379 110.725L18.4461 115.089L27.0708 96.6802C31.2305 89.1852 33.822 80.967 33.7807 72.4036L33.3186 66.6509L36.8427 59.8215L14.9962 53.7811V53.7976Z" fill="black" fill-opacity="0.2"/>
<path d="M19.8822 123.159C19.6759 120.044 18.2811 116.165 13.2961 113.536C10.4652 113.092 8.37711 114.407 8.37711 114.407L3.7305 111.07L0 118.13L9.59861 123.159H19.8905H19.8822Z" fill="#1A1B1B"/>
<path d="M7.3458 115.64C7.3458 115.64 7.34581 115.64 7.33755 115.64C7.28803 115.607 7.27977 115.541 7.30453 115.492C9.10376 112.829 13.2387 113.413 13.2799 113.421C13.3377 113.429 13.379 113.487 13.3707 113.544C13.3625 113.602 13.3047 113.643 13.2469 113.635C13.2057 113.635 9.2028 113.067 7.47786 115.615C7.44485 115.664 7.38707 115.673 7.33755 115.648L7.3458 115.64Z" fill="white"/>
<path d="M15.7303 115.197C15.7303 115.197 15.6808 115.156 15.6808 115.131C15.6726 115.098 15.6808 115.057 15.7056 115.033C16.4814 114.26 18.0495 113.266 18.9244 113.586C19.1555 113.668 19.4361 113.882 19.4939 114.433C19.5269 114.778 19.4278 115.049 19.1967 115.246C18.3301 115.961 15.8624 115.246 15.7551 115.213H15.7386L15.7303 115.197ZM18.9326 113.816C18.9326 113.816 18.8831 113.792 18.8501 113.783C18.1898 113.545 16.8776 114.235 15.9862 115.057C16.5639 115.205 18.3962 115.624 19.0564 115.082C19.2298 114.934 19.304 114.728 19.2793 114.457C19.2463 114.137 19.1307 113.923 18.9326 113.824V113.816Z" fill="white"/>
<path d="M15.7308 115.196C15.7308 115.196 15.7225 115.196 15.7143 115.188C14.8642 114.498 13.7005 113.06 13.9233 112.156C13.9811 111.917 14.1627 111.613 14.7074 111.506C15.0458 111.432 15.3346 111.506 15.5492 111.72C16.3581 112.501 15.9041 115.024 15.8794 115.131C15.8794 115.163 15.8464 115.196 15.8133 115.213C15.7886 115.221 15.7556 115.213 15.7308 115.213V115.196ZM15.2604 111.753C15.12 111.679 14.955 111.663 14.7569 111.704C14.402 111.778 14.1957 111.942 14.1297 112.197C13.9646 112.871 14.7899 114.103 15.706 114.892C15.7968 114.301 16.0114 112.443 15.4007 111.852C15.3594 111.81 15.3099 111.769 15.2521 111.745L15.2604 111.753Z" fill="white"/>
<path d="M14.1046 118.278C14.1046 118.278 14.0469 118.22 14.0469 118.179C14.0799 116.922 14.6576 115.763 15.6398 114.982C15.6893 114.949 15.7553 114.957 15.7883 114.999C15.8213 115.048 15.8131 115.114 15.7718 115.146C14.8392 115.886 14.2862 116.996 14.2532 118.187C14.2532 118.245 14.2037 118.294 14.1459 118.294C14.1294 118.294 14.1129 118.294 14.0964 118.286L14.1046 118.278Z" fill="white"/>
<path d="M13.6022 116.79C13.6022 116.79 13.5692 116.766 13.5527 116.741C13.5279 116.692 13.5527 116.626 13.6022 116.601C14.7329 116.042 16.0369 116.009 17.1924 116.511C17.2502 116.535 17.2667 116.593 17.2502 116.651C17.2254 116.708 17.1676 116.724 17.1099 116.708C16.0122 116.231 14.7742 116.264 13.7012 116.79C13.6682 116.807 13.6352 116.807 13.6022 116.79Z" fill="white"/>
<path d="M15.9131 120.694C15.8636 120.669 15.8471 120.62 15.8636 120.562C16.268 119.379 17.1759 118.434 18.3479 117.99C18.4056 117.965 18.4634 117.99 18.4882 118.047C18.5129 118.105 18.4882 118.162 18.4304 118.187C17.3162 118.614 16.4579 119.51 16.0699 120.636C16.0534 120.694 15.9874 120.718 15.9379 120.702C15.9379 120.702 15.9296 120.702 15.9214 120.702L15.9131 120.694Z" fill="white"/>
<path d="M15.8791 119.125C15.8791 119.125 15.8296 119.083 15.8214 119.051C15.8131 118.993 15.8544 118.936 15.9122 118.927C17.1584 118.73 18.4129 119.083 19.362 119.914C19.4033 119.955 19.4116 120.02 19.3703 120.061C19.329 120.103 19.263 120.111 19.2217 120.07C18.3221 119.289 17.1254 118.952 15.9452 119.133C15.9204 119.133 15.8956 119.133 15.8791 119.125Z" fill="white"/>
<path d="M29.7703 10.0354C29.9106 10.2326 29.7125 10.6025 29.3411 10.8655C28.9615 11.1284 28.5488 11.186 28.4085 10.9887C28.2682 10.7915 28.4663 10.4217 28.8377 10.1587C29.2173 9.8957 29.63 9.83817 29.7703 10.0354Z" fill="#1A1B1B"/>
<path d="M32.4599 10.0447C32.4186 10.2748 32.0142 10.4063 31.5686 10.3241C31.1146 10.2419 30.7845 9.98713 30.8257 9.75702C30.867 9.52691 31.2714 9.39542 31.7171 9.4776C32.1628 9.55978 32.5012 9.81455 32.4599 10.0447Z" fill="#1A1B1B"/>
<path d="M36.0589 109.367L34.9199 120.782L42.7028 124.965L45.5832 109.367H36.0589Z" fill="#FFAB6D"/>
<path d="M34.2589 99.3087L33.4913 116.435H46.2757L48.1657 95.3721C48.9333 86.8416 47.4889 78.2618 43.9813 70.4463L43.2302 65.0469L40.9441 52.2101L15.0039 53.7962C16.6133 62.1377 22.696 71.1366 26.4513 77.0702C31.4115 84.9021 34.6716 90.0632 34.2589 99.3087Z" fill="#2566B0"/>
<path d="M34.2589 99.3087L33.4913 116.435H46.2757L48.1657 95.3721C48.9333 86.8416 47.4889 78.2618 43.9813 70.4463L43.2302 65.0469L40.9441 52.2101L15.0039 53.7962C16.6133 62.1377 22.696 71.1366 26.4513 77.0702C31.4115 84.9021 34.6716 90.0632 34.2589 99.3087Z" fill="black" fill-opacity="0.2"/>
<path d="M54.6868 125.321L34.4579 125.354L34.4414 117.382L40.1197 118.171C40.1197 118.171 41.3494 116.034 44.0648 115.114C52.2025 115.114 54.9757 120.916 55.8505 123.776C56.0899 124.548 55.5039 125.329 54.6868 125.329V125.321Z" fill="#1A1B1B"/>
<path d="M39.7895 119.732C39.7895 119.732 39.7895 119.732 39.7813 119.732C39.7235 119.732 39.6823 119.675 39.6905 119.617C40.0289 116.428 43.9575 115.015 43.9987 114.999C44.0565 114.982 44.1143 115.007 44.1308 115.064C44.1473 115.122 44.1225 115.179 44.0648 115.196C44.0235 115.212 40.2187 116.576 39.8968 119.634C39.8968 119.691 39.8473 119.732 39.7895 119.732Z" fill="white"/>
<path d="M46.9952 115.444C46.9952 115.444 46.9374 115.427 46.9126 115.411C46.8879 115.386 46.8796 115.345 46.8879 115.312C47.218 114.268 48.1259 112.666 49.0502 112.534C49.2896 112.502 49.6445 112.559 49.9498 113.019C50.1397 113.307 50.1809 113.595 50.0654 113.874C49.6362 114.909 47.1107 115.427 47.0034 115.444C47.0034 115.444 46.9869 115.444 46.9786 115.444H46.9952ZM49.174 112.732C49.174 112.732 49.1163 112.732 49.0832 112.732C48.39 112.83 47.5564 114.047 47.152 115.189C47.738 115.049 49.5454 114.564 49.8756 113.784C49.9663 113.57 49.9333 113.356 49.7765 113.126C49.5949 112.855 49.3969 112.723 49.1658 112.723L49.174 112.732Z" fill="white"/>
<path d="M46.9945 115.442C46.9945 115.442 46.978 115.442 46.9697 115.442C45.8885 115.229 44.1966 114.497 43.9655 113.593C43.9078 113.355 43.9242 113.001 44.3534 112.648C44.6258 112.426 44.9064 112.36 45.1953 112.443C46.2764 112.763 47.0605 115.204 47.0935 115.303C47.1018 115.335 47.0935 115.377 47.0688 115.401C47.0523 115.426 47.0192 115.434 46.9862 115.434L46.9945 115.442ZM44.9642 112.623C44.8074 112.623 44.6505 112.689 44.4937 112.812C44.2131 113.043 44.1058 113.281 44.1719 113.544C44.3452 114.218 45.6492 114.916 46.8294 115.196C46.6313 114.629 45.9546 112.886 45.1375 112.648C45.0797 112.632 45.0137 112.623 44.9559 112.623H44.9642Z" fill="white"/>
<path d="M47.0025 118.918C47.0025 118.918 46.9282 118.893 46.9034 118.861C46.3417 117.735 46.3087 116.436 46.8125 115.286C46.8373 115.228 46.8952 115.212 46.953 115.228C47.0108 115.253 47.0273 115.31 47.0108 115.368C46.5317 116.461 46.5647 117.694 47.0934 118.762C47.1182 118.811 47.0934 118.877 47.0438 118.902C47.0273 118.902 47.0108 118.91 46.9943 118.91L47.0025 118.918Z" fill="white"/>
<path d="M45.8547 117.842C45.8547 117.842 45.8135 117.842 45.7887 117.826C45.7392 117.793 45.7309 117.727 45.7639 117.678C46.4985 116.659 47.6374 116.018 48.8919 115.927C48.9497 115.927 48.9993 115.968 49.0075 116.026C49.0075 116.083 48.9662 116.133 48.9085 116.141C47.72 116.231 46.6306 116.831 45.9373 117.801C45.9125 117.826 45.8877 117.842 45.8547 117.842Z" fill="white"/>
<path d="M49.7345 120.217C49.685 120.217 49.6355 120.176 49.6272 120.127C49.4291 118.886 49.7923 117.637 50.6176 116.692C50.6589 116.651 50.7249 116.643 50.7662 116.684C50.8074 116.725 50.8157 116.79 50.7744 116.832C49.9904 117.727 49.6437 118.919 49.8335 120.094C49.8418 120.152 49.8005 120.209 49.7428 120.217C49.7428 120.217 49.7345 120.217 49.7262 120.217H49.7345Z" fill="white"/>
<path d="M48.9676 118.845C48.9676 118.845 48.9015 118.828 48.885 118.804C48.852 118.754 48.8603 118.689 48.9098 118.656C49.9167 117.9 51.196 117.637 52.4175 117.916C52.4752 117.933 52.5083 117.99 52.5 118.039C52.4835 118.097 52.4257 118.13 52.3762 118.122C51.2125 117.85 49.9992 118.105 49.0419 118.82C49.0254 118.836 49.0006 118.845 48.9758 118.845H48.9676Z" fill="white"/>
<path d="M39.2941 42.1527C40.1524 41.0925 32.6502 43.821 32.6502 43.821L26.5922 46.1878C25.0984 46.7713 23.4477 46.7795 21.9456 46.2207C19.5604 45.3249 17.9428 43.0896 17.8602 40.5501L17.5796 32.1675L15.4585 30.6307C15.4585 30.6307 12.5864 39.9995 14.9963 57.981L24.3639 61.6627L41.9517 57.9235C42.059 51.2174 38.4358 43.221 39.2941 42.1609V42.1527Z" fill="#2566B0"/>
<path d="M39.2941 42.1527C40.1524 41.0925 32.6502 43.821 32.6502 43.821L26.5922 46.1878C25.0984 46.7713 23.4477 46.7795 21.9456 46.2207C19.5604 45.3249 17.9428 43.0896 17.8602 40.5501L17.5796 32.1675L15.4585 30.6307C15.4585 30.6307 12.5864 39.9995 14.9963 57.981L24.3639 61.6627L41.9517 57.9235C42.059 51.2174 38.4358 43.221 39.2941 42.1609V42.1527Z" fill="black" fill-opacity="0.2"/>
<path d="M32.6581 43.8208L31.7832 30.6306L34.9195 29.6444C34.9195 29.6444 40.2594 38.6105 41.0847 49.4256L33.1863 52.8855L32.6663 43.829L32.6581 43.8208Z" fill="#2566B0"/>
<path d="M32.6581 43.8208L31.7832 30.6306L34.9195 29.6444C34.9195 29.6444 40.2594 38.6105 41.0847 49.4256L33.1863 52.8855L32.6663 43.829L32.6581 43.8208Z" fill="black" fill-opacity="0.2"/>
<path d="M17.5957 32.3806C17.5957 32.3806 20.4926 22.5188 25.849 23.431C31.1972 24.3432 31.9977 33.071 31.9977 33.071L36.4463 32.5779C36.4463 32.5779 32.592 22.5763 24.8174 22.1161C17.2738 22.7325 15.4746 30.6301 15.4746 30.6301L17.604 32.3889L17.5957 32.3806Z" fill="#2566B0"/>
<path d="M17.5957 32.3806C17.5957 32.3806 20.4926 22.5188 25.849 23.431C31.1972 24.3432 31.9977 33.071 31.9977 33.071L36.4463 32.5779C36.4463 32.5779 32.592 22.5763 24.8174 22.1161C17.2738 22.7325 15.4746 30.6301 15.4746 30.6301L17.604 32.3889L17.5957 32.3806Z" fill="black" fill-opacity="0.2"/>
<path d="M57.0793 32.4287C52.2841 32.9136 50.6582 33.0286 46.1354 33.4396C44.0556 33.6286 42.5122 33.6204 41.3732 33.8012C39.6235 36.9159 38.4928 39.4635 36.9082 42.8247C37.552 43.589 39.2852 44.0493 41.3155 43.2932C46.0776 41.5098 53.5881 38.2308 57.9706 36.2831L57.071 32.4287H57.0793Z" fill="#FFAB6D"/>
<path d="M38.6666 43.9584L40.276 44.3118L41.4479 33.6363C41.4479 33.6363 32.0062 26.0427 25.6016 25.903C22.9688 25.8454 21.6648 29.7738 21.087 32.6666C19.7417 39.3973 38.6666 43.9584 38.6666 43.9584Z" fill="#50A055"/>
<path d="M65.8608 31.3687C65.9103 31.3523 66.9667 31.0975 66.8677 32.133C66.7687 33.1768 63.9048 35.0259 59.9102 36.5955C59.7533 36.6531 59.6048 36.727 59.4645 36.8092C57.6322 37.9269 54.7436 39.3568 54.7436 39.3568C54.7436 39.3568 54.7353 38.9953 54.6776 38.4282C54.661 38.2556 54.6445 38.0666 54.6198 37.8611C55.3213 37.5324 56.0476 37.253 56.7739 36.9818C57.3021 36.7845 57.104 35.9216 56.5676 36.1189C55.866 36.3736 55.1728 36.6448 54.4877 36.9489C54.4547 36.7599 54.4217 36.5627 54.3804 36.3654C54.0751 34.8533 53.5221 33.185 52.5234 32.4125L55.3131 31.5249C56.0641 31.2866 56.6914 30.777 57.0875 30.1031C57.9129 28.706 59.4232 26.4625 60.3146 26.9802C61.0656 27.687 60.2816 28.8211 60.2485 28.8704C60.3146 28.8293 62.0065 27.7609 63.6076 26.257C65.5307 24.4572 66.0836 26.331 65.3656 26.8405C65.4646 26.7665 66.6366 25.9776 67.2639 26.7583C67.693 27.2925 67.4867 28.0897 66.8759 28.402L66.7934 28.443C66.7934 28.443 68.0479 28.1226 67.9984 29.4868C67.9736 30.1525 65.9268 31.3277 65.8608 31.3605V31.3687Z" fill="#3A3875"/>
<path d="M57.3108 37.1962L54.678 38.4453C54.6615 38.2727 54.645 38.0837 54.6202 37.8783C55.3217 37.5495 56.048 37.2701 56.7743 36.9989C57.3025 36.8017 57.1044 35.9388 56.568 36.136C55.8665 36.3908 55.1732 36.662 54.4882 36.966C54.4551 36.777 54.4221 36.5798 54.3809 36.3825L56.7 35.5032C57.0797 35.3552 57.5006 35.5936 57.5831 35.9963L57.6739 36.4894C57.7317 36.7852 57.5831 37.0729 57.3108 37.2044V37.1962Z" fill="#8583C4"/>
<path d="M34.3673 55.4255L39.9135 72.9303L29.5886 75.2561L26.0645 62.2878C26.0645 62.2878 31.099 62.3371 30.4139 56.5021L34.3673 55.4337V55.4255Z" fill="#2566B0"/>
<path d="M34.3673 55.4255L39.9135 72.9303L29.5886 75.2561L26.0645 62.2878C26.0645 62.2878 31.099 62.3371 30.4139 56.5021L34.3673 55.4337V55.4255Z" fill="black" fill-opacity="0.2"/>
<path d="M29.5229 75.3537L25.9492 62.2046H26.0565C26.0565 62.2046 28.0373 62.2046 29.3001 60.7993C30.1914 59.8049 30.5381 58.3584 30.3152 56.5011V56.4272L34.4089 55.3259L40.0046 72.9869L39.9138 73.0033L29.5146 75.3455L29.5229 75.3537ZM26.1638 62.3607L29.6385 75.1565L39.7983 72.8718L34.3016 55.5314L30.4885 56.5587C30.6949 58.4324 30.3317 59.8952 29.4156 60.9143C28.2767 62.1799 26.593 62.3443 26.1556 62.3689L26.1638 62.3607Z" fill="#444382"/>
<g style="mix-blend-mode:multiply">
<path d="M25 10.6021C25.2806 13.1333 26.6424 15.4262 28.7388 16.889L31.9245 19.1079C32.593 19.5764 33.4101 19.7654 34.219 19.6421L37.6193 19.1326L36.7857 7.50378L25.0083 10.5938L25 10.6021Z" fill="#CECECE"/>
</g>
<path d="M31.6426 19.2227L31.8159 20.25C31.9232 20.8746 32.5009 21.2937 33.1282 21.2115C34.6468 21.0143 37.2548 20.3404 38.0719 18.0886C32.6247 19.0584 31.6508 19.2227 31.6508 19.2227H31.6426Z" fill="#50A055"/>
<path d="M19.6348 10.7252L20.0062 13.4372L24.8509 10.9553L30.917 9.39384C31.0821 9.35275 32.3119 8.41588 32.3614 8.25974L32.1716 7.42969L24.4795 8.52271L19.643 10.717L19.6348 10.7252Z" fill="#C6BCBA"/>
<path d="M19.0149 10.2156C19.0149 10.2156 19.0149 10.1992 19.0149 10.191C18.9488 9.8869 18.8993 9.5746 18.8746 9.27875C18.5114 5.334 21.202 1.65225 25.2461 0.797554C27.6643 0.288025 30.0578 0.896163 31.8653 2.27682C33.3096 3.37806 34.3743 4.96418 34.7787 6.86259C34.7787 6.86259 34.7787 6.87903 34.7787 6.88724L19.0149 10.2156Z" fill="#50A055"/>
<path d="M18.8746 9.27037C21.4909 8.78549 25.8651 7.63494 26.2117 5.32562C26.5336 3.20532 29.7359 2.53965 31.8653 2.26023C30.066 0.879572 27.6643 0.271422 25.2461 0.780951C21.202 1.63565 18.5114 5.32562 18.8746 9.26214V9.27037Z" fill="#50A055"/>
<path d="M18.974 10.2239L29.7693 7.93926L33.8547 4.83276L36.0996 6.31205L37.1643 7.69271L26.8476 10.3308L25.3951 9.87053L22.4651 10.6595L21.9204 11.506L18.9492 12.2292L18.974 10.2239Z" fill="#50A055"/>
<path d="M25.617 2.31592L25.5928 2.32107C25.407 2.36056 25.2208 2.24048 25.1811 2.05561L25.0622 1.50103C25.0226 1.31617 25.1433 1.13083 25.3291 1.09134L25.3534 1.08619C25.5392 1.0467 25.7254 1.16678 25.765 1.35164L25.8856 1.91426C25.9253 2.09912 25.8045 2.28446 25.6187 2.32395L25.617 2.31592Z" fill="#50A055"/>
<path d="M24.4475 2.58529L24.4233 2.59034C24.2373 2.62909 24.0516 2.50827 24.0127 2.32325L23.8944 1.76015C23.8555 1.57514 23.977 1.39028 24.1629 1.35153L24.1872 1.34648C24.3731 1.30773 24.5589 1.42856 24.5978 1.61357L24.7144 2.16863C24.7533 2.35365 24.6318 2.5385 24.4458 2.57725L24.4475 2.58529Z" fill="#50A055"/>
<path d="M23.3875 3.09008L23.3632 3.09522C23.1774 3.13458 22.9913 3.01436 22.9518 2.82948L22.8333 2.27481C22.7938 2.08992 22.9146 1.90467 23.1005 1.86531L23.1247 1.86017C23.3105 1.82081 23.4967 1.94102 23.5362 2.12591L23.6564 2.68861C23.6959 2.8735 23.575 3.05876 23.3892 3.09813L23.3875 3.09008Z" fill="#50A055"/>
<path d="M51.3192 32.4287C51.3192 32.4287 51.5668 35.6174 52.7801 39.4388C42.125 44.0082 40.268 44.3122 40.268 44.3122C40.268 44.3122 37.4289 40.5812 38.0644 37.5898C38.6999 34.5983 41.44 33.6368 41.44 33.6368L51.311 32.4369L51.3192 32.4287Z" fill="#50A055"/>
<path d="M48.9495 16.2227L41.959 21.2193L43.4281 29.9717C43.4281 29.9717 45.12 29.6101 46.6304 28.1555C48.1407 26.7009 52.7873 21.2193 52.7873 21.2193L48.9578 16.2227H48.9495Z" fill="#50A055"/>
</svg>
