<svg width="68" height="144" viewBox="0 0 68 144" fill="none" xmlns="http://www.w3.org/2000/svg">
<path d="M32.2891 43.3701L32.3084 47.8661V49.7475C32.3181 50.7412 33.2848 51.3876 34.1742 51.1078C34.2902 51.0692 34.4062 51.021 34.5222 50.9438L34.7929 50.7701L35.0733 50.5965C37.9348 48.7826 42.5944 45.84 46.7997 43.1674L47.2154 42.8973C51.5271 40.1476 55.2876 37.7452 56.0127 37.2242C57.2018 36.3752 57.1534 35.8638 56.9698 35.613C57.1341 35.4779 57.2985 35.3236 57.4435 35.1499C57.4435 35.1499 57.4435 35.1499 57.4435 35.1402C57.9848 34.0018 57.0664 34.1175 56.4864 34.2912C57.1341 34.0403 58.2942 33.4711 58.0718 32.68C57.9558 32.2844 57.5691 32.2458 57.1244 32.3519C57.2694 32.2748 57.4145 32.1976 57.5691 32.1107C57.5885 32.1011 57.6175 32.0818 57.6368 32.0721C58.5649 31.5126 57.9462 30.0846 56.9021 30.3548L52.0297 31.5994C52.0297 31.5994 51.9814 31.5994 51.9717 31.5704C51.8944 31.3968 51.6914 30.6539 53.1415 29.554C54.7946 28.2997 52.8901 26.949 50.744 29.3514C48.7042 31.6283 48.1145 33.9149 48.0565 34.1465C48.0565 34.1561 48.0468 34.1658 48.0372 34.1754L39.2882 39.26L34.5222 42.029L32.3181 43.3122C32.3181 43.3122 32.2891 43.3411 32.2891 43.3508V43.3701Z" fill="#FFAB6D"/>
<path d="M19.1234 28.8784C19.1814 29.1099 19.2588 29.3318 19.3555 29.5537L23.2804 38.044L28.3267 48.9753C29.3612 51.2137 31.9617 52.2074 34.0981 51.1462C34.1175 51.1365 34.1368 51.1269 34.1561 51.1172C35.4806 50.4322 36.3023 49.1201 36.4666 47.6825C36.573 46.8142 36.428 45.8976 36.0026 45.0486L34.5042 42.0384L33.6728 40.3692L31.4686 35.9504L30.8016 34.6093L30.7532 34.5032L30.3859 33.7603L26.2773 25.5208C25.3299 23.6201 23.0194 23.0123 21.1342 24.1315C19.4908 25.1059 18.6691 27.1127 19.1138 28.8784H19.1234Z" fill="#50A055"/>
<path d="M24.9434 37.6004L25.7361 37.3978L31.4881 35.9506L30.3957 33.7605L25.6491 37.1084L24.9434 37.6004Z" fill="#603F36"/>
<path d="M21.8105 38.2177L19.5773 30.9141C18.2336 27.7978 19.1906 24.3631 21.7041 23.2825C24.2177 22.2019 27.3692 23.871 28.713 26.9874L31.7388 34.0208L28.8483 35.8829C26.7408 37.2433 24.3143 38.0441 21.8105 38.2177Z" fill="#50A055"/>
<path d="M22.3521 38.2665H22.3715C24.9333 38.1217 27.3985 37.2727 29.506 35.8158L31.7295 34.2721C31.7295 34.2721 31.7778 34.2046 31.7585 34.166L29.5253 28.6184C29.5253 28.6184 29.4576 28.5508 29.4093 28.5701C29.361 28.5894 29.3416 28.6377 29.361 28.6859L31.5651 34.166L29.3996 35.6711C27.3308 37.099 24.914 37.9384 22.4005 38.0928L21.2694 35.6518C21.2694 35.6518 21.1921 35.5843 21.1534 35.6036C21.1051 35.6229 21.0857 35.6808 21.1051 35.7194L22.2555 38.2182C22.2555 38.2182 22.3038 38.2665 22.3328 38.2665H22.3521Z" fill="white"/>
<path d="M34.5224 51.0499C34.5224 51.0499 34.4547 51.0306 34.445 51.0016C34.416 50.9534 34.4257 50.8955 34.474 50.8666L47.8439 42.3955C47.8439 42.3955 47.9503 42.3762 47.9793 42.4245C48.0083 42.4727 47.9986 42.5306 47.9503 42.5596L34.5804 51.0306C34.5804 51.0306 34.5417 51.0499 34.532 51.0499H34.5224Z" fill="#4A240D"/>
<path d="M36.8422 133.318H37.1323C37.519 129.757 37.896 126.159 38.2537 122.647H26.2565C25.8021 129.671 25.5508 136.251 25.8408 140.052C25.9665 141.731 27.1362 143.004 28.5283 143.004H36.8422V133.318Z" fill="#6B6968"/>
<path d="M14.3853 133.877C14.3853 133.877 14.3466 133.877 14.3176 133.877C14.3369 133.819 14.3563 133.752 14.3853 133.684V133.308H14.5109C15.091 131.571 16.4734 127.529 18.0975 122.637H5.48165L2.3011 138.788C1.95308 140.988 3.46117 142.995 5.46231 142.995H14.3949V133.867L14.3853 133.877Z" fill="#6B6968"/>
<path d="M26.2852 112.932L21.0068 65.4634L37.9633 63.09L42.9613 108.378L26.2852 112.932Z" fill="#2566B0"/>
<path d="M26.2852 112.932L21.0068 65.4634L37.9633 63.09L42.9613 108.378L26.2852 112.932Z" fill="black" fill-opacity="0.2"/>
<path d="M5.63574 111.263L8.18792 65.1545L24.371 64.4406V108.378L5.63574 111.263Z" fill="#2566B0"/>
<path d="M5.63574 111.263L8.18792 65.1545L24.371 64.4406V108.378L5.63574 111.263Z" fill="black" fill-opacity="0.2"/>
<path d="M6.04171 103.873L1.69141 136.841L13.0215 137.844L24.3613 108.379C24.3613 108.379 16.7918 98.036 6.03203 103.883L6.04171 103.873Z" fill="#2566B0"/>
<path d="M6.04171 103.873L1.69141 136.841L13.0215 137.844L24.3613 108.379C24.3613 108.379 16.7918 98.036 6.03203 103.883L6.04171 103.873Z" fill="black" fill-opacity="0.2"/>
<path d="M8.18792 65.1539L38.1276 63.7066C38.1276 63.7066 34.9858 31.8583 27.6386 26.2238C27.2229 25.9054 25.6084 25.4809 23.6846 25.066C20.1561 24.3038 15.5931 23.5802 15.5931 23.5802C15.5931 23.5802 14.8777 23.8696 13.824 24.3713C11.4748 25.5002 7.43386 27.6999 5.91609 30.1313C3.72161 33.6625 8.17824 65.1442 8.17824 65.1442L8.18792 65.1539Z" fill="#50A055"/>
<path d="M13.3887 26.4843C13.3887 29.3787 15.7378 31.7232 18.638 31.7232C21.5382 31.7232 23.8874 29.3787 23.8874 26.4843C23.8874 25.9922 23.8197 25.5195 23.694 25.066C20.1655 24.3038 15.6025 23.5802 15.6025 23.5802C15.6025 23.5802 14.8871 23.8696 13.8334 24.3713C13.5434 25.0178 13.3887 25.7317 13.3887 26.4843Z" fill="#FFAB6D"/>
<path d="M18.6293 31.8201C15.6807 31.8201 13.2832 29.4273 13.2832 26.4847C13.2832 25.7321 13.4379 25.0085 13.7376 24.3331L13.9116 24.4103C13.6216 25.0664 13.4766 25.761 13.4766 26.4847C13.4766 29.3212 15.7871 31.6271 18.6293 31.6271C21.4714 31.6271 23.7819 29.3212 23.7819 26.4847C23.7819 26.0119 23.7143 25.5391 23.5886 25.0953L23.7723 25.0471C23.9076 25.5102 23.9656 26.0022 23.9656 26.4943C23.9656 29.437 21.5681 31.8297 18.6196 31.8297L18.6293 31.8201Z" fill="white"/>
<path d="M14.8008 18.4463V27.2936C14.8008 29.4258 16.5506 31.1721 18.6871 31.1721C20.8235 31.1721 22.5733 29.4258 22.5733 27.2936V18.4463C22.5733 16.3141 20.8235 14.5677 18.6871 14.5677C17.614 14.5677 16.6472 15.0019 15.9415 15.7062C15.2358 16.4105 14.8008 17.3753 14.8008 18.4463Z" fill="#FFAB6D"/>
<path d="M23.3462 10.8053C24.0422 12.0982 24.6706 13.42 25.2506 14.7707C26.0337 16.6038 25.9757 18.5142 25.357 20.4824C25.009 21.6016 22.0991 22.9909 20.4943 22.576C16.9947 21.6691 15.0323 17.7134 15.1096 14.4234C15.1966 10.5448 20.533 7.12942 23.3559 10.8053H23.3462Z" fill="#FFAB6D"/>
<path d="M24.2067 10.834C23.1626 11.1621 21.6448 10.8919 21.3065 10.5639C20.4074 9.68592 19.2957 10.3034 18.3676 10.7954C17.7682 11.1138 16.8788 11.7603 16.5985 12.4935C16.3568 13.1303 17.0528 14.0951 16.5405 14.5389C16.0861 14.9441 15.216 14.3556 14.7037 14.4907C13.9496 14.6933 14.375 15.3686 14.5973 15.9861C14.7713 16.4685 14.897 16.922 14.8874 17.443C14.8874 17.7131 15.042 20.2795 14.8004 20.3181C14.5683 20.3567 12.0355 18.649 11.9292 18.4753C11.1751 17.3079 11.3008 14.7319 11.3104 13.1882C11.3104 12.426 11.9195 12.2427 11.8035 11.3454C11.6778 10.4192 10.9141 9.40613 11.4555 8.4992C11.6295 8.21941 11.8518 8.00715 12.1515 7.93961C12.4319 7.87208 12.7122 8.13258 12.9539 8.08434C13.3503 8.00715 13.2536 7.85278 13.3019 7.38003C13.4179 6.11612 13.969 5.41181 15.0807 5.94246C16.2118 6.48275 16.2891 6.05823 16.7725 5.04518C17.3719 3.77164 18.2613 4.33123 19.1023 4.83293C19.605 5.13202 20.2527 5.24779 20.7458 4.85222C21.0454 4.61102 21.1615 4.11897 21.5095 3.97424C22.4085 3.60762 23.4913 4.83293 23.8973 5.58548C25.0381 7.68876 26.3141 10.178 24.2067 10.8437V10.834Z" fill="#4A240D"/>
<path d="M23.4435 13.7095C23.4435 14.1919 24.2072 14.1823 24.1975 13.6999C24.1975 13.2271 23.4338 13.2175 23.4435 13.7095Z" fill="#603F36"/>
<path d="M20.2423 14.2789C20.2423 14.7613 21.006 14.7516 20.9963 14.2692C20.9963 13.7965 20.2326 13.7868 20.2423 14.2789Z" fill="#603F36"/>
<path d="M15.7095 14.7326C15.7095 14.7326 16.9663 17.2315 17.1886 19.6917C17.411 22.152 17.6623 24.1202 21.3166 24.0334C24.9708 23.9465 27.001 22.4318 26.9333 21.2644C26.8656 20.0969 26.3726 19.0356 26.5079 17.8875C26.6433 16.7394 25.1158 14.4528 25.1158 14.4528C25.1158 14.4528 26.4886 17.1639 23.5787 17.1639C21.1426 17.1639 20.2145 18.6015 18.9771 17.1639C18.3101 16.3824 16.6183 14.173 16.6183 14.173C16.6183 14.173 15.6515 13.9318 15.7095 14.7326Z" fill="#4A240D"/>
<path d="M22.0507 18.9002C22.0507 18.9002 22.0893 18.9388 22.1087 18.9484C22.476 19.2475 23.2398 19.2379 23.7231 18.7072C23.8198 18.6011 23.9068 18.4757 23.9745 18.3309C24.0808 18.109 23.9165 17.8775 23.6748 17.9354C23.3364 18.0222 22.8821 18.0704 22.5437 17.8775C21.925 17.5398 21.5963 18.4467 22.0507 18.9098V18.9002Z" fill="white"/>
<path d="M13.7276 16.7089C15.0423 18.7157 17.5945 17.037 16.2894 15.0398C15.0133 13.0909 12.3741 14.6346 13.7276 16.7089Z" fill="#FFAB6D"/>
<path d="M15.4486 16.7001C15.4486 16.7001 15.4679 16.7001 15.4776 16.7001C15.5163 16.6809 15.5259 16.6423 15.5066 16.6037C15.3906 16.3625 15.0909 16.1791 14.7816 16.1599C14.5689 16.1406 14.3755 16.0344 14.2595 15.8511C14.1532 15.6871 14.1242 15.4941 14.1822 15.3108C14.3369 14.8091 14.8879 14.5969 14.8879 14.5969C14.9266 14.5872 14.9459 14.539 14.9266 14.51C14.9169 14.4714 14.8686 14.4521 14.8396 14.4714C14.8106 14.4714 14.2305 14.703 14.0468 15.2722C13.9792 15.4941 14.0082 15.7353 14.1435 15.9379C14.2885 16.1502 14.5109 16.2853 14.7719 16.3046C15.0329 16.3239 15.2843 16.4782 15.3809 16.6712C15.3906 16.7001 15.4196 16.7098 15.4389 16.7098L15.4486 16.7001Z" fill="#FF954D"/>
<path d="M23.3854 16.8742C23.6851 16.8163 24.4681 16.604 24.4005 15.9962C24.3424 15.4463 23.7721 15.3208 23.4337 15.3208L22.786 13.835C22.786 13.835 22.7087 13.7675 22.67 13.7868C22.6217 13.8061 22.6023 13.864 22.6217 13.9026L23.2984 15.4463C23.2984 15.4463 23.3467 15.5042 23.3854 15.5042C23.4144 15.5042 24.1684 15.4559 24.2264 16.0155C24.2845 16.5751 23.2694 16.7198 23.2597 16.7198C23.2114 16.7198 23.1727 16.7681 23.1824 16.8163C23.1824 16.8645 23.2307 16.9031 23.2791 16.8935C23.2791 16.8935 23.3274 16.8935 23.3854 16.8742Z" fill="#603F36"/>
<path d="M25.7729 108.311L24.8545 136.773L36.0879 137.911L42.9614 108.311C42.9614 108.311 33.6324 102.638 25.7826 108.311H25.7729Z" fill="#2566B0"/>
<path d="M25.7729 108.311L24.8545 136.773L36.0879 137.911L42.9614 108.311C42.9614 108.311 33.6324 102.638 25.7826 108.311H25.7729Z" fill="black" fill-opacity="0.2"/>
<path d="M54.7555 21.1202L50.4535 36.9142L46.3643 42.2592L59.3282 50.1031L64.1618 44.7677L67.9997 27.1696L54.7555 21.1202Z" fill="#D2E4FF"/>
<path d="M50.4345 32.207C50.9178 32.207 51.3722 32.0044 51.7105 31.6667C51.7782 31.5991 51.8556 31.522 51.9329 31.4544C51.8652 31.1746 51.8942 30.4896 53.1316 29.5441C54.7848 28.2898 52.8803 26.9391 50.7341 29.3415C49.8254 30.3545 49.2067 31.3676 48.791 32.207H50.4248H50.4345Z" fill="#FFAB6D"/>
<path d="M36.8608 35.3428C36.8318 35.4103 36.5225 37.5425 36.5225 37.5908C36.5225 37.639 36.8608 38.2276 36.8608 38.2276H37.4699L37.8082 37.5908L37.4409 35.3428H36.8608Z" fill="#6B6968"/>
<path d="M37.5669 37.6094H36.7549V49.6406H37.5669V37.6094Z" fill="#6B6968"/>
<path d="M36.3779 46.8906C36.3199 47.0643 35.5078 52.5251 35.5078 52.6602C35.5078 52.7953 36.3779 54.2907 36.3779 54.2907H37.9343L38.8044 52.6602L37.8666 46.8906H36.3682H36.3779Z" fill="#181616"/>
<path d="M55.8007 29.9893L55.7168 30.1631L64.0337 34.1631L64.1176 33.9893L55.8007 29.9893Z" fill="#1C4A98"/>
<path d="M54.8575 32.7766L54.7773 32.9521L63.759 37.0372L63.8391 36.8616L54.8575 32.7766Z" fill="#1C4A98"/>
<path d="M54.1118 35.6926L54.0273 35.8662L63.149 40.2886L63.2335 40.115L54.1118 35.6926Z" fill="#1C4A98"/>
<path d="M53.4965 38.8152L53.4092 38.9873L62.3613 43.5121L62.4486 43.3399L53.4965 38.8152Z" fill="#1C4A98"/>
<path d="M52.4464 41.9025L52.3662 42.0781L61.3478 46.1631L61.428 45.9876L52.4464 41.9025Z" fill="#1C4A98"/>
<path d="M50.1007 44.7238L50.0205 44.8994L59.0021 48.9844L59.0823 48.8089L50.1007 44.7238Z" fill="#1C4A98"/>
<path d="M17.6337 9.42773L14.4822 12.8914L11.205 15.4096L9.46484 12.93L17.6337 9.42773Z" fill="#667BA2"/>
<path d="M27.1656 6.93865L18.5617 9.64012L15.4005 11.068L14.0277 12.3802L10.0931 13.837L8.20801 13.2003V12.2837C8.20801 12.2837 8.94273 11.6662 8.90406 11.4829C8.86539 11.2996 7.50229 4.48804 12.5583 1.97953C17.6143 -0.528975 21.6939 1.04367 23.8981 5.53968L24.4105 6.62991C24.4105 6.62991 27.8424 5.61686 27.1656 6.9483V6.93865Z" fill="#50A055"/>
<path d="M20.8141 12.5052C20.9882 12.6982 20.7851 13.1709 20.3598 13.5568C19.9344 13.9428 19.4414 14.0971 19.2674 13.9042C19.0934 13.7112 19.2964 13.2384 19.7217 12.8525C20.1471 12.4666 20.6401 12.3122 20.8141 12.5052Z" fill="#4A240D"/>
<path d="M24.0913 12.7751C24.0043 13.0163 23.4919 13.0549 22.9505 12.862C22.4092 12.669 22.0418 12.3024 22.1385 12.0612C22.2255 11.82 22.7379 11.7814 23.2792 11.9743C23.8206 12.1673 24.188 12.5339 24.0913 12.7751Z" fill="#4A240D"/>
<path d="M20.8621 143.44L0 143.469L1.70144 136.773L5.83906 137.256C5.83906 137.256 7.10549 135.413 9.90901 134.612C18.3003 134.612 21.1618 139.629 22.0608 142.099C22.3025 142.765 21.7032 143.44 20.8621 143.44Z" fill="#463E2C"/>
<path d="M5.49137 138.606C5.49137 138.606 5.49137 138.606 5.48171 138.606C5.4237 138.606 5.37536 138.558 5.38503 138.509C5.73305 135.75 9.78367 134.534 9.83201 134.525C9.89001 134.505 9.94801 134.525 9.96735 134.583C9.98668 134.631 9.95767 134.679 9.89967 134.698C9.861 134.708 5.93607 135.895 5.59771 138.529C5.59771 138.577 5.5397 138.606 5.49137 138.606Z" fill="white"/>
<path d="M12.9251 134.902C12.9251 134.902 12.8671 134.892 12.8477 134.873C12.8187 134.853 12.8091 134.815 12.8284 134.786C13.1668 133.889 14.1045 132.499 15.0616 132.384C15.3129 132.355 15.6706 132.403 15.9896 132.808C16.1926 133.059 16.2313 133.31 16.1056 133.551C15.6609 134.448 13.0604 134.892 12.9541 134.911C12.9541 134.911 12.9444 134.911 12.9348 134.911L12.9251 134.902ZM15.1679 132.557C15.1679 132.557 15.1099 132.557 15.0809 132.557C14.3655 132.644 13.5051 133.696 13.0894 134.68C13.6888 134.564 15.5643 134.14 15.9026 133.464C15.9896 133.281 15.9606 133.098 15.8059 132.895C15.6223 132.663 15.4193 132.548 15.1776 132.548L15.1679 132.557Z" fill="white"/>
<path d="M12.9254 134.901C12.9254 134.901 12.9158 134.901 12.9061 134.901C11.7944 134.718 10.0446 134.081 9.80289 133.309C9.74488 133.106 9.76422 132.798 10.2089 132.489C10.4893 132.296 10.7793 132.238 11.079 132.315C12.1907 132.595 13.0028 134.698 13.0318 134.785C13.0414 134.814 13.0318 134.853 13.0124 134.872C12.9931 134.891 12.9641 134.901 12.9351 134.901H12.9254ZM10.8276 132.46C10.6633 132.46 10.5086 132.518 10.3443 132.624C10.0542 132.827 9.9479 133.029 10.0156 133.251C10.1896 133.84 11.543 134.438 12.7611 134.679C12.5581 134.197 11.862 132.682 11.0113 132.479C10.9533 132.46 10.8856 132.46 10.8276 132.46Z" fill="white"/>
<path d="M12.9349 137.911C12.9349 137.911 12.8576 137.892 12.8383 137.863C12.2582 136.888 12.2292 135.769 12.7416 134.775C12.7706 134.727 12.8286 134.708 12.8866 134.727C12.9446 134.746 12.9639 134.804 12.9446 134.843C12.4516 135.788 12.4806 136.85 13.0316 137.776C13.0606 137.824 13.0316 137.872 12.9833 137.901C12.9639 137.901 12.9543 137.901 12.9349 137.901V137.911Z" fill="white"/>
<path d="M11.7556 136.976C11.7556 136.976 11.7072 136.976 11.6879 136.957C11.6396 136.928 11.6299 136.87 11.6589 136.831C12.4129 135.953 13.5924 135.403 14.8878 135.316C14.9458 135.316 15.0038 135.355 15.0038 135.403C15.0038 135.451 14.9651 135.5 14.9071 135.5C13.6794 135.577 12.558 136.098 11.8426 136.937C11.8232 136.966 11.7846 136.976 11.7556 136.976Z" fill="white"/>
<path d="M15.748 139.032C15.6996 139.032 15.6513 139.003 15.6416 138.955C15.4386 137.884 15.806 136.803 16.6567 135.983C16.6954 135.944 16.763 135.944 16.8114 135.983C16.8597 136.012 16.8597 136.07 16.821 136.108C16.009 136.88 15.6609 137.913 15.8543 138.926C15.8543 138.974 15.8253 139.022 15.7673 139.032C15.7673 139.032 15.7576 139.032 15.748 139.032Z" fill="white"/>
<path d="M14.9644 137.845C14.9644 137.845 14.8967 137.835 14.8774 137.806C14.8387 137.768 14.8484 137.71 14.8967 137.681C15.9311 137.025 17.2555 136.793 18.5123 137.044C18.5703 137.054 18.609 137.102 18.5896 137.15C18.58 137.198 18.522 137.227 18.4543 137.218C17.2555 136.986 15.9988 137.208 15.0127 137.826C14.9934 137.835 14.974 137.845 14.945 137.845H14.9644Z" fill="white"/>
<path d="M44.0154 143.44L23.1533 143.469L24.8548 136.773L28.9924 137.256C28.9924 137.256 30.2588 135.413 33.0623 134.612C41.4536 134.612 44.3151 139.629 45.2142 142.099C45.4559 142.765 44.8565 143.44 44.0154 143.44Z" fill="#463E2C"/>
<path d="M28.6535 138.606C28.6535 138.606 28.6535 138.606 28.6438 138.606C28.5858 138.606 28.5375 138.558 28.5471 138.509C28.8952 135.75 32.9458 134.534 32.9941 134.525C33.0521 134.505 33.1101 134.525 33.1295 134.583C33.1488 134.631 33.1198 134.679 33.0618 134.698C33.0231 134.708 29.0982 135.895 28.7598 138.529C28.7598 138.577 28.7018 138.606 28.6535 138.606Z" fill="white"/>
<path d="M36.0784 134.902C36.0784 134.902 36.0204 134.892 36.0011 134.873C35.9721 134.853 35.9624 134.815 35.9817 134.786C36.3201 133.889 37.2578 132.499 38.2149 132.384C38.4662 132.355 38.8239 132.403 39.1429 132.808C39.346 133.059 39.3846 133.31 39.259 133.551C38.8143 134.448 36.2137 134.892 36.1074 134.911C36.1074 134.911 36.0978 134.911 36.0881 134.911L36.0784 134.902ZM38.3212 132.557C38.3212 132.557 38.2632 132.557 38.2342 132.557C37.5188 132.644 36.6584 133.696 36.2427 134.68C36.8421 134.564 38.7176 134.14 39.0559 133.464C39.143 133.281 39.114 133.098 38.9593 132.895C38.7756 132.663 38.5726 132.548 38.3309 132.548L38.3212 132.557Z" fill="white"/>
<path d="M36.0788 134.901C36.0788 134.901 36.0691 134.901 36.0594 134.901C34.9477 134.718 33.1979 134.081 32.9562 133.309C32.8982 133.106 32.9175 132.798 33.3622 132.489C33.6426 132.296 33.9326 132.238 34.2323 132.315C35.344 132.595 36.1561 134.698 36.1851 134.785C36.1948 134.814 36.1851 134.853 36.1658 134.872C36.1464 134.891 36.1174 134.901 36.0884 134.901H36.0788ZM33.9809 132.46C33.8166 132.46 33.6619 132.518 33.4976 132.624C33.2076 132.827 33.1012 133.029 33.1689 133.251C33.3429 133.84 34.6963 134.438 35.9144 134.679C35.7114 134.197 35.0153 132.682 34.1646 132.479C34.1066 132.46 34.0389 132.46 33.9809 132.46Z" fill="white"/>
<path d="M36.0882 137.911C36.0882 137.911 36.0109 137.892 35.9916 137.863C35.4115 136.888 35.3825 135.769 35.8949 134.775C35.9239 134.727 35.9819 134.708 36.0399 134.727C36.0979 134.746 36.1172 134.804 36.0979 134.843C35.6049 135.788 35.6339 136.85 36.1849 137.776C36.2139 137.824 36.1849 137.872 36.1366 137.901C36.1173 137.901 36.1076 137.901 36.0882 137.901V137.911Z" fill="white"/>
<path d="M34.9089 136.976C34.9089 136.976 34.8605 136.976 34.8412 136.957C34.7929 136.928 34.7832 136.87 34.8122 136.831C35.5663 135.953 36.7457 135.403 38.0411 135.316C38.0991 135.316 38.1571 135.355 38.1571 135.403C38.1571 135.451 38.1184 135.5 38.0604 135.5C36.8327 135.577 35.7113 136.098 34.9959 136.937C34.9766 136.966 34.9379 136.976 34.9089 136.976Z" fill="white"/>
<path d="M38.911 139.032C38.8627 139.032 38.8144 139.003 38.8047 138.955C38.6017 137.884 38.969 136.803 39.8198 135.983C39.8584 135.944 39.9261 135.944 39.9744 135.983C40.0228 136.012 40.0228 136.07 39.9841 136.108C39.1721 136.88 38.824 137.913 39.0174 138.926C39.0174 138.974 38.9884 139.022 38.9304 139.032C38.9304 139.032 38.9207 139.032 38.911 139.032Z" fill="white"/>
<path d="M38.1177 137.845C38.1177 137.845 38.05 137.835 38.0307 137.806C37.992 137.768 38.0017 137.71 38.05 137.681C39.0844 137.025 40.4089 136.793 41.6656 137.044C41.7236 137.054 41.7623 137.102 41.7429 137.15C41.7333 137.198 41.6753 137.227 41.6076 137.218C40.4089 136.986 39.1521 137.208 38.166 137.826C38.1467 137.835 38.1274 137.845 38.0984 137.845H38.1177Z" fill="white"/>
<path d="M20.2433 41.9037C20.2723 42.2317 16.3184 73.8389 16.3184 73.8389L38.1279 63.6409L32.6755 39.5399L20.2433 41.9133V41.9037Z" fill="#2566B0"/>
<path d="M20.2433 41.9037C20.2723 42.2317 16.3184 73.8389 16.3184 73.8389L38.1279 63.6409L32.6755 39.5399L20.2433 41.9133V41.9037Z" fill="black" fill-opacity="0.2"/>
<path d="M5.58789 31.1063L22.6024 48.907C22.6024 48.907 25.2996 48.5501 25.3479 47.9712C25.3963 47.3923 7.75338 28.0479 7.75338 28.0479C7.75338 28.0479 5.82957 28.9162 5.58789 31.1063Z" fill="#2566B0"/>
<path d="M5.58789 31.1063L22.6024 48.907C22.6024 48.907 25.2996 48.5501 25.3479 47.9712C25.3963 47.3923 7.75338 28.0479 7.75338 28.0479C7.75338 28.0479 5.82957 28.9162 5.58789 31.1063Z" fill="black" fill-opacity="0.2"/>
<path d="M24.9414 22.8876L32.3079 46.2746L34.5217 45.4159L28.7117 26.9205C28.7117 26.9205 27.1456 23.3217 24.9414 22.8876Z" fill="#2566B0"/>
<path d="M24.9414 22.8876L32.3079 46.2746L34.5217 45.4159L28.7117 26.9205C28.7117 26.9205 27.1456 23.3217 24.9414 22.8876Z" fill="black" fill-opacity="0.2"/>
<path d="M38.041 62.8385C25.9278 66.6495 20.5721 67.0933 8.07227 66.91C8.08193 65.7232 8.09161 64.5365 8.10128 63.3498C20.4078 63.5331 25.2414 63.6586 37.0743 59.288C37.4126 60.465 37.7026 61.6614 38.041 62.8481V62.8385Z" fill="#161616"/>
<path d="M30.5486 77.6004C25.0189 78.7292 19.6535 78.2468 14.0755 78.4687C13.8918 73.0175 13.9304 67.605 13.9498 62.1538C18.4354 62.1538 23.1337 62.8291 27.5614 61.9512C28.8181 65.7332 29.8525 73.2877 30.5486 77.6004Z" fill="#828282"/>
<path d="M15.6417 65.7334C15.9511 65.7334 16.2604 65.743 16.5795 65.743C16.5505 69.4962 16.4731 73.2396 16.7438 76.9927C16.4055 76.9927 16.0768 76.9638 15.7384 76.9831C15.4581 73.2493 15.5934 69.4769 15.6417 65.7334Z" fill="#DDDDDD"/>
<path d="M17.0048 67.4988C16.3958 67.4988 15.7867 67.4988 15.1777 67.4988C14.8973 64.7974 14.617 62.0959 14.3076 59.3944C15.516 59.3751 16.7341 59.3462 17.9329 59.3944C17.6525 62.0959 17.3818 64.807 17.0048 67.4988Z" fill="#181616"/>
<path d="M17.8838 59.3939C17.8838 60.243 16.7914 60.4359 16.1147 60.4456C15.438 60.4456 14.3359 60.2333 14.3359 59.3939C14.3359 58.5546 15.4283 58.3037 16.1147 58.3037C16.8011 58.3037 17.8935 58.5449 17.8838 59.4036V59.3939Z" fill="#181616"/>
<path d="M20.0984 65.8009C20.4174 65.8009 20.7364 65.8009 21.0555 65.8009C21.0361 69.1102 20.9201 70.9916 21.4035 75.3622C21.0071 75.3622 20.7944 75.3622 20.3884 75.3622C20.3884 71.7538 20.0694 69.0716 20.0887 65.8009H20.0984Z" fill="#DDDDDD"/>
<path d="M21.4716 67.5473C20.8529 67.5473 20.2342 67.5473 19.6155 67.5377C19.3254 65.4826 18.9484 63.4469 18.5811 61.4015C19.7895 61.4594 20.9979 61.498 22.1966 61.4883C22.071 63.5337 21.8583 65.5309 21.4716 67.5473Z" fill="#181616"/>
<path d="M22.1575 61.4985C22.2058 62.2222 20.9781 62.3186 20.4464 62.2993C19.9147 62.28 18.6386 62.1353 18.6289 61.4021C18.6289 60.6688 19.8276 60.6206 20.369 60.6399C20.9104 60.6688 22.1091 60.7749 22.1575 61.4889V61.4985Z" fill="#181616"/>
<path d="M25.2213 65.8489C25.5693 65.8007 25.9173 65.7621 26.2557 65.7139C26.2557 68.232 26.2943 69.8915 26.2943 73.1622C25.9656 73.2104 25.753 73.1815 25.4726 73.1622C25.2986 70.2195 25.2019 68.396 25.2116 65.8489H25.2213Z" fill="#DDDDDD"/>
<path d="M26.6426 67.7962C25.9659 67.912 25.2988 67.7287 24.6221 67.7962C24.4868 66.2621 24.0421 64.786 23.5684 63.3195C24.8058 63.2712 26.0915 63.2809 27.3096 63.0107C27.5513 64.5737 27.2033 66.3393 26.6522 67.7962H26.6426Z" fill="#181616"/>
<path d="M27.2417 63.0501C27.4447 63.5711 25.8689 63.822 25.4822 63.8413C25.0955 63.8509 23.6551 63.9474 23.6068 63.3396C23.5584 62.7317 24.8732 62.6642 25.2889 62.6642C25.7046 62.6642 27.029 62.5291 27.232 63.0501H27.2417Z" fill="#181616"/>
<path d="M28.5581 64.8746C23.7631 66.0516 18.7941 65.6657 13.9121 65.5982C13.9121 65.164 13.9218 64.7298 13.9314 64.286C18.6781 64.3439 23.6181 64.8649 28.2681 63.7361C28.4034 64.1124 28.4904 64.479 28.5581 64.8649V64.8746Z" fill="#161616"/>
<path d="M17.981 72.0813C16.7242 72.0813 15.4578 72.1488 14.2011 72.1971C14.2011 71.9462 14.2011 71.6857 14.1914 71.4349C15.4385 71.377 16.6952 71.348 17.9423 71.2998C17.9423 71.5603 17.9713 71.8208 17.981 72.0909V72.0813Z" fill="#161616"/>
<path d="M22.7569 72.2078C21.4035 72.2271 20.0501 72.1403 18.6967 72.092C18.6773 71.8315 18.658 71.571 18.6387 71.3105C19.9534 71.3781 21.2682 71.4553 22.5829 71.4456C22.6409 71.6965 22.6893 71.957 22.7569 72.2078Z" fill="#161616"/>
<path d="M27.349 71.7254C26.0633 71.9281 24.7679 72.121 23.4628 72.1789C23.3951 71.9281 23.3081 71.6868 23.2598 71.436C24.5649 71.3685 25.8506 71.1948 27.1364 70.9922C27.204 71.2334 27.262 71.4939 27.349 71.7254Z" fill="#161616"/>
<path d="M40.6317 48.5529C41.5888 48.2634 41.3664 46.8355 40.3513 46.8355L35.6724 46.8644C35.6724 46.8644 35.6337 46.8451 35.624 46.8258C35.6143 46.7583 35.6047 46.5943 35.7014 46.382V44.1533C35.479 44.2594 35.2567 44.3849 35.015 44.5489C32.6658 46.1505 31.6121 48.0801 31.5057 48.2731C31.5057 48.2827 31.4864 48.2924 31.4767 48.2924L15.2356 53.0006C15.2356 53.0006 15.2066 53.0199 15.2066 53.0296L13.7952 58.7991C13.5438 59.8122 14.5106 60.7095 15.5063 60.3814C21.3357 58.4518 34.7056 54.033 37.4705 53.2611C40.5254 52.4121 40.013 51.7174 40.013 51.7174C41.1827 50.9166 39.9743 50.0869 39.9743 50.0869C39.9743 50.0869 40.9217 50.2413 40.883 49.1896C40.8734 48.8326 40.5737 48.6011 40.3997 48.5046C40.4383 48.5239 40.4964 48.5432 40.5544 48.5625C40.5737 48.5625 40.6027 48.5529 40.622 48.5432L40.6317 48.5529Z" fill="#FFAB6D"/>
<path d="M6.60254 37.0143C6.60254 37.2362 6.62187 37.4581 6.66054 37.6704L10.3825 57.2174C10.8078 59.4654 12.925 60.9512 15.1001 60.4785C17.3043 59.9961 18.706 57.6902 18.1937 55.4036L16.1539 46.1704L15.6608 43.9513L13.8144 35.5864C13.389 33.6568 11.4362 32.5955 9.49306 33.1744C7.79161 33.6857 6.60254 35.3162 6.60254 37.0047V37.0143Z" fill="#FFAB6D"/>
<path d="M6.91213 46.0446L6.54478 38.9533C6.03242 35.837 7.67585 32.9522 10.1894 32.547C12.7029 32.1417 15.168 34.3511 15.6804 37.4675L16.8308 44.4913L13.8049 45.5236C11.5911 46.2762 9.22263 46.4595 6.92181 46.0446H6.91213Z" fill="#50A055"/>
<path d="M9.37705 46.3539C10.9335 46.3539 12.4899 46.0741 13.9594 45.5145L16.3182 44.6269C16.3182 44.6269 16.3762 44.5787 16.3762 44.5401L15.6125 39.031C15.6125 39.031 15.5641 38.9538 15.5158 38.9635C15.4675 38.9635 15.4385 39.0117 15.4481 39.06L16.2022 44.5015L13.911 45.3698C11.7262 46.1996 9.34804 46.4118 7.04722 45.9776L6.58319 43.5174C6.58319 43.5174 6.53485 43.4402 6.48651 43.4498C6.43817 43.4498 6.40918 43.4981 6.41884 43.5463L6.89255 46.0548C6.89255 46.0548 6.92154 46.1127 6.96021 46.1224H6.97955C7.78194 46.2767 8.58432 46.3539 9.38671 46.3539H9.37705Z" fill="white"/>
<path d="M15.5164 60.4768C15.5164 60.4768 15.5357 60.4768 15.5454 60.4768L29.5147 55.8361C29.8723 55.73 38.4279 53.1346 39.3367 52.7487C40.1197 52.4207 40.1681 51.9672 40.1487 51.7935C40.2937 51.726 40.6127 51.5041 40.6031 50.9349C40.6031 50.5103 40.4484 50.2691 40.3324 50.1437C40.5644 50.0762 40.9221 49.8832 40.9801 49.3526C41.0284 48.8895 40.8448 48.6386 40.6901 48.5132C41.0091 48.4167 41.3958 48.1562 41.3668 47.6063C41.3281 46.9116 40.6901 46.7476 40.3614 46.7572L35.6824 46.7862C35.6824 46.7862 35.5954 46.8248 35.5954 46.873C35.5954 46.9212 35.6341 46.9598 35.6824 46.9598L40.3614 46.9309C40.3614 46.9309 41.1541 46.9212 41.1928 47.6256C41.2315 48.3299 40.4774 48.4071 40.4387 48.4071C40.4001 48.4071 40.3711 48.4456 40.3614 48.4842C40.3614 48.5228 40.3807 48.5614 40.4194 48.5711C40.4387 48.5711 40.8641 48.7061 40.8061 49.3526C40.7384 49.999 40.1487 50.0279 40.1197 50.0279C40.081 50.0279 40.052 50.0569 40.0424 50.0955C40.0424 50.1341 40.052 50.1727 40.0907 50.192C40.1004 50.192 40.4194 50.3463 40.4291 50.9542C40.4291 51.5523 40.0424 51.6681 40.023 51.6778C40.0037 51.6778 39.9844 51.6971 39.9747 51.7164C39.965 51.7356 39.965 51.7549 39.9747 51.7839C39.9747 51.8032 40.0907 52.2663 39.269 52.6136C38.3699 52.9899 29.5533 55.6624 29.4663 55.6914L15.4874 60.3321C15.4874 60.3321 15.4197 60.39 15.439 60.4382C15.4487 60.4768 15.4874 60.4961 15.5164 60.4961V60.4768Z" fill="white"/>
</svg>
