<svg width="95" height="150" viewBox="0 0 95 150" fill="none" xmlns="http://www.w3.org/2000/svg">
<path d="M20.0598 37.1228C21.0798 43.3704 24.2498 50.3265 29.0098 53.5102C38.8498 60.107 34.0398 42.6718 34.0398 42.6718C34.0398 42.6718 32.4698 36.9132 30.2798 31.9531C28.6598 28.2705 26.7098 25.0269 24.8098 24.8972C20.3298 24.5778 18.9698 30.4561 20.0598 37.1328V37.1228Z" fill="#50A055"/>
<path d="M22.1799 43.2404C26.3599 39.1286 33.4499 39.4679 33.4499 39.4679C30.7699 28.3601 28.2099 25.5158 25.0899 24.907C19.0499 23.7293 15.7099 29.8172 20.7499 42.9011C20.9799 43.4999 21.7299 43.6796 22.1899 43.2304L22.1799 43.2404Z" fill="#50A055"/>
<path d="M49.404 55.1278C49.9556 52.1635 49.267 49.55 47.8661 49.2903C46.4651 49.0307 44.8823 51.2233 44.3307 54.1876C43.7792 57.1519 44.4677 59.7654 45.8687 60.025C47.2696 60.2847 48.8524 58.0921 49.404 55.1278Z" fill="#493136"/>
<path d="M36.2297 49.119L56.3697 49.7777C56.3697 49.7777 56.3997 49.7777 56.4097 49.7578C56.5997 49.5682 58.5097 47.7318 61.7597 46.7637C65.1897 45.7458 66.1896 48.1809 63.8896 48.3905C61.8797 48.5801 61.6396 49.4184 61.6096 49.628C61.6096 49.658 61.6197 49.6779 61.6497 49.6879L66.9596 51.4145C68.0996 51.7837 67.8396 53.5203 66.6396 53.5003C66.6096 53.5003 66.5797 53.5103 66.5597 53.5003C65.7597 52.8815 66.9297 53.5302 66.6997 54.3486C66.3497 55.5762 65.3397 55.0472 65.3397 55.0472C65.3397 55.0472 66.3997 56.4544 64.7896 56.9534C64.7896 56.9534 65.1097 57.9514 61.3397 57.7818C57.9297 57.6321 41.1497 57.7718 33.8297 57.7618C28.8897 57.662 26.1996 54.4185 21.8896 43.6998L33.9497 42.3525C35.5397 47.5522 36.2296 49.129 36.2496 49.129L36.2297 49.119Z" fill="#332B29"/>
<path d="M48.0398 49.2881C48.0398 49.2881 44.6798 51.3141 45.9198 60.0666C33.4698 60.895 29.5498 60.3062 27.6198 58.4099C25.6898 56.5237 20.7598 42.9508 20.7598 42.9508C20.7598 42.9508 24.1298 37.0325 33.4398 39.4677L36.1498 47.3021L48.0298 49.2881H48.0398Z" fill="#50A055"/>
<path d="M69.16 51.6433H94.54V38.9486H69.16V51.6433Z" fill="#B2B2B7"/>
<path d="M84.2003 49.7068H90.6603C91.4169 49.7068 92.0303 49.0946 92.0303 48.3395V42.0421C92.0303 41.2869 91.4169 40.6748 90.6603 40.6748H84.2003C83.4437 40.6748 82.8303 41.2869 82.8303 42.0421V48.3395C82.8303 49.0946 83.4437 49.7068 84.2003 49.7068Z" fill="#D3D3D3"/>
<path d="M72.9005 49.7068H79.3605C80.1171 49.7068 80.7305 49.0946 80.7305 48.3395V42.0421C80.7305 41.2869 80.1171 40.6748 79.3605 40.6748H72.9005C72.1438 40.6748 71.5305 41.2869 71.5305 42.0421V48.3395C71.5305 49.0946 72.1438 49.7068 72.9005 49.7068Z" fill="#D3D3D3"/>
<path d="M88.2895 47.4216H89.7695V42.4216H88.2895V47.4216Z" fill="#2566B0"/>
<path d="M88.2895 47.4216H89.7695V42.4216H88.2895V47.4216Z" fill="black" fill-opacity="0.2"/>
<path d="M85.1899 47.4216H86.6699V42.4216H85.1899V47.4216Z" fill="#2566B0"/>
<path d="M85.1899 47.4216H86.6699V42.4216H85.1899V47.4216Z" fill="black" fill-opacity="0.2"/>
<path d="M73.5498 45.1959C73.5498 46.653 74.7098 47.8307 76.1398 47.8307C77.5698 47.8307 78.7298 46.653 78.7298 45.1959C78.7298 43.7388 77.5698 42.5612 76.1398 42.5612C74.7098 42.5612 73.5498 43.7388 73.5498 45.1959Z" fill="#EDEDED"/>
<path d="M76.7598 45.1964C76.7598 45.406 76.9298 45.5756 77.1398 45.5756C77.3498 45.5756 77.5198 45.406 77.5198 45.1964C77.5198 44.9868 77.3498 44.8171 77.1398 44.8171C76.9298 44.8171 76.7598 44.9868 76.7598 45.1964Z" fill="#2566B0"/>
<path d="M76.7598 45.1964C76.7598 45.406 76.9298 45.5756 77.1398 45.5756C77.3498 45.5756 77.5198 45.406 77.5198 45.1964C77.5198 44.9868 77.3498 44.8171 77.1398 44.8171C76.9298 44.8171 76.7598 44.9868 76.7598 45.1964Z" fill="black" fill-opacity="0.2"/>
<path d="M74.6797 45.1964C74.6797 45.406 74.8497 45.5756 75.0597 45.5756C75.2697 45.5756 75.4397 45.406 75.4397 45.1964C75.4397 44.9868 75.2697 44.8171 75.0597 44.8171C74.8497 44.8171 74.6797 44.9868 74.6797 45.1964Z" fill="#2566B0"/>
<path d="M74.6797 45.1964C74.6797 45.406 74.8497 45.5756 75.0597 45.5756C75.2697 45.5756 75.4397 45.406 75.4397 45.1964C75.4397 44.9868 75.2697 44.8171 75.0597 44.8171C74.8497 44.8171 74.6797 44.9868 74.6797 45.1964Z" fill="black" fill-opacity="0.2"/>
<path d="M64.7795 88.3508C64.2795 88.3508 63.8095 88.261 63.3895 88.0415C61.7695 87.2231 61.1495 84.768 61.5495 80.746C61.9395 76.8338 62.4095 73.7899 62.7895 71.3547C63.7895 64.8876 64.1295 62.702 60.3695 59.9774C60.3295 59.9475 60.3195 59.8876 60.3495 59.8377C60.3795 59.7978 60.4395 59.7878 60.4895 59.8177C64.3495 62.6122 64.0095 64.8277 62.9895 71.3847C62.6095 73.8298 62.1395 76.8637 61.7495 80.766C61.3595 84.6981 61.9395 87.0834 63.4795 87.8618C66.3895 89.3289 71.8495 84.5983 72.2095 84.2789C76.4095 72.4825 77.4795 45.4763 77.4895 45.2068C77.4895 45.147 77.5395 45.117 77.5895 45.1071C77.6495 45.1071 77.6895 45.1569 77.6895 45.2068C77.6795 45.4763 76.6095 72.5524 72.3895 84.3688C72.3895 84.3888 72.3695 84.3987 72.3595 84.4087C72.1495 84.5883 67.9295 88.3409 64.7795 88.3409V88.3508Z" fill="#6A69A8"/>
<path d="M62.9897 82.3425C61.8597 82.3425 60.7997 81.9633 59.9897 81.2247C58.9197 80.2567 57.3897 77.8415 59.0497 72.4722C59.7797 70.1269 60.4297 68.1708 60.9997 66.4542C62.5497 61.8134 63.3297 59.4881 62.5697 58.2106C62.1397 57.4921 61.2197 57.0629 59.3597 56.7236C59.3097 56.7236 59.2697 56.6637 59.2797 56.6038C59.2797 56.5539 59.3397 56.514 59.3997 56.524C61.3097 56.8733 62.2797 57.3324 62.7397 58.1008C63.5397 59.4581 62.7597 61.8134 61.1897 66.5141C60.6197 68.2306 59.9597 70.1867 59.2397 72.5321C57.6097 77.7916 59.0997 80.1469 60.1297 81.075C61.3797 82.2128 63.2597 82.4523 65.0297 81.7138C66.8097 80.9653 68.7697 78.9992 68.9097 75.7157C69.2797 66.9532 72.1697 55.7455 72.1997 55.6258C75.5697 46.1746 75.1397 44.5778 74.9297 44.3183C74.8897 44.2584 74.8497 44.2684 74.8497 44.2684C74.7997 44.2784 74.7397 44.2485 74.7297 44.1985C74.7197 44.1486 74.7497 44.0888 74.7997 44.0788C74.8097 44.0788 74.9497 44.0488 75.0697 44.1786C75.4597 44.5977 75.6197 46.6537 72.3897 55.6956C72.3597 55.7954 69.4797 66.9831 69.1097 75.7357C68.9697 79.1189 66.9497 81.1449 65.1097 81.9134C64.4097 82.2028 63.6897 82.3525 62.9897 82.3525V82.3425Z" fill="#FF4800"/>
<path d="M50.9395 58.7183L56.2695 65.1953L69.9095 53.5286L64.5795 47.0515L50.9395 58.7183Z" fill="#50A055"/>
<path d="M56.9492 54.7258L60.4792 59.0072L67.9892 52.5801L64.4692 48.2986L56.9492 54.7258Z" fill="white"/>
<path d="M55.5996 64.3765L56.2696 65.1948L69.9096 53.5281L69.2396 52.7097L55.5996 64.3765Z" fill="#50A055"/>
<path d="M29.6599 25.2563C29.6599 25.2563 24.8099 22.0926 19.4199 23.4898C21.8199 28.8591 28.2399 28.3002 29.6599 25.2563Z" fill="#493136"/>
<path d="M27.1897 106.973L21.6797 71.8035L38.2397 69.4382L44.3897 102.323L27.1897 106.973Z" fill="#2566B0"/>
<path d="M27.1897 106.973L21.6797 71.8035L38.2397 69.4382L44.3897 102.323L27.1897 106.973Z" fill="black" fill-opacity="0.2"/>
<path d="M21.6996 13.8594L21.2396 16.9232L20.4396 22.2327L20.1696 24.0291C19.8196 26.3744 21.3996 28.58 23.7096 28.9393C26.0196 29.2986 28.4696 30.4363 28.5196 25.3365L28.9096 22.7516L28.9496 22.5021L30.0496 15.1568L28.7296 14.9472L24.1096 14.2286L23.9896 14.2086L22.9596 14.049L21.6996 13.8494V13.8594Z" fill="#F8B283"/>
<path d="M21.3895 14.5976C21.4595 14.8371 21.5395 15.0667 21.6295 15.3062C22.6695 18.2603 25.0895 22.8212 28.7095 23.8891C33.8295 25.3961 34.0495 21.1246 35.7595 15.6156C36.5995 12.891 36.4395 10.7253 36.1495 9.39797C35.9595 8.49976 35.7095 7.99077 35.6895 7.96083C35.6895 7.96083 32.0795 1.35401 26.2795 3.19034C20.4795 5.02668 20.3995 11.4239 21.3995 14.6076L21.3895 14.5976Z" fill="#F8B283"/>
<path d="M22.1689 6.30434C23.1289 6.3243 24.1289 6.41412 25.1489 6.58378C26.4089 6.79336 27.4089 7.8812 28.3089 9.06883C29.8589 11.1447 32.2789 12.3623 34.8389 12.3623H36.9189C36.7389 9.09878 35.7089 7.98101 35.6789 7.95107C35.6789 7.95107 32.0689 1.34424 26.2689 3.18058C24.3089 3.79935 22.9989 4.93707 22.1689 6.30434Z" fill="#332B29"/>
<path d="M20.9092 14.4185C20.9792 14.658 20.4292 18.65 20.7692 18.4205C21.7292 18.0013 24.1092 19.8077 26.1092 15.6161C28.1292 14.8277 28.7492 15.157 28.7492 15.157L30.0492 14.3586C32.4292 12.8915 31.7492 8.97933 31.7492 8.97933H31.8592C30.1192 7.88152 27.7792 7.01324 25.1492 6.57412C24.1292 6.40446 23.1292 6.31464 22.1692 6.29468C20.5392 8.95937 20.2492 12.3027 20.9092 14.4085V14.4185Z" fill="#332B29"/>
<path d="M28.3998 15.7259C29.0498 14.8077 28.8898 13.5003 27.9998 12.8217C27.5398 12.4724 26.9698 12.3726 26.3298 12.9015C24.7498 14.2089 26.6598 16.5842 27.2898 17.2928L28.3998 15.7159V15.7259Z" fill="#F8B283"/>
<path d="M26.7998 13.2212C26.7998 13.2212 26.7998 13.321 26.7498 13.3509C25.8398 14.0296 26.3998 14.9477 26.4298 14.9877C26.4698 15.0475 26.4498 15.1274 26.3898 15.1673C26.3298 15.2072 26.2498 15.1873 26.2098 15.1274C26.2098 15.1174 25.4998 13.9597 26.5998 13.1314C26.6598 13.0914 26.7398 13.1014 26.7798 13.1613C26.7898 13.1813 26.7998 13.1913 26.7998 13.2112V13.2212Z" fill="#332B29"/>
<path d="M34.1097 15.3463C34.0097 15.5359 34.0897 15.7754 34.2797 15.8752C34.4697 15.975 34.6997 15.8952 34.7997 15.7056C34.8997 15.516 34.8197 15.2764 34.6297 15.1766C34.4397 15.0768 34.2097 15.1567 34.1097 15.3463Z" fill="#493136"/>
<path d="M35.5596 15.6158C35.5596 15.6158 37.0396 20.077 36.0396 19.6578C34.9496 19.1987 34.0596 19.029 34.0596 19.029L35.5596 15.6158Z" fill="#F8B283"/>
<path d="M7.48945 82.0032C6.26945 65.556 3.36945 38.2504 13.1194 27.5917C14.1294 26.4839 15.8294 25.8452 17.2194 25.436C17.3794 25.3861 17.5394 25.3462 17.6994 25.3062C17.7694 25.2863 17.8994 25.2364 17.9694 25.2563C18.0394 25.2763 18.1194 25.3961 18.1694 25.446C18.4194 25.6955 18.6394 25.9749 18.8794 26.2344C19.7794 27.2424 21.1494 27.931 22.4694 28.0907C23.1394 28.1705 23.8194 28.0707 24.4994 28.1506C25.6094 28.2803 26.6894 28.43 27.6894 27.8013C28.6994 27.1725 29.8494 26.3142 30.9594 27.2424C32.7094 28.6895 33.7694 31.3741 34.4294 34.3083C37.3894 47.4221 39.4094 69.1788 40.1594 80.1369L31.0794 83.4004C22.1394 85.4164 21.2794 87.1729 12.8194 83.6299L7.48945 82.0032Z" fill="#2566B0"/>
<path d="M7.48945 82.0032C6.26945 65.556 3.36945 38.2504 13.1194 27.5917C14.1294 26.4839 15.8294 25.8452 17.2194 25.436C17.3794 25.3861 17.5394 25.3462 17.6994 25.3062C17.7694 25.2863 17.8994 25.2364 17.9694 25.2563C18.0394 25.2763 18.1194 25.3961 18.1694 25.446C18.4194 25.6955 18.6394 25.9749 18.8794 26.2344C19.7794 27.2424 21.1494 27.931 22.4694 28.0907C23.1394 28.1705 23.8194 28.0707 24.4994 28.1506C25.6094 28.2803 26.6894 28.43 27.6894 27.8013C28.6994 27.1725 29.8494 26.3142 30.9594 27.2424C32.7094 28.6895 33.7694 31.3741 34.4294 34.3083C37.3894 47.4221 39.4094 69.1788 40.1594 80.1369L31.0794 83.4004C22.1394 85.4164 21.2794 87.1729 12.8194 83.6299L7.48945 82.0032Z" fill="black" fill-opacity="0.2"/>
<path d="M44.3897 102.322L40.1197 140.406L27.7997 143.34C27.7997 143.34 27.2997 112.702 27.1797 103.5L44.3897 102.312V102.322Z" fill="#2566B0"/>
<path d="M44.3897 102.322L40.1197 140.406L27.7997 143.34C27.7997 143.34 27.2997 112.702 27.1797 103.5L44.3897 102.312V102.322Z" fill="black" fill-opacity="0.2"/>
<path d="M7.77015 104L7.50016 65.5662L24.9802 70.7958L24.3702 105.197C23.5402 113.441 14.1702 140.187 14.1702 140.187L1.66016 142.433L7.77015 104Z" fill="#2566B0"/>
<path d="M7.77015 104L7.50016 65.5662L24.9802 70.7958L24.3702 105.197C23.5402 113.441 14.1702 140.187 14.1702 140.187L1.66016 142.433L7.77015 104Z" fill="black" fill-opacity="0.2"/>
<path d="M28.8004 10.1161L24.3704 13.1101L19.1604 14.5572L18.6504 11.4335L28.8004 10.1161Z" fill="#C2BDB7"/>
<path d="M39.4003 9.61749L29.7303 10.5556L26.0803 11.374L24.3403 12.4718L19.8703 13.1305L18.0303 12.0127L18.2303 11.0247C18.2303 11.0247 19.1503 10.5257 19.1503 10.3261C19.1503 10.1265 19.2503 2.48171 25.1303 0.944779C31.0103 -0.592157 34.9603 2.02262 36.2703 7.36198L36.5703 8.64942C36.5703 8.64942 40.4203 8.34004 39.4003 9.61749Z" fill="#50A055"/>
<path d="M35.13 4.74695C35.13 4.74695 36.25 6.80285 36.38 8.54937L25.84 10.256L19.71 10.4655V9.60725L25.8 9.39768C25.8 9.39768 33.24 8.74897 35.13 4.74695Z" fill="#50A055"/>
<path d="M31.0999 75.1364L30.0299 90.1465L24.0999 92.422L7.67992 91.6834L6.41992 48.4197L31.0999 75.1364Z" fill="#2566B0"/>
<path d="M31.0999 75.1364L30.0299 90.1465L24.0999 92.422L7.67992 91.6834L6.41992 48.4197L31.0999 75.1364Z" fill="black" fill-opacity="0.2"/>
<path d="M30.0302 28.0903C29.8202 31.4835 26.0102 33.2899 23.3302 31.264L18.1602 27.3618C18.1602 27.3618 29.9602 26.8228 30.0302 28.0903Z" fill="#50A055"/>
<path d="M22.4206 81.4343H23.8906V75.1069H22.4206V81.4343Z" fill="#2566B0"/>
<path d="M22.4206 81.4343H23.8906V75.1069H22.4206V81.4343Z" fill="black" fill-opacity="0.2"/>
<path d="M9.5 79.6872L10.94 80.0065L12.28 73.8288L10.84 73.4995L9.5 79.6872Z" fill="#2566B0"/>
<path d="M9.5 79.6872L10.94 80.0065L12.28 73.8288L10.84 73.4995L9.5 79.6872Z" fill="black" fill-opacity="0.2"/>
<path d="M31.0299 45.6159C31.0299 45.6159 31.0299 45.6159 31.0399 45.6159C31.1899 45.6159 31.2999 45.4762 31.2899 45.3265L30.3099 26.5539C30.3099 26.4042 30.1699 26.2844 30.0299 26.2944C29.8799 26.2944 29.7699 26.4341 29.7799 26.5838L30.7599 45.3564C30.7599 45.5061 30.8899 45.6159 31.0299 45.6159Z" fill="#2566B0"/>
<path d="M31.0299 45.6159C31.0299 45.6159 31.0299 45.6159 31.0399 45.6159C31.1899 45.6159 31.2999 45.4762 31.2899 45.3265L30.3099 26.5539C30.3099 26.4042 30.1699 26.2844 30.0299 26.2944C29.8799 26.2944 29.7699 26.4341 29.7799 26.5838L30.7599 45.3564C30.7599 45.5061 30.8899 45.6159 31.0299 45.6159Z" fill="black" fill-opacity="0.2"/>
<path d="M19.4096 23.4891C20.7596 26.9622 27.2596 28.6688 29.6496 25.2556L29.6996 28.07C29.1896 31.7427 22.0596 30.6648 18.8296 28.0101C18.3996 27.6508 18.1696 27.1019 18.2196 26.5331C18.3296 25.3754 19.3596 23.3893 19.3996 23.4791L19.4096 23.4891Z" fill="#50A055"/>
<path d="M38.9909 66.2051C38.9909 66.2051 27.0209 73.4307 6.38086 66.2051C6.41086 69.8678 6.78086 71.8638 6.78086 71.8638C6.78086 71.8638 19.3809 78.4007 39.5609 71.6542C39.0909 67.1631 38.9809 66.1951 38.9809 66.1951L38.9909 66.2051Z" fill="#3A3875"/>
<path d="M36.3797 74.6376L38.2497 74.408L37.3397 66.5836L35.4697 66.8131L36.3797 74.6376Z" fill="#2566B0"/>
<path d="M36.3797 74.6376L38.2497 74.408L37.3397 66.5836L35.4697 66.8131L36.3797 74.6376Z" fill="black" fill-opacity="0.2"/>
<path d="M29.2303 76.7537L31.1003 76.5341L30.1803 68.7097L28.3203 68.9392L29.2303 76.7537Z" fill="#2566B0"/>
<path d="M29.2303 76.7537L31.1003 76.5341L30.1803 68.7097L28.3203 68.9392L29.2303 76.7537Z" fill="black" fill-opacity="0.2"/>
<path d="M19.4199 76.9338L21.2899 77.1334L22.1099 69.3089L20.2399 69.0994L19.4199 76.9338Z" fill="#2566B0"/>
<path d="M19.4199 76.9338L21.2899 77.1334L22.1099 69.3089L20.2399 69.0994L19.4199 76.9338Z" fill="black" fill-opacity="0.2"/>
<path d="M11.3604 75.8251L13.2304 76.0347L14.0504 68.2003L12.1804 68.0007L11.3604 75.8251Z" fill="#2566B0"/>
<path d="M11.3604 75.8251L13.2304 76.0347L14.0504 68.2003L12.1804 68.0007L11.3604 75.8251Z" fill="black" fill-opacity="0.2"/>
<path d="M11.7195 44.2186C13.2395 50.3664 16.9595 57.0231 21.9695 59.7976C32.3095 65.5361 26.0995 48.57 26.0995 48.57C26.0995 48.57 24.0695 42.9611 21.4895 38.2006C19.5795 34.6677 17.3695 31.6038 15.4695 31.6238C10.9795 31.6836 10.0995 37.6617 11.7295 44.2186H11.7195Z" fill="#50A055"/>
<path d="M14.3199 50.1368C18.1499 45.6857 25.2399 45.4262 25.2399 45.4262C21.6699 34.5778 18.8799 31.9631 15.7299 31.6237C9.60988 30.9551 6.77988 37.3124 12.8599 49.9272C13.1399 50.5061 13.8999 50.6159 14.3199 50.1368Z" fill="#50A055"/>
<path d="M37.2795 59.129C36.9595 62.123 37.8595 64.6879 39.2795 64.8376C40.6995 64.9973 42.0995 62.6919 42.4195 59.6879C42.7395 56.6938 41.8395 54.129 40.4195 53.9793C38.9995 53.8196 37.5995 56.125 37.2795 59.129Z" fill="#493136"/>
<path d="M28.8096 54.8077L48.9296 53.7598C48.9296 53.7598 48.9596 53.7597 48.9696 53.7398C49.1496 53.5302 50.8996 51.5442 54.0596 50.3066C57.3996 48.9992 58.5896 51.3446 56.3196 51.7538C54.3296 52.113 54.1596 52.9713 54.1496 53.1809C54.1496 53.2108 54.1696 53.2308 54.1896 53.2408L59.6196 54.5083C60.7896 54.7777 60.6696 56.5342 59.4696 56.6141C59.4396 56.6141 59.4096 56.634 59.3896 56.6141C58.5396 56.0652 59.7596 56.6141 59.5896 57.4524C59.3396 58.7099 58.2896 58.2608 58.2896 58.2608C58.2896 58.2608 59.4696 59.5781 57.8896 60.2069C57.8896 60.2069 58.2896 61.175 54.5096 61.3247C51.0996 61.4644 34.3896 63.0113 27.0996 63.6201C22.1696 63.9395 19.2196 60.9255 14.0596 50.616L25.9696 48.2507C27.9696 53.3007 28.7996 54.8176 28.8096 54.8077Z" fill="#2566B0"/>
<path d="M28.8096 54.8077L48.9296 53.7598C48.9296 53.7598 48.9596 53.7597 48.9696 53.7398C49.1496 53.5302 50.8996 51.5442 54.0596 50.3066C57.3996 48.9992 58.5896 51.3446 56.3196 51.7538C54.3296 52.113 54.1596 52.9713 54.1496 53.1809C54.1496 53.2108 54.1696 53.2308 54.1896 53.2408L59.6196 54.5083C60.7896 54.7777 60.6696 56.5342 59.4696 56.6141C59.4396 56.6141 59.4096 56.634 59.3896 56.6141C58.5396 56.0652 59.7596 56.6141 59.5896 57.4524C59.3396 58.7099 58.2896 58.2608 58.2896 58.2608C58.2896 58.2608 59.4696 59.5781 57.8896 60.2069C57.8896 60.2069 58.2896 61.175 54.5096 61.3247C51.0996 61.4644 34.3896 63.0113 27.0996 63.6201C22.1696 63.9395 19.2196 60.9255 14.0596 50.616L25.9696 48.2507C27.9696 53.3007 28.7996 54.8176 28.8096 54.8077Z" fill="black" fill-opacity="0.2"/>
<path d="M40.5904 53.9791C40.5904 53.9791 37.4104 56.2845 39.3604 64.8973C27.0204 66.7736 23.0704 66.5141 20.9904 64.7875C18.9104 63.071 12.9004 49.9571 12.9004 49.9571C12.9004 49.9571 15.7804 43.7695 25.2504 45.4162L28.5904 53.0011L40.5904 53.9791Z" fill="#50A055"/>
<path d="M50.0204 149.089L25.6904 149.119L27.6704 141.145L32.5004 141.714C32.5004 141.714 33.9804 139.518 37.2404 138.56C47.0304 138.56 50.3604 144.528 51.4104 147.472C51.6904 148.271 50.9904 149.069 50.0104 149.079L50.0204 149.089Z" fill="#463E2C"/>
<path d="M32.0998 143.34C32.0998 143.34 32.0998 143.34 32.0898 143.34C32.0198 143.34 31.9698 143.28 31.9798 143.221C32.3898 139.937 37.1198 138.49 37.1598 138.47C37.2298 138.45 37.2998 138.47 37.3198 138.54C37.3398 138.61 37.3098 138.66 37.2398 138.68C37.1898 138.69 32.6198 140.097 32.2298 143.25C32.2298 143.31 32.1698 143.35 32.0998 143.35V143.34Z" fill="white"/>
<path d="M40.7705 138.929C40.7705 138.929 40.7005 138.919 40.6705 138.889C40.6405 138.859 40.6305 138.819 40.6405 138.779C41.0305 137.701 42.1305 136.054 43.2405 135.915C43.5305 135.885 43.9505 135.935 44.3205 136.414C44.5505 136.713 44.6005 137.012 44.4605 137.292C43.9405 138.36 40.9105 138.889 40.7805 138.909H40.7605L40.7705 138.929ZM43.3905 136.134C43.3905 136.134 43.3205 136.134 43.2805 136.134C42.4505 136.234 41.4405 137.491 40.9605 138.659C41.6605 138.519 43.8405 138.02 44.2405 137.212C44.3505 136.992 44.3105 136.773 44.1205 136.533C43.9005 136.254 43.6705 136.124 43.3905 136.124V136.134Z" fill="white"/>
<path d="M40.7708 138.929C40.7708 138.929 40.7508 138.929 40.7408 138.929C39.4408 138.71 37.4008 137.951 37.1308 137.023C37.0608 136.783 37.0808 136.414 37.6008 136.055C37.9208 135.825 38.2608 135.755 38.6108 135.845C39.9108 136.175 40.8508 138.68 40.8908 138.789C40.9008 138.829 40.8908 138.869 40.8608 138.899C40.8408 138.919 40.8008 138.939 40.7708 138.939V138.929ZM38.3208 136.025C38.1308 136.025 37.9508 136.095 37.7608 136.225C37.4208 136.464 37.3008 136.704 37.3808 136.973C37.5908 137.672 39.1608 138.39 40.5808 138.67C40.3408 138.091 39.5308 136.294 38.5408 136.045C38.4708 136.025 38.4008 136.015 38.3208 136.015V136.025Z" fill="white"/>
<path d="M40.7802 142.513C40.7802 142.513 40.6902 142.493 40.6702 142.453C39.9902 141.295 39.9602 139.958 40.5602 138.78C40.5902 138.72 40.6602 138.7 40.7302 138.72C40.7902 138.74 40.8202 138.81 40.8002 138.86C40.2202 139.978 40.2602 141.255 40.9002 142.353C40.9302 142.403 40.9002 142.473 40.8402 142.503C40.8202 142.503 40.8002 142.513 40.7802 142.513Z" fill="white"/>
<path d="M39.4004 141.395C39.4004 141.395 39.3504 141.395 39.3304 141.375C39.2704 141.335 39.2604 141.275 39.3004 141.225C40.1804 140.177 41.5504 139.518 43.0604 139.428C43.1304 139.428 43.1904 139.468 43.2004 139.528C43.2004 139.588 43.1504 139.638 43.0804 139.648C41.6504 139.738 40.3404 140.357 39.5104 141.355C39.4904 141.385 39.4504 141.405 39.4104 141.405L39.4004 141.395Z" fill="white"/>
<path d="M44.0701 143.84C44.0101 143.84 43.9501 143.8 43.9401 143.75C43.7001 142.473 44.1301 141.185 45.1301 140.217C45.1801 140.167 45.2601 140.167 45.3101 140.207C45.3601 140.247 45.3701 140.317 45.3201 140.357C44.3801 141.275 43.9601 142.503 44.1901 143.71C44.2001 143.77 44.1501 143.83 44.0801 143.83C44.0801 143.83 44.0701 143.83 44.0601 143.83L44.0701 143.84Z" fill="white"/>
<path d="M43.1406 142.432C43.1406 142.432 43.0606 142.422 43.0406 142.392C43.0006 142.343 43.0106 142.273 43.0706 142.243C44.2806 141.464 45.8206 141.195 47.2906 141.484C47.3606 141.494 47.4006 141.554 47.3906 141.614C47.3706 141.674 47.3106 141.704 47.2406 141.694C45.8406 141.414 44.3806 141.674 43.2306 142.412C43.2106 142.422 43.1806 142.432 43.1506 142.432H43.1406Z" fill="white"/>
<path d="M24.33 149.089L0 149.119L1.98 141.145L6.81 141.714C6.81 141.714 8.29 139.518 11.55 138.56C21.34 138.56 24.67 144.528 25.72 147.472C26 148.271 25.3 149.069 24.32 149.079L24.33 149.089Z" fill="#463E2C"/>
<path d="M6.41034 143.34C6.41034 143.34 6.41034 143.34 6.40034 143.34C6.33034 143.34 6.28034 143.28 6.29034 143.221C6.70034 139.937 11.4203 138.49 11.4703 138.47C11.5403 138.45 11.6103 138.47 11.6303 138.54C11.6503 138.6 11.6203 138.66 11.5503 138.68C11.5003 138.69 6.93034 140.097 6.54034 143.25C6.54034 143.31 6.48034 143.35 6.41034 143.35V143.34Z" fill="white"/>
<path d="M15.0693 138.929C15.0693 138.929 14.9993 138.919 14.9693 138.889C14.9393 138.859 14.9293 138.819 14.9393 138.779C15.3293 137.701 16.4293 136.054 17.5393 135.915C17.8293 135.885 18.2493 135.935 18.6193 136.414C18.8493 136.713 18.8993 137.012 18.7593 137.292C18.2393 138.36 15.2093 138.889 15.0793 138.909H15.0593L15.0693 138.929ZM17.6893 136.134C17.6893 136.134 17.6193 136.134 17.5793 136.134C16.7493 136.234 15.7393 137.491 15.2593 138.659C15.9593 138.519 18.1393 138.02 18.5393 137.212C18.6493 136.992 18.6093 136.773 18.4193 136.533C18.1993 136.254 17.9693 136.124 17.6893 136.124V136.134Z" fill="white"/>
<path d="M15.0696 138.929C15.0696 138.929 15.0496 138.929 15.0396 138.929C13.7396 138.71 11.6996 137.951 11.4296 137.023C11.3596 136.783 11.3796 136.414 11.8996 136.055C12.2196 135.825 12.5596 135.755 12.9096 135.845C14.2096 136.175 15.1496 138.68 15.1896 138.789C15.1996 138.829 15.1896 138.869 15.1596 138.899C15.1396 138.919 15.0996 138.939 15.0696 138.939V138.929ZM12.6196 136.025C12.4296 136.025 12.2496 136.095 12.0596 136.225C11.7196 136.464 11.5996 136.704 11.6796 136.973C11.8896 137.672 13.4596 138.39 14.8796 138.67C14.6396 138.091 13.8296 136.294 12.8396 136.045C12.7696 136.025 12.6996 136.015 12.6196 136.015V136.025Z" fill="white"/>
<path d="M15.08 142.513C15.08 142.513 14.99 142.493 14.97 142.453C14.29 141.295 14.26 139.958 14.86 138.78C14.89 138.72 14.96 138.7 15.03 138.72C15.09 138.74 15.12 138.81 15.1 138.86C14.52 139.978 14.56 141.255 15.2 142.353C15.23 142.403 15.2 142.473 15.14 142.503C15.12 142.503 15.1 142.513 15.08 142.513Z" fill="white"/>
<path d="M13.7002 141.395C13.7002 141.395 13.6502 141.395 13.6302 141.375C13.5702 141.335 13.5602 141.275 13.6002 141.225C14.4802 140.177 15.8502 139.518 17.3602 139.428C17.4302 139.428 17.4902 139.468 17.5002 139.528C17.5002 139.588 17.4502 139.638 17.3802 139.648C15.9502 139.738 14.6402 140.357 13.8102 141.355C13.7902 141.385 13.7502 141.405 13.7102 141.405L13.7002 141.395Z" fill="white"/>
<path d="M18.3699 143.84C18.3099 143.84 18.2499 143.8 18.2399 143.75C17.9999 142.473 18.4299 141.185 19.4299 140.217C19.4799 140.167 19.5599 140.167 19.6099 140.207C19.6599 140.247 19.6699 140.317 19.6199 140.357C18.6799 141.275 18.2599 142.503 18.4899 143.71C18.4999 143.77 18.4499 143.83 18.3799 143.83C18.3799 143.83 18.3699 143.83 18.3599 143.83L18.3699 143.84Z" fill="white"/>
<path d="M17.4502 142.432C17.4502 142.432 17.3702 142.422 17.3502 142.392C17.3102 142.343 17.3202 142.273 17.3802 142.243C18.5902 141.464 20.1302 141.195 21.6002 141.484C21.6702 141.494 21.7102 141.554 21.7002 141.614C21.6802 141.674 21.6202 141.704 21.5502 141.694C20.1502 141.414 18.6902 141.674 17.5402 142.412C17.5202 142.422 17.4902 142.432 17.4602 142.432H17.4502Z" fill="white"/>
<path d="M31.04 19.956C31.04 19.956 31.04 20.0059 31.03 20.0359C30.99 20.5049 31.41 21.1237 32.11 21.2335C32.25 21.2534 32.4 21.2534 32.56 21.2335C32.79 21.1936 32.9 20.9241 32.72 20.7644C32.46 20.5349 32.18 20.1856 32.14 19.7963C32.08 19.0977 31.16 19.3373 31.04 19.966V19.956Z" fill="#332B29"/>
<path d="M34.1103 14.0582C34.1303 14.2379 34.4703 14.3576 34.8603 14.3177C35.2603 14.2778 35.5603 14.0882 35.5403 13.9085C35.5203 13.7289 35.1803 13.6091 34.7903 13.649C34.3903 13.689 34.0903 13.8786 34.1103 14.0582Z" fill="#493136"/>
</svg>
