<svg width="78" height="91" viewBox="0 0 78 91" fill="none" xmlns="http://www.w3.org/2000/svg">
<path d="M30.3338 38.1494V34.3397C30.3338 32.2122 28.6059 30.4893 26.4758 30.4893H7.54069C5.40897 30.4893 3.68262 32.2137 3.68262 34.3397V83.895C3.68262 86.0224 5.41053 87.7454 7.54069 87.7454H72.8493C74.981 87.7454 76.7074 86.0209 76.7074 83.895V45.8518C76.7074 43.7243 74.9795 42.0014 72.8493 42.0014H34.195C32.0633 42.0014 30.337 40.2769 30.337 38.151L30.3338 38.1494Z" fill="#2566B0"/>
<path d="M30.3338 38.1494V34.3397C30.3338 32.2122 28.6059 30.4893 26.4758 30.4893H7.54069C5.40897 30.4893 3.68262 32.2137 3.68262 34.3397V83.895C3.68262 86.0224 5.41053 87.7454 7.54069 87.7454H72.8493C74.981 87.7454 76.7074 86.0209 76.7074 83.895V45.8518C76.7074 43.7243 74.9795 42.0014 72.8493 42.0014H34.195C32.0633 42.0014 30.337 40.2769 30.337 38.151L30.3338 38.1494Z" fill="black" fill-opacity="0.2"/>
<rect x="4" y="65.6074" width="74" height="24.9503" fill="#11529C"/>
<rect x="31" y="1.73535" width="46" height="58.8826" fill="#C4C4C4"/>
<path d="M74.2264 0.738601L30.1254 0.823269C29.8523 0.823794 29.6313 1.04521 29.6318 1.31782L29.7391 57.193C29.7396 57.4656 29.9615 57.6862 30.2346 57.6856L74.3355 57.601C74.6087 57.6004 74.8297 57.379 74.8291 57.1064L74.7219 1.23125C74.7214 0.958643 74.4995 0.738077 74.2264 0.738601Z" fill="#F2F2F2"/>
<path d="M56.1504 42.1466L34.334 42.1884L34.3354 42.9147L56.1518 42.8729L56.1504 42.1466Z" fill="#E6E6E7"/>
<path d="M69.0014 45.9552L34.3398 46.0216L34.3412 46.748L69.0028 46.6815L69.0014 45.9552Z" fill="#E6E6E7"/>
<path d="M69.0102 50.3157L34.3486 50.3821L34.35 51.1084L69.0116 51.042L69.0102 50.3157Z" fill="#E6E6E7"/>
<path d="M69.019 55.0801L34.3574 55.1465L34.3588 55.8728L69.0204 55.8064L69.019 55.0801Z" fill="#E6E6E7"/>
<path d="M69.9527 5.22614L34.0547 5.29492L34.0763 16.5493L69.9743 16.4805L69.9527 5.22614Z" fill="#2566B0"/>
<path d="M68.6519 34.4071L57.876 34.4277L57.8962 44.9214L68.6721 44.9008L68.6519 34.4071Z" fill="#589B30"/>
<path d="M26.6512 38.1494V34.3397C26.6512 32.2122 24.9233 30.4893 22.7931 30.4893H3.85807C1.72635 30.4893 0 32.2137 0 34.3397V83.895C0 86.0224 1.72791 87.7454 3.85807 87.7454H69.1667C71.2984 87.7454 73.0248 86.0209 73.0248 83.895V45.8518C73.0248 43.7243 71.2969 42.0014 69.1667 42.0014H30.5124C28.3807 42.0014 26.6544 40.2769 26.6544 38.151L26.6512 38.1494Z" fill="#2566B0"/>
</svg>
