<svg width="138" height="157" viewBox="0 0 138 157" fill="none" xmlns="http://www.w3.org/2000/svg">
<path d="M130.441 69.5441C130.441 69.5441 136.881 72.3984 136.701 73.1269C136.101 75.4922 132.061 73.0072 130.861 72.6479C129.731 72.3185 128.511 69.4642 130.441 69.5341V69.5441Z" fill="#463E2C"/>
<path d="M129.831 69.5144C129.831 69.5144 135.431 73.8358 134.721 78.1572C134.011 82.4786 126.421 75.6422 126.421 75.6422L129.831 69.5144Z" fill="#463E2C"/>
<path d="M112.39 49.0855C111.51 43.307 110.23 33.8359 107.13 30.0036C105.63 28.5764 104.56 27.3289 104.2 28.5365C99.5601 44.1554 98.8801 64.4749 109.34 69.6047C123.88 76.7304 127.41 79.1556 127.41 79.1556L130.66 68.7563C130.66 68.7563 125.52 65.1934 113.86 56.89C113.86 56.89 113.37 55.4728 112.4 49.0855H112.39Z" fill="#50A055"/>
<path d="M109.541 150.661H95.7107C95.8907 145.382 96.3807 138.965 96.9407 132.817C98.3307 117.577 96.2407 102.198 90.8707 87.9664L87.8507 79.9623L110.231 79.4333C110.231 79.4333 112.521 96.7788 112.511 125.092C112.511 132.508 110.741 141.639 109.541 150.651V150.661Z" fill="#2566B0"/>
<path d="M109.541 150.661H95.7107C95.8907 145.382 96.3807 138.965 96.9407 132.817C98.3307 117.577 96.2407 102.198 90.8707 87.9664L87.8507 79.9623L110.231 79.4333C110.231 79.4333 112.521 96.7788 112.511 125.092C112.511 132.508 110.741 141.639 109.541 150.651V150.661Z" fill="black" fill-opacity="0.2"/>
<path d="M90.9801 130.932C89.0301 139.145 85.3201 146.97 84.0001 150.662H71.4001L75.3701 131.72C77.8601 119.854 78.8701 107.698 78.3901 95.5621C78.0901 88.097 77.8201 81.1209 77.8201 80.8814L88.0601 80.5022L97.0801 80.1628C97.0801 80.1628 97.0801 105.373 91.0001 130.942L90.9801 130.932Z" fill="#2566B0"/>
<path d="M90.9801 130.932C89.0301 139.145 85.3201 146.97 84.0001 150.662H71.4001L75.3701 131.72C77.8601 119.854 78.8701 107.698 78.3901 95.5621C78.0901 88.097 77.8201 81.1209 77.8201 80.8814L88.0601 80.5022L97.0801 80.1628C97.0801 80.1628 97.0801 105.373 91.0001 130.942L90.9801 130.932Z" fill="black" fill-opacity="0.2"/>
<path d="M77.2911 72.4081L77.2711 71.9291L78.801 38.356C79.131 31.0106 84.7711 25.5216 94.2711 25.2322H97.0411C103.441 25.2322 108.881 29.7332 109.141 35.4119L110.831 72.4081H77.301H77.2911Z" fill="#50A055"/>
<path d="M89.9706 25.6411C92.0806 28.9645 94.0906 32.4076 98.2106 31.6192C100.681 31.1501 100.581 28.3756 99.8105 25.5014C98.3705 24.9026 96.8106 24.703 95.2806 24.7728L94.0406 24.8327C92.8606 24.8926 92.2905 24.7429 91.1805 25.192C90.9005 25.3018 90.4506 25.4615 89.9806 25.6411H89.9706Z" fill="#F1A180"/>
<path d="M93.1704 18.655C93.1704 18.655 95.2504 15.182 95.2104 12.0981C95.2104 11.7987 95.1203 11.5093 94.9403 11.2797C94.1203 10.2119 90.6404 11.0701 91.1404 13.166C92.0504 16.9384 94.2304 22.5473 93.1704 18.655Z" fill="#1A1B1B"/>
<path d="M94.7399 31.4606C92.4999 31.0813 90.9699 28.8657 91.3299 26.5104L93.0499 15.1531L101.17 16.5104L99.4499 27.8677C99.0899 30.223 96.9899 31.8298 94.7399 31.4606Z" fill="#F1A180"/>
<path d="M98.9096 24.6842C95.9696 24.1951 94.4496 20.732 94.4396 20.6921C94.4096 20.6223 94.4396 20.5424 94.4996 20.5125C94.5596 20.4825 94.6296 20.5125 94.6596 20.5724C94.6796 20.6123 96.4796 24.7241 99.9396 24.4646C99.9996 24.4646 100.06 24.5145 100.06 24.5844C100.06 24.6542 100.01 24.7241 99.9496 24.7241C99.5896 24.754 99.2496 24.7241 98.9196 24.6742L98.9096 24.6842Z" fill="#1A1B1B"/>
<path d="M92.8202 13.7356C92.8202 13.7356 93.8602 23.8654 100.12 24.5241C106.38 25.1828 108.53 12.2187 107.95 9.34439C107.37 6.47012 101.06 2.10883 95.5802 6.25057C92.4602 8.60587 92.8202 13.7257 92.8202 13.7257V13.7356Z" fill="#F1A180"/>
<path d="M108.15 13.2964C108.13 13.4661 108 13.5958 107.83 13.6058C107.25 13.6157 105 13.5659 104.01 11.6197C102.92 9.484 102.05 12.8672 100.24 9.2245C99.8205 10.0828 95.8105 15.7116 92.8505 14.5239C91.9405 12.7674 91.9105 10.6517 92.7805 8.87521L93.2405 7.92709C93.8605 6.64963 94.9005 5.66161 96.1705 5.14265L98.4105 4.22448C99.2205 3.89513 100.12 3.84522 100.95 4.10471L105.16 5.39215C105.62 5.53187 106.05 5.79135 106.4 6.15063L106.75 6.49994C107.97 7.74745 108.57 9.52391 108.38 11.3004L108.16 13.3064L108.15 13.2964Z" fill="#1A1B1B"/>
<path d="M98.9306 19.4135C98.9306 19.4135 98.9606 19.4834 98.9706 19.5133C99.2606 20.1221 100.191 20.5513 101.071 20.1321C101.241 20.0523 101.421 19.9325 101.581 19.7728C101.821 19.5433 101.751 19.1341 101.431 19.0742C100.971 18.9844 100.401 18.7948 100.081 18.3357C99.5106 17.5273 98.6206 18.5453 98.9306 19.4135Z" fill="#1A1B1B"/>
<path d="M104.281 19.0343C104.611 19.0842 105.501 19.174 105.671 18.4854C105.821 17.8666 105.281 17.4974 104.931 17.3676L104.821 15.4814C104.821 15.4215 104.771 15.3816 104.721 15.3816C104.671 15.3816 104.621 15.4315 104.631 15.4914L104.741 17.4475C104.741 17.4475 104.771 17.5273 104.811 17.5373C104.841 17.5473 105.631 17.7968 105.481 18.4255C105.331 19.0643 104.221 18.8048 104.211 18.8048C104.161 18.7948 104.101 18.8247 104.091 18.8846C104.081 18.9445 104.111 18.9944 104.161 19.0044C104.161 19.0044 104.211 19.0144 104.281 19.0243V19.0343Z" fill="#1A1B1B"/>
<path d="M105.55 16.1498C105.24 16.6987 106.06 17.2176 106.37 16.6587C106.68 16.1098 105.87 15.5809 105.55 16.1498Z" fill="#1A1B1B"/>
<path d="M102.12 15.2318C101.81 15.7807 102.63 16.2996 102.94 15.7408C103.25 15.1919 102.44 14.6629 102.12 15.2318Z" fill="#1A1B1B"/>
<path d="M101.061 17.0581C101.011 17.3675 100.731 17.587 100.431 17.5371C100.131 17.4872 99.9307 17.1878 99.9807 16.8785C100.031 16.5691 100.311 16.3495 100.611 16.3994C100.911 16.4493 101.111 16.7487 101.061 17.0581Z" fill="#EE7035"/>
<path d="M101.641 14.0746C101.441 14.0447 101.401 13.7553 101.581 13.6754C101.651 13.6455 101.741 13.6255 101.821 13.6455L103.121 13.8551C103.201 13.865 103.281 13.905 103.341 13.9648C103.491 14.1046 103.371 14.364 103.171 14.3341L101.631 14.0846L101.641 14.0746Z" fill="#1A1B1B"/>
<path d="M105.811 14.9728C105.661 14.9528 105.591 14.7533 105.701 14.6435C105.781 14.5636 105.881 14.5137 105.991 14.5337L107.111 14.6734C107.211 14.6834 107.301 14.7533 107.361 14.8531C107.441 14.9928 107.331 15.1624 107.181 15.1525L105.811 14.9828V14.9728Z" fill="#1A1B1B"/>
<path d="M98.9303 19.4145C98.9303 19.4145 98.9603 19.4844 98.9703 19.5143C99.2603 20.1231 100.19 20.5522 101.07 20.1331C100.66 19.6141 99.4403 18.2369 98.9303 19.4145Z" fill="#EC6957"/>
<path d="M94.9502 13.9047C94.3402 13.3059 92.8102 12.0783 92.0702 13.6053C91.2702 15.272 93.6302 16.4995 94.3802 16.8389L94.9402 13.9047H94.9502Z" fill="#F1A180"/>
<path d="M94.3097 14.833C94.3097 14.833 94.2197 14.7931 94.2097 14.7332C93.9097 13.6254 92.8997 13.835 92.8597 13.845C92.7897 13.8549 92.7197 13.815 92.7097 13.7452C92.6997 13.6753 92.7397 13.6054 92.8097 13.5855C92.8197 13.5855 94.0997 13.316 94.4597 14.6633C94.4797 14.7332 94.4397 14.8031 94.3697 14.823C94.3497 14.823 94.3297 14.823 94.3197 14.823L94.3097 14.833Z" fill="#1A1B1B"/>
<path d="M88.5708 26.3705C90.9808 29.5641 93.2308 33.636 98.4108 32.8176C101.961 32.2488 101.781 28.7458 100.791 25.7617C100.711 25.7218 100.081 25.5421 99.8008 25.5122C100.571 28.3865 100.681 31.1609 98.2008 31.63C94.0908 32.4084 92.0808 28.9753 89.9608 25.6519C89.4208 25.8615 88.8608 26.111 88.5708 26.3705Z" fill="white"/>
<path d="M110.041 62.6674C110.041 62.6674 110.051 62.6674 110.061 62.6674C110.161 62.6574 110.241 62.5576 110.231 62.4578L107.581 34.7231C107.571 34.6133 107.481 34.5435 107.381 34.5534C107.281 34.5634 107.201 34.6632 107.211 34.763L109.861 62.4977C109.861 62.5975 109.951 62.6774 110.041 62.6774V62.6674Z" fill="#2566B0"/>
<path d="M110.041 62.6674C110.041 62.6674 110.051 62.6674 110.061 62.6674C110.161 62.6574 110.241 62.5576 110.231 62.4578L107.581 34.7231C107.571 34.6133 107.481 34.5435 107.381 34.5534C107.281 34.5634 107.201 34.6632 107.211 34.763L109.861 62.4977C109.861 62.5975 109.951 62.6774 110.041 62.6774V62.6674Z" fill="black" fill-opacity="0.2"/>
<path d="M100.891 46.7695H105.061V27.7274L102.651 26.1705L100.891 46.7695Z" fill="#2566B0"/>
<path d="M100.891 46.7695H105.061V27.7274L102.651 26.1705L100.891 46.7695Z" fill="black" fill-opacity="0.2"/>
<path d="M89.8198 46.7697H94.3398L87.1398 26.6199L84.8698 27.4682L89.8198 46.7697Z" fill="#2566B0"/>
<path d="M89.8198 46.7697H94.3398L87.1398 26.6199L84.8698 27.4682L89.8198 46.7697Z" fill="black" fill-opacity="0.2"/>
<path d="M137.671 77.7582C138.311 76.9898 134.061 72.9778 134.061 72.9778C133.051 72.838 132.821 73.5866 132.821 74.1055C132.821 74.6345 134.391 76.9199 135.581 77.7682C136.781 78.6265 137.031 78.5267 137.671 77.7582Z" fill="#463E2C"/>
<path d="M136.001 78.8264C136.641 78.0579 132.391 74.0459 132.391 74.0459C131.381 73.9062 131.151 74.6547 131.151 75.1736C131.151 75.6926 132.721 77.988 133.911 78.8363C135.101 79.6847 135.361 79.5948 136.001 78.8264Z" fill="#463E2C"/>
<path d="M134.551 79.7444C135.191 78.976 130.941 74.964 130.941 74.964C129.931 74.8243 129.701 75.5728 129.701 76.0917C129.701 76.6207 131.271 78.9061 132.461 79.7544C133.651 80.6027 133.911 80.5129 134.551 79.7444Z" fill="#463E2C"/>
<path d="M132.831 80.1931C133.491 79.4546 129.901 76.3508 129.901 76.3508C128.971 76.3308 128.701 77.0095 128.651 77.4685C128.601 77.9276 129.851 79.7839 130.891 80.4127C131.931 81.0414 132.171 80.9316 132.831 80.1931Z" fill="#463E2C"/>
<path d="M106.021 43.3162H87.851L84.621 63.5159H108.041L106.021 43.3162Z" fill="#2566B0"/>
<path d="M106.021 43.3162H87.851L84.621 63.5159H108.041L106.021 43.3162Z" fill="black" fill-opacity="0.2"/>
<path d="M90.4514 44.8934C90.4514 45.3725 90.8214 45.7617 91.2814 45.7617C91.7414 45.7617 92.1113 45.3725 92.1113 44.8934C92.1113 44.4144 91.7414 44.0251 91.2814 44.0251C90.8214 44.0251 90.4514 44.4144 90.4514 44.8934Z" fill="#463E2C"/>
<path d="M102.28 44.8934C102.28 45.3725 102.65 45.7617 103.11 45.7617C103.57 45.7617 103.94 45.3725 103.94 44.8934C103.94 44.4144 103.57 44.0251 103.11 44.0251C102.65 44.0251 102.28 44.4144 102.28 44.8934Z" fill="#463E2C"/>
<path d="M89.9611 48.6062H104.081V49.2449H89.9611V48.6062Z" fill="#463E2C"/>
<path d="M108.041 61.9594L110.721 70.2927L110.231 81.8996L77.8107 80.8716L77.2707 71.9295L85.1007 60.5222L108.041 61.9594Z" fill="#2566B0"/>
<path d="M108.041 61.9594L110.721 70.2927L110.231 81.8996L77.8107 80.8716L77.2707 71.9295L85.1007 60.5222L108.041 61.9594Z" fill="black" fill-opacity="0.2"/>
<path d="M72.9803 119.704C79.7603 119.704 85.2803 109.424 85.2803 96.7796C85.2803 84.1349 79.7603 73.8553 72.9803 73.8553C66.2003 73.8553 60.6802 84.1349 60.6802 96.7796C60.6802 109.424 66.2003 119.704 72.9803 119.704ZM72.9803 75.043C79.1403 75.043 84.1503 84.7935 84.1503 96.7796C84.1503 108.766 79.1403 118.516 72.9803 118.516C66.8203 118.516 61.8102 108.766 61.8102 96.7796C61.8102 84.7935 66.8203 75.043 72.9803 75.043Z" fill="#828282"/>
<path d="M72.9803 109.385C79.7603 109.385 85.2803 101.41 85.2803 91.6199C85.2803 81.8295 79.7603 73.8553 72.9803 73.8553C66.2003 73.8553 60.6802 81.8295 60.6802 91.6199C60.6802 101.41 66.2003 109.385 72.9803 109.385ZM72.9803 75.043C79.1403 75.043 84.1503 82.4782 84.1503 91.6199C84.1503 100.762 79.1403 108.197 72.9803 108.197C66.8203 108.197 61.8102 100.762 61.8102 91.6199C61.8102 82.4782 66.8203 75.043 72.9803 75.043Z" fill="#606060"/>
<path d="M72.9806 127.368C81.1806 127.368 87.8506 114.893 87.8506 99.5536C87.8506 84.2141 81.1806 71.739 72.9806 71.739C64.7806 71.739 58.1105 84.2141 58.1105 99.5536C58.1105 114.893 64.7806 127.368 72.9806 127.368ZM72.9806 72.9266C80.5606 72.9266 86.7206 84.8728 86.7206 99.5536C86.7206 114.234 80.5606 126.18 72.9806 126.18C65.4006 126.18 59.2405 114.234 59.2405 99.5536C59.2405 84.8728 65.4006 72.9266 72.9806 72.9266Z" fill="#8E8E8E"/>
<path d="M74.0207 66.2493C74.0207 66.2493 76.9606 73.7744 76.3606 74.2135C74.4006 75.6406 73.0007 70.3611 72.3407 69.1136C71.7207 67.936 72.6407 64.6425 74.0207 66.2493Z" fill="#463E2C"/>
<path d="M73.5911 65.7306C73.5911 65.7306 74.9612 73.7546 71.6712 76.6787C68.3812 79.6029 67.1411 67.9362 67.1411 67.9362L73.5911 65.7206V65.7306Z" fill="#463E2C"/>
<path d="M75.2107 76.5986C75.7807 76.1295 73.4007 72.0576 73.4007 72.0576C72.7007 71.7383 72.4307 72.2772 72.3407 72.6864C72.2507 73.0956 73.0107 75.2413 73.7207 76.1694C74.4307 77.0976 74.6307 77.0776 75.2107 76.5986Z" fill="#463E2C"/>
<path d="M73.8513 77.0879C74.4213 76.6189 72.0413 72.547 72.0413 72.547C71.3413 72.2276 71.0613 72.7566 70.9813 73.1757C70.8913 73.5949 71.6512 75.7306 72.3612 76.6588C73.0812 77.5869 73.2713 77.567 73.8513 77.0879Z" fill="#463E2C"/>
<path d="M72.6706 77.507C73.2406 77.0379 70.8606 72.966 70.8606 72.966C70.1606 72.6467 69.8906 73.1756 69.8006 73.5948C69.7106 74.014 70.4706 76.1497 71.1806 77.0778C71.8906 78.006 72.0906 77.986 72.6706 77.507Z" fill="#463E2C"/>
<path d="M71.3811 77.4967C71.9711 77.0576 69.9111 73.844 69.9111 73.844C69.2511 73.6345 68.9511 74.1035 68.8411 74.4628C68.7311 74.8221 69.3311 76.5387 69.9711 77.2572C70.6111 77.9758 70.8011 77.9359 71.3811 77.4967Z" fill="#463E2C"/>
<path d="M83.5706 29.2842C83.6706 29.2343 83.7806 29.2144 83.8906 29.1844V42.8871L76.0706 46.2305C74.7806 46.7794 74.4706 48.3861 74.5906 49.8432C75.6206 61.8393 75.7806 65.5918 75.7806 65.5918L65.8206 68.7655C65.8206 68.7655 64.3006 65.6318 61.5006 49.0149C59.4906 37.0687 71.8506 34.7733 83.5606 29.2743L83.5706 29.2842Z" fill="#50A055"/>
<path d="M61.9207 41.3893C64.2807 37.1378 79.8106 30.6407 83.8906 28.994V29.3333C79.7006 31.0399 64.4407 37.4771 62.1707 41.549C59.6807 46.03 65.3206 66.4493 65.8806 68.4254L75.5806 65.3316L74.4506 50.0121C74.4506 49.9223 74.5106 49.8524 74.5906 49.8424C74.6706 49.8424 74.7406 49.9023 74.7506 49.9921L75.8906 65.4413C75.8906 65.5112 75.8506 65.5811 75.7806 65.601L65.8206 68.7747C65.8206 68.7747 65.7406 68.7747 65.7106 68.7647C65.6706 68.7447 65.6506 68.7148 65.6406 68.6749C65.4306 67.9364 61.4106 53.8145 61.2506 45.8404C61.2106 43.9142 61.4007 42.3374 61.9207 41.4093V41.3893Z" fill="#2566B0"/>
<path d="M61.9207 41.3893C64.2807 37.1378 79.8106 30.6407 83.8906 28.994V29.3333C79.7006 31.0399 64.4407 37.4771 62.1707 41.549C59.6807 46.03 65.3206 66.4493 65.8806 68.4254L75.5806 65.3316L74.4506 50.0121C74.4506 49.9223 74.5106 49.8524 74.5906 49.8424C74.6706 49.8424 74.7406 49.9023 74.7506 49.9921L75.8906 65.4413C75.8906 65.5112 75.8506 65.5811 75.7806 65.601L65.8206 68.7747C65.8206 68.7747 65.7406 68.7747 65.7106 68.7647C65.6706 68.7447 65.6506 68.7148 65.6406 68.6749C65.4306 67.9364 61.4106 53.8145 61.2506 45.8404C61.2106 43.9142 61.4007 42.3374 61.9207 41.4093V41.3893Z" fill="black" fill-opacity="0.2"/>
<path d="M75.5206 46.2705L83.8906 42.4481V42.7874L75.6406 46.5599C75.5606 46.5899 75.4806 46.5599 75.4406 46.4801C75.4406 46.4601 75.4306 46.4402 75.4306 46.4202C75.4306 46.3603 75.4606 46.3005 75.5206 46.2705Z" fill="#2566B0"/>
<path d="M75.5206 46.2705L83.8906 42.4481V42.7874L75.6406 46.5599C75.5606 46.5899 75.4806 46.5599 75.4406 46.4801C75.4406 46.4601 75.4306 46.4402 75.4306 46.4202C75.4306 46.3603 75.4606 46.3005 75.5206 46.2705Z" fill="black" fill-opacity="0.2"/>
<path d="M52.0311 138.227C52.1711 138.227 52.321 138.167 52.431 138.048C52.921 137.529 64.521 124.764 64.801 81.9294C65.231 78.1469 66.4811 75.622 68.5211 74.4543C71.7811 72.578 76.071 74.7238 76.111 74.7437C76.391 74.8835 76.731 74.7637 76.871 74.4643C77.011 74.1649 76.891 73.8156 76.611 73.6659C76.411 73.5661 71.761 71.2307 67.991 73.3964C65.601 74.7637 64.151 77.598 63.681 81.8096C63.681 81.8296 63.681 81.8496 63.681 81.8795C63.411 124.155 51.7611 137.079 51.6411 137.199C51.4211 137.429 51.4211 137.808 51.6411 138.038C51.7511 138.147 51.8911 138.207 52.0411 138.207L52.0311 138.227Z" fill="#606060"/>
<path d="M118.101 156.96L93.8405 157L95.8205 147.19L100.63 147.898C100.63 147.898 102.11 145.194 105.36 144.026C115.12 144.026 118.45 151.371 119.49 154.994C119.77 155.972 119.071 156.96 118.101 156.97V156.96Z" fill="#463E2C"/>
<path d="M100.231 149.894C100.231 149.894 100.231 149.894 100.221 149.894C100.151 149.894 100.101 149.824 100.111 149.744C100.521 145.702 105.231 143.915 105.281 143.895C105.351 143.876 105.421 143.905 105.441 143.975C105.461 144.045 105.431 144.125 105.361 144.145C105.311 144.165 100.751 145.891 100.361 149.764C100.361 149.834 100.301 149.884 100.231 149.884V149.894Z" fill="white"/>
<path d="M108.891 144.456C109.021 144.426 112.041 143.777 112.561 142.46C112.701 142.11 112.651 141.741 112.421 141.372C112.051 140.783 111.631 140.713 111.341 140.753C110.231 140.923 109.141 142.949 108.741 144.276C108.731 144.326 108.741 144.366 108.771 144.406C108.791 144.436 108.831 144.446 108.861 144.446H108.881L108.891 144.456ZM112.211 141.531C112.391 141.821 112.431 142.1 112.331 142.36C111.941 143.358 109.761 143.967 109.061 144.136C109.541 142.689 110.551 141.152 111.381 141.022C111.421 141.022 111.451 141.022 111.481 141.022C111.751 141.022 111.991 141.192 112.211 141.531Z" fill="white"/>
<path d="M108.961 144.405C108.961 144.405 109.001 144.325 108.991 144.275C108.951 144.146 108.011 141.052 106.721 140.653C106.371 140.543 106.031 140.633 105.711 140.912C105.191 141.361 105.171 141.81 105.241 142.11C105.511 143.247 107.551 144.176 108.841 144.445C108.841 144.445 108.861 144.445 108.871 144.445C108.911 144.445 108.941 144.425 108.961 144.405ZM106.641 140.912C107.621 141.221 108.431 143.427 108.671 144.136C107.251 143.786 105.691 142.898 105.481 142.04C105.401 141.71 105.531 141.411 105.861 141.112C106.051 140.952 106.231 140.872 106.421 140.872C106.491 140.872 106.561 140.882 106.631 140.902L106.641 140.912Z" fill="white"/>
<path d="M108.87 148.866C108.87 148.866 108.78 148.836 108.76 148.796C108.09 147.379 108.05 145.722 108.65 144.275C108.68 144.206 108.75 144.176 108.82 144.206C108.88 144.235 108.91 144.315 108.89 144.385C108.31 145.762 108.35 147.329 108.99 148.677C109.02 148.746 108.99 148.826 108.93 148.856C108.91 148.856 108.89 148.866 108.87 148.866Z" fill="white"/>
<path d="M107.501 147.489C107.501 147.489 107.451 147.489 107.431 147.459C107.371 147.419 107.361 147.33 107.401 147.27C108.281 145.982 109.651 145.174 111.151 145.054C111.221 145.054 111.281 145.104 111.291 145.174C111.291 145.244 111.241 145.314 111.171 145.314C109.741 145.423 108.441 146.192 107.611 147.419C107.591 147.459 107.551 147.479 107.511 147.479L107.501 147.489Z" fill="white"/>
<path d="M112.151 150.503C112.091 150.503 112.031 150.453 112.021 150.393C111.781 148.826 112.211 147.239 113.201 146.042C113.251 145.982 113.331 145.982 113.381 146.032C113.431 146.082 113.441 146.162 113.391 146.221C112.451 147.359 112.041 148.866 112.261 150.353C112.271 150.423 112.221 150.493 112.151 150.503C112.151 150.503 112.141 150.503 112.131 150.503H112.151Z" fill="white"/>
<path d="M111.24 148.766C111.24 148.766 111.16 148.746 111.14 148.716C111.1 148.656 111.11 148.577 111.17 148.527C112.38 147.569 113.91 147.229 115.38 147.599C115.45 147.619 115.49 147.688 115.47 147.758C115.45 147.828 115.39 147.878 115.32 147.858C113.93 147.519 112.47 147.838 111.32 148.746C111.3 148.766 111.27 148.776 111.24 148.776V148.766Z" fill="white"/>
<path d="M94.2011 156.96L69.941 157L71.9211 147.19L76.7311 147.898C76.7311 147.898 78.2111 145.194 81.4611 144.026C91.2211 144.026 94.5511 151.371 95.5911 154.994C95.8711 155.972 95.1711 156.96 94.2011 156.97V156.96Z" fill="#463E2C"/>
<path d="M76.3308 149.894C76.3308 149.894 76.3308 149.894 76.3208 149.894C76.2508 149.894 76.2008 149.824 76.2108 149.744C76.6208 145.702 81.3308 143.915 81.3808 143.895C81.4508 143.876 81.5208 143.905 81.5408 143.975C81.5608 144.045 81.5308 144.125 81.4608 144.145C81.4108 144.165 76.8508 145.891 76.4608 149.764C76.4608 149.834 76.4008 149.884 76.3308 149.884V149.894Z" fill="white"/>
<path d="M85.0011 144.456C85.1311 144.426 88.1512 143.777 88.6712 142.46C88.8112 142.11 88.7611 141.741 88.5311 141.372C88.1611 140.783 87.7411 140.713 87.4511 140.753C86.3411 140.923 85.2511 142.949 84.8611 144.276C84.8511 144.326 84.8611 144.366 84.8911 144.406C84.9111 144.436 84.9511 144.446 84.9811 144.446H85.0011V144.456ZM88.3211 141.531C88.5011 141.821 88.5411 142.1 88.4411 142.36C88.0511 143.358 85.8712 143.967 85.1712 144.136C85.6512 142.689 86.6611 141.152 87.4911 141.022C87.5311 141.022 87.5611 141.022 87.5911 141.022C87.8611 141.022 88.1011 141.192 88.3211 141.531Z" fill="white"/>
<path d="M85.0709 144.405C85.0709 144.405 85.1109 144.325 85.1009 144.275C85.0609 144.146 84.1209 141.052 82.8309 140.653C82.4809 140.543 82.1409 140.633 81.8209 140.912C81.3009 141.361 81.2809 141.81 81.3509 142.11C81.6209 143.247 83.6609 144.176 84.9509 144.445C84.9509 144.445 84.9709 144.445 84.9809 144.445C85.0209 144.445 85.0509 144.425 85.0709 144.405ZM82.7509 140.912C83.7309 141.221 84.5409 143.427 84.7809 144.136C83.3609 143.786 81.8009 142.898 81.5909 142.04C81.5109 141.71 81.6409 141.411 81.9709 141.112C82.1609 140.952 82.3409 140.872 82.5309 140.872C82.6009 140.872 82.6709 140.882 82.7409 140.902L82.7509 140.912Z" fill="white"/>
<path d="M84.9815 148.866C84.9815 148.866 84.8915 148.836 84.8715 148.796C84.2015 147.379 84.1615 145.722 84.7615 144.275C84.7915 144.206 84.8615 144.176 84.9315 144.206C84.9915 144.235 85.0215 144.315 85.0015 144.385C84.4215 145.762 84.4615 147.329 85.1015 148.677C85.1315 148.746 85.1015 148.826 85.0415 148.856C85.0215 148.856 85.0015 148.866 84.9815 148.866Z" fill="white"/>
<path d="M83.6104 147.489C83.6104 147.489 83.5604 147.489 83.5404 147.459C83.4804 147.419 83.4704 147.33 83.5104 147.27C84.3904 145.982 85.7604 145.174 87.2604 145.054C87.3304 145.054 87.3904 145.104 87.4004 145.174C87.4004 145.244 87.3504 145.314 87.2804 145.314C85.8504 145.423 84.5504 146.192 83.7204 147.419C83.7004 147.459 83.6604 147.479 83.6204 147.479L83.6104 147.489Z" fill="white"/>
<path d="M88.2613 150.503C88.2013 150.503 88.1413 150.453 88.1313 150.393C87.8913 148.826 88.3213 147.239 89.3113 146.042C89.3613 145.982 89.4413 145.982 89.4913 146.032C89.5413 146.082 89.5513 146.162 89.5013 146.221C88.5613 147.359 88.1513 148.866 88.3713 150.353C88.3813 150.423 88.3313 150.493 88.2613 150.503C88.2613 150.503 88.2513 150.503 88.2413 150.503H88.2613Z" fill="white"/>
<path d="M87.341 148.766C87.341 148.766 87.261 148.746 87.241 148.716C87.201 148.656 87.211 148.577 87.271 148.527C88.481 147.569 90.0111 147.229 91.4811 147.599C91.5511 147.619 91.591 147.688 91.571 147.758C91.551 147.828 91.4911 147.878 91.4211 147.858C90.0311 147.519 88.5711 147.838 87.4211 148.746C87.4011 148.766 87.371 148.776 87.341 148.776V148.766Z" fill="white"/>
<path d="M90.9408 9.75419L90.2808 13.0077L96.8108 12.0895L104.381 12.7183C104.581 12.7382 106.361 12.1594 106.481 11.9897L106.591 10.9618L97.3508 9.1554L90.9308 9.74422L90.9408 9.75419Z" fill="#C6BCBA"/>
<path d="M90.4505 8.92537C90.4505 8.92537 90.4505 8.90541 90.4505 8.89543C90.5005 8.51618 90.5705 8.14692 90.6605 7.78764C91.8205 3.12693 96.3805 -0.0367562 101.35 0.59199C104.32 0.971234 106.82 2.62793 108.33 4.92335C109.54 6.75969 110.12 9.00521 109.82 11.3406C109.82 11.3406 109.82 11.3605 109.82 11.3705L90.4505 8.91539V8.92537Z" fill="#50A055"/>
<path d="M90.6601 7.78796C93.8501 8.27698 99.3101 8.69616 100.64 6.19115C101.86 3.89573 105.79 4.39473 108.33 4.92367C106.82 2.62825 104.33 0.971555 101.35 0.592311C96.3801 -0.0364353 91.8301 3.11727 90.6601 7.78796Z" fill="#50A055"/>
<path d="M90.3909 8.91585L103.651 10.5925L109.571 8.65637L111.551 11.2512L112.211 13.2572L99.3609 12.1793L97.8809 11.0716L94.2109 10.8121L93.2509 11.5606L89.5609 11.2113L90.3909 8.91585Z" fill="#50A055"/>
<path d="M101.111 2.50801H101.141C101.371 2.53795 101.581 2.37827 101.611 2.14873L101.701 1.4601C101.731 1.23056 101.571 1.02097 101.331 0.991034H101.301C101.071 0.961093 100.861 1.12078 100.831 1.35032L100.741 2.03895C100.711 2.26849 100.871 2.47807 101.111 2.50801Z" fill="#50A055"/>
<path d="M99.7111 2.32831H99.7411C99.9711 2.35825 100.181 2.19857 100.211 1.96903L100.301 1.28041C100.331 1.05087 100.171 0.841286 99.9311 0.811346H99.9011C99.6711 0.781406 99.4611 0.941088 99.4311 1.17063L99.3411 1.85924C99.3111 2.08879 99.4711 2.29837 99.7111 2.32831Z" fill="#50A055"/>
<path d="M98.2618 2.49835H98.2919C98.5219 2.5283 98.7318 2.36863 98.7618 2.13909L98.8519 1.45046C98.8819 1.22091 98.7219 1.01133 98.4819 0.98139H98.4518C98.2218 0.95145 98.0119 1.11113 97.9819 1.34067L97.8918 2.0293C97.8618 2.25885 98.0218 2.46841 98.2618 2.49835Z" fill="#50A055"/>
<path d="M16.2108 124.564V133.866H18.2108V128.147H33.5107V133.866H35.5107V124.564H16.2108Z" fill="#463E2C"/>
<path d="M3.94092 154.145H46.0209L49.9609 131.8H0.000915527L3.94092 154.145Z" fill="#463E2C"/>
<path d="M37.6504 151.989H46.4004V156.43H37.6504V151.989Z" fill="#463E2C"/>
<path d="M3.94043 151.989H12.6904V156.43H3.94043V151.989Z" fill="#463E2C"/>
<path d="M1.23047 136.779H9.98047V154.145H1.23047V136.779Z" fill="#463E2C"/>
<path d="M40.5906 136.779H49.1006V154.145H40.5906V136.779Z" fill="#463E2C"/>
<path d="M14.4315 141.012H35.5315C36.4925 141.012 37.2715 141.789 37.2715 142.748V148.187C37.2715 149.146 36.4925 149.924 35.5315 149.924H14.4315C13.4705 149.924 12.6915 149.146 12.6915 148.187V142.748C12.6915 141.789 13.4705 141.012 14.4315 141.012Z" fill="#50A055"/>
<path d="M30.1709 131.8H45.1309V135.732H30.1709V131.8Z" fill="#50A055"/>
<path d="M6.15137 131.8H21.1113V135.732H6.15137V131.8Z" fill="#50A055"/>
<path d="M5.52118 142.18H10.7012V147.349H5.52118V142.18Z" fill="#50A055"/>
<path d="M39.9509 142.18H45.1309V147.349H39.9509V142.18Z" fill="#50A055"/>
<path d="M16.0013 142.977H34.3213V144.764H16.0013V142.977Z" fill="#463E2C"/>
<path d="M2.27155 133.866H48.8516V134.904H2.27155V133.866Z" fill="#463E2C"/>
<path d="M36.321 132.958H39.001V137.249H36.321V132.958Z" fill="#BABABA"/>
<path d="M12.2907 132.958H14.9707V137.249H12.2907V132.958Z" fill="#BABABA"/>
</svg>
