<svg width="147" height="150" viewBox="0 0 147 150" fill="none" xmlns="http://www.w3.org/2000/svg">
<path d="M105.451 147.789C106.381 147.789 107.141 147.04 107.151 146.102L107.351 116.781L119.651 90.8924C120.051 90.0441 119.691 89.0361 118.841 88.6369C117.991 88.2377 116.981 88.597 116.581 89.4453L104.111 115.673C104.001 115.893 103.951 116.142 103.951 116.392L103.751 146.092C103.751 147.03 104.501 147.799 105.441 147.799H105.451V147.789Z" fill="#DDDDDD"/>
<path d="M92.0411 147.789C92.9711 147.789 93.7311 147.04 93.7411 146.102L93.9411 116.781L106.241 90.8924C106.641 90.0441 106.281 89.0361 105.431 88.6369C104.581 88.2377 103.571 88.597 103.171 89.4453L90.7011 115.673C90.5911 115.893 90.5411 116.142 90.5411 116.392L90.3411 146.092C90.3411 147.03 91.0911 147.799 92.0311 147.799H92.0411V147.789Z" fill="#DDDDDD"/>
<path d="M58.1912 145.254H130.451V149.785H58.1912V145.254Z" fill="#828282"/>
<path d="M115.631 87.7288H121.031V148.168H115.631V87.7288Z" fill="#828282"/>
<path d="M71.931 87.7288H77.3311V148.168H71.931V87.7288Z" fill="#828282"/>
<path d="M58.9705 0.861572H131.23V90.1635H58.9705V0.861572Z" fill="#828282"/>
<path d="M62.3914 6.22095H128.111V87.5788H62.3914V6.22095Z" fill="#DDDDDD"/>
<path d="M63.791 7.94751H126.711V85.8422H63.791V7.94751Z" fill="#B2B2B7"/>
<path d="M93.8407 14.1949H122.461C123.571 14.1949 124.471 13.2967 124.471 12.1889C124.471 11.0811 123.571 10.1829 122.461 10.1829H93.8407C92.7307 10.1829 91.8307 11.0811 91.8307 12.1889C91.8307 13.2967 92.7307 14.1949 93.8407 14.1949Z" fill="#161616"/>
<path d="M93.3507 37.6285H122.941C123.781 37.6285 124.471 36.9498 124.471 36.1015C124.471 35.2632 123.791 34.5746 122.941 34.5746H93.3507C92.5107 34.5746 91.8207 35.2532 91.8207 36.1015C91.8207 36.9399 92.5007 37.6285 93.3507 37.6285Z" fill="#161616"/>
<path d="M121.212 14.2945C121.272 14.2945 121.312 14.2446 121.312 14.1947C121.292 12.6678 120.982 11.6598 120.422 11.2007C120.052 10.9013 119.702 10.9612 119.682 10.9612C119.632 10.9712 119.592 11.0211 119.602 11.0809C119.612 11.1308 119.662 11.1708 119.722 11.1608C119.732 11.1608 120.002 11.1109 120.302 11.3604C120.652 11.6498 121.082 12.3784 121.112 14.1947C121.112 14.2446 121.162 14.2945 121.212 14.2945Z" fill="#6A69A8"/>
<path d="M118.301 14.2945C118.361 14.2945 118.401 14.2446 118.401 14.1947C118.371 12.6678 118.071 11.6598 117.511 11.2007C117.141 10.9013 116.791 10.9612 116.771 10.9612C116.721 10.9712 116.681 11.0211 116.691 11.0809C116.701 11.1308 116.751 11.1708 116.811 11.1608C116.821 11.1608 117.091 11.1109 117.391 11.3604C117.741 11.6498 118.171 12.3784 118.201 14.1947C118.201 14.2446 118.251 14.2945 118.301 14.2945Z" fill="#FF4800"/>
<path d="M114.082 14.2945C114.142 14.2945 114.182 14.2446 114.182 14.1947C114.162 12.6678 113.852 11.6598 113.292 11.2007C112.922 10.9013 112.572 10.9612 112.552 10.9612C112.502 10.9712 112.462 11.0211 112.472 11.0809C112.482 11.1308 112.532 11.1708 112.592 11.1608C112.602 11.1608 112.872 11.1109 113.172 11.3604C113.522 11.6498 113.952 12.3784 113.982 14.1947C113.982 14.2446 114.032 14.2945 114.082 14.2945Z" fill="#6A69A8"/>
<path d="M111.162 14.2945C111.222 14.2945 111.262 14.2446 111.262 14.1947C111.242 12.6678 110.932 11.6598 110.372 11.2007C110.002 10.9013 109.652 10.9612 109.632 10.9612C109.582 10.9712 109.542 11.0211 109.552 11.0809C109.562 11.1308 109.612 11.1708 109.672 11.1608C109.682 11.1608 109.952 11.1109 110.252 11.3604C110.602 11.6498 111.032 12.3784 111.062 14.1947C111.062 14.2446 111.112 14.2945 111.162 14.2945Z" fill="#FF4800"/>
<path d="M106.971 14.2945C107.031 14.2945 107.071 14.2446 107.071 14.1947C107.051 12.6678 106.741 11.6598 106.181 11.2007C105.811 10.9013 105.461 10.9612 105.441 10.9612C105.391 10.9712 105.351 11.0211 105.361 11.0809C105.371 11.1308 105.421 11.1708 105.481 11.1608C105.491 11.1608 105.761 11.1109 106.061 11.3604C106.411 11.6498 106.841 12.3784 106.871 14.1947C106.871 14.2446 106.921 14.2945 106.971 14.2945Z" fill="#6A69A8"/>
<path d="M104.061 14.2945C104.121 14.2945 104.161 14.2446 104.161 14.1947C104.141 12.6678 103.831 11.6598 103.271 11.2007C102.901 10.9013 102.551 10.9612 102.531 10.9612C102.481 10.9712 102.441 11.0211 102.451 11.0809C102.461 11.1308 102.511 11.1708 102.571 11.1608C102.581 11.1608 102.851 11.1109 103.151 11.3604C103.501 11.6498 103.931 12.3784 103.961 14.1947C103.961 14.2446 104.011 14.2945 104.061 14.2945Z" fill="#FF4800"/>
<path d="M99.8619 14.2945C99.9219 14.2945 99.9619 14.2446 99.9619 14.1947C99.9319 12.6678 99.6319 11.6598 99.0719 11.2007C98.7019 10.9013 98.3519 10.9612 98.3319 10.9612C98.2819 10.9712 98.2419 11.0211 98.2519 11.0809C98.2619 11.1308 98.3119 11.1708 98.3719 11.1608C98.3819 11.1608 98.6519 11.1109 98.9519 11.3604C99.3019 11.6498 99.7319 12.3784 99.7619 14.1947C99.7619 14.2446 99.8119 14.2945 99.8619 14.2945Z" fill="#6A69A8"/>
<path d="M96.9518 14.2945C97.0118 14.2945 97.0518 14.2446 97.0518 14.1947C97.0318 12.6678 96.7218 11.6598 96.1618 11.2007C95.7918 10.9013 95.4418 10.9612 95.4218 10.9612C95.3718 10.9712 95.3318 11.0211 95.3418 11.0809C95.3518 11.1308 95.4018 11.1708 95.4618 11.1608C95.4718 11.1608 95.7418 11.1109 96.0418 11.3604C96.3918 11.6498 96.8218 12.3784 96.8518 14.1947C96.8518 14.2446 96.9018 14.2945 96.9518 14.2945Z" fill="#FF4800"/>
<path d="M119.601 36.491C119.731 36.491 119.981 36.4611 120.241 36.2415C120.811 35.7825 121.111 34.7745 121.131 33.2475C121.131 33.1876 121.091 33.1477 121.031 33.1477C120.981 33.1477 120.931 33.1876 120.931 33.2475C120.901 35.0739 120.471 35.8024 120.111 36.0918C119.811 36.3413 119.541 36.2914 119.531 36.2914C119.481 36.2914 119.421 36.3214 119.411 36.3713C119.401 36.4212 119.441 36.4811 119.491 36.491C119.491 36.491 119.531 36.491 119.591 36.491H119.601Z" fill="#6A69A8"/>
<path d="M116.681 36.491C116.811 36.491 117.061 36.4611 117.321 36.2415C117.891 35.7825 118.191 34.7745 118.211 33.2475C118.211 33.1876 118.171 33.1477 118.111 33.1477C118.061 33.1477 118.011 33.1876 118.011 33.2475C117.981 35.0739 117.551 35.8024 117.191 36.0918C116.891 36.3413 116.621 36.2914 116.611 36.2914C116.551 36.2914 116.501 36.3214 116.491 36.3713C116.481 36.4212 116.521 36.4811 116.571 36.491C116.571 36.491 116.611 36.491 116.671 36.491H116.681Z" fill="#FF4800"/>
<path d="M112.461 36.491C112.591 36.491 112.841 36.4611 113.101 36.2415C113.671 35.7825 113.971 34.7745 113.991 33.2475C113.991 33.1876 113.951 33.1477 113.891 33.1477C113.841 33.1477 113.791 33.1876 113.791 33.2475C113.761 35.0639 113.331 35.7924 112.981 36.0819C112.681 36.3314 112.411 36.2914 112.401 36.2815C112.351 36.2715 112.291 36.3114 112.281 36.3613C112.281 36.4112 112.311 36.4711 112.361 36.4811C112.361 36.4811 112.401 36.4811 112.461 36.4811V36.491Z" fill="#6A69A8"/>
<path d="M109.551 36.491C109.681 36.491 109.931 36.4611 110.191 36.2415C110.761 35.7825 111.061 34.7745 111.081 33.2475C111.081 33.1876 111.041 33.1477 110.981 33.1477C110.931 33.1477 110.881 33.1876 110.881 33.2475C110.851 35.0639 110.421 35.7924 110.071 36.0819C109.771 36.3314 109.501 36.2914 109.491 36.2815C109.441 36.2715 109.381 36.3114 109.371 36.3613C109.371 36.4112 109.401 36.4711 109.451 36.4811C109.451 36.4811 109.491 36.4811 109.551 36.4811V36.491Z" fill="#FF4800"/>
<path d="M105.351 36.491C105.481 36.491 105.731 36.4611 105.991 36.2415C106.561 35.7825 106.861 34.7745 106.881 33.2475C106.881 33.1876 106.841 33.1477 106.781 33.1477C106.731 33.1477 106.681 33.1876 106.681 33.2475C106.651 35.0639 106.221 35.7924 105.871 36.0819C105.571 36.3314 105.301 36.2914 105.291 36.2815C105.241 36.2715 105.181 36.3114 105.171 36.3613C105.171 36.4112 105.201 36.4711 105.251 36.4811C105.251 36.4811 105.291 36.4811 105.351 36.4811V36.491Z" fill="#6A69A8"/>
<path d="M102.441 36.491C102.571 36.491 102.821 36.4611 103.081 36.2415C103.651 35.7825 103.951 34.7745 103.971 33.2475C103.971 33.1876 103.931 33.1477 103.871 33.1477C103.821 33.1477 103.771 33.1876 103.771 33.2475C103.741 35.0639 103.311 35.7924 102.961 36.0819C102.661 36.3314 102.391 36.2914 102.381 36.2815C102.331 36.2715 102.271 36.3114 102.261 36.3613C102.261 36.4112 102.291 36.4711 102.341 36.4811C102.341 36.4811 102.381 36.4811 102.441 36.4811V36.491Z" fill="#FF4800"/>
<path d="M98.2512 36.491C98.3812 36.491 98.6312 36.4611 98.8912 36.2415C99.4612 35.7825 99.7613 34.7745 99.7812 33.2475C99.7812 33.1876 99.7412 33.1477 99.6812 33.1477C99.6312 33.1477 99.5812 33.1876 99.5812 33.2475C99.5512 35.0739 99.1212 35.8024 98.7612 36.0918C98.4612 36.3413 98.1912 36.2914 98.1812 36.2914C98.1212 36.2914 98.0712 36.3214 98.0612 36.3713C98.0512 36.4212 98.0912 36.4811 98.1412 36.491C98.1412 36.491 98.1812 36.491 98.2412 36.491H98.2512Z" fill="#6A69A8"/>
<path d="M95.3314 36.491C95.4614 36.491 95.7114 36.4611 95.9714 36.2415C96.5414 35.7825 96.8413 34.7745 96.8613 33.2475C96.8613 33.1876 96.8214 33.1477 96.7614 33.1477C96.7114 33.1477 96.6614 33.1876 96.6614 33.2475C96.6314 35.0739 96.2014 35.8024 95.8414 36.0918C95.5414 36.3413 95.2714 36.2914 95.2614 36.2914C95.2114 36.2914 95.1514 36.3214 95.1414 36.3713C95.1314 36.4212 95.1714 36.4811 95.2214 36.491C95.2214 36.491 95.2614 36.491 95.3214 36.491H95.3314Z" fill="#FF4800"/>
<path d="M117.31 13.1282H122.021V34.0964H117.31V13.1282Z" fill="white"/>
<path d="M118.971 14.7953C118.971 15.1746 119.281 15.4839 119.661 15.4839C120.041 15.4839 120.351 15.1746 120.351 14.7953C120.351 14.4161 120.041 14.1067 119.661 14.1067C119.281 14.1067 118.971 14.4161 118.971 14.7953Z" fill="#828282"/>
<path d="M118.971 32.2006C118.971 32.5798 119.281 32.8892 119.661 32.8892C120.041 32.8892 120.351 32.5798 120.351 32.2006C120.351 31.8213 120.041 31.512 119.661 31.512C119.281 31.512 118.971 31.8213 118.971 32.2006Z" fill="#828282"/>
<path d="M117.54 16.7904H121.86V30.1637H117.54V16.7904Z" fill="#DDDDDD"/>
<path d="M118.181 20.1331H121.211V26.0812H118.181V20.1331Z" fill="#6A69A8"/>
<path d="M118.181 23.1077H121.211V26.0817H118.181V23.1077Z" fill="#3C3B7A"/>
<path d="M110.2 13.1282H114.91V34.0964H110.2V13.1282Z" fill="white"/>
<path d="M111.86 14.7953C111.86 15.1746 112.17 15.4839 112.55 15.4839C112.93 15.4839 113.24 15.1746 113.24 14.7953C113.24 14.4161 112.93 14.1067 112.55 14.1067C112.17 14.1067 111.86 14.4161 111.86 14.7953Z" fill="#828282"/>
<path d="M111.86 32.2006C111.86 32.5798 112.17 32.8892 112.55 32.8892C112.93 32.8892 113.24 32.5798 113.24 32.2006C113.24 31.8213 112.93 31.512 112.55 31.512C112.17 31.512 111.86 31.8213 111.86 32.2006Z" fill="#828282"/>
<path d="M110.43 16.7904H114.75V30.1637H110.43V16.7904Z" fill="#DDDDDD"/>
<path d="M111.079 20.1331H114.109V26.0812H111.079V20.1331Z" fill="#6A69A8"/>
<path d="M111.079 23.1077H114.109V26.0817H111.079V23.1077Z" fill="#3C3B7A"/>
<path d="M103.091 13.1282H107.801V34.0964H103.091V13.1282Z" fill="white"/>
<path d="M104.761 14.7953C104.761 15.1746 105.071 15.4839 105.451 15.4839C105.831 15.4839 106.141 15.1746 106.141 14.7953C106.141 14.4161 105.831 14.1067 105.451 14.1067C105.071 14.1067 104.761 14.4161 104.761 14.7953Z" fill="#828282"/>
<path d="M104.761 32.2006C104.761 32.5798 105.071 32.8892 105.451 32.8892C105.831 32.8892 106.141 32.5798 106.141 32.2006C106.141 31.8213 105.831 31.512 105.451 31.512C105.071 31.512 104.761 31.8213 104.761 32.2006Z" fill="#828282"/>
<path d="M103.321 16.7904H107.641V30.1637H103.321V16.7904Z" fill="#DDDDDD"/>
<path d="M103.971 20.1331H107.001V26.0812H103.971V20.1331Z" fill="#6A69A8"/>
<path d="M103.971 23.1077H107.001V26.0817H103.971V23.1077Z" fill="#3C3B7A"/>
<path d="M95.9804 13.1282H100.69V34.0964H95.9804V13.1282Z" fill="white"/>
<path d="M97.6503 14.7953C97.6503 15.1746 97.9603 15.4839 98.3403 15.4839C98.7203 15.4839 99.0303 15.1746 99.0303 14.7953C99.0303 14.4161 98.7203 14.1067 98.3403 14.1067C97.9603 14.1067 97.6503 14.4161 97.6503 14.7953Z" fill="#828282"/>
<path d="M97.6503 32.2006C97.6503 32.5798 97.9603 32.8892 98.3403 32.8892C98.7203 32.8892 99.0303 32.5798 99.0303 32.2006C99.0303 31.8213 98.7203 31.512 98.3403 31.512C97.9603 31.512 97.6503 31.8213 97.6503 32.2006Z" fill="#828282"/>
<path d="M96.22 16.7904H100.54V30.1637H96.22V16.7904Z" fill="#DDDDDD"/>
<path d="M96.8606 20.1331H99.8906V26.0812H96.8606V20.1331Z" fill="#6A69A8"/>
<path d="M96.8606 23.1077H99.8906V26.0817H96.8606V23.1077Z" fill="#3C3B7A"/>
<path d="M92.5707 29.1654V14.0456C92.5707 13.5366 92.9807 13.1174 93.5007 13.1174C94.0107 13.1174 94.4307 13.5266 94.4307 14.0456V29.1654C94.4307 29.6744 94.0207 30.0936 93.5007 30.0936C92.9907 30.0936 92.5707 29.6844 92.5707 29.1654Z" fill="#50A055"/>
<path d="M81.7805 19.8339V17.259H86.0405V19.8339H88.0205V28.0375H79.8005V19.8339H81.7805Z" fill="#38377A"/>
<path d="M80.5106 23.4062C80.5106 25.2824 82.0306 26.7994 83.9106 26.7994C85.7906 26.7994 87.3105 25.2824 87.3105 23.4062C87.3105 21.5299 85.7906 20.0129 83.9106 20.0129C82.0306 20.0129 80.5106 21.5299 80.5106 23.4062Z" fill="#2566B0"/>
<path d="M80.5106 23.4062C80.5106 25.2824 82.0306 26.7994 83.9106 26.7994C85.7906 26.7994 87.3105 25.2824 87.3105 23.4062C87.3105 21.5299 85.7906 20.0129 83.9106 20.0129C82.0306 20.0129 80.5106 21.5299 80.5106 23.4062Z" fill="black" fill-opacity="0.2"/>
<path d="M71.1401 19.8339V17.259H75.3901V19.8339H77.3701V28.0375H69.1602V19.8339H71.1401Z" fill="#38377A"/>
<path d="M69.8699 23.4062C69.8699 25.2824 71.39 26.7994 73.27 26.7994C75.15 26.7994 76.6699 25.2824 76.6699 23.4062C76.6699 21.5299 75.15 20.0129 73.27 20.0129C71.39 20.0129 69.8699 21.5299 69.8699 23.4062Z" fill="#2566B0"/>
<path d="M69.8699 23.4062C69.8699 25.2824 71.39 26.7994 73.27 26.7994C75.15 26.7994 76.6699 25.2824 76.6699 23.4062C76.6699 21.5299 75.15 20.0129 73.27 20.0129C71.39 20.0129 69.8699 21.5299 69.8699 23.4062Z" fill="black" fill-opacity="0.2"/>
<path d="M81.7805 40.2433V37.6584H86.0405V40.2433H88.0205V48.4469H79.8005V40.2433H81.7805Z" fill="#38377A"/>
<path d="M80.5106 43.8056C80.5106 45.6818 82.0306 47.1988 83.9106 47.1988C85.7906 47.1988 87.3105 45.6818 87.3105 43.8056C87.3105 41.9293 85.7906 40.4124 83.9106 40.4124C82.0306 40.4124 80.5106 41.9293 80.5106 43.8056Z" fill="#2566B0"/>
<path d="M80.5106 43.8056C80.5106 45.6818 82.0306 47.1988 83.9106 47.1988C85.7906 47.1988 87.3105 45.6818 87.3105 43.8056C87.3105 41.9293 85.7906 40.4124 83.9106 40.4124C82.0306 40.4124 80.5106 41.9293 80.5106 43.8056Z" fill="black" fill-opacity="0.2"/>
<path d="M71.1401 40.2433V37.6584H75.3901V40.2433H77.3701V48.4469H69.1602V40.2433H71.1401Z" fill="#38377A"/>
<path d="M69.8699 43.8056C69.8699 45.6818 71.39 47.1988 73.27 47.1988C75.15 47.1988 76.6699 45.6818 76.6699 43.8056C76.6699 41.9293 75.15 40.4124 73.27 40.4124C71.39 40.4124 69.8699 41.9293 69.8699 43.8056Z" fill="#2566B0"/>
<path d="M69.8699 43.8056C69.8699 45.6818 71.39 47.1988 73.27 47.1988C75.15 47.1988 76.6699 45.6818 76.6699 43.8056C76.6699 41.9293 75.15 40.4124 73.27 40.4124C71.39 40.4124 69.8699 41.9293 69.8699 43.8056Z" fill="black" fill-opacity="0.2"/>
<path d="M81.7805 60.6408V58.0559H86.0405V60.6408H88.0205V68.8444H79.8005V60.6408H81.7805Z" fill="#38377A"/>
<path d="M80.5106 64.2128C80.5106 66.0891 82.0306 67.606 83.9106 67.606C85.7906 67.606 87.3105 66.0891 87.3105 64.2128C87.3105 62.3365 85.7906 60.8196 83.9106 60.8196C82.0306 60.8196 80.5106 62.3365 80.5106 64.2128Z" fill="#2566B0"/>
<path d="M80.5106 64.2128C80.5106 66.0891 82.0306 67.606 83.9106 67.606C85.7906 67.606 87.3105 66.0891 87.3105 64.2128C87.3105 62.3365 85.7906 60.8196 83.9106 60.8196C82.0306 60.8196 80.5106 62.3365 80.5106 64.2128Z" fill="black" fill-opacity="0.2"/>
<path d="M71.1401 60.6408V58.0559H75.3901V60.6408H77.3701V68.8444H69.1602V60.6408H71.1401Z" fill="#38377A"/>
<path d="M69.8699 64.2128C69.8699 66.0891 71.39 67.606 73.27 67.606C75.15 67.606 76.6699 66.0891 76.6699 64.2128C76.6699 62.3365 75.15 60.8196 73.27 60.8196C71.39 60.8196 69.8699 62.3365 69.8699 64.2128Z" fill="#2566B0"/>
<path d="M69.8699 64.2128C69.8699 66.0891 71.39 67.606 73.27 67.606C75.15 67.606 76.6699 66.0891 76.6699 64.2128C76.6699 62.3365 75.15 60.8196 73.27 60.8196C71.39 60.8196 69.8699 62.3365 69.8699 64.2128Z" fill="black" fill-opacity="0.2"/>
<path d="M120.641 83.0073C120.801 83.0073 120.931 82.8876 120.941 82.7279C120.981 82.169 121.941 68.8655 120.751 63.0871C119.581 57.4184 121.491 48.6558 121.511 48.566C121.551 48.4063 121.441 48.2466 121.281 48.2067C121.121 48.1668 120.961 48.2766 120.921 48.4363C120.841 48.7955 118.971 57.4084 120.161 63.2068C121.331 68.9055 120.351 82.5483 120.341 82.688C120.331 82.8576 120.451 82.9974 120.621 83.0073C120.621 83.0073 120.631 83.0073 120.641 83.0073Z" fill="white"/>
<path d="M117.671 82.8081C117.841 82.8081 117.971 82.6684 117.971 82.5087C117.971 81.6903 117.811 62.4886 116.821 59.8638C115.871 57.3788 117.951 48.6662 117.971 48.5763C118.011 48.4167 117.911 48.257 117.751 48.2171C117.591 48.1771 117.431 48.2769 117.391 48.4366C117.301 48.8059 115.261 57.4087 116.271 60.0734C117.231 62.5984 117.381 82.3091 117.391 82.5087C117.391 82.6684 117.531 82.8081 117.691 82.8081H117.671Z" fill="white"/>
<path d="M115.901 83.0071C116.051 83.0071 116.181 82.8973 116.201 82.7476C116.201 82.6877 116.871 76.9392 114.181 70.0429C111.551 63.2864 113.421 48.6955 113.441 48.5558C113.461 48.3961 113.351 48.2464 113.181 48.2164C113.021 48.1965 112.871 48.3063 112.841 48.4759C112.761 49.0847 110.921 63.3662 113.611 70.2625C116.241 77.009 115.601 82.6278 115.601 82.6777C115.581 82.8374 115.701 82.9871 115.861 83.0071C115.871 83.0071 115.881 83.0071 115.901 83.0071Z" fill="white"/>
<path d="M112.841 83.0071C112.991 83.0071 113.121 82.8973 113.141 82.7476C113.141 82.6877 113.811 76.9392 111.121 70.0429C108.491 63.2864 110.361 48.6955 110.381 48.5558C110.401 48.3961 110.291 48.2464 110.121 48.2164C109.961 48.1965 109.811 48.3063 109.781 48.4759C109.701 49.0847 107.861 63.3662 110.551 70.2625C113.181 77.009 112.541 82.6278 112.541 82.6777C112.521 82.8374 112.641 82.9871 112.801 83.0071C112.811 83.0071 112.821 83.0071 112.841 83.0071Z" fill="white"/>
<path d="M105.571 83.0077C105.721 83.0077 105.851 82.8979 105.871 82.7482C105.871 82.6884 106.541 76.9398 103.851 70.0436C101.201 63.2371 98.3713 48.6063 98.3413 48.4566C98.3113 48.2969 98.1512 48.1871 97.9912 48.2171C97.8312 48.247 97.7212 48.4067 97.7512 48.5664C97.7812 48.7161 100.621 63.4068 103.291 70.2532C105.921 76.9997 105.281 82.6185 105.281 82.6684C105.261 82.8281 105.381 82.9778 105.541 82.9977C105.551 82.9977 105.561 82.9977 105.581 82.9977L105.571 83.0077Z" fill="white"/>
<path d="M102.511 83.0076C102.661 83.0076 102.791 82.8978 102.811 82.7481C102.811 82.6882 103.481 76.9397 100.791 70.0434C98.1307 63.227 93.8407 48.5762 93.7907 48.4265C93.7407 48.2668 93.5807 48.177 93.4207 48.2269C93.2607 48.2768 93.1707 48.4365 93.2207 48.5962C93.2607 48.7459 97.5707 63.4166 100.231 70.253C102.861 76.9996 102.221 82.6184 102.221 82.6683C102.201 82.8279 102.321 82.9777 102.481 82.9976C102.491 82.9976 102.501 82.9976 102.521 82.9976L102.511 83.0076Z" fill="white"/>
<path d="M109.651 82.9081C109.651 82.9081 109.671 82.9081 109.681 82.9081C109.851 82.8881 109.971 82.7484 109.951 82.5787C109.901 81.9999 108.621 68.2573 107.071 64.2353C105.561 60.3031 105.941 48.0476 105.951 47.9278C105.951 47.7581 105.831 47.6284 105.661 47.6184C105.491 47.6184 105.361 47.7382 105.351 47.9078C105.331 48.4168 104.961 60.4129 106.511 64.4548C108.031 68.397 109.341 82.4989 109.351 82.6386C109.361 82.7983 109.501 82.9081 109.651 82.9081Z" fill="white"/>
<path d="M107.341 82.9081C107.341 82.9081 107.361 82.9081 107.371 82.9081C107.541 82.8881 107.661 82.7484 107.641 82.5787C107.591 81.9999 106.311 68.2573 104.761 64.2353C103.251 60.3031 103.641 48.0476 103.641 47.9278C103.641 47.7581 103.521 47.6284 103.351 47.6184C103.181 47.6184 103.051 47.7382 103.041 47.9078C103.021 48.4168 102.651 60.4129 104.201 64.4548C105.721 68.397 107.031 82.4989 107.041 82.6386C107.051 82.7983 107.191 82.9081 107.341 82.9081Z" fill="white"/>
<path d="M118.991 39.3342H119.931C121.289 39.3342 122.391 40.4334 122.391 41.7893V44.3043C122.391 45.6602 121.289 46.7594 119.931 46.7594H118.991C117.632 46.7594 116.531 45.6602 116.531 44.3043V41.7893C116.531 40.4334 117.632 39.3342 118.991 39.3342Z" fill="#828282"/>
<path d="M115.911 42.2482H122.961V49.2841H115.911V42.2482Z" fill="#2566B0"/>
<path d="M115.911 42.2482H122.961V49.2841H115.911V42.2482Z" fill="black" fill-opacity="0.2"/>
<path d="M111.13 39.3342H112.07C113.429 39.3342 114.53 40.4334 114.53 41.7893V44.3043C114.53 45.6602 113.429 46.7594 112.07 46.7594H111.13C109.772 46.7594 108.67 45.6602 108.67 44.3043V41.7893C108.67 40.4334 109.772 39.3342 111.13 39.3342Z" fill="#828282"/>
<path d="M108.051 42.2482H115.101V49.2841H108.051V42.2482Z" fill="#2566B0"/>
<path d="M108.051 42.2482H115.101V49.2841H108.051V42.2482Z" fill="black" fill-opacity="0.2"/>
<path d="M103.271 39.3342H104.211C105.57 39.3342 106.671 40.4334 106.671 41.7893V44.3043C106.671 45.6602 105.57 46.7594 104.211 46.7594H103.271C101.912 46.7594 100.811 45.6602 100.811 44.3043V41.7893C100.811 40.4334 101.912 39.3342 103.271 39.3342Z" fill="#828282"/>
<path d="M100.191 42.2482H107.241V49.2841H100.191V42.2482Z" fill="#2566B0"/>
<path d="M100.191 42.2482H107.241V49.2841H100.191V42.2482Z" fill="black" fill-opacity="0.2"/>
<path d="M95.4213 39.3342H96.3613C97.7199 39.3342 98.8213 40.4334 98.8213 41.7893V44.3043C98.8213 45.6602 97.7199 46.7594 96.3613 46.7594H95.4213C94.0626 46.7594 92.9613 45.6602 92.9613 44.3043V41.7893C92.9613 40.4334 94.0626 39.3342 95.4213 39.3342Z" fill="#828282"/>
<path d="M92.3309 42.2482H99.3809V49.2841H92.3309V42.2482Z" fill="#2566B0"/>
<path d="M92.3309 42.2482H99.3809V49.2841H92.3309V42.2482Z" fill="black" fill-opacity="0.2"/>
<path d="M112.391 81.5903H122.961V85.8419H112.391V81.5903Z" fill="#38377A"/>
<path d="M100.201 81.5903H110.771V85.8419H100.201V81.5903Z" fill="#38377A"/>
<path d="M56.8305 21.4202H59.2305V32.7875H56.8305V21.4202Z" fill="#6B6B6B"/>
<path d="M56.8307 60.2629H58.9707V72.5485H56.8307V60.2629Z" fill="#6B6B6B"/>
<path d="M132.531 32.9564H130.131V21.5891H132.531V32.9564Z" fill="#6B6B6B"/>
<path d="M132.531 72.7073H130.391V60.4218H132.531V72.7073Z" fill="#6B6B6B"/>
<path d="M42.3309 143.406L29.8909 141.779L32.7409 111.24L22.9309 79.4036L22.041 68.8147L28.851 63.146L42.3309 75.3018V81.18C42.3309 81.18 50.9609 104.224 48.6809 112.957C46.4009 121.689 42.3309 143.406 42.3309 143.406Z" fill="#2566B0"/>
<path d="M42.3309 143.406L29.8909 141.779L32.7409 111.24L22.9309 79.4036L22.041 68.8147L28.851 63.146L42.3309 75.3018V81.18C42.3309 81.18 50.9609 104.224 48.6809 112.957C46.4009 121.689 42.3309 143.406 42.3309 143.406Z" fill="black" fill-opacity="0.2"/>
<path d="M12.3802 143.237L1.78021 142.209L14.8002 107.059C15.5602 105.402 15.9002 103.576 15.7802 101.75L14.2202 78.3063C14.2202 78.3063 14.5202 64.1246 26.1102 59.3441C40.8702 53.2563 40.2502 60.4619 40.2502 60.4619L32.9902 77.3383L32.5402 99.9332C32.4102 106.49 30.4802 112.887 26.9602 118.426L12.3702 143.237H12.3802Z" fill="#2566B0"/>
<path d="M12.3802 143.237L1.78021 142.209L14.8002 107.059C15.5602 105.402 15.9002 103.576 15.7802 101.75L14.2202 78.3063C14.2202 78.3063 14.5202 64.1246 26.1102 59.3441C40.8702 53.2563 40.2502 60.4619 40.2502 60.4619L32.9902 77.3383L32.5402 99.9332C32.4102 106.49 30.4802 112.887 26.9602 118.426L12.3702 143.237H12.3802Z" fill="black" fill-opacity="0.2"/>
<path d="M30.9906 43.8741C31.1906 44.0238 31.4006 44.1436 31.6306 44.2534L51.7907 53.8243C54.1107 54.9221 56.8606 53.994 57.8606 51.7185C58.8806 49.4131 57.7206 46.6286 55.3106 45.5708L45.6007 41.3093L43.2706 40.2813L34.4806 36.419C32.4606 35.5308 30.2006 36.5887 29.4406 38.7244C28.7806 40.6007 29.4606 42.7464 30.9906 43.8642V43.8741Z" fill="#F8B283"/>
<path d="M37.0204 48.1761L32.7104 45.2021C29.5504 43.6052 28.0204 40.222 29.3104 37.687C30.6004 35.1521 35.9304 33.1062 39.0804 34.703L50.3604 42.9765L46.9004 52.2281C44.5304 51.6193 42.3004 50.9905 39.3704 49.5634L37.0104 48.1761H37.0204Z" fill="#50A055"/>
<path d="M53.3613 46.0409L68.7014 34.953C68.7014 34.953 68.7214 34.9331 68.7214 34.9231C68.7514 34.6736 69.1414 32.2484 71.0114 29.6736C72.9914 26.959 75.1014 28.1566 73.5114 29.6336C72.1214 30.9211 72.4214 31.6796 72.5114 31.8392C72.5214 31.8592 72.5514 31.8692 72.5714 31.8592L77.4914 30.0628C78.5514 29.6736 79.3314 31.0907 78.4314 31.7694C78.4114 31.7893 78.3914 31.8193 78.3714 31.8193C77.4314 31.8193 78.6614 31.6297 78.9514 32.3582C79.3814 33.456 78.3314 33.6456 78.3314 33.6456C78.3314 33.6456 79.9214 34.0648 78.9914 35.3522C78.9914 35.3522 79.7914 35.9011 76.8914 37.9371C74.2714 39.7834 61.8514 49.4841 56.4314 53.7156C55.5114 54.4342 54.1514 53.8653 54.0314 52.6977L53.3414 46.0908C53.3414 46.0908 53.3413 46.0509 53.3613 46.0409Z" fill="#FFB583"/>
<path d="M56.4612 53.8056C56.4612 53.8056 56.4812 53.8056 56.4912 53.7956L69.4612 43.6359C69.8012 43.3864 77.8312 37.4282 78.6512 36.6797C79.3512 36.041 79.2312 35.552 79.1512 35.3624C79.2812 35.2326 79.5312 34.8833 79.3112 34.2845C79.1412 33.8354 78.9012 33.6458 78.7212 33.556C78.9412 33.3963 79.2512 33.0669 79.1012 32.4781C78.9712 31.9691 78.6912 31.7795 78.4812 31.6997C78.7812 31.4701 79.0812 31.0509 78.8512 30.4821C78.5512 29.7635 77.8212 29.8334 77.4712 29.9631L72.5512 31.7496C72.5512 31.7496 72.4812 31.8194 72.4912 31.8693C72.5112 31.9192 72.5612 31.9392 72.6112 31.9292L77.5312 30.1328C77.5312 30.1328 78.3612 29.8234 78.6712 30.542C78.9812 31.2705 78.2112 31.6298 78.1712 31.6498C78.1312 31.6697 78.1112 31.7196 78.1212 31.7595C78.1312 31.7995 78.1712 31.8294 78.2212 31.8294C78.2412 31.8294 78.7412 31.7995 78.9212 32.508C79.1012 33.2166 78.4812 33.4661 78.4612 33.4761C78.4212 33.4961 78.3912 33.536 78.4012 33.5759C78.4012 33.6158 78.4412 33.6558 78.4912 33.6558C78.5112 33.6558 78.9012 33.6957 79.1412 34.3244C79.3812 34.9532 79.0012 35.2226 78.9912 35.2426C78.9712 35.2526 78.9612 35.2825 78.9512 35.3025C78.9512 35.3224 78.9512 35.3524 78.9712 35.3723C78.9812 35.3923 79.2812 35.8414 78.5412 36.5101C77.7412 37.2486 69.4512 43.3864 69.3712 43.4462L56.4012 53.606C56.4012 53.606 56.3512 53.6958 56.3812 53.7357C56.4112 53.7657 56.4512 53.7756 56.4912 53.7657L56.4612 53.8056Z" fill="#F9F9F9"/>
<path d="M16.801 79.1941L21.1011 77.2081L22.6611 76.4895L24.5311 75.6213L29.671 73.246L31.7011 72.3079L33.251 71.5893L37.551 69.6033L37.8411 69.4636C37.8411 69.4636 37.871 69.3538 37.941 69.1442C38.011 68.9146 38.111 68.5753 38.241 68.1362C38.391 67.6372 38.5711 67.0184 38.7811 66.2999C39.4911 63.8348 40.491 60.2419 41.311 56.699C41.701 54.9924 42.061 53.2958 42.321 51.7489C42.451 50.9505 42.5611 50.192 42.6411 49.4934C42.7711 48.3556 42.811 47.3576 42.751 46.5792C42.601 44.7428 42.111 41.9684 41.131 39.3536C40.431 37.4873 39.491 35.7009 38.241 34.3835C37.691 33.8046 37.0811 33.3056 36.4111 32.9463C35.8911 32.6669 35.341 32.4573 34.741 32.3376C34.411 32.2777 34.081 32.2378 33.731 32.2278C33.601 32.2278 33.4811 32.2278 33.3511 32.2278C32.0411 32.2677 30.571 32.7068 28.921 33.6749C28.581 33.8745 28.221 34.0941 27.861 34.3436C27.711 34.4434 27.5611 34.5531 27.4111 34.6629C27.1611 34.8426 26.921 35.0322 26.691 35.2418C25.941 35.9005 25.251 36.6789 24.611 37.5771C24.121 38.2558 23.661 39.0043 23.231 39.8027C22.401 41.3496 21.6811 43.0961 21.0411 44.9724C18.6711 52.0283 17.6211 60.9106 17.1511 67.8667C16.7111 74.3937 16.7911 79.2041 16.7911 79.2041L16.801 79.1941Z" fill="#50A055"/>
<path d="M31.711 76.4006L37.541 69.6041L37.9309 69.145L38.591 68.3766C38.591 68.3766 38.8209 67.7478 39.1909 66.6799C39.8709 64.7039 41.0109 61.1909 42.0009 57.2986C42.4209 55.632 42.821 53.8954 43.141 52.1788C43.281 51.4104 43.411 50.6519 43.521 49.9034C43.981 46.7497 44.101 43.8055 43.571 41.6598C43.451 41.1708 43.3209 40.7017 43.1809 40.2526C42.8009 39.0351 42.341 37.9472 41.821 36.9991C40.381 34.3743 38.461 32.7875 36.321 32.1488C34.861 31.7097 33.3109 31.7097 31.7409 32.1288C30.6409 32.4182 29.681 32.7675 28.851 33.1168L28.911 33.6558C28.571 33.8554 28.211 34.0749 27.851 34.3244C27.701 34.4242 27.551 34.534 27.401 34.6438C27.151 34.8234 26.9109 35.0131 26.6809 35.2227L28.3709 34.7636C28.3709 34.7636 28.6009 34.6837 29.0009 34.564C30.1209 34.2546 32.5609 33.7256 34.8109 34.2945C35.4409 34.4542 36.061 34.7037 36.631 35.063C37.691 35.7316 38.581 36.7995 39.101 38.4462C39.331 39.1748 39.4909 40.0331 39.5509 41.0111C39.6709 42.8474 39.481 45.1928 39.101 47.7876C39.031 48.2567 38.9609 48.7357 38.8709 49.2247C38.6209 50.6918 38.3309 52.2287 37.9909 53.7856C37.3009 56.9893 36.461 60.3026 35.631 63.3665C34.781 66.4803 33.9309 69.3346 33.2409 71.5802C32.3409 74.5143 31.711 76.3906 31.711 76.3906V76.4006Z" fill="#2566B0"/>
<path d="M31.711 76.4006L37.541 69.6041L37.9309 69.145L38.591 68.3766C38.591 68.3766 38.8209 67.7478 39.1909 66.6799C39.8709 64.7039 41.0109 61.1909 42.0009 57.2986C42.4209 55.632 42.821 53.8954 43.141 52.1788C43.281 51.4104 43.411 50.6519 43.521 49.9034C43.981 46.7497 44.101 43.8055 43.571 41.6598C43.451 41.1708 43.3209 40.7017 43.1809 40.2526C42.8009 39.0351 42.341 37.9472 41.821 36.9991C40.381 34.3743 38.461 32.7875 36.321 32.1488C34.861 31.7097 33.3109 31.7097 31.7409 32.1288C30.6409 32.4182 29.681 32.7675 28.851 33.1168L28.911 33.6558C28.571 33.8554 28.211 34.0749 27.851 34.3244C27.701 34.4242 27.551 34.534 27.401 34.6438C27.151 34.8234 26.9109 35.0131 26.6809 35.2227L28.3709 34.7636C28.3709 34.7636 28.6009 34.6837 29.0009 34.564C30.1209 34.2546 32.5609 33.7256 34.8109 34.2945C35.4409 34.4542 36.061 34.7037 36.631 35.063C37.691 35.7316 38.581 36.7995 39.101 38.4462C39.331 39.1748 39.4909 40.0331 39.5509 41.0111C39.6709 42.8474 39.481 45.1928 39.101 47.7876C39.031 48.2567 38.9609 48.7357 38.8709 49.2247C38.6209 50.6918 38.3309 52.2287 37.9909 53.7856C37.3009 56.9893 36.461 60.3026 35.631 63.3665C34.781 66.4803 33.9309 69.3346 33.2409 71.5802C32.3409 74.5143 31.711 76.3906 31.711 76.3906V76.4006Z" fill="black" fill-opacity="0.2"/>
<path d="M22.4702 82.1279L22.6402 81.9283L29.3502 74.1039C29.3502 74.1039 29.4602 73.7946 29.6602 73.2357C29.8802 72.6169 30.1902 71.6987 30.5602 70.561C30.6202 70.3714 30.6802 70.1818 30.7502 69.9822C32.6702 63.9941 35.7202 52.996 34.3402 47.3872C34.2202 46.9181 34.1002 46.469 33.9602 46.0299C33.8802 45.7604 33.7902 45.491 33.7002 45.2415C32.6502 42.2974 31.1402 40.2315 29.3602 38.9939C29.2202 38.9041 29.0902 38.8143 28.9502 38.7245C27.6102 37.8961 26.1302 37.5169 24.6002 37.5568C24.1102 38.2355 23.6502 38.984 23.2202 39.7824C26.2602 39.7424 29.9402 40.9201 30.3002 46.7485C30.5802 51.2096 29.0802 58.6448 27.3202 65.551C26.8202 67.5071 26.3002 69.4133 25.8002 71.1997C25.3502 72.7866 24.9102 74.2736 24.5102 75.6109C23.5502 78.7946 22.7902 81.1299 22.5402 81.8685C22.4902 82.0281 22.4602 82.118 22.4602 82.118L22.4702 82.1279Z" fill="#2566B0"/>
<path d="M22.4702 82.1279L22.6402 81.9283L29.3502 74.1039C29.3502 74.1039 29.4602 73.7946 29.6602 73.2357C29.8802 72.6169 30.1902 71.6987 30.5602 70.561C30.6202 70.3714 30.6802 70.1818 30.7502 69.9822C32.6702 63.9941 35.7202 52.996 34.3402 47.3872C34.2202 46.9181 34.1002 46.469 33.9602 46.0299C33.8802 45.7604 33.7902 45.491 33.7002 45.2415C32.6502 42.2974 31.1402 40.2315 29.3602 38.9939C29.2202 38.9041 29.0902 38.8143 28.9502 38.7245C27.6102 37.8961 26.1302 37.5169 24.6002 37.5568C24.1102 38.2355 23.6502 38.984 23.2202 39.7824C26.2602 39.7424 29.9402 40.9201 30.3002 46.7485C30.5802 51.2096 29.0802 58.6448 27.3202 65.551C26.8202 67.5071 26.3002 69.4133 25.8002 71.1997C25.3502 72.7866 24.9102 74.2736 24.5102 75.6109C23.5502 78.7946 22.7902 81.1299 22.5402 81.8685C22.4902 82.0281 22.4602 82.118 22.4602 82.118L22.4702 82.1279Z" fill="black" fill-opacity="0.2"/>
<path d="M33.2908 38.9049C35.0408 38.7153 36.3908 37.338 36.6208 35.6614C36.6608 35.3719 36.6708 35.0725 36.6308 34.7631L36.4708 33.2961L36.3708 32.3679L36.2408 31.1603L36.1508 30.3719L35.7108 26.2501C35.4908 24.1942 33.6308 22.6972 31.5708 22.9168C30.5408 23.0265 29.6508 23.5455 29.0408 24.294C28.4308 25.0425 28.1108 26.0206 28.2208 27.0485L28.6808 31.3499L28.7408 31.8889L28.8408 32.7971L29.1408 35.5715C29.1508 35.6713 29.1708 35.7711 29.1808 35.861C29.2308 36.1304 29.3108 36.3799 29.4108 36.6294C30.0408 38.1165 31.6008 39.0845 33.2808 38.9049H33.2908Z" fill="#F8B283"/>
<path d="M32.1208 31.3695L36.6309 34.7728L35.9908 28.7548L32.1208 31.3695Z" fill="#6A4A3F"/>
<path d="M35.8404 20.5915C36.6404 21.7592 37.3904 22.9767 38.0804 24.2143C39.0204 25.8909 40.5404 27.877 40.1404 29.843C39.9204 30.9508 35.8904 32.4578 34.3004 32.2183C30.8304 31.6993 28.5404 28.1065 28.2704 24.9229C27.9504 21.1803 32.7404 17.348 35.8304 20.5915H35.8404Z" fill="#FFAB6D"/>
<path d="M38.7004 19.7625C37.9004 20.8703 35.9104 20.5808 35.5004 20.3014C34.4104 19.5629 33.0404 20.4012 32.0604 20.9801C31.4304 21.3593 30.5104 22.0878 30.2804 22.8264C30.0804 23.4751 30.9404 24.3134 30.4304 24.8024C29.9704 25.2416 28.9404 24.7825 28.4004 24.9721C27.5804 25.2515 28.1304 25.8503 28.4304 26.4192C28.6704 26.8583 29.1004 27.1877 29.1504 27.6967C29.1704 27.9561 28.6004 28.3254 28.5104 29.553C28.2604 29.6128 27.6504 28.5949 27.5104 28.4452C26.5604 27.4072 24.6604 25.6008 24.5104 24.1138C24.4404 23.3853 25.0904 23.1358 24.8604 22.2874C24.6204 21.4092 23.6804 20.521 24.1904 19.5828C24.3504 19.2934 24.5704 18.9641 24.9004 18.9641C26.3504 18.9641 26.5904 16.8583 27.9304 16.6886C30.4204 16.3792 30.8204 15.7704 31.0404 15.5509C32.2204 14.3832 34.4704 14.5429 36.1604 16.5589C38.7904 19.7126 41.0204 16.5589 38.7104 19.7525L38.7004 19.7625Z" fill="#1E1B18"/>
<path d="M36.2303 23.3752C36.2903 23.8343 37.0204 23.7544 36.9604 23.2854C36.9004 22.8263 36.1703 22.8962 36.2303 23.3752Z" fill="#603F36"/>
<path d="M33.2001 24.2529C33.2601 24.712 33.9901 24.6321 33.9301 24.1631C33.8701 23.704 33.1401 23.7738 33.2001 24.2529Z" fill="#603F36"/>
<path d="M33.6901 28.2755C33.6901 28.2755 33.7201 28.3155 33.7401 28.3354C34.0701 28.6548 34.8001 28.7246 35.3201 28.2556C35.4201 28.1658 35.5201 28.046 35.6001 27.9163C35.7201 27.7167 35.5901 27.4672 35.3501 27.5071C35.0101 27.557 34.5801 27.557 34.2601 27.3474C33.6901 26.9582 33.3001 27.8065 33.6901 28.2955V28.2755Z" fill="#6A4A3F"/>
<path d="M27.1899 27.2577C28.6599 29.0541 30.9399 27.1778 29.4799 25.3914C28.0499 23.6449 25.6699 25.4014 27.1899 27.2577Z" fill="#FFAB6D"/>
<path d="M28.84 27.0775C28.84 27.0775 28.86 27.0775 28.87 27.0675C28.9 27.0476 28.91 27.0077 28.89 26.9777C28.75 26.7582 28.45 26.6184 28.15 26.6184C27.94 26.6184 27.74 26.5386 27.61 26.3789C27.49 26.2292 27.44 26.0496 27.48 25.8699C27.58 25.3709 28.08 25.1114 28.09 25.1114C28.12 25.0915 28.14 25.0516 28.12 25.0216C28.1 24.9917 28.06 24.9717 28.03 24.9917C28.01 25.0017 27.46 25.2811 27.35 25.84C27.3 26.0595 27.36 26.2891 27.51 26.4687C27.67 26.6584 27.9 26.7582 28.15 26.7582C28.4 26.7582 28.66 26.8779 28.78 27.0476C28.79 27.0675 28.82 27.0775 28.84 27.0775Z" fill="#FF954D"/>
<path d="M36.4903 26.4292C36.7703 26.3394 37.5004 26.06 37.3804 25.4811C37.2704 24.9621 36.7104 24.8923 36.3804 24.9322L35.6004 23.5649C35.6004 23.5649 35.5203 23.5051 35.4803 23.535C35.4403 23.555 35.4204 23.6148 35.4504 23.6548L36.2604 25.0719C36.2604 25.0719 36.3104 25.1218 36.3504 25.1118C36.3804 25.1118 37.0904 24.9821 37.2104 25.5111C37.3304 26.05 36.3604 26.2795 36.3504 26.2895C36.3004 26.2995 36.2704 26.3494 36.2904 26.3893C36.3004 26.4392 36.3504 26.4691 36.3904 26.4492C36.3904 26.4492 36.4403 26.4392 36.4903 26.4192V26.4292Z" fill="#603F36"/>
<path d="M33.5704 25.9891C33.6104 26.3783 33.3304 26.7276 32.9404 26.7676C32.5504 26.8075 32.2004 26.528 32.1604 26.1388C32.1204 25.7496 32.4004 25.4003 32.7904 25.3604C33.1804 25.3204 33.5304 25.5999 33.5704 25.9891Z" fill="#FF954D"/>
<path d="M36.5106 32.0085C36.5106 32.0085 36.5706 31.9287 36.5506 31.8887C36.5306 31.8388 36.4706 31.8189 36.4306 31.8488C36.4006 31.8588 33.2406 33.2959 30.2106 29.7131C30.1806 29.6732 30.1206 29.6732 30.0806 29.7031C30.0406 29.733 30.0406 29.7929 30.0706 29.8328C33.2006 33.5355 36.4806 32.0285 36.5106 32.0185V32.0085Z" fill="#EE7035"/>
<path d="M31.8203 21.9583L30.1003 25.8904L27.1403 29.5531L24.7503 27.597L31.8203 21.9583Z" fill="#C2BDB7"/>
<path d="M40.5001 16.9587L32.7902 21.9188L30.0801 24.1743L29.0801 25.831L25.6101 28.316L23.5901 28.1963L23.3301 27.2981C23.3301 27.2981 23.8901 26.4897 23.8001 26.32C23.7101 26.1503 20.5401 19.8429 24.8201 16.0205C29.1001 12.2081 33.5201 12.6473 36.9001 16.4597L37.7001 17.3878C37.7001 17.3878 40.7901 15.4716 40.4801 16.9587H40.5001Z" fill="#50A055"/>
<path d="M62.7907 38.9937L65.4506 36.8979C66.1806 36.319 66.7707 35.5805 67.1607 34.7322C67.7007 33.5346 68.8206 31.5485 70.9606 29.4327C73.3906 27.0275 74.8706 27.3768 74.0506 29.3529C73.7306 30.1313 73.1406 30.8699 72.6306 31.4188C73.6906 30.5605 75.5806 29.4427 78.1106 29.6224C82.1606 29.9118 82.2607 34.3829 79.3407 36.7382C78.6807 37.2671 71.0207 43.2053 67.9007 45.6105L62.7907 38.9937Z" fill="#4E4E50"/>
<path d="M19.8307 74.0445C19.8307 74.0445 28.4307 64.6632 30.2507 53.4056C36.6707 43.9045 43.9307 44.164 43.9307 44.164L42.3307 75.3019C42.3307 75.3019 24.1907 83.286 19.8307 74.0445Z" fill="#2566B0"/>
<path d="M19.8307 74.0445C19.8307 74.0445 28.4307 64.6632 30.2507 53.4056C36.6707 43.9045 43.9307 44.164 43.9307 44.164L42.3307 75.3019C42.3307 75.3019 24.1907 83.286 19.8307 74.0445Z" fill="black" fill-opacity="0.2"/>
<path d="M22.6507 79.4943L24.0307 60.2726C24.0707 59.6538 24.0207 59.0351 23.8707 58.4263C23.1807 55.7217 21.1607 47.8573 20.5207 46.6398C16.7007 54.6538 12.7407 74.8835 16.4907 81.63C18.8907 79.5342 22.6507 79.4943 22.6507 79.4943Z" fill="#2566B0"/>
<path d="M22.6507 79.4943L24.0307 60.2726C24.0707 59.6538 24.0207 59.0351 23.8707 58.4263C23.1807 55.7217 21.1607 47.8573 20.5207 46.6398C16.7007 54.6538 12.7407 74.8835 16.4907 81.63C18.8907 79.5342 22.6507 79.4943 22.6507 79.4943Z" fill="black" fill-opacity="0.2"/>
<path d="M24.0211 52.4963C24.1711 52.6959 24.3311 52.8756 24.5111 53.0452L40.8511 68.225C42.7311 69.9715 45.6311 69.9116 47.2711 68.0354C48.9311 66.1391 48.6711 63.1351 46.6911 61.4086L38.7211 54.4325L36.8011 52.7558L29.5811 46.4384C27.9211 44.9813 25.4511 45.3107 24.0811 47.127C22.8811 48.7139 22.8911 50.9694 24.0111 52.4963H24.0211Z" fill="#F8B283"/>
<path d="M30.3009 60.431L25.2609 54.2833C22.7309 51.8082 22.291 48.1255 24.291 46.0896C26.281 44.0636 29.9909 44.4229 32.5109 46.898L38.2109 52.4769L36.1609 55.411C34.6609 57.5567 32.6509 59.2833 30.3009 60.431Z" fill="#50A055"/>
<path d="M32.8309 59.0634C34.3209 58.0254 35.6309 56.6881 36.6609 55.1212L38.3109 52.6162C38.3109 52.6162 38.3308 52.5264 38.3008 52.4965L33.7609 47.9755C33.7609 47.9755 33.6709 47.9455 33.6309 47.9755C33.5909 48.0154 33.5909 48.0653 33.6309 48.1052L38.1009 52.5763L36.5009 55.0015C34.9709 57.3268 32.8409 59.1332 30.3909 60.2011L28.4309 58.0154C28.4309 58.0154 28.3408 57.9755 28.3008 58.0154C28.2608 58.0554 28.2608 58.1152 28.3008 58.1552L30.3008 60.3907C30.3008 60.3907 30.3709 60.4306 30.4009 60.4207H30.4208C31.2708 60.0514 32.0809 59.5923 32.8409 59.0634H32.8309Z" fill="white"/>
<path d="M44.7002 61.269L62.6702 55.3009C62.6702 55.3009 62.6902 55.2909 62.7002 55.271C62.8102 55.0414 63.9002 52.8358 66.4602 50.9496C69.1602 48.9536 70.8202 50.73 68.8602 51.6682C67.1502 52.4865 67.2002 53.2849 67.2402 53.4746C67.2402 53.4945 67.2702 53.5145 67.2902 53.5145L72.5202 53.2849C73.6402 53.235 73.9702 54.8219 72.9002 55.1911C72.8802 55.1911 72.8502 55.2211 72.8202 55.2211C71.9202 54.9516 73.1502 55.1313 73.2102 55.9097C73.2902 57.0874 72.2302 56.9476 72.2302 56.9476C72.2302 56.9476 73.6202 57.8159 72.3502 58.774C72.3502 58.774 72.9502 59.5325 69.5702 60.6103C66.5102 61.5884 51.7402 67.1074 45.3002 69.5226C44.2002 69.9318 43.0802 68.9737 43.3102 67.826L44.6402 61.3189C44.6402 61.3189 44.6602 61.289 44.6702 61.279L44.7002 61.269Z" fill="#FFB583"/>
<path d="M45.3209 69.6125C45.3209 69.6125 45.3409 69.6125 45.3509 69.6125L60.7809 63.814C61.1809 63.6743 70.6409 60.4008 71.6309 59.9417C72.4909 59.5425 72.5209 59.0336 72.5009 58.834C72.6609 58.7541 73.0109 58.4946 72.9709 57.8559C72.9409 57.3769 72.7709 57.1174 72.6309 56.9876C72.8909 56.8978 73.2809 56.6783 73.3209 56.0794C73.3509 55.5605 73.1409 55.291 72.9609 55.1513C73.3209 55.0315 73.7309 54.7222 73.6709 54.1034C73.6009 53.3349 72.8809 53.1752 72.5109 53.1952L67.2809 53.4247C67.2309 53.4247 67.1909 53.4746 67.1909 53.5245C67.1909 53.5744 67.2409 53.6144 67.2909 53.6144L72.5209 53.3848C72.5209 53.3848 73.4109 53.3349 73.4809 54.1233C73.5509 54.9118 72.7109 55.0216 72.6709 55.0315C72.6209 55.0315 72.5909 55.0715 72.5909 55.1214C72.5909 55.1713 72.6209 55.2112 72.6609 55.2212C72.6809 55.2212 73.1709 55.3509 73.1209 56.0794C73.0709 56.808 72.4109 56.8679 72.3809 56.8679C72.3409 56.8679 72.3009 56.9078 72.2909 56.9477C72.2909 56.9876 72.3109 57.0375 72.3509 57.0475C72.3609 57.0475 72.7309 57.2072 72.7609 57.8858C72.8009 58.5545 72.3609 58.7042 72.3409 58.7142C72.3209 58.7142 72.3009 58.7342 72.2809 58.7641C72.2609 58.794 72.2709 58.814 72.2809 58.834C72.2809 58.8539 72.4409 59.3729 71.5309 59.792C70.5409 60.2511 60.7909 63.6244 60.6909 63.6543L45.2609 69.4528C45.2609 69.4528 45.1909 69.5226 45.2109 69.5725C45.2209 69.6125 45.2609 69.6324 45.3009 69.6324L45.3209 69.6125Z" fill="#F9F9F9"/>
<path d="M56.1306 57.1883L59.2106 55.9907C60.0806 55.6513 60.8605 55.1124 61.4805 54.4138C62.3505 53.4258 64.0005 51.8589 66.6705 50.4617C69.7005 48.8749 71.0106 49.6433 69.6506 51.29C69.1106 51.9387 68.3306 52.4777 67.6906 52.8469C68.9606 52.3379 71.0906 51.819 73.4506 52.7371C77.2406 54.2042 76.0206 58.4957 72.5406 59.9029C71.7606 60.2122 62.9106 63.5656 59.1306 64.9927L56.1306 57.1983V57.1883Z" fill="#4E4E50"/>
<path d="M51.5906 149.205L27.4805 149.235L29.4405 141.5L34.2206 142.059C34.2206 142.059 35.6905 139.933 38.9205 139.005C48.6205 139.005 51.9206 144.803 52.9606 147.658C53.2406 148.426 52.5506 149.215 51.5806 149.215L51.5906 149.205Z" fill="#463E2C"/>
<path d="M33.8413 143.626C33.8413 143.626 33.8413 143.626 33.8313 143.626C33.7613 143.626 33.7113 143.566 33.7213 143.506C34.1213 140.322 38.8112 138.915 38.8612 138.895C38.9312 138.875 39.0013 138.895 39.0213 138.955C39.0413 139.015 39.0112 139.075 38.9412 139.095C38.8912 139.105 34.3613 140.472 33.9713 143.526C33.9713 143.576 33.9113 143.616 33.8413 143.616V143.626Z" fill="white"/>
<path d="M42.4508 139.335C42.5808 139.315 45.5808 138.796 46.1008 137.768C46.2408 137.489 46.1908 137.199 45.9608 136.91C45.5908 136.451 45.1708 136.391 44.8908 136.421C43.7908 136.55 42.7008 138.157 42.3108 139.195C42.3008 139.235 42.3108 139.265 42.3408 139.295C42.3608 139.315 42.4008 139.335 42.4308 139.335H42.4508ZM45.7508 137.029C45.9308 137.259 45.9708 137.479 45.8708 137.688C45.4808 138.477 43.3208 138.956 42.6208 139.095C43.1008 137.958 44.1008 136.74 44.9208 136.64C44.9608 136.64 44.9908 136.64 45.0208 136.64C45.2908 136.64 45.5308 136.77 45.7408 137.039L45.7508 137.029Z" fill="white"/>
<path d="M42.5212 139.305C42.5212 139.305 42.5611 139.235 42.5511 139.205C42.5111 139.105 41.5812 136.66 40.2912 136.351C39.9412 136.261 39.6112 136.331 39.2912 136.56C38.7812 136.919 38.7512 137.269 38.8312 137.498C39.1012 138.396 41.1312 139.125 42.4112 139.345H42.4311C42.4711 139.345 42.5012 139.335 42.5212 139.305ZM40.2212 136.55C41.2012 136.79 42.0011 138.536 42.2411 139.095C40.8311 138.816 39.2811 138.117 39.0711 137.448C38.9911 137.189 39.1212 136.949 39.4512 136.72C39.6412 136.59 39.8212 136.53 40.0112 136.53C40.0812 136.53 40.1512 136.53 40.2212 136.56V136.55Z" fill="white"/>
<path d="M42.4307 142.808C42.4307 142.808 42.3407 142.788 42.3207 142.748C41.6507 141.63 41.6108 140.323 42.2108 139.185C42.2408 139.135 42.3107 139.105 42.3807 139.135C42.4407 139.155 42.4708 139.225 42.4508 139.275C41.8808 140.363 41.9207 141.6 42.5507 142.658C42.5807 142.708 42.5507 142.778 42.4907 142.798C42.4707 142.798 42.4507 142.808 42.4307 142.808Z" fill="white"/>
<path d="M41.0708 141.73C41.0708 141.73 41.0208 141.73 41.0008 141.71C40.9408 141.68 40.9308 141.61 40.9708 141.56C41.8408 140.542 43.2008 139.903 44.7008 139.814C44.7708 139.814 44.8308 139.854 44.8408 139.913C44.8408 139.973 44.7908 140.023 44.7208 140.023C43.3008 140.113 42.0108 140.712 41.1808 141.68C41.1608 141.71 41.1208 141.72 41.0808 141.72L41.0708 141.73Z" fill="white"/>
<path d="M45.69 144.105C45.63 144.105 45.57 144.065 45.56 144.015C45.32 142.777 45.75 141.53 46.74 140.582C46.79 140.542 46.87 140.532 46.92 140.572C46.97 140.612 46.98 140.681 46.93 140.721C45.99 141.62 45.59 142.807 45.81 143.975C45.82 144.035 45.77 144.085 45.7 144.095C45.7 144.095 45.69 144.095 45.68 144.095L45.69 144.105Z" fill="white"/>
<path d="M44.7804 142.737C44.7804 142.737 44.7004 142.727 44.6804 142.697C44.6404 142.647 44.6504 142.588 44.7004 142.548C45.9004 141.799 47.4204 141.53 48.8804 141.809C48.9504 141.819 48.9904 141.879 48.9704 141.939C48.9504 141.999 48.8904 142.029 48.8204 142.019C47.4304 141.749 45.9904 141.999 44.8504 142.717C44.8304 142.727 44.8004 142.737 44.7704 142.737H44.7804Z" fill="white"/>
<path d="M24.1101 149.205L0.000112534 149.235L1.96013 141.5L6.7401 142.059C6.7401 142.059 8.21012 139.933 11.4401 139.005C21.1401 139.005 24.4401 144.803 25.4801 147.658C25.7601 148.426 25.0701 149.215 24.1001 149.215L24.1101 149.205Z" fill="#463E2C"/>
<path d="M6.35006 143.626C6.35006 143.626 6.35005 143.626 6.34005 143.626C6.27005 143.626 6.22 143.566 6.23 143.506C6.63 140.322 11.32 138.915 11.37 138.895C11.44 138.875 11.5101 138.895 11.5301 138.955C11.5501 139.015 11.52 139.075 11.45 139.095C11.4 139.105 6.87 140.472 6.48 143.526C6.48 143.576 6.42006 143.616 6.35006 143.616V143.626Z" fill="white"/>
<path d="M14.9697 139.335C15.0997 139.315 18.0996 138.796 18.6096 137.768C18.7496 137.489 18.6997 137.199 18.4697 136.91C18.0997 136.451 17.6796 136.391 17.3996 136.421C16.2996 136.55 15.2096 138.157 14.8196 139.195C14.8096 139.235 14.8197 139.265 14.8497 139.295C14.8697 139.315 14.9096 139.335 14.9396 139.335H14.9596H14.9697ZM18.2696 137.029C18.4496 137.259 18.4896 137.479 18.3896 137.688C17.9996 138.477 15.8396 138.956 15.1396 139.095C15.6196 137.958 16.6196 136.74 17.4396 136.64C17.4796 136.64 17.5097 136.64 17.5397 136.64C17.8097 136.64 18.0496 136.77 18.2596 137.039L18.2696 137.029Z" fill="white"/>
<path d="M15.0397 139.305C15.0397 139.305 15.0797 139.235 15.0697 139.205C15.0297 139.105 14.0997 136.66 12.8097 136.351C12.4697 136.261 12.1297 136.331 11.8097 136.56C11.2997 136.919 11.2697 137.269 11.3497 137.498C11.6197 138.396 13.6497 139.125 14.9297 139.345H14.9497C14.9897 139.345 15.0197 139.335 15.0397 139.305ZM12.7397 136.55C13.7197 136.79 14.5197 138.536 14.7597 139.095C13.3497 138.816 11.7997 138.117 11.5897 137.448C11.5097 137.189 11.6397 136.949 11.9697 136.72C12.1597 136.59 12.3397 136.53 12.5297 136.53C12.5997 136.53 12.6697 136.53 12.7397 136.56V136.55Z" fill="white"/>
<path d="M14.9503 142.808C14.9503 142.808 14.8603 142.788 14.8403 142.748C14.1703 141.63 14.1302 140.323 14.7302 139.185C14.7602 139.135 14.8303 139.105 14.9003 139.135C14.9603 139.155 14.9903 139.225 14.9703 139.275C14.4003 140.363 14.4403 141.6 15.0703 142.658C15.1003 142.708 15.0703 142.778 15.0103 142.798C14.9903 142.798 14.9703 142.808 14.9503 142.808Z" fill="white"/>
<path d="M13.5894 141.73C13.5894 141.73 13.5394 141.73 13.5194 141.71C13.4594 141.68 13.4494 141.61 13.4894 141.56C14.3594 140.542 15.7194 139.903 17.2194 139.814C17.2894 139.814 17.3494 139.854 17.3594 139.913C17.3594 139.973 17.3094 140.023 17.2394 140.023C15.8194 140.113 14.5294 140.712 13.6994 141.68C13.6794 141.71 13.6394 141.72 13.5994 141.72L13.5894 141.73Z" fill="white"/>
<path d="M18.2096 144.105C18.1496 144.105 18.0896 144.065 18.0796 144.015C17.8396 142.777 18.2696 141.53 19.2596 140.582C19.3096 140.542 19.3895 140.532 19.4395 140.572C19.4895 140.612 19.4996 140.681 19.4496 140.721C18.5096 141.62 18.1096 142.807 18.3296 143.975C18.3396 144.035 18.2896 144.085 18.2196 144.095C18.2196 144.095 18.2096 144.095 18.1996 144.095L18.2096 144.105Z" fill="white"/>
<path d="M17.29 142.737C17.29 142.737 17.21 142.727 17.19 142.697C17.15 142.647 17.16 142.588 17.22 142.548C18.42 141.799 19.94 141.53 21.4 141.809C21.47 141.819 21.51 141.879 21.49 141.939C21.47 141.999 21.41 142.029 21.34 142.019C19.95 141.749 18.51 141.999 17.37 142.717C17.35 142.727 17.32 142.737 17.29 142.737Z" fill="white"/>
<path d="M122.191 20.023L129.921 13.4561L132.071 20.1527L146.551 11.6597L131.341 22.7476L129.221 16.5L122.191 24.514V20.023Z" fill="white"/>
<path d="M122.191 31.0708L126.971 27.0089L128.311 31.1905L137.331 25.8911L127.851 32.8073L126.531 28.9151L122.191 33.8552V31.0708Z" fill="white"/>
<path d="M122.19 39.982V37.936L126.99 42.3373L123.78 43.8143L128.9 50.4611L122.45 43.6047L125.43 42.1676L122.19 39.982Z" fill="white"/>
<path d="M101.741 31.7387C102.181 32.9862 102.461 34.0341 102.461 34.0341C102.461 34.0341 102.031 33.0461 101.591 31.7986C101.151 30.5511 100.871 29.5032 100.871 29.5032C100.871 29.5032 101.301 30.4912 101.741 31.7387Z" fill="white"/>
<path d="M101.711 31.6996C102.721 32.5679 103.48 33.3264 103.48 33.3264C103.48 33.3264 102.611 32.6877 101.601 31.8194C100.591 30.9511 99.8305 30.1926 99.8305 30.1926C99.8305 30.1926 100.701 30.8314 101.711 31.6996Z" fill="white"/>
<path d="M101.67 31.6791C102.98 31.9286 104.021 32.2081 104.021 32.2081C104.021 32.2081 102.951 32.0883 101.641 31.8488C100.331 31.5993 99.2905 31.3198 99.2905 31.3198C99.2905 31.3198 100.36 31.4396 101.67 31.6791Z" fill="white"/>
<path d="M101.631 31.6894C102.881 31.2503 103.931 30.9708 103.931 30.9708C103.931 30.9708 102.941 31.4 101.691 31.8391C100.441 32.2782 99.3907 32.5577 99.3907 32.5577C99.3907 32.5577 100.381 32.1285 101.631 31.6894Z" fill="white"/>
<path d="M101.601 31.7091C102.471 30.7011 103.23 29.9426 103.23 29.9426C103.23 29.9426 102.591 30.8109 101.721 31.8189C100.851 32.8269 100.091 33.5854 100.091 33.5854C100.091 33.5854 100.731 32.7171 101.601 31.7091Z" fill="white"/>
<path d="M101.58 31.7489C101.83 30.4415 102.11 29.4036 102.11 29.4036C102.11 29.4036 101.99 30.4714 101.75 31.7788C101.51 33.0862 101.22 34.1242 101.22 34.1242C101.22 34.1242 101.34 33.0563 101.58 31.7489Z" fill="white"/>
<path d="M113.131 51.9293C113.131 51.9293 112.521 51.2507 111.691 50.4622C112.471 49.6339 113.051 48.9253 113.051 48.9253C113.051 48.9253 112.371 49.5341 111.581 50.3624C110.751 49.584 110.041 49.0051 110.041 49.0051C110.041 49.0051 110.651 49.6838 111.481 50.4722C110.701 51.3006 110.121 52.0091 110.121 52.0091C110.121 52.0091 110.801 51.4004 111.591 50.572C112.421 51.3505 113.131 51.9293 113.131 51.9293Z" fill="white"/>
<path d="M115.221 50.4422C115.221 50.4422 113.661 50.3324 111.711 50.3424C111.691 48.3962 111.571 46.8394 111.571 46.8394C111.571 46.8394 111.461 48.3962 111.471 50.3424C109.521 50.3623 107.961 50.4821 107.961 50.4821C107.961 50.4821 109.521 50.5919 111.471 50.5819C111.491 52.528 111.611 54.0849 111.611 54.0849C111.611 54.0849 111.721 52.528 111.711 50.5819C113.661 50.5619 115.221 50.4422 115.221 50.4422Z" fill="white"/>
<path d="M125.581 7.27769C125.581 7.27769 124.971 6.59904 124.141 5.81062C124.921 4.98227 125.501 4.27368 125.501 4.27368C125.501 4.27368 124.821 4.88247 124.031 5.71082C123.201 4.93237 122.491 4.35352 122.491 4.35352C122.491 4.35352 123.101 5.03217 123.931 5.8206C123.151 6.64895 122.571 7.35753 122.571 7.35753C122.571 7.35753 123.251 6.74875 124.041 5.9204C124.871 6.69885 125.581 7.27769 125.581 7.27769Z" fill="white"/>
<path d="M127.671 5.80057C127.671 5.80057 126.111 5.69079 124.161 5.70077C124.141 3.75465 124.021 2.19775 124.021 2.19775C124.021 2.19775 123.911 3.75465 123.921 5.70077C121.971 5.72073 120.411 5.84049 120.411 5.84049C120.411 5.84049 121.971 5.95027 123.921 5.94029C123.941 7.88641 124.061 9.44331 124.061 9.44331C124.061 9.44331 124.171 7.88641 124.161 5.94029C126.111 5.92033 127.671 5.80057 127.671 5.80057Z" fill="white"/>
</svg>
