<svg width="127" height="124" viewBox="0 0 127 124" fill="none" xmlns="http://www.w3.org/2000/svg">
<path d="M97.536 34.2959C97.536 37.5102 100.147 40.1093 103.375 40.1093C106.604 40.1093 109.215 37.5102 109.215 34.2959C109.215 31.0816 106.604 28.4824 103.375 28.4824C100.147 28.4824 97.536 31.0816 97.536 34.2959Z" fill="#6B6968"/>
<path d="M98.7719 34.2952C98.7719 36.825 100.835 38.8785 103.376 38.8785C105.917 38.8785 107.979 36.825 107.979 34.2952C107.979 31.7655 105.917 29.7119 103.376 29.7119C100.835 29.7119 98.7719 31.7655 98.7719 34.2952Z" fill="#3F3F3F"/>
<path d="M113.26 68.0446C113.26 68.0446 113.27 68.0446 113.28 68.0446C113.449 68.0347 113.569 67.8859 113.559 67.7272C111.646 41.7055 104.491 38.4019 104.192 38.273C104.043 38.2035 103.863 38.273 103.803 38.4317C103.744 38.5805 103.803 38.7591 103.963 38.8186C103.993 38.8384 105.766 39.6618 107.749 43.5904C109.593 47.2511 111.994 54.4138 112.981 67.7669C112.991 67.9256 113.121 68.0446 113.28 68.0446H113.26Z" fill="#C3C3F4"/>
<path d="M102.369 61.0998C102.498 61.0998 102.608 61.0204 102.658 60.8914C102.717 60.7129 102.767 60.5343 102.827 60.3557C104.152 56.0601 104.78 51.5066 104.7 46.834C104.581 39.711 103.873 38.5999 103.744 38.4511C103.634 38.332 103.445 38.3221 103.325 38.4312C103.206 38.5404 103.196 38.7189 103.295 38.838C103.345 38.9074 103.993 40.0284 104.112 46.8439C104.192 51.457 103.574 55.951 102.269 60.1871C102.219 60.3656 102.159 60.5442 102.099 60.7228C102.05 60.8815 102.139 61.0502 102.289 61.0998C102.319 61.0998 102.349 61.1097 102.378 61.1097L102.369 61.0998Z" fill="#FF4800"/>
<path d="M118.462 41.111C119.16 41.111 119.608 41.0813 119.678 41.0813C119.688 41.0813 119.708 41.0813 119.718 41.0813C126.663 39.5932 126.902 38.7797 126.982 38.5119C127.032 38.3234 126.972 38.1746 126.882 38.0952C126.763 37.9761 126.573 37.9861 126.464 38.0952C126.394 38.1746 126.364 38.2738 126.384 38.373C126.235 38.5515 125.308 39.2757 119.618 40.496C119.14 40.5257 110.899 40.9226 106.853 37.0535C106.733 36.9444 106.544 36.9444 106.434 37.0535C106.325 37.1726 106.325 37.3611 106.434 37.4702C109.852 40.7341 115.871 41.1011 118.452 41.1011L118.462 41.111Z" fill="#50A055"/>
<path d="M88.9562 34.7419C91.0887 34.7419 92.6831 34.5137 92.8325 34.484C99.4691 33.2141 100.077 32.0534 100.107 31.726C100.117 31.5574 99.9972 31.4185 99.8378 31.3987C99.6883 31.3888 99.5587 31.488 99.5189 31.6268C99.4691 31.7261 98.8114 32.728 92.7328 33.8987C92.6531 33.9086 83.3261 35.2578 79.1907 31.3094C79.0711 31.2003 78.8818 31.2003 78.7722 31.3094C78.6626 31.4284 78.6626 31.6169 78.7722 31.726C81.383 34.2161 85.7674 34.7221 88.9462 34.7221L88.9562 34.7419Z" fill="#50A055"/>
<path d="M60.7255 89.7705L27.2936 87.1317L32.0667 66.3778L61.6622 74.8202C67.1927 76.3976 71.0292 81.1496 70.1722 85.346C69.4548 88.8578 65.3891 90.7626 60.7255 89.7606V89.7705Z" fill="#2566B0"/>
<path d="M60.7255 89.7705L27.2936 87.1317L32.0667 66.3778L61.6622 74.8202C67.1927 76.3976 71.0292 81.1496 70.1722 85.346C69.4548 88.8578 65.3891 90.7626 60.7255 89.7606V89.7705Z" fill="black" fill-opacity="0.2"/>
<path d="M60.9145 116.635L70.1719 85.365L65.2691 79.8094L52.6138 87.1408L47.1332 116.635H60.9145Z" fill="#2566B0"/>
<path d="M60.9145 116.635L70.1719 85.365L65.2691 79.8094L52.6138 87.1408L47.1332 116.635H60.9145Z" fill="black" fill-opacity="0.2"/>
<path d="M71.7763 121.734L45.4293 121.774L47.5717 113.341L52.8032 113.946C52.8032 113.946 54.4076 111.625 57.9351 110.613C68.5377 110.613 72.145 116.933 73.281 120.038C73.5899 120.881 72.8325 121.734 71.7663 121.734H71.7763Z" fill="#463E2C"/>
<path d="M52.3749 115.653H52.3649C52.2852 115.653 52.2353 115.593 52.2453 115.524C52.6838 112.052 57.8057 110.514 57.8555 110.504C57.9253 110.484 58.005 110.514 58.0349 110.574C58.0648 110.633 58.025 110.703 57.9552 110.722C57.9054 110.732 52.9528 112.23 52.5244 115.554C52.5244 115.613 52.4546 115.653 52.3848 115.653H52.3749Z" fill="white"/>
<path d="M61.7913 110.98C61.9308 110.961 65.2092 110.395 65.7772 109.264C65.9267 108.967 65.8769 108.649 65.6278 108.332C65.2292 107.826 64.7708 107.766 64.4519 107.806C63.2561 107.945 62.0604 109.691 61.6319 110.832C61.6219 110.871 61.6319 110.911 61.6618 110.941C61.6917 110.961 61.7216 110.98 61.7614 110.98C61.7614 110.98 61.7813 110.98 61.7913 110.98ZM65.3886 108.461C65.5879 108.709 65.6278 108.947 65.5181 109.175C65.0897 110.028 62.728 110.554 61.9707 110.703C62.4888 109.463 63.585 108.133 64.4918 108.024C64.5317 108.024 64.5715 108.024 64.6014 108.024C64.9003 108.024 65.1594 108.163 65.3886 108.461Z" fill="white"/>
<path d="M61.8611 110.94C61.8611 110.94 61.9009 110.871 61.891 110.831C61.8511 110.722 60.8347 108.063 59.4197 107.716C59.041 107.627 58.6723 107.696 58.3236 107.944C57.7655 108.331 57.7356 108.718 57.8153 108.976C58.1143 109.958 60.3265 110.752 61.7315 110.99C61.7315 110.99 61.7515 110.99 61.7614 110.99C61.8013 110.99 61.8411 110.98 61.8611 110.95V110.94ZM59.34 107.934C60.4062 108.192 61.2831 110.097 61.5422 110.712C60.0076 110.414 58.3036 109.65 58.0844 108.916C57.9947 108.639 58.1342 108.371 58.5029 108.123C58.7022 107.984 58.9015 107.914 59.1108 107.914C59.1905 107.914 59.2702 107.914 59.34 107.944V107.934Z" fill="white"/>
<path d="M61.772 114.77C61.7221 114.77 61.6723 114.75 61.6524 114.71C60.925 113.49 60.8751 112.071 61.5328 110.821C61.5627 110.762 61.6424 110.732 61.7122 110.762C61.7819 110.791 61.8118 110.851 61.7819 110.91C61.1541 112.101 61.1941 113.44 61.8916 114.601C61.9215 114.66 61.8916 114.73 61.8318 114.76C61.8119 114.76 61.7919 114.77 61.772 114.77Z" fill="white"/>
<path d="M60.2771 113.589C60.2771 113.589 60.2174 113.589 60.1974 113.569C60.1376 113.53 60.1177 113.46 60.1675 113.411C61.1241 112.3 62.6089 111.605 64.2431 111.506C64.3229 111.506 64.3826 111.546 64.3926 111.615C64.3926 111.675 64.3427 111.734 64.263 111.734C62.7085 111.833 61.3035 112.488 60.3967 113.54C60.3668 113.569 60.3269 113.589 60.2871 113.589H60.2771Z" fill="white"/>
<path d="M65.3292 116.178C65.2595 116.178 65.1997 116.138 65.1898 116.078C64.9307 114.729 65.399 113.37 66.4752 112.338C66.525 112.289 66.6147 112.289 66.6745 112.328C66.7343 112.368 66.7343 112.447 66.6845 112.487C65.6581 113.459 65.2196 114.759 65.4588 116.039C65.4687 116.098 65.4189 116.158 65.3392 116.168C65.3392 116.168 65.3293 116.168 65.3193 116.168L65.3292 116.178Z" fill="white"/>
<path d="M64.3324 114.69C64.3324 114.69 64.2527 114.671 64.2228 114.641C64.173 114.591 64.1929 114.522 64.2527 114.482C65.5581 113.659 67.2322 113.371 68.8266 113.679C68.8963 113.688 68.9462 113.758 68.9262 113.817C68.9063 113.877 68.8365 113.917 68.7568 113.907C67.2421 113.609 65.6577 113.887 64.4121 114.671C64.3822 114.69 64.3623 114.69 64.3324 114.69Z" fill="white"/>
<path d="M31.1696 20.2566L30.1831 15.1277C30.1831 15.1277 27.5424 9.17533 30.9105 6.16939C34.2886 3.17338 45.0905 2.13172 45.9375 10.1079C44.1239 16.6951 31.1596 20.2467 31.1596 20.2467L31.1696 20.2566Z" fill="#4D2A40"/>
<path d="M55.2749 102.31C53.5211 106.764 48.3992 108.887 43.9947 106.973L19.4613 96.3278C12.9742 93.5798 9.31713 86.6651 10.7222 79.7901L16.5018 67.0918L52.9531 94.2345C55.4643 96.0996 56.4109 99.4031 55.265 102.31H55.2749Z" fill="#2566B0"/>
<path d="M55.2749 102.31C53.5211 106.764 48.3992 108.887 43.9947 106.973L19.4613 96.3278C12.9742 93.5798 9.31713 86.6651 10.7222 79.7901L16.5018 67.0918L52.9531 94.2345C55.4643 96.0996 56.4109 99.4031 55.265 102.31H55.2749Z" fill="black" fill-opacity="0.2"/>
<path d="M35.1853 38.6103C35.3348 38.8583 35.5142 39.1063 35.7135 39.3246L53.6601 59.2253C55.7229 61.5169 59.2006 61.755 61.3729 59.6915C63.5751 57.6082 63.5751 53.9872 61.4028 51.7054L52.6039 42.5091L50.4913 40.2968L42.5195 31.9635C40.6859 30.0488 37.6865 30.1679 35.853 32.1917C34.2487 33.9575 34.0095 36.6559 35.1853 38.6004V38.6103Z" fill="#FFB583"/>
<path d="M53.6705 59.2255L36.4811 40.8823C33.7209 37.6582 33.5913 33.2038 36.2021 30.9915C38.8129 28.7792 43.2073 29.6126 45.9676 32.8368L61.4131 51.7057L53.6705 59.2255Z" fill="#50A055"/>
<path d="M48.8281 71.3198C31.6089 68.3039 28.6394 87.4408 12.1177 76.7265C17.5884 71.7166 12.1177 43.8299 15.8645 30.9529C16.572 28.5323 20.7672 27.6296 23.6071 26.6375C23.6171 26.6375 23.6371 26.6375 23.647 26.6276C26.6365 25.5859 29.2173 25.0403 29.2173 25.0403C29.2173 25.0403 33.0538 26.3796 36.7508 27.818C37.2889 28.0264 37.8369 28.2446 38.3551 28.453C40.8363 29.4549 43.2279 30.2684 43.4472 30.943C48.3897 45.8537 48.8182 71.3198 48.8182 71.3198H48.8281Z" fill="#50A055"/>
<path d="M38.3554 28.4521C38.7441 31.0116 38.0366 33.5314 36.6017 34.8707C34.4592 36.8747 30.3338 35.5751 28.0219 32.1227C26.7464 30.218 26.1386 28.0156 26.2084 26.091C26.2482 26.0414 26.2781 26.0017 26.318 25.9521C26.3279 25.9521 26.3379 25.9521 26.3478 25.9422C28.7195 25.0493 30.7822 24.6426 30.7822 24.6426C30.7822 24.6426 33.951 26.1406 37.0202 27.7378C37.4686 27.9759 37.917 28.2041 38.3554 28.4422V28.4521Z" fill="#FF954D"/>
<path d="M71.1687 46.3187C70.2021 48.9079 70.1124 51.15 70.1523 52.3107C70.1523 52.3702 70.1722 52.4397 70.2021 52.4893L71.4377 54.8504C72.3744 56.646 74.6065 57.3503 76.4101 56.4178L80.1569 54.4833C80.2067 54.4535 80.2566 54.4139 80.2964 54.3642C80.426 54.1956 80.5455 54.0468 80.6452 53.9277C83.3457 50.6341 82.2396 50.267 82.2396 50.267C82.6083 49.2551 82.1399 48.8286 81.6516 48.65C81.4025 48.5607 81.3129 48.2631 81.4324 48.0349C81.5819 47.7571 81.6118 47.3603 81.2232 46.8444C80.9342 46.4675 80.4359 46.4476 80.1569 46.4675C80.2167 46.4575 80.2865 46.4377 80.3762 46.4079C80.4061 46.4079 80.416 46.3583 80.436 46.3385C81.263 45.2671 79.8978 43.898 78.8017 44.6818L74.1083 48.0349C73.7994 48.2532 73.3709 48.0647 73.331 47.6976C73.2812 47.2413 73.4008 46.5369 74.0485 45.4655C75.4037 43.2532 72.5737 42.5588 71.1587 46.3187H71.1687Z" fill="#FFB583"/>
<path d="M78.5531 51.4369C79.151 53.9269 77.6064 56.4269 75.1052 57.0221L58.5537 60.9606C56.0525 61.5558 53.5413 60.0182 52.9435 57.5281C52.3456 55.038 53.8901 52.538 56.3913 51.9428L73.0426 48.5301C75.5437 47.9349 77.9552 48.9369 78.5531 51.4269V51.4369Z" fill="#FFB583"/>
<path d="M32.9633 16.1191L28.5887 26.2579C27.5324 28.7083 28.6784 31.5654 31.1397 32.617C33.601 33.6686 36.4709 32.5277 37.5272 30.0773L41.9017 19.9385C42.958 17.4881 41.812 14.631 39.3507 13.5794C38.125 13.0536 36.7897 13.0735 35.6338 13.5397C34.4779 13.9961 33.4914 14.8988 32.9633 16.1191Z" fill="#FF954D"/>
<path d="M35.3149 19.9001L38.2247 28.4616L40.6162 22.9259L35.3149 19.9001Z" fill="#6A4A3F"/>
<path d="M44.7422 13.2633C44.8717 15.0887 44.9216 16.9141 44.8917 18.7395C44.8518 21.2196 45.2604 24.4041 43.5364 26.3387C42.5599 27.4299 37.0892 26.5073 35.4749 25.2176C31.9374 22.4002 31.7182 16.9141 33.482 13.2038C35.5546 8.82882 43.397 7.64827 44.7422 13.2633Z" fill="#FFAB6D"/>
<path d="M43.3767 16.6266C43.1376 17.1822 44.0145 17.5492 44.2536 17.0036C44.4928 16.458 43.6258 16.0612 43.3767 16.6266Z" fill="#4D2A40"/>
<path d="M39.4216 15.6442C39.1825 16.1998 40.0594 16.5668 40.2986 16.0212C40.5377 15.4756 39.6708 15.0787 39.4216 15.6442Z" fill="#4D2A40"/>
<path d="M37.3486 20.4366C37.3486 20.4366 37.3585 20.4961 37.3685 20.5358C37.5279 21.1112 38.3052 21.6469 39.1821 21.4584C39.3515 21.4187 39.5309 21.3592 39.7103 21.26C39.9693 21.1112 39.9893 20.754 39.7103 20.6449C39.3017 20.4862 38.8134 20.2084 38.6041 19.762C38.2254 18.9683 37.229 19.6528 37.3486 20.4465V20.4366Z" fill="#4D2A40"/>
<path d="M30.7515 15.1084C31.2298 18.0647 34.9965 17.4397 34.5281 14.5032C34.0698 11.6362 30.2632 12.0528 30.7515 15.1084Z" fill="#FFAB6D"/>
<path d="M32.715 15.9711C32.715 15.9711 32.7449 15.9711 32.7548 15.9711C32.8047 15.9711 32.8445 15.9314 32.8346 15.8818C32.8246 15.5544 32.5755 15.1873 32.2367 15.0088C31.9976 14.8798 31.8381 14.6516 31.7883 14.3937C31.7484 14.1556 31.8082 13.9175 31.9776 13.7389C32.4161 13.2528 33.1435 13.2826 33.1535 13.2826C33.2033 13.2826 33.2432 13.2528 33.2432 13.2032C33.2432 13.1536 33.2133 13.1139 33.1634 13.1139C33.1335 13.1139 32.3463 13.0742 31.8481 13.6199C31.6488 13.8381 31.5691 14.1357 31.6189 14.4234C31.6687 14.7409 31.868 15.0088 32.147 15.1576C32.426 15.3163 32.6452 15.6238 32.6552 15.8917C32.6552 15.9214 32.6751 15.9512 32.705 15.9711H32.715Z" fill="#4D2A40"/>
<path d="M41.6831 20.1866C42.0518 20.2659 43.0583 20.4247 43.2974 19.7005C43.5067 19.0457 42.9287 18.6092 42.5401 18.4405L42.5601 16.4167C42.5601 16.3572 42.5102 16.3076 42.4505 16.3076C42.3907 16.3076 42.3408 16.3572 42.3408 16.4167L42.3209 18.5199C42.3209 18.5199 42.3508 18.6092 42.3907 18.629C42.4305 18.639 43.3074 18.9663 43.0882 19.631C42.8689 20.3056 41.6333 19.9386 41.6234 19.9386C41.5636 19.9187 41.5038 19.9584 41.4838 20.0179C41.4639 20.0774 41.5038 20.137 41.5636 20.1568C41.5735 20.1568 41.6234 20.1766 41.6931 20.1866H41.6831Z" fill="#4D2A40"/>
<path d="M38.7039 17.8069C38.4946 18.2632 37.9565 18.4716 37.4882 18.2731C37.0298 18.0648 36.8205 17.5291 37.0198 17.0628C37.2291 16.6065 37.7672 16.3981 38.2355 16.5966C38.6939 16.8049 38.9032 17.3406 38.7039 17.8069Z" fill="#FF954D"/>
<path d="M38.0757 26.418C38.1355 26.418 38.1853 26.3684 38.1953 26.3089C38.1953 26.2394 38.1555 26.1898 38.0857 26.1799C38.0359 26.1799 33.5816 25.7335 32.5253 19.7811C32.5154 19.7216 32.4556 19.672 32.3858 19.6819C32.316 19.6919 32.2762 19.7514 32.2862 19.8208C33.3823 25.9617 38.0159 26.4081 38.0658 26.418C38.0658 26.418 38.0658 26.418 38.0757 26.418Z" fill="#4D2A40"/>
<path d="M45.8186 14.8008C45.8186 14.8008 41.0155 11.775 36.053 13.4417C34.8771 14.146 34.6679 16.3385 34.6679 16.3385L33.3724 15.9714L33.5917 12.7175C33.5917 12.7175 33.5917 4.89011 40.9557 6.06074C48.7183 7.2909 45.8086 14.8107 45.8086 14.8107L45.8186 14.8008Z" fill="#4D2A40"/>
<path d="M75.2644 44.2048C75.2345 44.3139 73.6601 47.3893 73.6202 47.4588C73.5804 47.5282 72.5839 47.9746 72.5839 47.9746L71.7867 47.4092L71.9362 46.2584L74.5071 43.6592L75.2744 44.1949L75.2644 44.2048Z" fill="#6B6968"/>
<path d="M72.2487 46.4558L73.3135 47.2078L62.1056 62.9378L61.0409 62.1858L72.2487 46.4558Z" fill="#6B6968"/>
<path d="M66.127 57.9449C66.0074 58.2822 60.5566 68.1731 60.4071 68.3913C60.2576 68.6096 57.318 70.306 57.318 70.306L55.2752 68.8576L56.0724 65.3259L64.1639 56.5461L66.127 57.935V57.9449Z" fill="#2566B0"/>
<path d="M66.127 57.9449C66.0074 58.2822 60.5566 68.1731 60.4071 68.3913C60.2576 68.6096 57.318 70.306 57.318 70.306L55.2752 68.8576L56.0724 65.3259L64.1639 56.5461L66.127 57.935V57.9449Z" fill="black" fill-opacity="0.2"/>
<path d="M16.4916 115.495L48.1997 107.35L50.4717 100.316L37.6669 93.2725L4.9324 106.933L16.4916 115.495Z" fill="#2566B0"/>
<path d="M16.4916 115.495L48.1997 107.35L50.4717 100.316L37.6669 93.2725L4.9324 106.933L16.4916 115.495Z" fill="black" fill-opacity="0.2"/>
<path d="M24.7321 123.143L-0.000572205 114.105L4.94201 106.933L9.63546 109.304C9.63546 109.304 11.9473 107.677 15.6144 107.945C25.5593 111.596 26.755 118.768 26.7451 122.072C26.7451 122.965 25.7286 123.5 24.7421 123.143H24.7321Z" fill="#463E2C"/>
<path d="M8.6291 110.753C8.6291 110.753 8.62909 110.753 8.61912 110.753C8.54937 110.723 8.51947 110.644 8.54936 110.594C10.1736 107.489 15.5048 107.807 15.5646 107.816C15.6443 107.816 15.7041 107.876 15.7041 107.945C15.7041 108.015 15.6443 108.055 15.5746 108.055C15.5247 108.055 10.353 107.737 8.79848 110.723C8.76859 110.773 8.69885 110.793 8.6291 110.773V110.753Z" fill="white"/>
<path d="M19.0923 109.602C19.2318 109.632 22.5003 110.227 23.427 109.364C23.6761 109.136 23.7359 108.818 23.6064 108.441C23.4071 107.826 22.9985 107.618 22.6896 107.538C21.5138 107.261 19.7898 108.491 18.9927 109.403C18.9628 109.433 18.9628 109.483 18.9827 109.522C19.0027 109.552 19.0325 109.582 19.0624 109.592C19.0624 109.592 19.0824 109.592 19.0923 109.592V109.602ZM23.3473 108.481C23.4469 108.788 23.4071 109.017 23.2178 109.195C22.5203 109.85 20.1187 109.532 19.3613 109.413C20.2881 108.431 21.7629 107.558 22.6498 107.767C22.6896 107.767 22.7195 107.786 22.7594 107.796C23.0384 107.896 23.2377 108.124 23.3473 108.481Z" fill="white"/>
<path d="M19.1724 109.601C19.1724 109.601 19.2422 109.551 19.2422 109.502C19.2422 109.383 19.2123 106.536 18.0066 105.732C17.6877 105.514 17.309 105.454 16.9005 105.563C16.2428 105.732 16.0833 106.089 16.0634 106.357C16.0036 107.379 17.7973 108.887 19.033 109.591C19.033 109.591 19.0529 109.591 19.0529 109.601C19.0927 109.611 19.1326 109.611 19.1625 109.601H19.1724ZM17.8571 105.911C18.7639 106.526 18.9333 108.609 18.9632 109.274C17.6279 108.46 16.2926 107.161 16.3424 106.397C16.3624 106.099 16.5816 105.901 17.0101 105.791C17.2492 105.732 17.4585 105.732 17.6578 105.801C17.7276 105.831 17.7973 105.861 17.867 105.911H17.8571Z" fill="white"/>
<path d="M17.7472 113.153C17.7472 113.153 17.6576 113.093 17.6576 113.053C17.3985 111.655 17.8469 110.315 18.9032 109.363C18.953 109.323 19.0427 109.323 19.0925 109.363C19.1523 109.413 19.1523 109.482 19.1025 109.532C18.106 110.434 17.6774 111.704 17.9266 113.034C17.9365 113.103 17.8867 113.153 17.817 113.153C17.797 113.153 17.7771 113.153 17.7572 113.153H17.7472Z" fill="white"/>
<path d="M16.7602 111.537C16.7602 111.537 16.7104 111.507 16.6904 111.487C16.6406 111.427 16.6606 111.358 16.7204 111.328C18.0058 110.614 19.6401 110.475 21.2045 110.941C21.2743 110.961 21.3241 111.031 21.3042 111.09C21.2842 111.15 21.2145 111.179 21.1448 111.16C19.66 110.713 18.1055 110.852 16.8898 111.527C16.8499 111.546 16.81 111.546 16.7702 111.527L16.7602 111.537Z" fill="white"/>
<path d="M20.5972 115.712C20.5374 115.693 20.4975 115.633 20.5075 115.573C20.7367 114.224 21.6435 113.103 23.0087 112.508C23.0685 112.478 23.1582 112.508 23.198 112.568C23.2379 112.627 23.2179 112.697 23.1581 112.726C21.8627 113.292 20.9958 114.353 20.7766 115.633C20.7666 115.693 20.6968 115.732 20.6271 115.712C20.6271 115.712 20.6171 115.712 20.6071 115.712H20.5972Z" fill="white"/>
<path d="M20.1884 113.958C20.1884 113.958 20.1187 113.918 20.0988 113.878C20.0689 113.819 20.1087 113.75 20.1785 113.74C21.6931 113.422 23.3573 113.72 24.7424 114.563C24.8121 114.603 24.832 114.672 24.7922 114.732C24.7523 114.781 24.6726 114.791 24.6028 114.752C23.2875 113.948 21.7031 113.67 20.2682 113.968C20.2383 113.968 20.2084 113.968 20.1785 113.968L20.1884 113.958Z" fill="white"/>
<path d="M25.5695 113.262H25.5894C25.8286 113.202 49.6645 107.23 53.0824 105.603C54.6768 104.849 55.743 103.212 55.9423 101.228C56.2313 98.3313 54.6269 95.3551 51.5578 93.0635C45.4693 88.5298 34.7272 79.8195 34.6275 79.7302C34.5877 79.7004 34.518 79.7004 34.4881 79.7401C34.4582 79.7798 34.4581 79.8493 34.498 79.879C34.6076 79.9683 45.3497 88.6786 51.4382 93.2123C54.4575 95.4642 56.032 98.371 55.743 101.198C55.5537 103.113 54.5273 104.68 53.0027 105.405C49.5947 107.022 25.7788 112.994 25.5396 113.053C25.4898 113.063 25.4499 113.123 25.4698 113.173C25.4798 113.222 25.5197 113.252 25.5695 113.252V113.262Z" fill="#463E2C"/>
<path d="M10.7322 79.7807L14.6185 62.2709C14.6185 62.2709 23.2879 51.6558 26.7357 41.0309C36.1226 39.7809 43.3371 41.0309 43.3371 41.0309L49.1865 58.2629L48.8377 71.3284L43.8155 76.6557H35.2457L25.5699 83.4612L10.7322 79.7906V79.7807Z" fill="#2566B0"/>
<path d="M10.7322 79.7807L14.6185 62.2709C14.6185 62.2709 23.2879 51.6558 26.7357 41.0309C36.1226 39.7809 43.3371 41.0309 43.3371 41.0309L49.1865 58.2629L48.8377 71.3284L43.8155 76.6557H35.2457L25.5699 83.4612L10.7322 79.7906V79.7807Z" fill="black" fill-opacity="0.2"/>
<path d="M44.9111 30.2367V50.9707L41.4733 50.2465L40.3373 28.4609L44.9111 30.2367Z" fill="#2566B0"/>
<path d="M44.9111 30.2367V50.9707L41.4733 50.2465L40.3373 28.4609L44.9111 30.2367Z" fill="black" fill-opacity="0.2"/>
<path d="M23.6466 26.626L32.2861 50.9711L27.7023 53.3223L18.8934 28.4514C18.8934 28.4514 20.0194 27.866 23.6466 26.626Z" fill="#2566B0"/>
<path d="M23.6466 26.626L32.2861 50.9711L27.7023 53.3223L18.8934 28.4514C18.8934 28.4514 20.0194 27.866 23.6466 26.626Z" fill="black" fill-opacity="0.2"/>
<path d="M35.8736 50.5646L42.8589 54.8801L54.8167 59.0169C54.8167 59.0169 54.8466 59.0169 54.8665 59.0169C55.1356 58.8781 57.7962 57.5884 61.6227 57.6578C65.6585 57.7372 65.9275 60.634 63.3765 60.0884C61.1544 59.6122 60.6063 60.4157 60.5067 60.6241C60.4967 60.6538 60.5066 60.6836 60.5265 60.7034L65.6784 64.2947C66.7845 65.0685 65.9275 66.8046 64.642 66.378C64.6121 66.3681 64.5823 66.3582 64.5524 66.3483C64.3431 66.2689 64.1438 66.1994 63.9544 66.13C64.4228 66.4673 64.6919 66.8641 64.4129 67.2907C63.8449 68.1439 62.37 67.509 61.5928 67.1022C62.2305 67.5189 63.0875 68.2828 61.5629 68.6994C61.5629 68.6994 61.5529 68.6994 61.543 68.6994C61.254 68.6994 60.975 68.6697 60.7159 68.6201C60.6262 69.007 60.1778 69.4534 58.4041 69.0268C57.3279 68.7689 51.9767 67.1717 45.8583 65.3165L45.2605 65.1379C40.7564 63.7788 35.2956 62.5387 28.2903 57.757L35.8736 50.5547V50.5646Z" fill="#FF954D"/>
<path d="M28.5593 58.898L21.8431 50.8425C17.9667 46.1897 15.8542 40.3465 15.8542 34.3048V30.9616C18.3554 26.8247 22.0622 29.1461 24.2844 32.5985L38.7334 51.1996L28.5494 58.898H28.5593Z" fill="#50A055"/>
<path d="M38.4648 10.6621L33.6718 13.8466L28.0217 15.3645L27.4736 12.0708L38.4648 10.6621Z" fill="#C2BDB7"/>
<path d="M49.9441 10.1374L39.4811 11.1295L35.5251 11.9926L33.6417 13.1533L28.7988 13.8576L26.8058 12.6771L27.0151 11.6255C27.0151 11.6255 28.0116 11.0997 28.0116 10.8815C28.0116 10.6632 28.1212 2.58785 34.4887 0.960877C40.8563 -0.666099 45.1312 2.10174 46.5561 7.74655L46.875 9.10568C46.875 9.10568 51.0403 8.7783 49.9342 10.1275L49.9441 10.1374Z" fill="#50A055"/>
<path d="M45.3108 4.99792C45.3108 4.99792 46.5165 7.17052 46.666 9.01575L35.2463 10.8213L28.6097 11.0396V10.1368L35.2065 9.91853C35.2065 9.91853 43.2581 9.23401 45.3108 4.99792Z" fill="#50A055"/>
<path d="M71.817 56.4122L79.3027 39.207L87.4591 42.7243L79.9734 59.9295L71.817 56.4122Z" fill="#9A99CE"/>
<path d="M79.9979 48.7769C81.9012 49.6003 84.1133 48.7273 84.9404 46.8325C85.7675 44.9376 84.8906 42.7353 82.9873 41.9118C81.084 41.0884 78.8718 41.9615 78.0448 43.8563C77.2177 45.7511 78.0946 47.9535 79.9979 48.7769Z" fill="#C3C3F4"/>
<path d="M80.7356 47.0805C81.7022 47.4972 82.8182 47.0507 83.2268 46.0984C83.6453 45.1361 83.1969 44.025 82.2403 43.6182C81.2737 43.2016 80.1576 43.648 79.7491 44.6004C79.3305 45.5627 79.779 46.6738 80.7356 47.0805Z" fill="#AAAAE5"/>
<path d="M76.2908 57.2795C78.1941 58.1029 80.4063 57.2298 81.2334 55.335C82.0605 53.4402 81.1835 51.2378 79.2802 50.4144C77.377 49.591 75.1648 50.464 74.3377 52.3588C73.5106 54.2537 74.3875 56.456 76.2908 57.2795Z" fill="#C3C3F4"/>
<path d="M77.0286 55.5824C77.9951 55.9991 79.1112 55.5527 79.5198 54.6003C79.9383 53.638 79.4898 52.5269 78.5332 52.1202C77.5666 51.7035 76.4505 52.1499 76.042 53.1023C75.6235 54.0646 76.0719 55.1757 77.0286 55.5824Z" fill="#AAAAE5"/>
<path d="M81.6817 44.899C81.8411 44.9684 82.0204 44.899 82.0902 44.7403C82.1599 44.5815 82.0902 44.403 81.9308 44.3335C81.7713 44.2641 81.5919 44.3335 81.5222 44.4922C81.4524 44.651 81.5222 44.8296 81.6817 44.899Z" fill="#6B6968"/>
<path d="M81.0341 46.3775C81.1936 46.4469 81.373 46.3775 81.4427 46.2188C81.5125 46.06 81.4427 45.8815 81.2833 45.812C81.1238 45.7426 80.9445 45.812 80.8747 45.9707C80.805 46.1295 80.8747 46.3081 81.0341 46.3775Z" fill="#6B6968"/>
<path d="M77.9853 53.3902C78.1448 53.4596 78.3242 53.3902 78.3939 53.2315C78.4637 53.0727 78.3939 52.8942 78.2344 52.8247C78.075 52.7553 77.8957 52.8247 77.8259 52.9835C77.7562 53.1422 77.8259 53.3208 77.9853 53.3902Z" fill="#6B6968"/>
<path d="M77.3272 54.9079C77.4866 54.9773 77.6659 54.9079 77.7357 54.7492C77.8055 54.5904 77.7357 54.4119 77.5763 54.3424C77.4168 54.273 77.2374 54.3424 77.1677 54.5012C77.0979 54.6599 77.1677 54.8385 77.3272 54.9079Z" fill="#6B6968"/>
</svg>
