<svg width="55" height="35" viewBox="0 0 55 35" fill="none" xmlns="http://www.w3.org/2000/svg">
<path d="M1.13282 0.00232632C0.822025 0.0311032 0.533431 0.173079 0.323799 0.40033C0.114166 0.627582 -0.00133444 0.923664 1.16344e-05 1.23035V28.2469C4.47805e-05 28.5725 0.131751 28.8849 0.366165 29.1152C0.600578 29.3454 0.918501 29.4748 1.25001 29.4749H5.1172C5.7078 32.6108 8.51835 35.001 11.875 35.001C15.2317 35.001 18.0422 32.6108 18.6328 29.4749H38.2422C38.8328 32.6108 41.6433 35.001 45 35.001C48.3567 35.001 51.1672 32.6108 51.7578 29.4749H53.75C54.0815 29.4748 54.3994 29.3454 54.6338 29.1152C54.8683 28.8849 55 28.5725 55 28.2469V14.4124C54.9987 14.1576 54.9168 13.9095 54.7656 13.7025L49.1406 6.0465C49.0255 5.88695 48.8733 5.7567 48.6967 5.66659C48.52 5.57648 48.324 5.52911 48.125 5.52843H38.75V1.23035C38.75 0.904667 38.6183 0.592334 38.3839 0.362042C38.1494 0.131751 37.8315 0.00235888 37.5 0.00232632H1.25001C1.21097 0.000526645 1.17186 0.000526645 1.13282 0.00232632ZM2.50001 2.45837H36.25V27.0188H18.6328C18.0422 23.8829 15.2317 21.4927 11.875 21.4927C8.51835 21.4927 5.7078 23.8829 5.1172 27.0188H2.50001V2.45837ZM9.88282 4.91442C9.71865 4.92195 9.55759 4.96117 9.40885 5.02986C9.26011 5.09854 9.12659 5.19534 9.01593 5.31472C8.90528 5.4341 8.81964 5.57373 8.76392 5.72563C8.70819 5.87753 8.68347 6.03873 8.69117 6.20002C8.69886 6.3613 8.73882 6.51952 8.80877 6.66563C8.87871 6.81175 8.97727 6.94289 9.09881 7.05158C9.22035 7.16027 9.36249 7.24437 9.51712 7.29909C9.67175 7.3538 9.83584 7.37806 10 7.37046H32.5C32.6656 7.37276 32.8301 7.3427 32.9838 7.28202C33.1375 7.22134 33.2774 7.13125 33.3954 7.01699C33.5133 6.90273 33.607 6.76657 33.671 6.61644C33.7349 6.46631 33.7678 6.30518 33.7678 6.14244C33.7678 5.9797 33.7349 5.81857 33.671 5.66844C33.607 5.51831 33.5133 5.38215 33.3954 5.26789C33.2774 5.15363 33.1375 5.06354 32.9838 5.00286C32.8301 4.94218 32.6656 4.91212 32.5 4.91442H10C9.96097 4.91262 9.92186 4.91262 9.88282 4.91442ZM38.75 7.98447H41.875V15.9666C41.875 16.2923 42.0067 16.6046 42.2412 16.8349C42.4756 17.0652 42.7935 17.1946 43.125 17.1946H52.5V19.0367H49.375C49.336 19.0349 49.2969 19.0349 49.2578 19.0367C48.947 19.0655 48.6584 19.2074 48.4488 19.4347C48.2392 19.6619 48.1237 19.958 48.125 20.2647V22.2602C47.1832 21.7821 46.1283 21.4927 45 21.4927C42.2264 21.4927 39.8343 23.1278 38.75 25.4646V7.98447ZM44.375 7.98447H47.4805L52.4609 14.7386H44.375V7.98447ZM17.3828 9.82651C17.2186 9.83404 17.0576 9.87326 16.9088 9.94195C16.7601 10.0106 16.6266 10.1074 16.5159 10.2268C16.4053 10.3462 16.3196 10.4858 16.2639 10.6377C16.2082 10.7896 16.1835 10.9508 16.1912 11.1121C16.1989 11.2734 16.2388 11.4316 16.3088 11.5777C16.3787 11.7238 16.4773 11.855 16.5988 11.9637C16.7203 12.0724 16.8625 12.1565 17.0171 12.2112C17.1718 12.2659 17.3358 12.2901 17.5 12.2826H32.5C32.6656 12.2849 32.8301 12.2548 32.9838 12.1941C33.1375 12.1334 33.2774 12.0433 33.3954 11.9291C33.5133 11.8148 33.607 11.6787 33.671 11.5285C33.7349 11.3784 33.7678 11.2173 33.7678 11.0545C33.7678 10.8918 33.7349 10.7307 33.671 10.5805C33.607 10.4304 33.5133 10.2942 33.3954 10.18C33.2774 10.0657 33.1375 9.97563 32.9838 9.91495C32.8301 9.85427 32.6656 9.82421 32.5 9.82651H17.5C17.461 9.82471 17.4219 9.82471 17.3828 9.82651ZM50.625 21.4927H52.5V22.7207H50.625V21.4927ZM11.875 23.9488C14.3061 23.9488 16.25 25.8585 16.25 28.2469C16.25 30.6352 14.3061 32.5449 11.875 32.5449C9.44396 32.5449 7.50001 30.6352 7.50001 28.2469C7.50001 25.8585 9.44396 23.9488 11.875 23.9488ZM45 23.9488C47.431 23.9488 49.375 25.8585 49.375 28.2469C49.375 30.6352 47.431 32.5449 45 32.5449C42.569 32.5449 40.625 30.6352 40.625 28.2469C40.625 25.8585 42.569 23.9488 45 23.9488ZM51.0938 25.1768H52.5V27.0188H51.7578C51.6341 26.3622 51.3969 25.7531 51.0938 25.1768ZM11.875 26.4048C10.8395 26.4048 10 27.2295 10 28.2469C10 29.2642 10.8395 30.0889 11.875 30.0889C12.9105 30.0889 13.75 29.2642 13.75 28.2469C13.75 27.2295 12.9105 26.4048 11.875 26.4048ZM45 26.4048C43.9645 26.4048 43.125 27.2295 43.125 28.2469C43.125 29.2642 43.9645 30.0889 45 30.0889C46.0355 30.0889 46.875 29.2642 46.875 28.2469C46.875 27.2295 46.0355 26.4048 45 26.4048Z" fill="#2566B0"/>
<path d="M1.13282 0.00232632C0.822025 0.0311032 0.533431 0.173079 0.323799 0.40033C0.114166 0.627582 -0.00133444 0.923664 1.16344e-05 1.23035V28.2469C4.47805e-05 28.5725 0.131751 28.8849 0.366165 29.1152C0.600578 29.3454 0.918501 29.4748 1.25001 29.4749H5.1172C5.7078 32.6108 8.51835 35.001 11.875 35.001C15.2317 35.001 18.0422 32.6108 18.6328 29.4749H38.2422C38.8328 32.6108 41.6433 35.001 45 35.001C48.3567 35.001 51.1672 32.6108 51.7578 29.4749H53.75C54.0815 29.4748 54.3994 29.3454 54.6338 29.1152C54.8683 28.8849 55 28.5725 55 28.2469V14.4124C54.9987 14.1576 54.9168 13.9095 54.7656 13.7025L49.1406 6.0465C49.0255 5.88695 48.8733 5.7567 48.6967 5.66659C48.52 5.57648 48.324 5.52911 48.125 5.52843H38.75V1.23035C38.75 0.904667 38.6183 0.592334 38.3839 0.362042C38.1494 0.131751 37.8315 0.00235888 37.5 0.00232632H1.25001C1.21097 0.000526645 1.17186 0.000526645 1.13282 0.00232632ZM2.50001 2.45837H36.25V27.0188H18.6328C18.0422 23.8829 15.2317 21.4927 11.875 21.4927C8.51835 21.4927 5.7078 23.8829 5.1172 27.0188H2.50001V2.45837ZM9.88282 4.91442C9.71865 4.92195 9.55759 4.96117 9.40885 5.02986C9.26011 5.09854 9.12659 5.19534 9.01593 5.31472C8.90528 5.4341 8.81964 5.57373 8.76392 5.72563C8.70819 5.87753 8.68347 6.03873 8.69117 6.20002C8.69886 6.3613 8.73882 6.51952 8.80877 6.66563C8.87871 6.81175 8.97727 6.94289 9.09881 7.05158C9.22035 7.16027 9.36249 7.24437 9.51712 7.29909C9.67175 7.3538 9.83584 7.37806 10 7.37046H32.5C32.6656 7.37276 32.8301 7.3427 32.9838 7.28202C33.1375 7.22134 33.2774 7.13125 33.3954 7.01699C33.5133 6.90273 33.607 6.76657 33.671 6.61644C33.7349 6.46631 33.7678 6.30518 33.7678 6.14244C33.7678 5.9797 33.7349 5.81857 33.671 5.66844C33.607 5.51831 33.5133 5.38215 33.3954 5.26789C33.2774 5.15363 33.1375 5.06354 32.9838 5.00286C32.8301 4.94218 32.6656 4.91212 32.5 4.91442H10C9.96097 4.91262 9.92186 4.91262 9.88282 4.91442ZM38.75 7.98447H41.875V15.9666C41.875 16.2923 42.0067 16.6046 42.2412 16.8349C42.4756 17.0652 42.7935 17.1946 43.125 17.1946H52.5V19.0367H49.375C49.336 19.0349 49.2969 19.0349 49.2578 19.0367C48.947 19.0655 48.6584 19.2074 48.4488 19.4347C48.2392 19.6619 48.1237 19.958 48.125 20.2647V22.2602C47.1832 21.7821 46.1283 21.4927 45 21.4927C42.2264 21.4927 39.8343 23.1278 38.75 25.4646V7.98447ZM44.375 7.98447H47.4805L52.4609 14.7386H44.375V7.98447ZM17.3828 9.82651C17.2186 9.83404 17.0576 9.87326 16.9088 9.94195C16.7601 10.0106 16.6266 10.1074 16.5159 10.2268C16.4053 10.3462 16.3196 10.4858 16.2639 10.6377C16.2082 10.7896 16.1835 10.9508 16.1912 11.1121C16.1989 11.2734 16.2388 11.4316 16.3088 11.5777C16.3787 11.7238 16.4773 11.855 16.5988 11.9637C16.7203 12.0724 16.8625 12.1565 17.0171 12.2112C17.1718 12.2659 17.3358 12.2901 17.5 12.2826H32.5C32.6656 12.2849 32.8301 12.2548 32.9838 12.1941C33.1375 12.1334 33.2774 12.0433 33.3954 11.9291C33.5133 11.8148 33.607 11.6787 33.671 11.5285C33.7349 11.3784 33.7678 11.2173 33.7678 11.0545C33.7678 10.8918 33.7349 10.7307 33.671 10.5805C33.607 10.4304 33.5133 10.2942 33.3954 10.18C33.2774 10.0657 33.1375 9.97563 32.9838 9.91495C32.8301 9.85427 32.6656 9.82421 32.5 9.82651H17.5C17.461 9.82471 17.4219 9.82471 17.3828 9.82651ZM50.625 21.4927H52.5V22.7207H50.625V21.4927ZM11.875 23.9488C14.3061 23.9488 16.25 25.8585 16.25 28.2469C16.25 30.6352 14.3061 32.5449 11.875 32.5449C9.44396 32.5449 7.50001 30.6352 7.50001 28.2469C7.50001 25.8585 9.44396 23.9488 11.875 23.9488ZM45 23.9488C47.431 23.9488 49.375 25.8585 49.375 28.2469C49.375 30.6352 47.431 32.5449 45 32.5449C42.569 32.5449 40.625 30.6352 40.625 28.2469C40.625 25.8585 42.569 23.9488 45 23.9488ZM51.0938 25.1768H52.5V27.0188H51.7578C51.6341 26.3622 51.3969 25.7531 51.0938 25.1768ZM11.875 26.4048C10.8395 26.4048 10 27.2295 10 28.2469C10 29.2642 10.8395 30.0889 11.875 30.0889C12.9105 30.0889 13.75 29.2642 13.75 28.2469C13.75 27.2295 12.9105 26.4048 11.875 26.4048ZM45 26.4048C43.9645 26.4048 43.125 27.2295 43.125 28.2469C43.125 29.2642 43.9645 30.0889 45 30.0889C46.0355 30.0889 46.875 29.2642 46.875 28.2469C46.875 27.2295 46.0355 26.4048 45 26.4048Z" fill="black" fill-opacity="0.2"/>
</svg>
