<svg width="39" height="45" viewBox="0 0 39 45" fill="none" xmlns="http://www.w3.org/2000/svg">
<path d="M25.6671 13.4988C27.4487 13.4988 28.8929 12.0947 28.8929 10.3627C28.8929 8.63065 27.4487 7.22656 25.6671 7.22656C23.8856 7.22656 22.4414 8.63065 22.4414 10.3627C22.4414 12.0947 23.8856 13.4988 25.6671 13.4988Z" fill="#2566B0"/>
<path d="M25.6671 13.4988C27.4487 13.4988 28.8929 12.0947 28.8929 10.3627C28.8929 8.63065 27.4487 7.22656 25.6671 7.22656C23.8856 7.22656 22.4414 8.63065 22.4414 10.3627C22.4414 12.0947 23.8856 13.4988 25.6671 13.4988Z" fill="black" fill-opacity="0.2"/>
<path d="M7.42129 30.2489C7.69011 30.2489 7.95892 30.1593 8.22773 30.0697C8.58614 29.8905 8.76535 29.5321 8.85495 29.1737L9.30297 27.0232L11.3639 27.74C11.8119 27.9192 12.2599 27.8296 12.6183 27.5608C12.9767 27.292 13.2455 26.9336 13.2455 26.4856L13.4247 24.6039L14.948 25.4103C15.3064 25.5895 15.7544 25.6791 16.2025 25.4999C16.6505 25.3207 16.9193 24.9623 17.0089 24.6039L17.5465 22.6326H17.6361C18.0841 23.1702 18.5321 23.7078 18.9802 24.1559L18.2633 24.6039C17.6361 24.9623 17.4569 25.6791 17.7257 26.396L18.7114 28.9049L16.4713 36.0731C16.3817 36.5212 16.3817 36.9692 16.6505 37.3276L20.593 43.4206C20.8618 43.8687 21.3099 44.0479 21.8475 44.0479C22.1163 44.0479 22.2955 43.9583 22.5643 43.8687L27.9405 40.9117C28.2989 40.7325 28.5678 40.3741 28.6574 40.0157C28.747 39.6573 28.6574 39.2093 28.4782 38.8509L27.3133 37.0588L29.195 36.2524C29.643 36.0731 29.9118 35.7147 30.0014 35.2667C30.091 34.8187 30.0014 34.3707 29.7326 34.0123L28.6574 32.5786L30.1806 32.2202C30.6286 32.1306 30.9871 31.7722 31.1663 31.4138C31.3455 30.9657 31.3455 30.5177 31.0767 30.1593L30.091 28.3672L30.539 26.396C31.4351 26.1271 32.8687 25.5895 34.3024 24.6935C36.7217 23.0806 38.2449 20.8405 38.7826 18.242C39.3202 15.6435 38.6034 12.8658 36.9905 10.3569C36.4529 9.55047 35.8256 8.83364 35.1088 8.20641C34.84 7.39998 34.392 6.59355 33.8544 5.87672C32.0623 3.36782 29.3742 1.66535 26.3277 1.12772C20.0554 0.0524806 14.052 4.08464 12.8871 10.0881C12.8871 10.0881 12.8871 10.0881 12.8871 10.1777C12.7975 10.8945 12.7079 11.6114 12.7975 12.2386L11.9015 12.0594C11.2743 11.9698 10.647 12.3282 10.3782 12.8658L9.30297 15.2851L2.31389 19.1381C1.95547 19.3173 1.68666 19.6757 1.59706 20.1237L0.0737955 27.1128C-0.105412 27.9192 0.43221 28.636 1.14904 28.8153L7.24209 30.1593C7.24209 30.2489 7.33169 30.2489 7.42129 30.2489ZM35.6464 13.941C36.0945 15.1059 36.1841 16.4499 36.0049 17.6148C35.6464 19.4069 34.5712 21.0197 32.7791 22.1846C30.8975 23.3494 29.1054 23.7078 29.1054 23.7078C28.5678 23.7974 28.1197 24.2455 27.9405 24.7831L27.1341 28.0984C27.0445 28.4568 27.1341 28.8153 27.3133 29.1737L27.6717 29.8009L25.79 30.2489C25.342 30.3385 24.894 30.6969 24.7148 31.1449C24.5356 31.593 24.6252 32.1306 24.9836 32.489L26.3277 34.1915L24.5356 34.9083C24.1772 35.0875 23.8188 35.4459 23.7292 35.8043C23.6396 36.2524 23.6396 36.6108 23.9084 37.0588L25.1628 39.0301L22.2955 40.6429L19.4282 36.2524L21.7579 29.0841C21.8475 28.7256 21.8475 28.4568 21.7579 28.0984L20.9514 26.3063L22.2955 25.4103C22.7435 25.1415 23.0123 24.6039 23.0123 24.1559C23.0123 23.6182 22.7435 23.1702 22.2059 22.9014C22.0267 22.8118 21.5787 22.4534 21.1307 21.9158C21.8475 22.095 22.5643 22.3638 23.4603 22.4534C29.5534 23.439 34.5712 19.8549 35.6464 13.941ZM6.34605 27.0232L3.12032 26.3063L4.19556 21.2885L11.095 17.5252C11.3639 17.346 11.6327 17.1668 11.7223 16.8084L12.5287 14.9267L14.2312 15.1955C14.7688 15.2851 15.2168 15.1059 15.5752 14.6579C15.9336 14.2995 16.0232 13.7618 15.844 13.3138C15.7544 13.045 15.6648 11.6114 15.844 10.3569C16.7401 5.87672 21.2203 3.0094 25.8796 3.81583C28.2093 4.26385 30.2702 5.5183 31.5247 7.39998C32.7791 9.19205 33.2271 11.2529 32.7791 13.3138C32.0623 16.9876 29.1054 20.3029 23.9084 19.5861C21.6683 19.2277 20.145 18.3316 20.145 18.3316C19.697 18.0628 19.0698 18.0628 18.6217 18.3316L15.6648 20.3925C15.396 20.5717 15.1272 20.8405 15.0376 21.1989L14.8584 22.0054L13.0663 21.0197C12.6183 20.7509 12.1703 20.7509 11.7223 21.0197C11.2743 21.1989 11.0054 21.647 10.9158 22.095L10.647 24.3351L8.76535 23.7078C8.40693 23.6182 7.95892 23.6182 7.6005 23.7974C7.24209 23.9767 6.97328 24.3351 6.88367 24.7831L6.34605 27.0232Z" fill="#2566B0"/>
<path d="M7.42129 30.2489C7.69011 30.2489 7.95892 30.1593 8.22773 30.0697C8.58614 29.8905 8.76535 29.5321 8.85495 29.1737L9.30297 27.0232L11.3639 27.74C11.8119 27.9192 12.2599 27.8296 12.6183 27.5608C12.9767 27.292 13.2455 26.9336 13.2455 26.4856L13.4247 24.6039L14.948 25.4103C15.3064 25.5895 15.7544 25.6791 16.2025 25.4999C16.6505 25.3207 16.9193 24.9623 17.0089 24.6039L17.5465 22.6326H17.6361C18.0841 23.1702 18.5321 23.7078 18.9802 24.1559L18.2633 24.6039C17.6361 24.9623 17.4569 25.6791 17.7257 26.396L18.7114 28.9049L16.4713 36.0731C16.3817 36.5212 16.3817 36.9692 16.6505 37.3276L20.593 43.4206C20.8618 43.8687 21.3099 44.0479 21.8475 44.0479C22.1163 44.0479 22.2955 43.9583 22.5643 43.8687L27.9405 40.9117C28.2989 40.7325 28.5678 40.3741 28.6574 40.0157C28.747 39.6573 28.6574 39.2093 28.4782 38.8509L27.3133 37.0588L29.195 36.2524C29.643 36.0731 29.9118 35.7147 30.0014 35.2667C30.091 34.8187 30.0014 34.3707 29.7326 34.0123L28.6574 32.5786L30.1806 32.2202C30.6286 32.1306 30.9871 31.7722 31.1663 31.4138C31.3455 30.9657 31.3455 30.5177 31.0767 30.1593L30.091 28.3672L30.539 26.396C31.4351 26.1271 32.8687 25.5895 34.3024 24.6935C36.7217 23.0806 38.2449 20.8405 38.7826 18.242C39.3202 15.6435 38.6034 12.8658 36.9905 10.3569C36.4529 9.55047 35.8256 8.83364 35.1088 8.20641C34.84 7.39998 34.392 6.59355 33.8544 5.87672C32.0623 3.36782 29.3742 1.66535 26.3277 1.12772C20.0554 0.0524806 14.052 4.08464 12.8871 10.0881C12.8871 10.0881 12.8871 10.0881 12.8871 10.1777C12.7975 10.8945 12.7079 11.6114 12.7975 12.2386L11.9015 12.0594C11.2743 11.9698 10.647 12.3282 10.3782 12.8658L9.30297 15.2851L2.31389 19.1381C1.95547 19.3173 1.68666 19.6757 1.59706 20.1237L0.0737955 27.1128C-0.105412 27.9192 0.43221 28.636 1.14904 28.8153L7.24209 30.1593C7.24209 30.2489 7.33169 30.2489 7.42129 30.2489ZM35.6464 13.941C36.0945 15.1059 36.1841 16.4499 36.0049 17.6148C35.6464 19.4069 34.5712 21.0197 32.7791 22.1846C30.8975 23.3494 29.1054 23.7078 29.1054 23.7078C28.5678 23.7974 28.1197 24.2455 27.9405 24.7831L27.1341 28.0984C27.0445 28.4568 27.1341 28.8153 27.3133 29.1737L27.6717 29.8009L25.79 30.2489C25.342 30.3385 24.894 30.6969 24.7148 31.1449C24.5356 31.593 24.6252 32.1306 24.9836 32.489L26.3277 34.1915L24.5356 34.9083C24.1772 35.0875 23.8188 35.4459 23.7292 35.8043C23.6396 36.2524 23.6396 36.6108 23.9084 37.0588L25.1628 39.0301L22.2955 40.6429L19.4282 36.2524L21.7579 29.0841C21.8475 28.7256 21.8475 28.4568 21.7579 28.0984L20.9514 26.3063L22.2955 25.4103C22.7435 25.1415 23.0123 24.6039 23.0123 24.1559C23.0123 23.6182 22.7435 23.1702 22.2059 22.9014C22.0267 22.8118 21.5787 22.4534 21.1307 21.9158C21.8475 22.095 22.5643 22.3638 23.4603 22.4534C29.5534 23.439 34.5712 19.8549 35.6464 13.941ZM6.34605 27.0232L3.12032 26.3063L4.19556 21.2885L11.095 17.5252C11.3639 17.346 11.6327 17.1668 11.7223 16.8084L12.5287 14.9267L14.2312 15.1955C14.7688 15.2851 15.2168 15.1059 15.5752 14.6579C15.9336 14.2995 16.0232 13.7618 15.844 13.3138C15.7544 13.045 15.6648 11.6114 15.844 10.3569C16.7401 5.87672 21.2203 3.0094 25.8796 3.81583C28.2093 4.26385 30.2702 5.5183 31.5247 7.39998C32.7791 9.19205 33.2271 11.2529 32.7791 13.3138C32.0623 16.9876 29.1054 20.3029 23.9084 19.5861C21.6683 19.2277 20.145 18.3316 20.145 18.3316C19.697 18.0628 19.0698 18.0628 18.6217 18.3316L15.6648 20.3925C15.396 20.5717 15.1272 20.8405 15.0376 21.1989L14.8584 22.0054L13.0663 21.0197C12.6183 20.7509 12.1703 20.7509 11.7223 21.0197C11.2743 21.1989 11.0054 21.647 10.9158 22.095L10.647 24.3351L8.76535 23.7078C8.40693 23.6182 7.95892 23.6182 7.6005 23.7974C7.24209 23.9767 6.97328 24.3351 6.88367 24.7831L6.34605 27.0232Z" fill="black" fill-opacity="0.2"/>
</svg>
