<svg width="35" height="47" viewBox="0 0 35 47" fill="none" xmlns="http://www.w3.org/2000/svg">
<path d="M17.4999 19.3469C17.2571 19.3468 17.0183 19.2854 16.8057 19.1683C16.5931 19.0512 16.4135 18.8823 16.2836 18.6772C16.1537 18.4721 16.0778 18.2376 16.0629 17.9953C16.0479 17.753 16.0945 17.5109 16.1982 17.2914L16.6665 16.299H16.0596C15.8135 16.299 15.5715 16.2359 15.3567 16.1158C15.1419 15.9957 14.9615 15.8225 14.8326 15.6129C14.7038 15.4032 14.6308 15.164 14.6207 14.9181C14.6105 14.6722 14.6636 14.4278 14.7748 14.2082L16.215 11.363C16.2989 11.1917 16.416 11.0389 16.5595 10.9132C16.703 10.7876 16.87 10.6917 17.0508 10.6311C17.2317 10.5705 17.4227 10.5464 17.613 10.5603C17.8032 10.5741 17.9887 10.6256 18.1589 10.7118C18.329 10.7979 18.4804 10.917 18.6042 11.0621C18.7279 11.2072 18.8216 11.3755 18.8799 11.5571C18.9381 11.7387 18.9596 11.9301 18.9433 12.1201C18.927 12.3101 18.8731 12.495 18.7847 12.664L18.4029 13.4185H18.9401C19.1829 13.4185 19.4218 13.4798 19.6345 13.5969C19.8473 13.7139 20.027 13.8828 20.1569 14.0879C20.2869 14.293 20.3629 14.5277 20.3778 14.77C20.3928 15.0123 20.3463 15.2545 20.2425 15.4741L18.8023 18.5221C18.6857 18.7689 18.5013 18.9774 18.2707 19.1234C18.0401 19.2695 17.7728 19.347 17.4999 19.3469Z" fill="#2566B0"/>
<path d="M17.4999 19.3469C17.2571 19.3468 17.0183 19.2854 16.8057 19.1683C16.5931 19.0512 16.4135 18.8823 16.2836 18.6772C16.1537 18.4721 16.0778 18.2376 16.0629 17.9953C16.0479 17.753 16.0945 17.5109 16.1982 17.2914L16.6665 16.299H16.0596C15.8135 16.299 15.5715 16.2359 15.3567 16.1158C15.1419 15.9957 14.9615 15.8225 14.8326 15.6129C14.7038 15.4032 14.6308 15.164 14.6207 14.9181C14.6105 14.6722 14.6636 14.4278 14.7748 14.2082L16.215 11.363C16.2989 11.1917 16.416 11.0389 16.5595 10.9132C16.703 10.7876 16.87 10.6917 17.0508 10.6311C17.2317 10.5705 17.4227 10.5464 17.613 10.5603C17.8032 10.5741 17.9887 10.6256 18.1589 10.7118C18.329 10.7979 18.4804 10.917 18.6042 11.0621C18.7279 11.2072 18.8216 11.3755 18.8799 11.5571C18.9381 11.7387 18.9596 11.9301 18.9433 12.1201C18.927 12.3101 18.8731 12.495 18.7847 12.664L18.4029 13.4185H18.9401C19.1829 13.4185 19.4218 13.4798 19.6345 13.5969C19.8473 13.7139 20.027 13.8828 20.1569 14.0879C20.2869 14.293 20.3629 14.5277 20.3778 14.77C20.3928 15.0123 20.3463 15.2545 20.2425 15.4741L18.8023 18.5221C18.6857 18.7689 18.5013 18.9774 18.2707 19.1234C18.0401 19.2695 17.7728 19.347 17.4999 19.3469Z" fill="black" fill-opacity="0.2"/>
<path d="M30.4622 37.9027H4.53757C3.39201 37.9015 2.29374 37.4458 1.48371 36.6358C0.673682 35.8258 0.218055 34.7275 0.216797 33.582V4.77682C0.218055 3.63127 0.673682 2.533 1.48371 1.72297C2.29374 0.912939 3.39201 0.457313 4.53757 0.456055H30.4622C31.6077 0.457313 32.706 0.912939 33.516 1.72297C34.3261 2.533 34.7817 3.63127 34.783 4.77682V33.582C34.7817 34.7275 34.3261 35.8258 33.516 36.6358C32.706 37.4458 31.6077 37.9015 30.4622 37.9027ZM4.53757 3.33657C4.15574 3.33706 3.78969 3.48896 3.5197 3.75896C3.24971 4.02895 3.09781 4.395 3.09731 4.77682V33.582C3.09781 33.9638 3.24971 34.3298 3.5197 34.5998C3.78969 34.8698 4.15574 35.0217 4.53757 35.0222H30.4622C30.8441 35.0219 31.2102 34.87 31.4802 34.6C31.7502 34.33 31.9021 33.9638 31.9024 33.582V4.77682C31.9021 4.39495 31.7502 4.02881 31.4802 3.75879C31.2102 3.48876 30.8441 3.33691 30.4622 3.33657H4.53757Z" fill="#2566B0"/>
<path d="M30.4622 37.9027H4.53757C3.39201 37.9015 2.29374 37.4458 1.48371 36.6358C0.673682 35.8258 0.218055 34.7275 0.216797 33.582V4.77682C0.218055 3.63127 0.673682 2.533 1.48371 1.72297C2.29374 0.912939 3.39201 0.457313 4.53757 0.456055H30.4622C31.6077 0.457313 32.706 0.912939 33.516 1.72297C34.3261 2.533 34.7817 3.63127 34.783 4.77682V33.582C34.7817 34.7275 34.3261 35.8258 33.516 36.6358C32.706 37.4458 31.6077 37.9015 30.4622 37.9027ZM4.53757 3.33657C4.15574 3.33706 3.78969 3.48896 3.5197 3.75896C3.24971 4.02895 3.09781 4.395 3.09731 4.77682V33.582C3.09781 33.9638 3.24971 34.3298 3.5197 34.5998C3.78969 34.8698 4.15574 35.0217 4.53757 35.0222H30.4622C30.8441 35.0219 31.2102 34.87 31.4802 34.6C31.7502 34.33 31.9021 33.9638 31.9024 33.582V4.77682C31.9021 4.39495 31.7502 4.02881 31.4802 3.75879C31.2102 3.48876 30.8441 3.33691 30.4622 3.33657H4.53757Z" fill="black" fill-opacity="0.2"/>
<path d="M27.5817 32.1417H7.41808C7.0361 32.1417 6.66977 31.99 6.39967 31.7199C6.12957 31.4498 5.97782 31.0834 5.97782 30.7014V7.65734C5.97782 7.27536 6.12957 6.90902 6.39967 6.63892C6.66977 6.36882 7.0361 6.21708 7.41808 6.21708H27.5817C27.9637 6.21708 28.33 6.36882 28.6001 6.63892C28.8702 6.90902 29.0219 7.27536 29.0219 7.65734V30.7014C29.0219 31.0834 28.8702 31.4498 28.6001 31.7199C28.33 31.99 27.9637 32.1417 27.5817 32.1417ZM8.85834 29.2612H26.1414V9.0976H8.85834V29.2612Z" fill="#2566B0"/>
<path d="M27.5817 32.1417H7.41808C7.0361 32.1417 6.66977 31.99 6.39967 31.7199C6.12957 31.4498 5.97782 31.0834 5.97782 30.7014V7.65734C5.97782 7.27536 6.12957 6.90902 6.39967 6.63892C6.66977 6.36882 7.0361 6.21708 7.41808 6.21708H27.5817C27.9637 6.21708 28.33 6.36882 28.6001 6.63892C28.8702 6.90902 29.0219 7.27536 29.0219 7.65734V30.7014C29.0219 31.0834 28.8702 31.4498 28.6001 31.7199C28.33 31.99 27.9637 32.1417 27.5817 32.1417ZM8.85834 29.2612H26.1414V9.0976H8.85834V29.2612Z" fill="black" fill-opacity="0.2"/>
<path d="M21.8206 23.5002H13.1791C12.7971 23.5002 12.4308 23.3484 12.1607 23.0783C11.8906 22.8082 11.7389 22.4419 11.7389 22.0599C11.7389 21.6779 11.8906 21.3116 12.1607 21.0415C12.4308 20.7714 12.7971 20.6196 13.1791 20.6196H21.8206C22.2026 20.6196 22.569 20.7714 22.8391 21.0415C23.1092 21.3116 23.2609 21.6779 23.2609 22.0599C23.2609 22.4419 23.1092 22.8082 22.8391 23.0783C22.569 23.3484 22.2026 23.5002 21.8206 23.5002Z" fill="#2566B0"/>
<path d="M21.8206 23.5002H13.1791C12.7971 23.5002 12.4308 23.3484 12.1607 23.0783C11.8906 22.8082 11.7389 22.4419 11.7389 22.0599C11.7389 21.6779 11.8906 21.3116 12.1607 21.0415C12.4308 20.7714 12.7971 20.6196 13.1791 20.6196H21.8206C22.2026 20.6196 22.569 20.7714 22.8391 21.0415C23.1092 21.3116 23.2609 21.6779 23.2609 22.0599C23.2609 22.4419 23.1092 22.8082 22.8391 23.0783C22.569 23.3484 22.2026 23.5002 21.8206 23.5002Z" fill="black" fill-opacity="0.2"/>
<path d="M21.8206 27.8209H13.1791C12.7971 27.8209 12.4308 27.6692 12.1607 27.3991C11.8906 27.129 11.7389 26.7627 11.7389 26.3807C11.7389 25.9987 11.8906 25.6324 12.1607 25.3623C12.4308 25.0922 12.7971 24.9404 13.1791 24.9404H21.8206C22.2026 24.9404 22.569 25.0922 22.8391 25.3623C23.1092 25.6324 23.2609 25.9987 23.2609 26.3807C23.2609 26.7627 23.1092 27.129 22.8391 27.3991C22.569 27.6692 22.2026 27.8209 21.8206 27.8209Z" fill="#2566B0"/>
<path d="M21.8206 27.8209H13.1791C12.7971 27.8209 12.4308 27.6692 12.1607 27.3991C11.8906 27.129 11.7389 26.7627 11.7389 26.3807C11.7389 25.9987 11.8906 25.6324 12.1607 25.3623C12.4308 25.0922 12.7971 24.9404 13.1791 24.9404H21.8206C22.2026 24.9404 22.569 25.0922 22.8391 25.3623C23.1092 25.6324 23.2609 25.9987 23.2609 26.3807C23.2609 26.7627 23.1092 27.129 22.8391 27.3991C22.569 27.6692 22.2026 27.8209 21.8206 27.8209Z" fill="black" fill-opacity="0.2"/>
<path d="M10.2986 43.6638H7.41808C6.65436 43.663 5.92213 43.3593 5.38209 42.8192C4.84206 42.2792 4.53833 41.547 4.53757 40.7832V36.4625C4.53757 36.0805 4.68931 35.7142 4.95941 35.4441C5.22951 35.174 5.59584 35.0222 5.97782 35.0222H11.7389C12.1208 35.0222 12.4872 35.174 12.7573 35.4441C13.0274 35.7142 13.1791 36.0805 13.1791 36.4625V40.7832C13.1783 41.547 12.8746 42.2792 12.3346 42.8192C11.7945 43.3593 11.0623 43.663 10.2986 43.6638ZM7.41808 37.9027V40.7832H10.3008L10.2993 37.9027H7.41808Z" fill="#2566B0"/>
<path d="M10.2986 43.6638H7.41808C6.65436 43.663 5.92213 43.3593 5.38209 42.8192C4.84206 42.2792 4.53833 41.547 4.53757 40.7832V36.4625C4.53757 36.0805 4.68931 35.7142 4.95941 35.4441C5.22951 35.174 5.59584 35.0222 5.97782 35.0222H11.7389C12.1208 35.0222 12.4872 35.174 12.7573 35.4441C13.0274 35.7142 13.1791 36.0805 13.1791 36.4625V40.7832C13.1783 41.547 12.8746 42.2792 12.3346 42.8192C11.7945 43.3593 11.0623 43.663 10.2986 43.6638ZM7.41808 37.9027V40.7832H10.3008L10.2993 37.9027H7.41808Z" fill="black" fill-opacity="0.2"/>
<path d="M8.85834 46.5443C8.47636 46.5443 8.11002 46.3925 7.83992 46.1224C7.56982 45.8523 7.41808 45.486 7.41808 45.104V42.2235C7.41808 41.8415 7.56982 41.4752 7.83992 41.2051C8.11002 40.935 8.47636 40.7832 8.85834 40.7832C9.24032 40.7832 9.60665 40.935 9.87675 41.2051C10.1469 41.4752 10.2986 41.8415 10.2986 42.2235V45.104C10.2986 45.486 10.1469 45.8523 9.87675 46.1224C9.60665 46.3925 9.24032 46.5443 8.85834 46.5443Z" fill="#2566B0"/>
<path d="M8.85834 46.5443C8.47636 46.5443 8.11002 46.3925 7.83992 46.1224C7.56982 45.8523 7.41808 45.486 7.41808 45.104V42.2235C7.41808 41.8415 7.56982 41.4752 7.83992 41.2051C8.11002 40.935 8.47636 40.7832 8.85834 40.7832C9.24032 40.7832 9.60665 40.935 9.87675 41.2051C10.1469 41.4752 10.2986 41.8415 10.2986 42.2235V45.104C10.2986 45.486 10.1469 45.8523 9.87675 46.1224C9.60665 46.3925 9.24032 46.5443 8.85834 46.5443Z" fill="black" fill-opacity="0.2"/>
<path d="M27.4142 43.3958H24.5337C23.77 43.3949 23.0378 43.0912 22.4978 42.5512C21.9578 42.0111 21.6541 41.279 21.6532 40.5153V36.1945C21.6532 35.8125 21.8049 35.4462 22.075 35.1761C22.3451 34.906 22.7115 34.7543 23.0934 34.7543H28.8545C29.2364 34.7543 29.6028 34.906 29.8729 35.1761C30.143 35.4462 30.2947 35.8125 30.2947 36.1945V40.5153C30.2938 41.279 29.9901 42.0111 29.4501 42.5512C28.9101 43.0912 28.1779 43.3949 27.4142 43.3958ZM24.5337 37.6348V40.5153H27.4142V37.6348H24.5337Z" fill="#2566B0"/>
<path d="M27.4142 43.3958H24.5337C23.77 43.3949 23.0378 43.0912 22.4978 42.5512C21.9578 42.0111 21.6541 41.279 21.6532 40.5153V36.1945C21.6532 35.8125 21.8049 35.4462 22.075 35.1761C22.3451 34.906 22.7115 34.7543 23.0934 34.7543H28.8545C29.2364 34.7543 29.6028 34.906 29.8729 35.1761C30.143 35.4462 30.2947 35.8125 30.2947 36.1945V40.5153C30.2938 41.279 29.9901 42.0111 29.4501 42.5512C28.9101 43.0912 28.1779 43.3949 27.4142 43.3958ZM24.5337 37.6348V40.5153H27.4142V37.6348H24.5337Z" fill="black" fill-opacity="0.2"/>
<path d="M26.1414 46.5443C25.7594 46.5443 25.3931 46.3925 25.123 46.1224C24.8529 45.8523 24.7012 45.486 24.7012 45.104V42.2235C24.7012 41.8415 24.8529 41.4752 25.123 41.2051C25.3931 40.935 25.7594 40.7832 26.1414 40.7832C26.5234 40.7832 26.8897 40.935 27.1598 41.2051C27.4299 41.4752 27.5817 41.8415 27.5817 42.2235V45.104C27.5817 45.486 27.4299 45.8523 27.1598 46.1224C26.8897 46.3925 26.5234 46.5443 26.1414 46.5443Z" fill="#2566B0"/>
<path d="M26.1414 46.5443C25.7594 46.5443 25.3931 46.3925 25.123 46.1224C24.8529 45.8523 24.7012 45.486 24.7012 45.104V42.2235C24.7012 41.8415 24.8529 41.4752 25.123 41.2051C25.3931 40.935 25.7594 40.7832 26.1414 40.7832C26.5234 40.7832 26.8897 40.935 27.1598 41.2051C27.4299 41.4752 27.5817 41.8415 27.5817 42.2235V45.104C27.5817 45.486 27.4299 45.8523 27.1598 46.1224C26.8897 46.3925 26.5234 46.5443 26.1414 46.5443Z" fill="black" fill-opacity="0.2"/>
</svg>
