<svg width="43" height="45" viewBox="0 0 43 45" fill="none" xmlns="http://www.w3.org/2000/svg">
<path d="M40.0156 25.4736C38.98 24.1056 37.6581 22.9685 36.1678 22.1435C37.844 20.3513 38.8212 17.8493 38.8212 15.1409C38.8212 9.92649 35.1357 5.66342 30.5424 5.47589C28.5406 2.17257 25.1805 0.000976562 21.38 0.000976562C17.5784 0.000976562 14.2176 2.17384 12.216 5.47863C7.65271 5.70294 4.00148 9.95075 4.00148 15.1409C4.00148 16.9808 4.4618 18.7705 5.33275 20.3165C5.72539 21.0135 6.19261 21.6469 6.72157 22.2041C5.257 23.035 3.95987 24.1691 2.94443 25.526C1.34537 27.663 0.5 30.2096 0.5 32.891V38.0658C0.5 38.8762 1.15304 39.5332 1.95855 39.5332H5.54813V43.5336C5.54813 44.344 6.20116 45.001 7.00667 45.001H35.9933C36.7988 45.001 37.4519 44.344 37.4519 43.5336V39.5332H41.0415C41.8469 39.5332 42.5 38.8762 42.5 38.0658V32.891C42.5002 30.1857 41.641 27.6208 40.0156 25.4736ZM5.54822 36.5409V36.5985H3.41719V32.891C3.41719 28.757 6.05657 25.1721 9.98473 23.9702C10.5483 23.7977 10.9534 23.3013 11.0118 22.7116C11.0702 22.122 10.7702 21.5549 10.2515 21.2742C8.22689 20.1782 6.91867 17.7708 6.91867 15.141C6.91867 12.17 8.54777 9.64368 10.8012 8.75074C10.4629 9.95143 10.2796 11.2296 10.2796 12.5555C10.2796 14.9528 10.8786 17.2832 12.012 19.2951C12.6328 20.3969 13.3967 21.3752 14.2736 22.2016C14.2707 22.2147 14.2675 22.2279 14.2647 22.2411C12.1136 23.3489 10.2082 24.948 8.74837 26.8988C6.65477 29.6962 5.54822 33.0305 5.54822 36.5409ZM34.535 42.0663H8.46531V36.541C8.46531 30.7263 12.1777 25.6838 17.7032 23.9932C18.2667 23.8207 18.6718 23.3243 18.7303 22.7346C18.7886 22.1449 18.4886 21.5778 17.97 21.2971C15.0703 19.7275 13.1966 16.2962 13.1966 12.5554C13.1966 7.2511 16.8677 2.93569 21.3801 2.93569C25.8925 2.93569 29.5637 7.2511 29.5637 12.5554C29.5637 16.2582 27.7181 19.675 24.8619 21.2601C24.3459 21.5464 24.0519 22.1168 24.1166 22.706C24.1812 23.2952 24.5921 23.7875 25.1576 23.9535C30.6789 25.5748 34.535 30.751 34.535 36.541V42.0663ZM39.5831 36.5985H37.4521V36.5409C37.4521 32.999 36.3274 29.641 34.1996 26.8301C32.7143 24.8679 30.7793 23.2695 28.5974 22.173C28.592 22.1534 28.5854 22.1343 28.5792 22.1152C29.4314 21.294 30.1738 20.3283 30.7774 19.2449C31.8918 17.2448 32.4809 14.9317 32.4809 12.5553C32.4809 11.2196 32.2947 9.93226 31.9515 8.72384C34.2412 9.59193 35.9042 12.1393 35.9042 15.1409C35.9042 17.7443 34.6154 20.1418 32.6207 21.2486C32.1047 21.535 31.8107 22.1055 31.8755 22.6947C31.9401 23.2838 32.3509 23.7759 32.9165 23.9421C36.8417 25.0946 39.5832 28.7746 39.5832 32.891V36.5985H39.5831Z" fill="#2566B0"/>
<path d="M40.0156 25.4736C38.98 24.1056 37.6581 22.9685 36.1678 22.1435C37.844 20.3513 38.8212 17.8493 38.8212 15.1409C38.8212 9.92649 35.1357 5.66342 30.5424 5.47589C28.5406 2.17257 25.1805 0.000976562 21.38 0.000976562C17.5784 0.000976562 14.2176 2.17384 12.216 5.47863C7.65271 5.70294 4.00148 9.95075 4.00148 15.1409C4.00148 16.9808 4.4618 18.7705 5.33275 20.3165C5.72539 21.0135 6.19261 21.6469 6.72157 22.2041C5.257 23.035 3.95987 24.1691 2.94443 25.526C1.34537 27.663 0.5 30.2096 0.5 32.891V38.0658C0.5 38.8762 1.15304 39.5332 1.95855 39.5332H5.54813V43.5336C5.54813 44.344 6.20116 45.001 7.00667 45.001H35.9933C36.7988 45.001 37.4519 44.344 37.4519 43.5336V39.5332H41.0415C41.8469 39.5332 42.5 38.8762 42.5 38.0658V32.891C42.5002 30.1857 41.641 27.6208 40.0156 25.4736ZM5.54822 36.5409V36.5985H3.41719V32.891C3.41719 28.757 6.05657 25.1721 9.98473 23.9702C10.5483 23.7977 10.9534 23.3013 11.0118 22.7116C11.0702 22.122 10.7702 21.5549 10.2515 21.2742C8.22689 20.1782 6.91867 17.7708 6.91867 15.141C6.91867 12.17 8.54777 9.64368 10.8012 8.75074C10.4629 9.95143 10.2796 11.2296 10.2796 12.5555C10.2796 14.9528 10.8786 17.2832 12.012 19.2951C12.6328 20.3969 13.3967 21.3752 14.2736 22.2016C14.2707 22.2147 14.2675 22.2279 14.2647 22.2411C12.1136 23.3489 10.2082 24.948 8.74837 26.8988C6.65477 29.6962 5.54822 33.0305 5.54822 36.5409ZM34.535 42.0663H8.46531V36.541C8.46531 30.7263 12.1777 25.6838 17.7032 23.9932C18.2667 23.8207 18.6718 23.3243 18.7303 22.7346C18.7886 22.1449 18.4886 21.5778 17.97 21.2971C15.0703 19.7275 13.1966 16.2962 13.1966 12.5554C13.1966 7.2511 16.8677 2.93569 21.3801 2.93569C25.8925 2.93569 29.5637 7.2511 29.5637 12.5554C29.5637 16.2582 27.7181 19.675 24.8619 21.2601C24.3459 21.5464 24.0519 22.1168 24.1166 22.706C24.1812 23.2952 24.5921 23.7875 25.1576 23.9535C30.6789 25.5748 34.535 30.751 34.535 36.541V42.0663ZM39.5831 36.5985H37.4521V36.5409C37.4521 32.999 36.3274 29.641 34.1996 26.8301C32.7143 24.8679 30.7793 23.2695 28.5974 22.173C28.592 22.1534 28.5854 22.1343 28.5792 22.1152C29.4314 21.294 30.1738 20.3283 30.7774 19.2449C31.8918 17.2448 32.4809 14.9317 32.4809 12.5553C32.4809 11.2196 32.2947 9.93226 31.9515 8.72384C34.2412 9.59193 35.9042 12.1393 35.9042 15.1409C35.9042 17.7443 34.6154 20.1418 32.6207 21.2486C32.1047 21.535 31.8107 22.1055 31.8755 22.6947C31.9401 23.2838 32.3509 23.7759 32.9165 23.9421C36.8417 25.0946 39.5832 28.7746 39.5832 32.891V36.5985H39.5831Z" fill="black" fill-opacity="0.2"/>
</svg>
