<svg width="61" height="61" viewBox="0 0 61 61" fill="none" xmlns="http://www.w3.org/2000/svg">
<path d="M59.2039 31.8758C60.155 30.7792 60.6052 29.3786 60.4715 27.9327C60.3378 26.4869 59.6382 25.1927 58.5016 24.2889C57.645 23.6079 57.3178 22.458 57.6876 21.4279C58.1778 20.0612 58.0913 18.5927 57.4442 17.2932C56.7971 15.993 55.6772 15.0393 54.2905 14.6071C53.2457 14.2812 52.5255 13.3275 52.4982 12.2335C52.4623 10.7817 51.8511 9.44359 50.7777 8.4653C49.7043 7.48767 48.3124 6.99952 46.8672 7.10061C45.7845 7.17243 44.759 6.54529 44.3387 5.53507C43.7807 4.19499 42.7279 3.16748 41.3745 2.64275C40.0198 2.11803 38.55 2.16791 37.2332 2.78175C36.243 3.24729 35.0665 3.02583 34.3103 2.23574C33.3054 1.18762 31.9527 0.610352 30.5002 0.610352C29.0478 0.610352 27.695 1.18762 26.6901 2.23574C25.934 3.02583 24.7602 3.24729 23.7666 2.78175C22.4518 2.16791 20.9807 2.11803 19.6259 2.64275C18.2726 3.16748 17.2198 4.19499 16.6625 5.53441C16.2408 6.54529 15.214 7.1731 14.1333 7.10061C12.6888 6.99885 11.2955 7.487 10.2228 8.4653C9.14936 9.44359 8.53817 10.7817 8.50226 12.2335C8.47499 13.3275 7.75474 14.2812 6.70928 14.6071C5.32331 15.0393 4.20336 15.993 3.55626 17.2932C2.90916 18.5927 2.82271 20.0612 3.31285 21.4279C3.68262 22.458 3.35541 23.6079 2.49883 24.2889C1.36225 25.1927 0.662614 26.4869 0.528938 27.9327C0.395263 29.3786 0.845504 30.7792 1.79586 31.8752C2.51346 32.7025 2.62386 33.8929 2.07053 34.8373C1.33698 36.0903 1.15209 37.5501 1.5498 38.9467C1.94683 40.3433 2.87259 41.4865 4.15614 42.1662C5.12313 42.6783 5.65583 43.7484 5.48159 44.8284C5.25082 46.2623 5.60529 47.6901 6.4805 48.8487C7.35504 50.0072 8.63128 50.7388 10.0731 50.909C11.1598 51.0374 12.0437 51.8427 12.2718 52.9128C12.5737 54.3334 13.4203 55.5364 14.6547 56.3006C15.889 57.0647 17.3415 57.2855 18.7494 56.9237C19.8055 56.6504 20.9235 57.0827 21.5233 57.9985C22.3181 59.2135 23.5424 60.0295 24.9696 60.2969C25.2988 60.3581 25.628 60.3887 25.9546 60.3887C27.0453 60.3887 28.1054 60.0495 29.0132 59.3991C29.903 58.7606 31.0975 58.7606 31.9873 59.3991C33.1664 60.2444 34.6016 60.5623 36.0308 60.2969C37.458 60.0295 38.6824 59.2135 39.4771 57.9985C40.0763 57.0827 41.1896 56.6504 42.2511 56.9237C43.657 57.2862 45.1115 57.0654 46.3458 56.3006C47.5801 55.5364 48.4267 54.3334 48.7287 52.9135C48.9568 51.8427 49.8406 51.0374 50.9273 50.909C52.3692 50.7388 53.6454 50.0072 54.52 48.8487C55.3952 47.6901 55.7496 46.2623 55.5189 44.8284C55.3446 43.7484 55.8773 42.6783 56.8443 42.1662C58.1279 41.4865 59.0536 40.3433 59.4507 38.9467C59.8484 37.5501 59.6635 36.0903 58.9293 34.8367C58.3766 33.8929 58.487 32.7025 59.2039 31.8758ZM57.1456 30.0915C55.6639 31.8014 55.4357 34.2614 56.5783 36.2127C56.9334 36.8192 57.0232 37.5255 56.831 38.2012C56.6388 38.8769 56.1906 39.4302 55.5701 39.7587C53.5709 40.8168 52.4696 43.0281 52.8294 45.262C52.9411 45.9557 52.7695 46.6467 52.3466 47.2073C51.9229 47.7673 51.3058 48.1211 50.6081 48.2036C48.3622 48.4689 46.536 50.1336 46.0645 52.3462C45.9182 53.0325 45.5085 53.6144 44.9119 53.9842C44.3141 54.3546 43.6118 54.4604 42.9307 54.2861C40.7381 53.7202 38.4356 54.6147 37.1973 56.5074C36.8129 57.0953 36.221 57.4897 35.53 57.6187C34.839 57.7491 34.1447 57.5941 33.5741 57.1844C31.7359 55.8676 29.2646 55.8676 27.4264 57.1844C26.8557 57.5935 26.1614 57.7484 25.4704 57.6187C24.7794 57.4897 24.1875 57.0953 23.8031 56.5074C22.8122 54.9931 21.1396 54.1185 19.3879 54.1185C18.9502 54.1185 18.5073 54.1731 18.0697 54.2861C17.3887 54.4624 16.6857 54.3546 16.0885 53.9842C15.492 53.6144 15.0823 53.0325 14.936 52.3455C14.4645 50.1336 12.6382 48.4689 10.3923 48.2036C9.6947 48.1211 9.07753 47.7673 8.65389 47.2073C8.23092 46.6467 8.05934 45.9557 8.17107 45.262C8.53086 43.0281 7.42953 40.8168 5.43038 39.7587C4.80989 39.4302 4.36164 38.8769 4.16944 38.2012C3.97724 37.5255 4.06702 36.8192 4.4215 36.2133C5.56472 34.2614 5.33661 31.8014 3.85421 30.0908C3.39465 29.5608 3.17652 28.8831 3.24169 28.1841C3.3062 27.4845 3.64471 26.858 4.19471 26.4211C5.96508 25.0132 6.64078 22.6363 5.8773 20.5074C5.63987 19.8464 5.68177 19.1361 5.99501 18.5069C6.30825 17.8785 6.84961 17.4169 7.51998 17.2074C9.67941 16.5351 11.1685 14.5632 11.225 12.3013C11.2429 11.599 11.5382 10.9519 12.0576 10.4784C12.577 10.0056 13.2534 9.77013 13.9497 9.81802C16.2116 9.97962 18.3071 8.66947 19.177 6.58187C19.4464 5.93344 19.9558 5.43664 20.6109 5.18326C21.2666 4.92854 21.9782 4.95315 22.614 5.25043C24.6651 6.20611 27.0918 5.75387 28.6574 4.1205C29.1429 3.61307 29.7979 3.33441 30.5002 3.33441C31.2025 3.33441 31.8576 3.61307 32.3431 4.1205C33.9093 5.75321 36.3367 6.20545 38.3858 5.25043C39.0236 4.95249 39.7338 4.92788 40.3896 5.18326C41.0447 5.43664 41.5541 5.93344 41.8241 6.58253C42.6933 8.67013 44.7896 9.97829 47.0507 9.81802C47.7457 9.7708 48.4228 10.0056 48.9428 10.4784C49.4622 10.9519 49.7575 11.599 49.7755 12.3013C49.832 14.5632 51.3211 16.5351 53.4798 17.2074C54.1509 17.4169 54.6922 17.8785 55.0055 18.5069C55.3187 19.1361 55.3606 19.8464 55.1232 20.5074C54.3597 22.6363 55.0354 25.0132 56.8058 26.4211C57.3558 26.858 57.6943 27.4845 57.7588 28.1841C57.8239 28.8831 57.6058 29.5608 57.1456 30.0915Z" fill="#2566B0"/>
<path d="M59.2039 31.8758C60.155 30.7792 60.6052 29.3786 60.4715 27.9327C60.3378 26.4869 59.6382 25.1927 58.5016 24.2889C57.645 23.6079 57.3178 22.458 57.6876 21.4279C58.1778 20.0612 58.0913 18.5927 57.4442 17.2932C56.7971 15.993 55.6772 15.0393 54.2905 14.6071C53.2457 14.2812 52.5255 13.3275 52.4982 12.2335C52.4623 10.7817 51.8511 9.44359 50.7777 8.4653C49.7043 7.48767 48.3124 6.99952 46.8672 7.10061C45.7845 7.17243 44.759 6.54529 44.3387 5.53507C43.7807 4.19499 42.7279 3.16748 41.3745 2.64275C40.0198 2.11803 38.55 2.16791 37.2332 2.78175C36.243 3.24729 35.0665 3.02583 34.3103 2.23574C33.3054 1.18762 31.9527 0.610352 30.5002 0.610352C29.0478 0.610352 27.695 1.18762 26.6901 2.23574C25.934 3.02583 24.7602 3.24729 23.7666 2.78175C22.4518 2.16791 20.9807 2.11803 19.6259 2.64275C18.2726 3.16748 17.2198 4.19499 16.6625 5.53441C16.2408 6.54529 15.214 7.1731 14.1333 7.10061C12.6888 6.99885 11.2955 7.487 10.2228 8.4653C9.14936 9.44359 8.53817 10.7817 8.50226 12.2335C8.47499 13.3275 7.75474 14.2812 6.70928 14.6071C5.32331 15.0393 4.20336 15.993 3.55626 17.2932C2.90916 18.5927 2.82271 20.0612 3.31285 21.4279C3.68262 22.458 3.35541 23.6079 2.49883 24.2889C1.36225 25.1927 0.662614 26.4869 0.528938 27.9327C0.395263 29.3786 0.845504 30.7792 1.79586 31.8752C2.51346 32.7025 2.62386 33.8929 2.07053 34.8373C1.33698 36.0903 1.15209 37.5501 1.5498 38.9467C1.94683 40.3433 2.87259 41.4865 4.15614 42.1662C5.12313 42.6783 5.65583 43.7484 5.48159 44.8284C5.25082 46.2623 5.60529 47.6901 6.4805 48.8487C7.35504 50.0072 8.63128 50.7388 10.0731 50.909C11.1598 51.0374 12.0437 51.8427 12.2718 52.9128C12.5737 54.3334 13.4203 55.5364 14.6547 56.3006C15.889 57.0647 17.3415 57.2855 18.7494 56.9237C19.8055 56.6504 20.9235 57.0827 21.5233 57.9985C22.3181 59.2135 23.5424 60.0295 24.9696 60.2969C25.2988 60.3581 25.628 60.3887 25.9546 60.3887C27.0453 60.3887 28.1054 60.0495 29.0132 59.3991C29.903 58.7606 31.0975 58.7606 31.9873 59.3991C33.1664 60.2444 34.6016 60.5623 36.0308 60.2969C37.458 60.0295 38.6824 59.2135 39.4771 57.9985C40.0763 57.0827 41.1896 56.6504 42.2511 56.9237C43.657 57.2862 45.1115 57.0654 46.3458 56.3006C47.5801 55.5364 48.4267 54.3334 48.7287 52.9135C48.9568 51.8427 49.8406 51.0374 50.9273 50.909C52.3692 50.7388 53.6454 50.0072 54.52 48.8487C55.3952 47.6901 55.7496 46.2623 55.5189 44.8284C55.3446 43.7484 55.8773 42.6783 56.8443 42.1662C58.1279 41.4865 59.0536 40.3433 59.4507 38.9467C59.8484 37.5501 59.6635 36.0903 58.9293 34.8367C58.3766 33.8929 58.487 32.7025 59.2039 31.8758ZM57.1456 30.0915C55.6639 31.8014 55.4357 34.2614 56.5783 36.2127C56.9334 36.8192 57.0232 37.5255 56.831 38.2012C56.6388 38.8769 56.1906 39.4302 55.5701 39.7587C53.5709 40.8168 52.4696 43.0281 52.8294 45.262C52.9411 45.9557 52.7695 46.6467 52.3466 47.2073C51.9229 47.7673 51.3058 48.1211 50.6081 48.2036C48.3622 48.4689 46.536 50.1336 46.0645 52.3462C45.9182 53.0325 45.5085 53.6144 44.9119 53.9842C44.3141 54.3546 43.6118 54.4604 42.9307 54.2861C40.7381 53.7202 38.4356 54.6147 37.1973 56.5074C36.8129 57.0953 36.221 57.4897 35.53 57.6187C34.839 57.7491 34.1447 57.5941 33.5741 57.1844C31.7359 55.8676 29.2646 55.8676 27.4264 57.1844C26.8557 57.5935 26.1614 57.7484 25.4704 57.6187C24.7794 57.4897 24.1875 57.0953 23.8031 56.5074C22.8122 54.9931 21.1396 54.1185 19.3879 54.1185C18.9502 54.1185 18.5073 54.1731 18.0697 54.2861C17.3887 54.4624 16.6857 54.3546 16.0885 53.9842C15.492 53.6144 15.0823 53.0325 14.936 52.3455C14.4645 50.1336 12.6382 48.4689 10.3923 48.2036C9.6947 48.1211 9.07753 47.7673 8.65389 47.2073C8.23092 46.6467 8.05934 45.9557 8.17107 45.262C8.53086 43.0281 7.42953 40.8168 5.43038 39.7587C4.80989 39.4302 4.36164 38.8769 4.16944 38.2012C3.97724 37.5255 4.06702 36.8192 4.4215 36.2133C5.56472 34.2614 5.33661 31.8014 3.85421 30.0908C3.39465 29.5608 3.17652 28.8831 3.24169 28.1841C3.3062 27.4845 3.64471 26.858 4.19471 26.4211C5.96508 25.0132 6.64078 22.6363 5.8773 20.5074C5.63987 19.8464 5.68177 19.1361 5.99501 18.5069C6.30825 17.8785 6.84961 17.4169 7.51998 17.2074C9.67941 16.5351 11.1685 14.5632 11.225 12.3013C11.2429 11.599 11.5382 10.9519 12.0576 10.4784C12.577 10.0056 13.2534 9.77013 13.9497 9.81802C16.2116 9.97962 18.3071 8.66947 19.177 6.58187C19.4464 5.93344 19.9558 5.43664 20.6109 5.18326C21.2666 4.92854 21.9782 4.95315 22.614 5.25043C24.6651 6.20611 27.0918 5.75387 28.6574 4.1205C29.1429 3.61307 29.7979 3.33441 30.5002 3.33441C31.2025 3.33441 31.8576 3.61307 32.3431 4.1205C33.9093 5.75321 36.3367 6.20545 38.3858 5.25043C39.0236 4.95249 39.7338 4.92788 40.3896 5.18326C41.0447 5.43664 41.5541 5.93344 41.8241 6.58253C42.6933 8.67013 44.7896 9.97829 47.0507 9.81802C47.7457 9.7708 48.4228 10.0056 48.9428 10.4784C49.4622 10.9519 49.7575 11.599 49.7755 12.3013C49.832 14.5632 51.3211 16.5351 53.4798 17.2074C54.1509 17.4169 54.6922 17.8785 55.0055 18.5069C55.3187 19.1361 55.3606 19.8464 55.1232 20.5074C54.3597 22.6363 55.0354 25.0132 56.8058 26.4211C57.3558 26.858 57.6943 27.4845 57.7588 28.1841C57.8239 28.8831 57.6058 29.5608 57.1456 30.0915Z" fill="black" fill-opacity="0.2"/>
<path d="M15.3211 15.3193C6.95136 23.689 6.95136 37.3073 15.3211 45.6777C19.5062 49.8622 25.0029 51.9545 30.5002 51.9545C35.9976 51.9545 41.4942 49.8622 45.6794 45.6777C54.0491 37.3073 54.0491 23.689 45.6794 15.3193C37.3104 6.94897 23.6901 6.94897 15.3211 15.3193ZM43.7534 43.7517C36.4458 51.0586 24.556 51.0593 17.247 43.7517C9.93944 36.4434 9.93944 24.5529 17.247 17.2453C20.9009 13.5915 25.7005 11.7646 30.5002 11.7646C35.2999 11.7646 40.0996 13.5915 43.7534 17.2453C51.061 24.5529 51.061 36.4434 43.7534 43.7517Z" fill="#2566B0"/>
<path d="M15.3211 15.3193C6.95136 23.689 6.95136 37.3073 15.3211 45.6777C19.5062 49.8622 25.0029 51.9545 30.5002 51.9545C35.9976 51.9545 41.4942 49.8622 45.6794 45.6777C54.0491 37.3073 54.0491 23.689 45.6794 15.3193C37.3104 6.94897 23.6901 6.94897 15.3211 15.3193ZM43.7534 43.7517C36.4458 51.0586 24.556 51.0593 17.247 43.7517C9.93944 36.4434 9.93944 24.5529 17.247 17.2453C20.9009 13.5915 25.7005 11.7646 30.5002 11.7646C35.2999 11.7646 40.0996 13.5915 43.7534 17.2453C51.061 24.5529 51.061 36.4434 43.7534 43.7517Z" fill="black" fill-opacity="0.2"/>
<path d="M39.3947 21.6041C38.8626 21.072 38.0007 21.072 37.4687 21.6041L21.6058 37.4663C21.0738 37.9983 21.0738 38.8602 21.6058 39.3923C21.8718 39.6583 22.2203 39.7913 22.5688 39.7913C22.9173 39.7913 23.2658 39.6583 23.5318 39.3923L39.3947 23.5301C39.9267 22.998 39.9267 22.1361 39.3947 21.6041Z" fill="#2566B0"/>
<path d="M39.3947 21.6041C38.8626 21.072 38.0007 21.072 37.4687 21.6041L21.6058 37.4663C21.0738 37.9983 21.0738 38.8602 21.6058 39.3923C21.8718 39.6583 22.2203 39.7913 22.5688 39.7913C22.9173 39.7913 23.2658 39.6583 23.5318 39.3923L39.3947 23.5301C39.9267 22.998 39.9267 22.1361 39.3947 21.6041Z" fill="black" fill-opacity="0.2"/>
<path d="M24.4576 29.0261C25.6287 29.0261 26.7999 28.5805 27.691 27.6893C29.4727 25.9063 29.4734 23.0054 27.691 21.2224C25.9087 19.44 23.0084 19.44 21.2234 21.2224C19.4417 23.0054 19.4417 25.9063 21.2241 27.69C22.1159 28.5812 23.2871 29.0261 24.4576 29.0261ZM23.1501 23.149C23.5105 22.7879 23.984 22.6077 24.4582 22.6077C24.9311 22.6077 25.4046 22.7879 25.7644 23.1483C26.4853 23.8693 26.4853 25.0424 25.7651 25.7633C25.0441 26.4843 23.8703 26.4843 23.1507 25.7633C22.4298 25.0424 22.4298 23.8693 23.1501 23.149Z" fill="#2566B0"/>
<path d="M24.4576 29.0261C25.6287 29.0261 26.7999 28.5805 27.691 27.6893C29.4727 25.9063 29.4734 23.0054 27.691 21.2224C25.9087 19.44 23.0084 19.44 21.2234 21.2224C19.4417 23.0054 19.4417 25.9063 21.2241 27.69C22.1159 28.5812 23.2871 29.0261 24.4576 29.0261ZM23.1501 23.149C23.5105 22.7879 23.984 22.6077 24.4582 22.6077C24.9311 22.6077 25.4046 22.7879 25.7644 23.1483C26.4853 23.8693 26.4853 25.0424 25.7651 25.7633C25.0441 26.4843 23.8703 26.4843 23.1507 25.7633C22.4298 25.0424 22.4298 23.8693 23.1501 23.149Z" fill="black" fill-opacity="0.2"/>
<path d="M36.4804 31.9051C35.2587 31.9051 34.1101 32.3806 33.2469 33.2445C31.4639 35.0275 31.4639 37.9285 33.2469 39.7115C34.1101 40.5754 35.2587 41.0509 36.4804 41.0509C37.7014 41.0509 38.85 40.5754 39.7132 39.7115C41.4949 37.9285 41.4956 35.0275 39.7132 33.2445C38.85 32.3806 37.7014 31.9051 36.4804 31.9051ZM37.7872 37.7855C37.0663 38.5058 35.8938 38.5071 35.1729 37.7855C34.452 37.0646 34.452 35.8914 35.1729 35.1705C35.5334 34.8101 36.0069 34.6298 36.4804 34.6298C36.9532 34.6298 37.4268 34.8101 37.7866 35.1705C38.5075 35.8914 38.5075 37.0646 37.7872 37.7855Z" fill="#2566B0"/>
<path d="M36.4804 31.9051C35.2587 31.9051 34.1101 32.3806 33.2469 33.2445C31.4639 35.0275 31.4639 37.9285 33.2469 39.7115C34.1101 40.5754 35.2587 41.0509 36.4804 41.0509C37.7014 41.0509 38.85 40.5754 39.7132 39.7115C41.4949 37.9285 41.4956 35.0275 39.7132 33.2445C38.85 32.3806 37.7014 31.9051 36.4804 31.9051ZM37.7872 37.7855C37.0663 38.5058 35.8938 38.5071 35.1729 37.7855C34.452 37.0646 34.452 35.8914 35.1729 35.1705C35.5334 34.8101 36.0069 34.6298 36.4804 34.6298C36.9532 34.6298 37.4268 34.8101 37.7866 35.1705C38.5075 35.8914 38.5075 37.0646 37.7872 37.7855Z" fill="black" fill-opacity="0.2"/>
</svg>
