<svg width="55" height="31" viewBox="0 0 55 31" fill="none" xmlns="http://www.w3.org/2000/svg">
<path d="M26.3298 0.500977H36.4977H43.5441H53.712C54.4242 0.500977 55 1.07842 55 1.79054V29.2114C55 29.9235 54.4225 30.501 53.712 30.501H26.3281C25.6159 30.501 25.0401 29.9235 25.0401 29.2114V1.79054C25.0401 1.07842 25.6176 0.500977 26.3281 0.500977H26.3298ZM10.7757 8.67774C10.0635 8.67774 9.48601 8.1003 9.48601 7.38818C9.48601 6.67606 10.0635 6.09862 10.7757 6.09862H17.9921C18.7043 6.09862 19.2818 6.67606 19.2818 7.38818C19.2818 8.1003 18.7043 8.67774 17.9921 8.67774H10.7757ZM6.03273 16.4892C5.32052 16.4892 4.743 15.9118 4.743 15.1996C4.743 14.4875 5.32052 13.9101 6.03273 13.9101H17.9921C18.7043 13.9101 19.2818 14.4875 19.2818 15.1996C19.2818 15.9118 18.7043 16.4892 17.9921 16.4892H6.03273ZM1.28972 24.3006C0.577512 24.3006 0 23.7232 0 23.0111C0 22.299 0.577512 21.7215 1.28972 21.7215H17.9904C18.7026 21.7215 19.2801 22.299 19.2801 23.0111C19.2801 23.7232 18.7026 24.3006 17.9904 24.3006H1.28972ZM44.8321 3.0801V12.2535C44.8321 12.9656 44.2546 13.5431 43.5424 13.5431C43.1433 13.5431 42.7881 13.3629 42.5507 13.0784L40.0184 10.4555L37.4221 13.1458C36.9288 13.6575 36.1155 13.6727 35.6037 13.1811C35.341 12.9286 35.2097 12.5919 35.2097 12.2552H35.2063V3.08178H27.6162V27.9252H52.4206V3.08178H44.8304L44.8321 3.0801ZM37.7858 3.0801V9.06832L39.1294 7.67943C39.6412 7.18616 40.4544 7.203 40.9478 7.71478L42.256 9.06832V3.0801H37.7875H37.7858Z" fill="#2566B0"/>
<path d="M26.3298 0.500977H36.4977H43.5441H53.712C54.4242 0.500977 55 1.07842 55 1.79054V29.2114C55 29.9235 54.4225 30.501 53.712 30.501H26.3281C25.6159 30.501 25.0401 29.9235 25.0401 29.2114V1.79054C25.0401 1.07842 25.6176 0.500977 26.3281 0.500977H26.3298ZM10.7757 8.67774C10.0635 8.67774 9.48601 8.1003 9.48601 7.38818C9.48601 6.67606 10.0635 6.09862 10.7757 6.09862H17.9921C18.7043 6.09862 19.2818 6.67606 19.2818 7.38818C19.2818 8.1003 18.7043 8.67774 17.9921 8.67774H10.7757ZM6.03273 16.4892C5.32052 16.4892 4.743 15.9118 4.743 15.1996C4.743 14.4875 5.32052 13.9101 6.03273 13.9101H17.9921C18.7043 13.9101 19.2818 14.4875 19.2818 15.1996C19.2818 15.9118 18.7043 16.4892 17.9921 16.4892H6.03273ZM1.28972 24.3006C0.577512 24.3006 0 23.7232 0 23.0111C0 22.299 0.577512 21.7215 1.28972 21.7215H17.9904C18.7026 21.7215 19.2801 22.299 19.2801 23.0111C19.2801 23.7232 18.7026 24.3006 17.9904 24.3006H1.28972ZM44.8321 3.0801V12.2535C44.8321 12.9656 44.2546 13.5431 43.5424 13.5431C43.1433 13.5431 42.7881 13.3629 42.5507 13.0784L40.0184 10.4555L37.4221 13.1458C36.9288 13.6575 36.1155 13.6727 35.6037 13.1811C35.341 12.9286 35.2097 12.5919 35.2097 12.2552H35.2063V3.08178H27.6162V27.9252H52.4206V3.08178H44.8304L44.8321 3.0801ZM37.7858 3.0801V9.06832L39.1294 7.67943C39.6412 7.18616 40.4544 7.203 40.9478 7.71478L42.256 9.06832V3.0801H37.7875H37.7858Z" fill="black" fill-opacity="0.2"/>
</svg>
